<svg width="30" height="30" viewBox="0 0 30 30" fill="none" xmlns="http://www.w3.org/2000/svg">
<path d="M15.4906 0.000107144C15.3588 0.000107144 15.2518 0.120017 15.2518 0.267757V6.04869C15.2518 6.23745 15.3883 6.39042 15.5565 6.39042H19.9122C20.1351 6.39042 20.2826 6.13093 20.1884 5.90451L17.7982 0.154646C17.7589 0.0602683 17.6747 0 17.5818 0L15.4906 0.000107144ZM6.71126 0.000107144C6.6489 0.000107144 6.58906 0.0275209 6.54448 0.0762809L1.31158 5.80472C1.11613 6.01859 1.25111 6.39069 1.52441 6.39069H7.11838C7.23682 6.39069 7.34439 6.31368 7.39461 6.19335L9.8108 0.38134C9.88467 0.203884 9.76895 0.000476789 9.59421 0.000476789L6.71126 0.000107144ZM11.5838 0.000107144C11.4911 0.000107144 11.4065 0.0603755 11.3674 0.154753L8.9774 5.90462C8.88323 6.13104 9.03076 6.39053 9.25363 6.39053H13.6095C13.7777 6.39053 13.9142 6.23756 13.9142 6.0488V0.267864C13.9142 0.119915 13.8073 0.000214287 13.6754 0.000214287L11.5838 0.000107144ZM19.5708 0.000107144C19.3961 0.000107144 19.2808 0.203514 19.3542 0.380971L21.7704 6.19298C21.8204 6.31352 21.928 6.39032 22.0466 6.39032H27.6406C27.9137 6.39032 28.0491 6.01824 27.8534 5.80419L22.621 0.0762863C22.5762 0.0275274 22.5163 0.000112501 22.4542 0.000112501L19.5708 0.000107144ZM0.64013 7.3732C0.288147 7.3732 0 7.66136 0 8.01333V10.5681C0 10.92 0.288158 11.2082 0.64013 11.2082H28.4862C28.8382 11.2082 29.1264 10.92 29.1264 10.5681V8.01333C29.1264 7.66135 28.8382 7.3732 28.4862 7.3732H0.64013ZM1.26017 12.1342C0.844153 12.1342 0.507004 12.5167 0.507004 12.9886V26.5316C0.507004 27.0035 0.844132 27.3858 1.26017 27.3858H18.8173C19.2331 27.3858 19.5704 27.0034 19.5704 26.5316V19.346C19.5704 17.0993 21.1232 15.1967 23.1029 15.1389C25.1505 15.0793 26.8267 16.944 26.8267 19.2533V26.5316C26.8267 27.0035 27.1639 27.3858 27.5799 27.3858H27.9589C28.3747 27.3858 28.7118 27.0034 28.7118 26.5316V12.9886C28.7118 12.5167 28.3747 12.1342 27.9589 12.1342H1.26017ZM3.09377 14.1467H16.9405C17.2565 14.1467 17.5124 14.5164 17.5124 14.9722V24.4555C17.5124 24.9115 17.2563 25.2812 16.9405 25.2812H3.09377C2.77779 25.2812 2.52163 24.9115 2.52163 24.4555V14.9722C2.52163 14.5162 2.77776 14.1467 3.09377 14.1467ZM1.14719 28.2661C0.795204 28.2661 0.507058 28.5542 0.507058 28.9062V29.3599C0.507058 29.7119 0.795215 30 1.14719 30H28.0713C28.4233 30 28.7114 29.7118 28.7114 29.3599V28.9062C28.7114 28.5542 28.4233 28.2661 28.0713 28.2661H1.14719Z" fill="#087EEA"/>
</svg>
