<svg width="20" height="16" viewBox="0 0 20 16" fill="none" xmlns="http://www.w3.org/2000/svg">
<g clip-path="url(#clip0_201_5319)">
<path d="M0 0.5H20V15.5H0V0.5Z" fill="#74ACDF"/>
<path d="M0 5.5H20V10.5H0V5.5Z" fill="white"/>
<path d="M9.90234 8.039L10.7573 9.899C10.7573 9.899 10.7723 9.935 10.7963 9.926C10.8203 9.914 10.8053 9.881 10.8053 9.881L10.0943 7.961M10.0733 8.684C10.0613 8.966 10.2353 9.122 10.2143 9.374C10.1903 9.629 10.3283 9.77 10.3643 9.869C10.3943 9.968 10.3253 10.025 10.3553 10.04C10.3853 10.055 10.4453 9.977 10.4273 9.836C10.4063 9.698 10.3013 9.656 10.3253 9.347C10.3493 9.038 10.1993 8.966 10.2353 8.687" fill="#F6B40E"/>
<path d="M9.90234 8.039L10.7573 9.899C10.7573 9.899 10.7723 9.935 10.7963 9.926C10.8203 9.914 10.8053 9.881 10.8053 9.881L10.0943 7.961M10.0733 8.684C10.0613 8.966 10.2353 9.122 10.2143 9.374C10.1903 9.629 10.3283 9.77 10.3643 9.869C10.3943 9.968 10.3253 10.025 10.3553 10.04C10.3853 10.055 10.4453 9.977 10.4273 9.836C10.4063 9.698 10.3013 9.656 10.3253 9.347C10.3493 9.038 10.1993 8.966 10.2353 8.687" stroke="#85340A" stroke-width="1.056"/>
<path d="M10.1262 8.73199C10.1412 9.00199 10.2942 9.122 10.2642 9.371C10.3302 9.176 10.1712 9.02299 10.1802 8.73499M9.94922 8.02099L10.5342 9.29899L10.0452 7.98199" fill="#85340A"/>
<path d="M9.99844 8.83437C10.4593 8.83437 10.8328 8.46081 10.8328 7.99999C10.8328 7.53918 10.4593 7.16562 9.99844 7.16562C9.53763 7.16562 9.16406 7.53918 9.16406 7.99999C9.16406 8.46081 9.53763 8.83437 9.99844 8.83437Z" fill="#F6B40E" stroke="#85340A" stroke-width="1.4"/>
<path d="M10.2844 7.82187C10.2281 7.82187 10.1719 7.84687 10.1406 7.89687C10.2031 7.95624 10.3469 7.95937 10.4438 7.89062C10.4233 7.86889 10.3986 7.85158 10.3712 7.83976C10.3438 7.82794 10.3142 7.82185 10.2844 7.82187ZM10.2844 7.83437C10.3375 7.83437 10.3906 7.85937 10.3969 7.88437C10.3344 7.95624 10.2312 7.94687 10.1656 7.89687C10.1782 7.87696 10.1958 7.8607 10.2166 7.84973C10.2375 7.83877 10.2608 7.83347 10.2844 7.83437Z" fill="#843511"/>
<path d="M9.87656 8.11561C9.86653 8.11662 9.85693 8.12017 9.84865 8.12592C9.84037 8.13166 9.83369 8.13942 9.82924 8.14846C9.82479 8.15751 9.82272 8.16753 9.82321 8.1776C9.8237 8.18766 9.82675 8.19744 9.83206 8.206C9.83738 8.21456 9.84479 8.22163 9.85359 8.22654C9.86239 8.23145 9.87229 8.23404 9.88237 8.23406C9.89245 8.23409 9.90237 8.23155 9.91119 8.22668C9.92002 8.22181 9.92746 8.21478 9.93281 8.20624C9.95342 8.21903 9.97731 8.22554 10.0016 8.22499H10.0078C10.0331 8.22637 10.0583 8.21981 10.0797 8.20624C10.0855 8.21416 10.0931 8.22054 10.1019 8.22479C10.1108 8.22904 10.1205 8.23104 10.1303 8.2306C10.1401 8.23017 10.1497 8.22731 10.1581 8.22229C10.1665 8.21727 10.1736 8.21024 10.1786 8.20183C10.1836 8.19343 10.1865 8.1839 10.187 8.1741C10.1875 8.16431 10.1855 8.15455 10.1813 8.1457C10.177 8.13685 10.1707 8.12919 10.1628 8.12339C10.1549 8.1176 10.1456 8.11385 10.1359 8.11249C10.1516 8.12186 10.1609 8.13436 10.1609 8.15311C10.1609 8.17186 10.1453 8.19061 10.1234 8.19061C10.1135 8.19061 10.104 8.18666 10.0969 8.17963C10.0899 8.1726 10.0859 8.16306 10.0859 8.15311C10.0785 8.16854 10.067 8.18165 10.0527 8.19101C10.0384 8.20038 10.0218 8.20564 10.0047 8.20624C9.98813 8.20509 9.97217 8.19957 9.95844 8.19024C9.94472 8.1809 9.93372 8.16809 9.92656 8.15311C9.92658 8.15831 9.92552 8.16346 9.92344 8.16822C9.92136 8.17299 9.91832 8.17727 9.9145 8.1808C9.91068 8.18432 9.90617 8.18702 9.90125 8.18871C9.89633 8.1904 9.89112 8.19105 9.88594 8.19061C9.86719 8.19061 9.84844 8.17186 9.84844 8.15311C9.84844 8.13436 9.85781 8.12186 9.87344 8.11561H9.87656ZM9.93906 8.28749C9.87344 8.28749 9.84531 8.34374 9.78906 8.38124C9.82031 8.36874 9.84844 8.34374 9.89219 8.31874C9.93594 8.29374 9.97656 8.32499 10.0016 8.32499C10.0266 8.32499 10.0641 8.29374 10.1109 8.31874C10.1547 8.34374 10.1828 8.36874 10.2141 8.38124C10.1547 8.34374 10.1297 8.28749 10.0641 8.28749C10.0422 8.28969 10.021 8.29605 10.0016 8.30624C9.98234 8.29496 9.96112 8.28753 9.93906 8.28436V8.28749Z" fill="#85340A"/>
<path d="M9.91094 8.36251C9.88594 8.36251 9.85469 8.36876 9.80469 8.38126C9.92031 8.35626 9.94531 8.39688 9.99844 8.39688C10.0484 8.39688 10.0734 8.35626 10.1891 8.38126C10.0641 8.34376 10.0359 8.36876 9.99844 8.36876C9.97344 8.36876 9.95469 8.35938 9.91094 8.36251Z" fill="#85340A"/>
<path d="M9.81406 8.38124H9.78906C9.92344 8.39686 9.86094 8.47499 10.0016 8.47499C10.1422 8.47499 10.0797 8.39686 10.2141 8.38124C10.0734 8.36874 10.1172 8.45311 10.0016 8.45311C9.89219 8.45311 9.92656 8.38124 9.81406 8.38124ZM10.1172 8.59061C10.1172 8.55995 10.105 8.53054 10.0833 8.50885C10.0616 8.48717 10.0322 8.47499 10.0016 8.47499C9.9709 8.47499 9.94149 8.48717 9.9198 8.50885C9.89812 8.53054 9.88594 8.55995 9.88594 8.59061C9.89204 8.56453 9.90679 8.54127 9.92778 8.52463C9.94877 8.50798 9.97477 8.49893 10.0016 8.49893C10.0284 8.49893 10.0544 8.50798 10.0753 8.52463C10.0963 8.54127 10.1111 8.56453 10.1172 8.59061Z" fill="#85340A"/>
<path d="M9.48047 7.82187C9.62734 7.69375 9.81484 7.67187 9.91797 7.76875C9.94217 7.8009 9.95825 7.83842 9.96484 7.87812C9.97734 7.95 9.95547 8.02812 9.89922 8.10937L9.92422 8.12187C9.97329 8.03231 9.9909 7.92887 9.97422 7.82812C9.97013 7.80365 9.96385 7.7796 9.95547 7.75625C9.81484 7.64062 9.62109 7.63125 9.48047 7.81875V7.82187Z" fill="#85340A"/>
<path d="M9.71407 7.78125C9.79844 7.78125 9.81719 7.80312 9.85469 7.83437C9.89219 7.86562 9.91407 7.85937 9.91719 7.86562C9.92657 7.87187 9.91719 7.89063 9.90782 7.88438C9.89219 7.87813 9.86719 7.86562 9.82969 7.83437C9.79219 7.80312 9.75157 7.80312 9.71407 7.80312C9.59844 7.80312 9.53594 7.89688 9.52032 7.89062C9.51094 7.88437 9.58594 7.78125 9.71407 7.78125Z" fill="#85340A"/>
<path d="M9.71562 7.94376C9.74842 7.94376 9.775 7.91718 9.775 7.88439C9.775 7.8516 9.74842 7.82501 9.71562 7.82501C9.68283 7.82501 9.65625 7.8516 9.65625 7.88439C9.65625 7.91718 9.68283 7.94376 9.71562 7.94376Z" fill="#85340A"/>
<path d="M9.55859 7.92186C9.66797 8.00624 9.77734 7.99999 9.83984 7.96249C9.90234 7.92186 9.90234 7.90936 9.88984 7.90936C9.87734 7.90936 9.86484 7.92186 9.81484 7.94999C9.76172 7.97499 9.68672 7.97499 9.55859 7.92186Z" fill="#85340A"/>
</g>
<defs>
<clipPath id="clip0_201_5319">
<rect width="20" height="15" fill="white" transform="translate(0 0.5)"/>
</clipPath>
</defs>
</svg>
