<svg width="30" height="30" viewBox="0 0 30 30" fill="none" xmlns="http://www.w3.org/2000/svg">
<path d="M9.2918 30H20.6928C21.8737 29.9967 23.0173 29.5866 23.931 28.8387C24.8447 28.0908 25.4728 27.0507 25.709 25.8937L27.4375 17.2793C27.2893 17.2935 27.1412 17.3006 26.986 17.3006H2.99872C2.84352 17.3006 2.69541 17.2935 2.5473 17.2793L4.27575 25.8937C4.51197 27.0507 5.14009 28.0908 6.05378 28.8387C6.96747 29.5866 8.11108 29.9966 9.29194 30H9.2918ZM18.3434 21.3571C18.3434 21.042 18.5114 20.751 18.7842 20.5934C19.0571 20.4358 19.3934 20.4358 19.6663 20.5934C19.9391 20.751 20.1071 21.042 20.1071 21.3571V24.1793C20.1071 24.4942 19.9391 24.7854 19.6663 24.943C19.3934 25.1006 19.0571 25.1006 18.7842 24.943C18.5114 24.7854 18.3434 24.4942 18.3434 24.1793V21.3571ZM14.1103 20.6515C14.1103 20.3366 14.2783 20.0454 14.5511 19.8878C14.8239 19.7302 15.1603 19.7302 15.4332 19.8878C15.706 20.0454 15.874 20.3366 15.874 20.6515V24.8847C15.874 25.1998 15.706 25.491 15.4332 25.6484C15.1603 25.8059 14.824 25.8059 14.5511 25.6484C14.2783 25.491 14.1103 25.1998 14.1103 24.8847V20.6515ZM9.87718 21.3571C9.87718 21.042 10.0451 20.751 10.318 20.5934C10.5908 20.4358 10.9272 20.4358 11.2 20.5934C11.4729 20.751 11.6408 21.042 11.6408 21.3571V24.1793C11.6408 24.4942 11.4729 24.7854 11.2 24.943C10.9272 25.1006 10.5908 25.1006 10.318 24.943C10.0451 24.7854 9.87718 24.4942 9.87718 24.1793V21.3571Z" fill="#97CA01"/>
<path d="M26.9863 8.48121H25.3417L19.958 0.408035C19.8306 0.208189 19.6282 0.0678726 19.3962 0.0189739C19.1643 -0.0299241 18.9226 0.0166117 18.7253 0.147951C18.5281 0.279529 18.392 0.484805 18.3478 0.717724C18.3037 0.950407 18.3552 1.19135 18.4905 1.38577L23.2216 8.48109H6.76259L11.4897 1.38577H11.4894C11.625 1.19136 11.6763 0.950413 11.6321 0.717724C11.5879 0.484805 11.4519 0.279529 11.2549 0.147951C11.0576 0.0166095 10.8157 -0.0299247 10.5837 0.0189739C10.3518 0.067872 10.1493 0.208189 10.022 0.408035L4.64319 8.48121H2.99863C2.20352 8.48215 1.44144 8.79846 0.87922 9.36043C0.317243 9.92264 0.000967572 10.6847 0 11.4798V12.8908C0.000944894 13.6857 0.317249 14.448 0.87922 15.01C1.44143 15.5722 2.20346 15.8882 2.99863 15.8892H26.9859C27.781 15.8882 28.5431 15.5722 29.1053 15.01C29.6673 14.448 29.9836 13.6857 29.9846 12.8908V11.4798C29.9836 10.6847 29.6673 9.92265 29.1053 9.36043C28.5431 8.79845 27.7811 8.48218 26.9859 8.48121H26.9863Z" fill="#97CA01"/>
</svg>
