<svg width="36" height="36" viewBox="0 0 36 36" fill="none" xmlns="http://www.w3.org/2000/svg">
<path d="M34.8921 22.2335C32.5548 31.6084 23.0595 37.3139 13.6834 34.9761C4.31116 32.6387 -1.39434 23.1429 0.944074 13.7685C3.2803 4.39239 12.7756 -1.31364 22.149 1.02368C31.5245 3.361 37.2294 12.8579 34.8921 22.2335Z" fill="#F7931A"/>
<path d="M24.7879 13.4258C24.5217 11.0864 22.4852 10.3361 19.9274 10.157L19.8706 6.90658L17.8921 6.94132L17.9474 10.106C17.4273 10.1152 16.8958 10.1348 16.3678 10.1545L16.3125 6.96882L14.3351 7.00328L14.3911 10.2528C13.9629 10.269 13.5423 10.2843 13.1322 10.2917L13.1317 10.2816L10.4029 10.3283L10.4403 12.4414C10.4403 12.4414 11.9009 12.3881 11.877 12.4154C12.6784 12.4016 12.9474 12.8623 13.0302 13.2625L13.0951 16.9654C13.1504 16.9647 13.2226 16.9657 13.3044 16.9755C13.2385 16.9768 13.168 16.9775 13.0954 16.9794L13.1855 22.1668C13.1547 22.4196 13.0135 22.8243 12.4536 22.8351C12.4793 22.8571 11.0154 22.8598 11.0154 22.8598L10.6635 25.2295L13.2382 25.1845C13.7174 25.1767 14.189 25.1766 14.6518 25.1714L14.7101 28.4588L16.6864 28.4246L16.6296 25.172C17.1724 25.1737 17.6977 25.1689 18.2104 25.1595L18.266 28.3971L20.2445 28.3624L20.1878 25.0808C23.5107 24.8319 25.8242 23.9533 26.0587 20.8247C26.2482 18.3054 25.0455 17.2038 23.1494 16.7834C24.2863 16.1792 24.9855 15.1376 24.7879 13.4258ZM22.1426 20.5033C22.1865 22.96 17.9751 22.754 16.6343 22.7787L16.5588 18.4231C17.9001 18.4 22.098 17.941 22.1426 20.5033ZM21.1151 14.3742C21.1535 16.6093 17.6408 16.4097 16.5239 16.4293L16.4551 12.479C17.572 12.4594 21.0742 12.043 21.1151 14.3742Z" fill="white"/>
</svg>
