<svg width="20" height="16" viewBox="0 0 20 16" fill="none" xmlns="http://www.w3.org/2000/svg">
<g clip-path="url(#clip0_201_5679)">
<path d="M0 0.5H20V15.5H0V0.5Z" fill="#F7E017"/>
<path d="M0 1.54063V8.20938L20 11.3344V7.79063L0 1.54063Z" fill="white"/>
<path d="M0 5.08437V8.20937L20 14.4594V11.3344L0 5.08437Z" fill="black"/>
<path d="M9.4928 12.3688C9.12713 12.3284 8.77531 12.2059 8.46363 12.0105C8.41363 11.9771 8.36779 11.948 8.35946 11.948C8.35113 11.948 8.34696 11.9876 8.34696 12.0334C8.34696 12.1667 8.29279 12.2334 8.15946 12.2688C8.03029 12.3021 7.83446 12.2355 7.67612 12.1021C7.52598 11.9737 7.35073 11.8779 7.16154 11.8209C6.96445 11.774 6.75701 11.8006 6.5782 11.8959C6.56053 11.9083 6.54077 11.9175 6.51987 11.923C6.49695 11.923 6.49903 11.7792 6.52403 11.7355C6.55529 11.673 6.63028 11.6146 6.71987 11.5834C6.7657 11.5667 6.8032 11.5459 6.8032 11.5355C6.8032 11.5271 6.78654 11.4938 6.76779 11.4605C6.70737 11.3542 6.73237 11.2521 6.83862 11.1709C6.94695 11.0876 7.13029 11.0751 7.29071 11.1355C7.31781 11.147 7.34565 11.1568 7.37404 11.1646C7.39487 11.1646 7.38237 11.1334 7.32404 11.048C7.25737 10.9501 7.24279 10.9021 7.25112 10.7834C7.25685 10.7107 7.28832 10.6424 7.33987 10.5909C7.39143 10.5393 7.45969 10.5079 7.53237 10.5021C7.65321 10.4938 7.72821 10.5355 7.90737 10.7042C8.38858 11.1886 9.0206 11.4943 9.69905 11.5709C9.87197 11.5917 10.2157 11.5813 10.4178 11.5501C11.058 11.4432 11.6515 11.1472 12.122 10.7001C12.2553 10.5751 12.3178 10.5417 12.4282 10.5417C12.522 10.5417 12.5886 10.5709 12.6574 10.6459C12.7199 10.7146 12.7407 10.7792 12.7324 10.8855C12.7282 10.9521 12.7178 10.9834 12.6782 11.0501C12.6199 11.1438 12.6303 11.1542 12.7449 11.1084C12.9032 11.0459 13.097 11.0751 13.2012 11.1751C13.2928 11.2626 13.3012 11.3501 13.2303 11.4667C13.2032 11.5105 13.1824 11.5501 13.1824 11.5584C13.1824 11.5709 13.2032 11.5751 13.297 11.5917C13.422 11.6126 13.4949 11.7042 13.4949 11.8459C13.4949 11.8876 13.4887 11.923 13.4824 11.923C13.4762 11.923 13.4282 11.9042 13.3782 11.8834C13.2324 11.823 13.1491 11.8084 12.9782 11.8105C12.8491 11.8105 12.8053 11.8167 12.7157 11.8459C12.5658 11.898 12.4277 11.9795 12.3095 12.0855C12.1761 12.2042 12.0928 12.2417 11.9636 12.2396C11.8428 12.2396 11.7616 12.2042 11.7178 12.1355C11.6949 12.098 11.6907 12.0771 11.697 11.9938C11.7011 11.9396 11.6991 11.8959 11.697 11.8959C11.6907 11.8959 11.6449 11.9251 11.5928 11.9605C11.4739 12.0457 11.3443 12.1151 11.2074 12.1667C10.6591 12.3653 10.0723 12.4345 9.4928 12.3688Z" fill="#CF1126"/>
<path d="M9.71406 11.4417C9.31106 11.4047 8.92063 11.282 8.56889 11.0819C8.21714 10.8817 7.9122 10.6088 7.67446 10.2813C7.16613 9.58963 7.00779 8.67504 7.16196 7.83962C7.24529 7.45837 7.41196 7.07712 7.69321 6.80628C7.46135 7.28746 7.39753 7.83248 7.51196 8.35421C7.69946 9.39171 8.57447 10.2688 9.62239 10.4209C10.0391 10.5396 10.4661 10.4126 10.862 10.2855C11.737 9.97713 12.4037 9.14796 12.4828 8.22087C12.5516 7.72087 12.4766 7.19795 12.2495 6.7417C12.3787 6.81045 12.5412 7.0792 12.637 7.25837C12.9703 7.9042 12.9849 8.67713 12.7891 9.36671C12.5224 10.2438 11.8516 11.0126 10.9661 11.2917C10.5622 11.4179 10.1385 11.4688 9.71614 11.4417H9.71406Z" fill="#CF1126"/>
<path d="M5.66423 10.2896C5.61214 10.2813 5.55381 10.3334 5.57464 10.3875C5.61214 10.4417 5.67881 10.4709 5.73714 10.4959C5.89084 10.5559 6.05582 10.5815 6.22048 10.5709C6.34128 10.5709 6.46115 10.5498 6.57465 10.5084C6.63715 10.4875 6.71632 10.4667 6.74132 10.3959C6.7684 10.3521 6.72048 10.3063 6.67673 10.3146C6.61423 10.3292 6.55173 10.3563 6.48923 10.375C6.35185 10.4139 6.20864 10.4281 6.06631 10.4167C5.96273 10.4016 5.86175 10.3722 5.76631 10.3292C5.73298 10.3146 5.70173 10.2938 5.66423 10.2896Z" fill="#CF1126"/>
<path d="M5.72285 10.073C5.67077 10.0646 5.62493 10.1271 5.64577 10.1771C5.68743 10.2355 5.75618 10.2667 5.82077 10.2938C5.93344 10.338 6.05399 10.3586 6.17494 10.3542H6.20619C6.30905 10.3547 6.41099 10.3348 6.50619 10.2959C6.56244 10.273 6.63327 10.25 6.65827 10.1875C6.67702 10.1521 6.66244 10.1021 6.61661 10.098C6.57911 10.098 6.54369 10.123 6.50619 10.1334C6.37047 10.1894 6.22334 10.2123 6.07702 10.2C5.98535 10.1896 5.89993 10.1563 5.8166 10.1167C5.78535 10.1021 5.75827 10.0792 5.72285 10.075V10.073Z" fill="#CF1126"/>
<path d="M5.79666 9.86672C5.75083 9.86047 5.71958 9.91255 5.72791 9.95213C5.73416 9.98963 5.76541 10.0146 5.79249 10.0355C5.90593 10.114 6.04218 10.1529 6.17999 10.1459H6.21333C6.29996 10.1452 6.38536 10.1253 6.46333 10.0876C6.51541 10.0667 6.57583 10.0396 6.59458 9.97922C6.60291 9.95213 6.60708 9.91255 6.57583 9.89588C6.5425 9.87922 6.51125 9.9063 6.48208 9.91672C6.38243 9.96908 6.27173 9.99693 6.15916 9.99797C6.06254 9.99411 5.96854 9.96541 5.88624 9.91463C5.85499 9.90005 5.82999 9.87297 5.79666 9.86672Z" fill="#CF1126"/>
<path d="M5.03043 6.80628C4.96376 6.87503 5.01584 7.00003 5.00959 7.08753C5.04709 7.36253 5.09084 7.63962 5.19293 7.90004C5.31793 8.15004 5.5846 8.28546 5.74501 8.50837C5.80335 8.61462 5.78251 8.74379 5.79501 8.86254C5.80335 9.18129 5.80126 9.50213 5.79501 9.82088C5.94085 9.89588 6.0971 9.96671 6.26377 9.93963C6.36168 9.91671 6.54502 9.90213 6.56585 9.80421L6.54502 8.14796C6.48877 7.9792 6.31585 7.8917 6.18877 7.78337C6.08255 7.67851 5.9837 7.56644 5.89293 7.44795C5.83877 7.3542 5.62418 7.32295 5.70126 7.48129C5.7471 7.62087 5.86168 7.72295 5.89085 7.86879C5.8971 7.95004 5.99502 8.09795 5.91168 8.14379C5.86036 8.05324 5.78257 7.98055 5.68876 7.93545C5.5971 7.8667 5.44501 7.83754 5.41168 7.7167C5.38166 7.54483 5.302 7.3855 5.18251 7.25837C5.21376 7.1042 5.18251 6.91045 5.04918 6.81045L5.03043 6.80628Z" fill="#CF1126"/>
<path d="M5.23751 6.83753C5.17501 6.84795 5.17917 6.92503 5.20626 6.9667C5.23714 7.05637 5.24502 7.15236 5.22917 7.24587C5.34342 7.37308 5.4199 7.52964 5.45001 7.69795C5.45001 7.76045 5.51667 7.78129 5.56042 7.81254C5.66251 7.87712 5.77501 7.92504 5.86668 8.00629C5.88543 8.02712 5.90001 8.04795 5.88751 8.00629C5.87293 7.95212 5.86668 7.89379 5.82501 7.8542C5.76668 7.7917 5.69584 7.73754 5.61251 7.72087C5.60626 7.63337 5.56459 7.5542 5.52709 7.4792C5.48542 7.40628 5.44167 7.3292 5.37084 7.28337C5.37084 7.15628 5.37084 7.02295 5.31667 6.9042C5.30001 6.87503 5.27501 6.83962 5.23751 6.83753Z" fill="#CF1126"/>
<path d="M5.40992 6.88753C5.36825 6.90003 5.37658 6.9542 5.38908 6.98545C5.40728 7.07591 5.41428 7.16828 5.40992 7.26045C5.49117 7.32295 5.53908 7.41462 5.58492 7.50212C5.61408 7.56045 5.63908 7.62295 5.6495 7.68754C5.71408 7.70837 5.77033 7.75004 5.82033 7.7917C5.7995 7.73337 5.75783 7.68753 5.72658 7.63128C5.69533 7.57503 5.66408 7.51462 5.6495 7.45003C5.587 7.38545 5.55367 7.2917 5.56617 7.20003C5.57033 7.10212 5.53908 7.00003 5.47242 6.92503C5.45575 6.90836 5.43492 6.88961 5.40992 6.88753Z" fill="#CF1126"/>
<path d="M5.60576 6.9167C5.58076 6.92087 5.56826 6.9417 5.55576 6.96045C5.54951 6.9792 5.57243 6.99795 5.57659 7.01878C5.60381 7.08755 5.61383 7.16193 5.60576 7.23545C5.60368 7.28753 5.62243 7.33962 5.64743 7.38128C5.65211 7.36524 5.66162 7.35104 5.67467 7.3406C5.68772 7.33016 5.70367 7.324 5.72035 7.32295C5.73076 7.32295 5.74951 7.32712 5.74118 7.30837C5.73285 7.20837 5.71826 7.10837 5.68285 7.0167C5.67258 6.98059 5.65237 6.94811 5.62451 6.92295C5.62034 6.91878 5.61201 6.91462 5.60368 6.9167H5.60576Z" fill="#CF1126"/>
<path d="M9.90808 10.4167C9.76736 10.4015 9.63393 10.3463 9.52356 10.2577C9.41318 10.1691 9.33045 10.0508 9.28516 9.91672C9.29141 9.87088 9.34766 9.94172 9.37474 9.94797C9.42555 9.97825 9.4825 9.99676 9.54141 10.0021C9.61432 10.0334 9.66016 10.1063 9.73099 10.1459C9.76433 10.1709 9.88099 10.2209 9.85808 10.1396C9.83099 10.098 9.81224 10.0438 9.83724 9.9938C9.87474 9.90838 9.93516 9.83338 9.99766 9.76047C10.0414 9.74588 10.0727 9.83547 10.1039 9.86463C10.1477 9.93338 10.2018 10.0167 10.1747 10.1001C10.1497 10.1313 10.1331 10.2251 10.2018 10.1959C10.2852 10.1584 10.3539 10.0959 10.4227 10.0376C10.4852 9.99588 10.5622 9.9938 10.6247 9.95422C10.656 9.94797 10.7164 9.88963 10.7289 9.92088C10.6916 10.014 10.6395 10.1005 10.5747 10.1771C10.4746 10.2961 10.3361 10.3764 10.1831 10.4042C10.0914 10.4209 9.99974 10.4251 9.90808 10.4167Z" fill="#CF1126"/>
<path d="M10.2381 10.0876C10.2444 10.0313 10.2319 9.97505 10.2027 9.92088C10.159 9.83338 10.0985 9.75422 10.036 9.67296C9.97771 9.63963 9.94646 9.75005 9.90896 9.7813C9.84854 9.87088 9.77354 9.96255 9.76937 10.073C9.73604 10.1251 9.67354 10.0313 9.64646 10.0001C9.59094 9.92868 9.56153 9.84045 9.56312 9.75005C9.55809 9.60334 9.58363 9.45719 9.63812 9.32088C9.67979 9.20421 9.74437 9.09171 9.73812 8.96671C9.74229 8.86879 9.72354 8.76463 9.64646 8.70004C9.57146 8.64171 9.69437 8.62921 9.73187 8.65838C9.79854 8.66463 9.83396 8.77296 9.89437 8.74588C9.91729 8.68963 9.92354 8.62088 9.97354 8.57713C10.0215 8.51046 10.0715 8.60421 10.0881 8.65004C10.1235 8.68754 10.0881 8.78546 10.1423 8.78754C10.209 8.73963 10.2569 8.66254 10.3423 8.64379C10.3777 8.62296 10.436 8.64379 10.3902 8.68129C10.3277 8.74171 10.2735 8.81463 10.261 8.90421C10.2423 9.01463 10.2694 9.12713 10.3173 9.22505C10.411 9.42088 10.484 9.64171 10.436 9.86047C10.4152 9.9563 10.3485 10.0396 10.2694 10.0959C10.259 10.1021 10.2423 10.1021 10.2381 10.0876Z" fill="#CF1126"/>
<path d="M10.1372 8.61671C10.1092 8.56034 10.0694 8.51061 10.0206 8.47087C9.97057 8.47087 9.93932 8.53337 9.90599 8.56671C9.88307 8.61046 9.85391 8.68337 9.79557 8.62712C9.70182 8.57296 9.68724 8.45421 9.68724 8.35629C9.68099 8.19795 9.74557 8.05004 9.80182 7.90629C9.83724 7.8167 9.82891 7.71462 9.80599 7.62295C9.77891 7.51878 9.69349 7.44378 9.62891 7.36045C9.63307 7.3292 9.71641 7.34587 9.74766 7.35212C9.81849 7.37087 9.86016 7.43128 9.91224 7.47712C9.94974 7.46462 9.93307 7.38962 9.95182 7.3542C9.95182 7.3042 10.0185 7.23962 10.0456 7.31045C10.0872 7.35628 10.0456 7.44587 10.0977 7.47295C10.1477 7.4542 10.1727 7.40003 10.2185 7.37503C10.2424 7.35954 10.2699 7.35045 10.2984 7.34863C10.3268 7.34681 10.3553 7.35231 10.381 7.36462C10.3997 7.41045 10.3268 7.44795 10.306 7.48962C10.2643 7.54156 10.2355 7.60255 10.2217 7.66769C10.208 7.73282 10.2097 7.80028 10.2268 7.86462C10.256 7.96879 10.306 8.06254 10.3247 8.1667C10.3472 8.2855 10.3437 8.40776 10.3143 8.52504C10.2956 8.59587 10.2352 8.64171 10.1727 8.67087C10.156 8.65629 10.1477 8.63546 10.1372 8.61671Z" fill="#CF1126"/>
<path d="M9.82518 7.31045C9.75434 7.25837 9.73143 7.21045 9.73143 7.11253C9.73143 7.06462 9.74184 7.03753 9.77309 6.9917C9.82309 6.92503 9.81476 6.9042 9.74601 6.92295C9.63559 6.9542 9.58351 6.92712 9.57934 6.83337C9.57934 6.78753 9.58768 6.76878 9.64809 6.69378C9.69809 6.63545 9.71684 6.6042 9.70643 6.59378C9.69601 6.58545 9.63768 6.63545 9.51893 6.75628C9.44446 6.83479 9.36514 6.90855 9.28142 6.97712C9.07726 7.11462 8.88142 7.13545 8.79184 7.0292C8.74601 6.97503 8.74809 6.94587 8.80017 6.91253C8.83335 6.89012 8.86407 6.86429 8.89184 6.83545C8.99395 6.74222 9.1065 6.66112 9.22726 6.59378C9.30226 6.55628 9.31892 6.53128 9.27101 6.53128C9.20851 6.53128 9.01059 6.66045 8.85851 6.79795C8.81476 6.83961 8.75017 6.88545 8.71684 6.90212C8.62414 6.93592 8.52384 6.94314 8.42725 6.92295C8.38142 6.90837 8.296 6.8292 8.296 6.80003C8.296 6.79378 8.31684 6.77711 8.33767 6.76253C8.37162 6.74335 8.40371 6.72103 8.4335 6.69586C8.55434 6.5917 8.78351 6.48128 8.96476 6.4417C9.02309 6.43128 9.00017 6.40003 8.93559 6.4042C8.74436 6.44072 8.56531 6.52451 8.41475 6.64795C8.24184 6.7917 7.98142 6.77711 7.89808 6.62086C7.8835 6.59378 7.87308 6.56878 7.87725 6.56461C8.02482 6.52736 8.16748 6.47282 8.30225 6.40211C8.41833 6.3337 8.54625 6.28776 8.67934 6.2667C8.73767 6.25628 8.74184 6.22711 8.68559 6.22086C8.61059 6.21253 8.49809 6.25003 8.30017 6.34586C8.04392 6.47295 7.971 6.49586 7.83767 6.48753C7.71267 6.4792 7.64392 6.44795 7.546 6.3542C7.47933 6.2917 7.38767 6.13545 7.40433 6.1167C7.51249 6.13944 7.62308 6.14854 7.7335 6.14378C7.90642 6.14378 7.95433 6.13961 8.046 6.11253C8.22508 6.05578 8.39389 5.97067 8.546 5.86044C8.76044 5.67904 9.0318 5.57875 9.31267 5.57711C9.57101 5.57711 9.73351 5.63544 9.87934 5.78336C9.92934 5.83336 9.97101 5.86461 9.97726 5.85836C9.98351 5.85211 9.98976 5.76461 9.99184 5.66461C9.99184 5.66461 10.0689 5.65628 10.0856 5.67919C10.0856 5.83961 10.0856 5.85419 10.1106 5.85419C10.1252 5.85419 10.1418 5.83753 10.1523 5.81253C10.1731 5.76044 10.2564 5.68753 10.3439 5.64169C10.5314 5.54794 10.8585 5.54378 11.121 5.63544C11.2465 5.68306 11.3639 5.74982 11.4689 5.83336C11.6222 5.94116 11.7907 6.02542 11.9689 6.08336C12.1106 6.12503 12.3648 6.13544 12.4919 6.10419C12.529 6.09559 12.5666 6.08864 12.6044 6.08336C12.6523 6.08336 12.571 6.2417 12.4752 6.33545C12.3002 6.50628 12.0731 6.5042 11.7544 6.33336C11.5544 6.22503 11.3169 6.16669 11.3169 6.22503C11.3169 6.23753 11.3294 6.24586 11.3481 6.24586C11.4169 6.24586 11.5502 6.2917 11.7377 6.38128C11.8555 6.44921 11.9847 6.4951 12.1189 6.5167C12.1669 6.5167 12.1689 6.54795 12.1231 6.61461C12.0752 6.68545 11.9939 6.71878 11.8794 6.71878C11.7689 6.71878 11.7064 6.69586 11.6085 6.61461C11.4419 6.47711 11.0335 6.32295 11.0481 6.40628C11.0523 6.42086 11.071 6.43128 11.1148 6.43753C11.2907 6.47576 11.4554 6.5542 11.596 6.6667L11.7189 6.75628C11.7419 6.76878 11.7419 6.77295 11.7231 6.80836C11.6939 6.8667 11.6148 6.91045 11.5314 6.91878C11.4231 6.93128 11.3273 6.89795 11.2294 6.81462C11.021 6.6417 10.8273 6.5167 10.7648 6.5167C10.7127 6.5167 10.7356 6.54586 10.8273 6.59378C10.9458 6.65659 11.0564 6.73354 11.1564 6.82295C11.1981 6.86253 11.246 6.90003 11.2606 6.90837C11.3002 6.9292 11.2981 6.95837 11.2564 7.01253C11.2148 7.0667 11.1439 7.0917 11.0543 7.08128C10.8752 7.06253 10.7335 6.97712 10.5127 6.74795C10.4602 6.6893 10.403 6.63496 10.3418 6.58545C10.3127 6.58545 10.3314 6.62503 10.3877 6.68961C10.4585 6.7667 10.471 6.81045 10.4439 6.87712C10.421 6.93128 10.3814 6.94587 10.3023 6.92295C10.2189 6.90212 10.2064 6.92295 10.2606 6.98753C10.3398 7.08962 10.3293 7.21045 10.2293 7.29587C10.2087 7.31579 10.1847 7.332 10.1585 7.34378C10.1502 7.34378 10.1293 7.32295 10.1106 7.29378C10.0481 7.19795 9.99184 7.19795 9.92934 7.29378C9.91616 7.31508 9.90226 7.33592 9.88768 7.35628C9.86659 7.34135 9.84576 7.32607 9.82518 7.31045Z" fill="#CF1126"/>
<path d="M10.1378 5.35419L10.0294 5.43752L9.93359 5.36669V5.94586H10.1378V5.35419Z" fill="#CF1126"/>
<path d="M9.47656 4.75627C9.45762 4.9905 9.39397 5.21892 9.28906 5.42919L9.52031 5.21461L9.68073 5.40628L9.85573 5.21044L10.0328 5.37711L10.2036 5.20419L10.3807 5.41253L10.5349 5.24169L10.7974 5.42919C10.7016 5.22086 10.5745 5.04169 10.5891 4.74586C10.337 4.93336 9.7349 4.96669 9.47656 4.75419V4.75627Z" fill="#CF1126"/>
<path d="M9.93776 4.61669C9.84401 4.61669 9.74609 4.61877 9.65859 4.63752C9.60065 4.64674 9.54528 4.66803 9.49609 4.70002C9.50234 4.87919 10.3503 4.95211 10.5773 4.70419C10.5262 4.66882 10.4679 4.64533 10.4065 4.63544C10.3232 4.61877 10.2273 4.61877 10.1378 4.6146V4.76252H9.93776V4.61669Z" fill="#CF1126"/>
<path d="M10.1 3.70835H9.96875V4.73752H10.1021L10.1 3.70835Z" fill="#CF1126"/>
<path d="M10.0997 3.73335L10.0497 4.2271L10.556 4.47502L10.2997 4.13127L10.6497 4.01668L10.0997 3.73335ZM10.0435 3.60627C9.96641 3.60627 9.91016 3.63543 9.91016 3.66877C9.91016 3.7021 9.96641 3.73127 10.0435 3.73127C10.1206 3.73127 10.1768 3.7021 10.1768 3.66877C10.1768 3.63543 10.1206 3.60627 10.0435 3.60627Z" fill="#CF1126"/>
<path d="M9.81572 12.2469C9.9001 12.2188 9.94697 12.1687 9.98135 12.0719C9.99697 12.0219 10.0095 11.9719 10.0063 11.9594C10.0001 11.9281 9.9626 11.9281 9.9251 11.9625C9.89697 11.9844 9.89385 11.9969 9.9001 12.0437C9.92197 12.1594 9.87822 12.1906 9.65947 12.2125C9.6376 12.2125 9.57197 12.2125 9.51885 12.2031C9.4126 12.1906 9.3751 12.2031 9.4126 12.2344C9.43279 12.2473 9.45496 12.2568 9.47822 12.2625C9.5376 12.2781 9.75322 12.2688 9.81572 12.2469ZM10.2751 12.2281C10.2876 12.2156 10.3282 12.1969 10.3688 12.1812C10.422 12.1656 10.4501 12.15 10.472 12.1125C10.5376 12.0188 10.5251 11.9344 10.4313 11.8219C10.3782 11.7594 10.3563 11.7625 10.3157 11.8313C10.2782 11.8875 10.2813 11.8938 10.3313 11.9063C10.3595 11.9125 10.3845 11.9313 10.397 11.9563C10.4532 12.0531 10.4376 12.1125 10.3532 12.1125C10.2782 12.1125 10.2595 12.125 10.2376 12.175L10.2188 12.2344C10.2188 12.2531 10.2501 12.25 10.2751 12.2281ZM10.1251 12.1187C10.1376 12.0781 10.1438 12.0094 10.1407 11.8687C10.1441 11.8019 10.141 11.735 10.1313 11.6687C10.1188 11.6562 10.0595 11.6938 10.0501 11.7219C10.047 11.7449 10.0526 11.7683 10.0657 11.7875C10.0845 11.825 10.0876 11.8625 10.0813 12.0063C10.072 12.1938 10.0845 12.225 10.1251 12.1187Z" fill="#F7E017"/>
<path d="M9.7719 12.0313L9.79378 11.875C9.7969 11.8219 9.8094 11.7563 9.81565 11.7281C9.83753 11.6563 9.81565 11.6375 9.7594 11.6781L9.71878 11.7094L9.72503 11.8125C9.7344 11.9063 9.71878 12.0781 9.6969 12.1469C9.69065 12.1656 9.70003 12.1594 9.72503 12.1313C9.74378 12.1094 9.76565 12.0625 9.7719 12.0281V12.0313ZM9.4594 12.0813C9.5344 12.0188 9.52503 11.9063 9.54378 11.8188C9.54378 11.7594 9.58128 11.6906 9.55628 11.6375C9.4844 11.65 9.44065 11.7188 9.47815 11.7844C9.47815 11.8625 9.47815 11.9469 9.43753 12.0156C9.40628 12.0625 9.30003 12.05 9.30628 11.9844C9.33128 11.8906 9.21565 11.9375 9.1719 11.9625C9.13753 11.9875 9.06253 11.9906 9.09065 11.9313C9.0719 11.8469 8.96878 11.9 8.91253 11.9C8.8594 11.9 8.9094 11.7906 8.83128 11.8063C8.69065 11.7969 8.5344 11.8094 8.4094 11.725C8.33753 11.6906 8.3469 11.6031 8.38753 11.5469C8.43128 11.4719 8.44377 11.375 8.51253 11.3156C8.5844 11.25 8.45003 11.2781 8.41878 11.3C8.35003 11.3375 8.41253 11.4344 8.35628 11.4875C8.32503 11.5438 8.28128 11.6188 8.20628 11.6094C8.0969 11.5875 8.0344 11.4844 7.95628 11.4219C7.88753 11.4063 7.92503 11.5281 7.96253 11.5531C8.03181 11.6049 8.11028 11.6431 8.19378 11.6656C8.27503 11.65 8.27815 11.7594 8.35003 11.775C8.47503 11.8375 8.61878 11.8531 8.7594 11.8625C8.81565 11.8656 8.7844 11.9656 8.85628 11.9438C8.8969 11.9563 8.99065 11.9281 8.99378 11.975C8.93128 12.05 9.05315 12.0469 9.0969 12.0375C9.15628 12.025 9.22815 12.0063 9.24378 12.0813C9.29065 12.1344 9.37815 12.125 9.43753 12.0969L9.4594 12.0813Z" fill="#F7E017"/>
<path d="M8.21452 11.45C8.2439 11.4089 8.26903 11.3649 8.28952 11.3188C8.30542 11.2787 8.32643 11.2409 8.35202 11.2063C8.38952 11.1688 8.36765 11.1438 8.30827 11.1562C8.27702 11.1625 8.26452 11.175 8.2614 11.2031C8.24739 11.2798 8.221 11.3537 8.18327 11.4219C8.13015 11.5 8.13015 11.5031 8.15202 11.5031C8.1614 11.5031 8.18952 11.4781 8.21452 11.45ZM7.43327 10.9594C7.3739 10.9594 7.37077 10.9969 7.42702 11.0156C7.45827 11.025 7.48015 11.0469 7.4989 11.0875C7.55202 11.1969 7.5864 11.2187 7.73327 11.2312L7.82702 11.2375L7.83327 11.2969C7.83327 11.3281 7.84265 11.3531 7.8489 11.3531L7.93015 11.3219C7.9989 11.2844 8.06452 11.2031 8.06452 11.15C8.06452 11.1187 8.00827 11.0813 7.95827 11.0813C7.9364 11.0813 7.89577 11.1 7.8614 11.125C7.75515 11.2 7.64265 11.1875 7.58015 11.0875C7.53327 11.0062 7.48015 10.9625 7.43327 10.9625V10.9594ZM7.94265 11.1625C7.97077 11.1625 7.9739 11.1844 7.9614 11.225C7.95948 11.2305 7.95589 11.2353 7.95113 11.2387C7.94637 11.2421 7.94068 11.2439 7.93484 11.2439C7.929 11.2439 7.9233 11.2421 7.91854 11.2387C7.91378 11.2353 7.91019 11.2305 7.90827 11.225C7.89577 11.1938 7.9114 11.1625 7.93952 11.1625H7.94265ZM11.8958 11.0375C11.8551 11.0375 11.8458 11.0438 11.8208 11.0813C11.7801 11.1406 11.777 11.2688 11.8145 11.3125C11.8364 11.3406 11.8395 11.3406 11.8864 11.3188C11.9551 11.2906 11.9676 11.2937 11.9645 11.3281C11.9645 11.4219 11.8333 11.6 11.6958 11.6938C11.6676 11.7104 11.6422 11.7315 11.6208 11.7563C11.6114 11.7813 11.6614 11.7781 11.7239 11.7437C11.8274 11.6844 11.9127 11.598 11.9708 11.4937C12.0051 11.4219 12.0114 11.4 12.0176 11.275C12.0176 11.1562 12.0176 11.1188 11.9989 11.0813C11.9739 11.0375 11.9676 11.0344 11.9114 11.0344H11.8958V11.0375ZM11.8989 11.1156C11.9301 11.1156 11.9301 11.1219 11.9364 11.1656C11.9364 11.1969 11.9333 11.2188 11.9145 11.2375C11.8895 11.2594 11.8833 11.2594 11.8645 11.225C11.8333 11.175 11.852 11.1156 11.8989 11.1156ZM11.2676 12.0063C11.3895 11.9438 11.4614 11.8781 11.5051 11.7812C11.5214 11.7502 11.535 11.7177 11.5458 11.6844C11.5458 11.6656 11.4864 11.6375 11.452 11.6375C11.4176 11.6375 11.4083 11.6125 11.4208 11.5437C11.4364 11.4781 11.4208 11.3938 11.3895 11.3938C11.3801 11.3938 11.3583 11.4094 11.3489 11.4281C11.3301 11.4594 11.327 11.4719 11.3426 11.5125C11.3645 11.575 11.3458 11.625 11.2895 11.6656C11.2614 11.6844 11.2489 11.7062 11.2489 11.7281L11.252 11.7594L11.3176 11.7281L11.3801 11.6906L11.4145 11.7219C11.4364 11.7344 11.452 11.7594 11.452 11.775C11.452 11.85 11.2395 11.975 11.0958 11.9875C11.0176 11.9938 11.002 11.9875 10.977 11.9625C10.9551 11.9406 10.9489 11.9219 10.9551 11.9L10.9708 11.8188C10.9833 11.7531 10.9583 11.7625 10.9083 11.8375C10.8708 11.9 10.8583 11.9656 10.8801 12C10.8989 12.0312 11.0176 12.0563 11.1051 12.05C11.1583 12.05 11.2114 12.0344 11.2676 12.0063ZM12.0801 11.5531C12.1551 11.475 12.1895 11.3813 12.1895 11.2406V11.1313L12.252 11.1C12.3364 11.0625 12.4145 10.9844 12.4145 10.9406C12.4145 10.8969 12.3926 10.8969 12.3583 10.9469C12.3301 10.9812 12.2958 11.0031 12.1708 11.0625C12.1395 11.075 12.1364 11.0844 12.127 11.2188C12.1208 11.375 12.0958 11.4313 12.0114 11.5375C11.9583 11.6 11.9551 11.6125 11.9926 11.6125C12.0083 11.6125 12.0489 11.5844 12.0801 11.55V11.5531ZM11.2458 11.4656C11.252 11.4437 11.2083 11.4281 11.1926 11.4469C11.1833 11.4531 11.1801 11.4656 11.1864 11.475C11.1989 11.4938 11.2364 11.4875 11.2458 11.4656ZM12.3958 11.1687C12.4051 11.1437 12.3614 11.1281 12.3426 11.1469C12.3364 11.1563 12.3333 11.1688 12.3395 11.1781C12.352 11.1969 12.3895 11.1906 12.3958 11.1687ZM11.0114 10.3594C10.9801 10.375 10.9645 10.4062 10.9458 10.4312C10.9301 10.4406 10.9426 10.45 10.9489 10.4625C11.002 10.5156 11.0239 10.5937 11.0489 10.6656C11.0739 10.75 11.1051 10.8406 11.0801 10.9281C11.0708 10.9594 11.0426 10.9937 11.0051 10.9844C10.9426 10.9812 10.8801 10.9625 10.8176 10.9625C10.7583 10.9656 10.7145 11.0187 10.6583 11.0125C10.6208 11.0125 10.6208 10.9375 10.5895 10.9594C10.5708 11 10.5801 11.0438 10.577 11.0844C10.5833 11.0938 10.602 11.0875 10.6114 11.0906H10.727C10.7333 11.1281 10.7333 11.175 10.7583 11.2063C10.7989 11.2188 10.8458 11.2063 10.8833 11.1906C10.9208 11.1719 10.927 11.125 10.9395 11.0875C10.952 11.0469 11.002 11.0562 11.0333 11.0406C11.0709 11.0289 11.1035 11.0051 11.1261 10.9729C11.1488 10.9406 11.1601 10.9018 11.1583 10.8625C11.152 10.7406 11.1083 10.6313 11.0708 10.5188C11.0551 10.4688 11.0426 10.4156 11.0239 10.3656L11.0114 10.3594ZM10.8239 11.0406C10.8645 11.0406 10.8833 11.0906 10.8739 11.125C10.8583 11.1719 10.7989 11.1438 10.7895 11.1094C10.7676 11.0781 10.7801 11.0375 10.8208 11.0406H10.8239Z" fill="#F7E017"/>
<path d="M9.25366 10.65C9.23491 10.65 9.21303 10.6563 9.19116 10.6719C9.08178 10.75 9.05053 10.8406 9.12866 10.8781C9.18178 10.9031 9.16928 10.9344 9.08178 10.9781C8.95678 11.0406 8.84741 11.0313 8.63803 10.9469C8.58803 10.925 8.57553 10.9344 8.58491 10.9781C8.59741 11.025 8.64116 11.05 8.74428 11.0719C8.85678 11.1031 8.99428 11.0938 9.08178 11.0563C9.13314 11.03 9.1788 10.9939 9.21616 10.95L9.28491 10.8781L9.36303 10.8875C9.45991 10.9 9.46303 10.9 9.46303 10.9469C9.46303 10.9844 9.46303 10.9844 9.55366 10.9938L9.70053 11C9.74116 11 9.76303 11.0094 9.77553 11.0281C9.79428 11.05 9.80366 11.0531 9.95053 11.0406C10.088 11.0281 10.113 11.0281 10.1755 11.05C10.2193 11.0625 10.2693 11.0688 10.3037 11.0656C10.4099 11.0531 10.5537 10.9688 10.5755 10.9063C10.5755 10.8969 10.6162 10.8844 10.6599 10.875C10.7662 10.8531 10.7693 10.8313 10.6724 10.8188C10.6234 10.8123 10.5753 10.8008 10.5287 10.7844C10.4938 10.7696 10.4569 10.7601 10.4193 10.7563C10.3662 10.7563 10.3162 10.7875 10.3162 10.825C10.3162 10.8469 10.3224 10.85 10.388 10.8438C10.4443 10.8375 10.463 10.8406 10.4943 10.8656C10.5162 10.8813 10.5287 10.9 10.5255 10.9063C10.5099 10.9313 10.3849 10.9875 10.3318 10.9969C10.2997 11.0022 10.2667 10.9967 10.238 10.9813C10.188 10.9563 10.1193 10.9531 10.1037 10.975C10.0974 10.9844 10.0849 10.9781 10.063 10.9594L10.0318 10.9281L9.95678 10.9594C9.88178 10.9906 9.85366 10.9906 9.85366 10.9531C9.85366 10.9375 9.83178 10.9344 9.72241 10.9438C9.60053 10.95 9.58803 10.9469 9.56616 10.9219C9.54428 10.9 9.54428 10.8906 9.55991 10.8688C9.57241 10.8438 9.57241 10.8375 9.55991 10.8219C9.54741 10.8094 9.52866 10.8094 9.48178 10.8219C9.35991 10.8531 9.32553 10.8375 9.32553 10.7438C9.32553 10.6844 9.29428 10.65 9.25366 10.65ZM9.22241 10.7375C9.22866 10.7375 9.23491 10.7406 9.24428 10.75C9.25366 10.7594 9.25991 10.7813 9.25366 10.7906C9.24428 10.8188 9.19116 10.8188 9.18178 10.7906C9.17553 10.775 9.18178 10.7594 9.19741 10.75L9.22241 10.7375Z" fill="#F7E017"/>
<path d="M9.00172 10.825C9.07672 10.7781 9.07672 10.7813 9.0861 10.6531C9.09235 10.5594 9.09235 10.5531 9.06735 10.5531C9.02985 10.5531 9.0111 10.5938 9.0111 10.6688C9.0111 10.7188 9.00485 10.7406 8.97985 10.7625C8.91735 10.825 8.76735 10.7969 8.74547 10.7219C8.73922 10.6969 8.7486 10.6719 8.77985 10.6281C8.84547 10.5344 8.83297 10.5094 8.7486 10.5813C8.69547 10.6313 8.6861 10.6313 8.69547 10.5906C8.70485 10.55 8.6861 10.5344 8.63922 10.5469C8.61735 10.5531 8.60172 10.5656 8.5986 10.5969C8.59235 10.6219 8.57985 10.6375 8.55797 10.6438C8.52047 10.6531 8.45797 10.6188 8.45797 10.5875C8.45797 10.5656 8.55172 10.45 8.6736 10.325C8.71735 10.2781 8.75485 10.2313 8.75485 10.2281C8.75485 10.2219 8.72985 10.2156 8.70172 10.2156C8.65797 10.2156 8.64547 10.2219 8.64547 10.2406C8.64547 10.2531 8.5861 10.3344 8.5111 10.4188C8.35485 10.5938 8.34235 10.6281 8.41735 10.675C8.44857 10.6942 8.48475 10.7039 8.52141 10.7028C8.55807 10.7017 8.5936 10.6899 8.6236 10.6688L8.6736 10.6344V10.6969C8.6736 10.775 8.68922 10.8063 8.75172 10.8375C8.79081 10.8576 8.83451 10.867 8.8784 10.8648C8.92229 10.8626 8.96482 10.8489 9.00172 10.825ZM12.2642 9.74375C12.208 9.77813 12.2517 9.85 12.2642 9.9C12.2392 9.9625 12.1548 9.98125 12.0923 9.99375C12.0048 10.0094 11.9423 10.0813 11.9111 10.1594C11.8923 10.2094 11.8486 10.2844 11.8017 10.2094C11.7611 10.1688 11.6861 10.1344 11.6392 10.1844C11.6017 10.2188 11.5923 10.2688 11.5767 10.3156C11.5548 10.2813 11.5455 10.2281 11.5017 10.2156C11.4267 10.225 11.4548 10.3188 11.4892 10.3563C11.5205 10.4031 11.5517 10.4594 11.5205 10.5125C11.4892 10.575 11.3955 10.6188 11.3423 10.5656C11.2923 10.5375 11.3267 10.4406 11.2736 10.4344C11.2486 10.4531 11.2486 10.5563 11.208 10.5C11.1767 10.4531 11.1955 10.3875 11.158 10.3469C11.1173 10.3531 11.083 10.425 11.0955 10.4625C11.1517 10.5375 11.1767 10.6313 11.1986 10.7219C11.2111 10.7594 11.1955 10.8313 11.2298 10.8469C11.2517 10.7875 11.2298 10.7219 11.2486 10.6625C11.3048 10.6563 11.3642 10.6813 11.4205 10.6688C11.5048 10.6594 11.5673 10.5875 11.5955 10.5156C11.6048 10.4594 11.5955 10.4031 11.5923 10.3469C11.6548 10.3594 11.7236 10.3594 11.7861 10.3781C11.8173 10.425 11.7767 10.4938 11.7673 10.5438C11.7361 10.65 11.6517 10.725 11.5736 10.7938C11.5392 10.8156 11.5361 10.8688 11.583 10.8406C11.6898 10.7899 11.7736 10.7006 11.8173 10.5906C11.8517 10.5094 11.8236 10.4188 11.8486 10.3375C11.8798 10.275 11.958 10.2875 12.0173 10.2875C12.0767 10.2875 12.1267 10.2156 12.108 10.1563C12.0892 10.0875 12.1611 10.0563 12.208 10.0313C12.2736 10 12.3236 9.93438 12.3173 9.85938C12.3173 9.81875 12.3173 9.74688 12.2642 9.74375ZM12.0361 10.1344C12.1048 10.1531 12.0236 10.2844 11.9861 10.2C11.9736 10.1688 12.0017 10.1344 12.0361 10.1344ZM11.7142 10.2281C11.8048 10.225 11.7705 10.3531 11.6955 10.2969C11.6548 10.275 11.6673 10.2281 11.7142 10.2281ZM8.43922 10.7375C8.43922 10.725 8.43297 10.7156 8.42047 10.7156C8.3986 10.7156 8.38297 10.7375 8.39235 10.7563C8.40485 10.7781 8.43297 10.7656 8.43922 10.7375ZM9.50172 10.625C9.50172 10.6031 9.49235 10.5969 9.47672 10.6C9.44235 10.6063 9.4361 10.6531 9.4736 10.6531C9.49235 10.6531 9.50172 10.6438 9.50172 10.6219V10.625ZM8.18922 9.9875C8.1486 9.97813 8.12047 10.0156 8.10485 10.05C8.0736 10.1031 8.0361 10.1563 7.97985 10.1844C7.93922 10.1969 7.89547 10.1813 7.85797 10.1594C7.81735 10.1375 7.82672 10.0875 7.80797 10.0531C7.77672 10.0281 7.7236 10.0625 7.72672 10.1C7.7236 10.15 7.76735 10.1781 7.80797 10.1969C7.83922 10.2188 7.88922 10.2281 7.90172 10.2688C7.90172 10.3031 7.91422 10.3438 7.95485 10.3313C8.00172 10.3313 8.01735 10.3875 7.99547 10.4219C7.97458 10.46 7.96689 10.5039 7.9736 10.5469C7.99547 10.5688 8.01735 10.5156 8.0361 10.5031L8.06735 10.4594C8.15172 10.4625 8.23297 10.475 8.31735 10.4719C8.37985 10.4719 8.42672 10.4344 8.46422 10.3906C8.52047 10.3344 8.56422 10.2688 8.6236 10.2219C8.66735 10.2094 8.64547 10.1281 8.5986 10.1531C8.55797 10.1688 8.54547 10.2156 8.51735 10.2438C8.47176 10.3038 8.41933 10.3584 8.3611 10.4063C8.31422 10.425 8.26422 10.4156 8.21735 10.4063C8.1986 10.3906 8.25485 10.375 8.26422 10.3563C8.28922 10.3313 8.32047 10.3063 8.3361 10.2719C8.32047 10.2406 8.27672 10.2406 8.24547 10.2406C8.17047 10.2469 8.1111 10.3125 8.03297 10.3188C7.9736 10.3188 8.00485 10.2563 8.03297 10.2344C8.08297 10.1719 8.13922 10.1156 8.19235 10.0563C8.20797 10.0375 8.26422 10.0188 8.22985 9.99375C8.21735 9.9875 8.20172 9.9875 8.18922 9.9875ZM8.22672 10.3C8.26735 10.3219 8.20172 10.3563 8.17672 10.3531C8.14235 10.3625 8.13922 10.3281 8.17047 10.3219C8.18922 10.3094 8.20797 10.3 8.22672 10.3ZM8.10797 10.3813C8.12985 10.3813 8.17672 10.4031 8.13297 10.4156C8.10172 10.4406 8.07047 10.3906 8.10797 10.3813Z" fill="#F7E017"/>
<path d="M9.04561 10.4313C9.04561 10.4 8.99561 10.4063 8.98936 10.4375C8.98311 10.4563 8.98936 10.4594 9.01436 10.4563C9.03311 10.4563 9.04561 10.4438 9.04561 10.4313ZM11.38 10.225C11.3862 10.1969 11.3487 10.1781 11.3269 10.2C11.305 10.2188 11.3269 10.2594 11.3519 10.2531C11.3644 10.2531 11.3769 10.2375 11.3831 10.225H11.38ZM7.75186 9.94063C7.78624 9.90938 7.78936 9.90625 7.77374 9.8375C7.74874 9.74063 7.75186 9.72813 7.78936 9.71875C7.83624 9.70938 7.95499 9.77188 7.97686 9.82188C8.00186 9.8625 7.99874 9.86563 7.96436 9.89688C7.92686 9.93125 7.92686 9.97188 7.96436 9.97188C7.99561 9.97188 8.07999 9.89063 8.07999 9.8625C8.07999 9.82188 7.98624 9.725 7.91124 9.69063C7.86624 9.66967 7.81713 9.65899 7.76749 9.65938C7.67061 9.65938 7.65811 9.68125 7.68311 9.79063C7.71436 9.92188 7.67374 9.94063 7.56749 9.84063C7.52968 9.80737 7.50013 9.76577 7.48114 9.71914C7.46216 9.6725 7.45428 9.62208 7.45811 9.57188C7.45811 9.44688 7.50811 9.38125 7.61749 9.36563C7.69249 9.35625 7.68936 9.3375 7.61749 9.32813C7.50499 9.30938 7.41124 9.38438 7.37686 9.51563C7.33624 9.6625 7.42686 9.84063 7.58624 9.93125C7.67061 9.97813 7.70186 9.98125 7.75186 9.94063ZM12.1019 9.77813C12.1112 9.77188 12.1175 9.75 12.1175 9.73438C12.1175 9.71875 12.1331 9.68438 12.1519 9.65938C12.1706 9.63438 12.1831 9.60938 12.1831 9.60313C12.1831 9.57813 12.1425 9.57813 12.1112 9.60313C12.0769 9.63125 12.0487 9.63438 12.0487 9.60313L12.0862 9.575C12.1362 9.55313 12.1394 9.52813 12.0987 9.50938C12.0456 9.48438 11.9894 9.52813 11.9862 9.60313C11.9831 9.65313 11.9862 9.65938 12.0237 9.68125C12.0581 9.70313 12.0644 9.7125 12.0581 9.74375C12.0487 9.79375 12.0706 9.8125 12.1019 9.77813ZM12.5081 9.73438C12.5394 9.70313 12.5644 9.675 12.5644 9.66563C12.5644 9.65625 12.5925 9.62813 12.6237 9.60313C12.7112 9.54063 12.7331 9.47813 12.6925 9.375C12.6769 9.33438 12.63 9.28125 12.5206 9.1875C12.4708 9.13431 12.414 9.08806 12.3519 9.05C12.3237 9.05 12.33 9.15625 12.3581 9.16563C12.4112 9.18438 12.4456 9.20625 12.5269 9.28125C12.6269 9.36875 12.6706 9.45313 12.6456 9.5C12.6237 9.54375 12.5925 9.53125 12.505 9.4375C12.4766 9.40223 12.4429 9.37165 12.405 9.34688C12.3956 9.34688 12.3894 9.36563 12.3894 9.39063C12.3894 9.42188 12.405 9.45313 12.4519 9.5C12.5237 9.58125 12.53 9.62813 12.4737 9.67188C12.4611 9.68474 12.4463 9.69532 12.43 9.70313C12.3585 9.58086 12.2628 9.47451 12.1487 9.39063C12.1394 9.39063 12.1331 9.40313 12.1331 9.43438C12.1331 9.475 12.1394 9.4875 12.1706 9.50313C12.2528 9.56619 12.3263 9.63973 12.3894 9.72188L12.4456 9.78438C12.4689 9.76982 12.49 9.75192 12.5081 9.73125V9.73438ZM12.6956 9.20938C12.68 9.17188 12.4331 8.91563 12.405 8.91563C12.3925 8.91563 12.3894 8.93125 12.3925 8.97188C12.3925 9.02188 12.4019 9.02813 12.4362 9.0375C12.4896 9.06872 12.5381 9.10769 12.58 9.15313C12.6139 9.18965 12.6529 9.22121 12.6956 9.24688V9.20938ZM11.2019 12.1031C11.2035 12.1078 11.2039 12.1127 11.2029 12.1175C11.2018 12.1223 11.1995 12.1268 11.196 12.1307C11.1925 12.1346 11.188 12.1378 11.1827 12.14C11.1775 12.1422 11.1718 12.1433 11.1659 12.1433C11.1601 12.1433 11.1543 12.1422 11.1491 12.14C11.1439 12.1378 11.1394 12.1346 11.1359 12.1307C11.1324 12.1268 11.13 12.1223 11.129 12.1175C11.128 12.1127 11.1283 12.1078 11.13 12.1031C11.1283 12.0985 11.128 12.0935 11.129 12.0887C11.13 12.084 11.1324 12.0794 11.1359 12.0755C11.1394 12.0716 11.1439 12.0685 11.1491 12.0663C11.1543 12.0641 11.1601 12.063 11.1659 12.063C11.1718 12.063 11.1775 12.0641 11.1827 12.0663C11.188 12.0685 11.1925 12.0716 11.196 12.0755C11.1995 12.0794 11.2018 12.084 11.2029 12.0887C11.2039 12.0935 11.2035 12.0985 11.2019 12.1031ZM11.3331 12.0594C11.3331 12.0635 11.3321 12.0675 11.3303 12.0713C11.3284 12.0751 11.3256 12.0786 11.3221 12.0815C11.3186 12.0844 11.3145 12.0867 11.31 12.0882C11.3054 12.0898 11.3005 12.0906 11.2956 12.0906C11.2907 12.0906 11.2858 12.0898 11.2813 12.0882C11.2767 12.0867 11.2726 12.0844 11.2691 12.0815C11.2656 12.0786 11.2629 12.0751 11.261 12.0713C11.2591 12.0675 11.2581 12.0635 11.2581 12.0594C11.2581 12.0553 11.2591 12.0512 11.261 12.0474C11.2629 12.0436 11.2656 12.0402 11.2691 12.0373C11.2726 12.0344 11.2767 12.0321 11.2813 12.0305C11.2858 12.0289 11.2907 12.0281 11.2956 12.0281C11.3005 12.0281 11.3054 12.0289 11.31 12.0305C11.3145 12.0321 11.3186 12.0344 11.3221 12.0373C11.3256 12.0402 11.3284 12.0436 11.3303 12.0474C11.3321 12.0512 11.3331 12.0553 11.3331 12.0594Z" fill="#F7E017"/>
</g>
<defs>
<clipPath id="clip0_201_5679">
<rect width="20" height="15" fill="white" transform="translate(0 0.5)"/>
</clipPath>
</defs>
</svg>
