<svg width="15" height="16" viewBox="0 0 15 16" fill="none" xmlns="http://www.w3.org/2000/svg">
<g clip-path="url(#clip0_32_1518)">
<rect width="15" height="15" transform="translate(0 0.5)" fill="white"/>
<path d="M3.75002 0.5C3.45414 0.5 3.21429 0.739847 3.21429 1.03572V2.10714H4.28571V1.03572C4.28571 0.739847 4.04586 0.5 3.75002 0.5Z" fill="#087EEA"/>
<path d="M11.25 0.5C10.9541 0.5 10.7143 0.739847 10.7143 1.03572V2.10714H11.7857V1.03572C11.7857 0.739847 11.5459 0.5 11.25 0.5Z" fill="#087EEA"/>
<path d="M13.3929 2.10718H11.7857V4.25004C11.7857 4.54592 11.5459 4.78577 11.25 4.78577C10.9541 4.78577 10.7143 4.54592 10.7143 4.25004V2.10718H4.2857V4.25004C4.2857 4.54592 4.04585 4.78577 3.74998 4.78577C3.4541 4.78577 3.21425 4.54592 3.21425 4.25004V2.10718H1.60714C0.719541 2.10718 0 2.82672 0 3.71432V13.8929C0 14.7805 0.719541 15.5 1.60714 15.5H13.3929C14.2805 15.5 15 14.7805 15 13.8929V3.71432C15 2.82672 14.2805 2.10718 13.3929 2.10718ZM13.9286 13.8929C13.9286 14.1888 13.6887 14.4286 13.3928 14.4286H1.60714C1.31126 14.4286 1.07142 14.1888 1.07142 13.8929V6.9286H13.9286V13.8929Z" fill="#087EEA"/>
<path d="M4.2857 8H3.21428C2.91841 8 2.67856 8.23985 2.67856 8.53572C2.67856 8.8316 2.91841 9.07145 3.21428 9.07145H4.2857C4.58158 9.07145 4.82142 8.8316 4.82142 8.53572C4.82142 8.23985 4.58158 8 4.2857 8Z" fill="#087EEA"/>
<path d="M8.0357 8H6.96428C6.66841 8 6.42856 8.23985 6.42856 8.53572C6.42856 8.8316 6.66841 9.07145 6.96428 9.07145H8.0357C8.33158 9.07145 8.57142 8.8316 8.57142 8.53572C8.57142 8.23985 8.33158 8 8.0357 8Z" fill="#087EEA"/>
<path d="M11.7857 8H10.7143C10.4184 8 10.1786 8.23985 10.1786 8.53572C10.1786 8.8316 10.4184 9.07145 10.7143 9.07145H11.7857C12.0816 9.07145 12.3215 8.8316 12.3215 8.53572C12.3215 8.23985 12.0816 8 11.7857 8Z" fill="#087EEA"/>
<path d="M4.2857 10.1428H3.21428C2.91841 10.1428 2.67856 10.3827 2.67856 10.6785C2.67856 10.9744 2.91841 11.2143 3.21428 11.2143H4.2857C4.58158 11.2143 4.82142 10.9744 4.82142 10.6785C4.82142 10.3827 4.58158 10.1428 4.2857 10.1428Z" fill="#087EEA"/>
<path d="M8.0357 10.1428H6.96428C6.66841 10.1428 6.42856 10.3827 6.42856 10.6785C6.42856 10.9744 6.66841 11.2143 6.96428 11.2143H8.0357C8.33158 11.2143 8.57142 10.9744 8.57142 10.6785C8.57142 10.3827 8.33158 10.1428 8.0357 10.1428Z" fill="#087EEA"/>
<path d="M11.7857 10.1428H10.7143C10.4184 10.1428 10.1786 10.3827 10.1786 10.6785C10.1786 10.9744 10.4184 11.2143 10.7143 11.2143H11.7857C12.0816 11.2143 12.3215 10.9744 12.3215 10.6785C12.3214 10.3827 12.0816 10.1428 11.7857 10.1428Z" fill="#087EEA"/>
<path d="M4.2857 12.2856H3.21428C2.91841 12.2856 2.67856 12.5255 2.67856 12.8214C2.67856 13.1172 2.91841 13.3571 3.21428 13.3571H4.2857C4.58158 13.3571 4.82142 13.1172 4.82142 12.8213C4.82142 12.5255 4.58158 12.2856 4.2857 12.2856Z" fill="#087EEA"/>
<path d="M8.0357 12.2856H6.96428C6.66841 12.2856 6.42856 12.5255 6.42856 12.8214C6.42856 13.1172 6.66841 13.3571 6.96428 13.3571H8.0357C8.33158 13.3571 8.57142 13.1172 8.57142 12.8214C8.57142 12.5255 8.33158 12.2856 8.0357 12.2856Z" fill="#087EEA"/>
<path d="M11.7857 12.2856H10.7143C10.4184 12.2856 10.1786 12.5255 10.1786 12.8214C10.1786 13.1172 10.4184 13.3571 10.7143 13.3571H11.7857C12.0816 13.3571 12.3215 13.1172 12.3215 12.8214C12.3215 12.5255 12.0816 12.2856 11.7857 12.2856Z" fill="#087EEA"/>
</g>
<defs>
<clipPath id="clip0_32_1518">
<rect width="15" height="15" fill="white" transform="translate(0 0.5)"/>
</clipPath>
</defs>
</svg>
