<svg width="18" height="18" viewBox="0 0 18 18" fill="none" xmlns="http://www.w3.org/2000/svg">
<path d="M17.2872 2.48811e-05H0.712688C0.319755 2.48811e-05 0 0.332463 0 0.74099V14.0642C0 14.4727 0.319751 14.8051 0.712688 14.8051H10.2471C10.4645 15.022 10.7096 15.2039 10.9767 15.3463C10.9915 15.3543 11.0066 15.3621 11.0219 15.37V18L12.3979 17.0961L13.7739 18V15.3702C13.7887 15.3627 13.8033 15.355 13.8174 15.3475C14.0858 15.2044 14.331 15.022 14.5488 14.8051H17.2871C17.6801 14.8051 17.9998 14.4727 17.9998 14.0641L18 0.740965C18 0.332442 17.6802 0 17.2873 0L17.2872 2.48811e-05ZM3.27022 2.82303H14.7293V3.55595H3.27022V2.82303ZM3.27022 5.26617H14.7293V5.99909H3.27022V5.26617ZM6.30694 11.6398C6.22402 11.6398 6.13775 11.6245 6.04979 11.5875C5.88161 11.5173 5.77268 11.3908 5.69328 11.2987C5.6582 11.2582 5.62212 11.2161 5.59761 11.199C5.58938 11.1934 5.56639 11.1878 5.53601 11.1952C5.50562 11.2027 5.48766 11.2186 5.48263 11.2276C5.47205 11.247 5.45963 11.2856 5.44755 11.3229C5.42976 11.3784 5.40945 11.4412 5.37705 11.5084C5.25268 11.7672 5.00644 11.9128 4.7644 11.8712C4.52924 11.8309 4.40503 11.6433 4.33856 11.5426C4.32681 11.5248 4.31574 11.5082 4.30684 11.496C4.25044 11.4198 4.10945 11.3957 4.03241 11.4491C3.95553 11.5027 3.92314 11.6471 3.96947 11.7306L3.35918 12.0976C3.12822 11.6824 3.25712 11.1067 3.64049 10.8399C4.00187 10.5888 4.52102 10.6596 4.81475 10.9866C4.82936 10.9483 4.84665 10.9078 4.86897 10.8668C4.97287 10.6762 5.15633 10.5359 5.37235 10.4825C5.58854 10.4289 5.81296 10.4678 5.98853 10.5895C6.0874 10.658 6.16007 10.7422 6.21832 10.81C6.24719 10.8435 6.29049 10.8938 6.31063 10.9065C6.32524 10.9053 6.40094 10.8905 6.58036 10.7214L7.05401 11.2643C6.94525 11.3669 6.65588 11.6398 6.30691 11.6398L6.30694 11.6398ZM7.73498 8.44232H3.27004V7.70939H7.73498V8.44232ZM14.8004 12.5893C14.7999 12.6028 14.7992 12.6162 14.7982 12.6296C14.7952 12.6816 14.7905 12.7333 14.7841 12.7848C14.7824 12.7994 14.7806 12.8139 14.7784 12.8286C14.7677 12.9068 14.7532 12.9839 14.7356 13.0602C14.7269 13.0973 14.7175 13.1341 14.7074 13.1708C14.6858 13.2471 14.6611 13.3221 14.6329 13.3956C14.619 13.4315 14.6045 13.4669 14.5893 13.5024C14.5735 13.5383 14.557 13.5739 14.5397 13.6092C14.5245 13.6402 14.5085 13.6709 14.4917 13.7015C14.4896 13.7051 14.4877 13.7088 14.4857 13.7125C14.4763 13.7294 14.4669 13.7461 14.457 13.7631C14.369 13.914 14.265 14.0564 14.1458 14.1875C13.9571 14.3951 13.7381 14.5662 13.4932 14.6967C13.4542 14.7176 13.4123 14.7384 13.3685 14.7588C13.0618 14.8994 12.735 14.9708 12.3973 14.9708C12.0591 14.9708 11.7324 14.8994 11.4256 14.7583C11.3821 14.7385 11.3404 14.7174 11.2997 14.6954C11.056 14.5658 10.8373 14.3948 10.649 14.1873C10.225 13.7217 9.99149 13.1113 9.99149 12.4696C9.99149 12.4274 9.9925 12.3853 9.99451 12.3436C9.99502 12.3352 9.99518 12.3272 9.99586 12.3192C9.99653 12.3056 9.99753 12.2918 9.99837 12.2783C10.0002 12.2513 10.0026 12.2241 10.0054 12.1972C10.0068 12.1838 10.0083 12.1703 10.01 12.1569C10.0105 12.155 10.0105 12.1532 10.0106 12.1515C10.0128 12.1339 10.0152 12.1162 10.0177 12.0989C10.0195 12.0845 10.0219 12.0702 10.0242 12.056C10.0247 12.0529 10.0252 12.0499 10.0256 12.0468C10.0279 12.0304 10.0308 12.014 10.034 11.9977C10.0341 11.9976 10.0341 11.997 10.0341 11.9965V11.9963C10.0366 11.9805 10.0398 11.9648 10.0434 11.9492C10.0459 11.9353 10.0487 11.9216 10.0517 11.9079C10.0559 11.8894 10.0601 11.8707 10.0647 11.8524C10.0684 11.836 10.0724 11.8199 10.0769 11.8037C10.0811 11.7876 10.0853 11.7714 10.09 11.7555C10.0946 11.7398 10.0992 11.7245 10.1036 11.7089C10.1038 11.7082 10.1041 11.7077 10.1043 11.7072C10.109 11.6915 10.1142 11.6759 10.1191 11.6602C10.1236 11.647 10.128 11.6339 10.1325 11.6206C10.139 11.6011 10.1461 11.5821 10.1531 11.563C10.1585 11.5489 10.1639 11.5348 10.1696 11.5205C10.1696 11.5199 10.1697 11.5194 10.1701 11.5192C10.1743 11.5082 10.1785 11.4974 10.1832 11.4864C10.188 11.4742 10.1931 11.4622 10.1984 11.4503C10.2031 11.4388 10.208 11.4276 10.2132 11.4161C10.2157 11.41 10.2186 11.4041 10.2214 11.3983C10.2261 11.3878 10.231 11.377 10.236 11.3665C10.2377 11.363 10.2394 11.3599 10.2407 11.3568C10.2473 11.3432 10.2538 11.3297 10.2607 11.3163C10.2661 11.3051 10.2718 11.2941 10.2773 11.2833C10.2815 11.2753 10.2857 11.2669 10.2903 11.2589C10.2973 11.2456 10.3044 11.2325 10.3116 11.2196C10.3188 11.2067 10.3263 11.1934 10.3339 11.1805C10.3404 11.169 10.347 11.1578 10.354 11.1463C10.3571 11.1412 10.3601 11.136 10.3633 11.1311C10.371 11.1184 10.3791 11.1055 10.3873 11.0927C10.3965 11.0782 10.4059 11.0639 10.4153 11.0498C10.4343 11.0212 10.4539 10.9931 10.4742 10.9653C10.483 10.9533 10.4918 10.9411 10.5007 10.9294C10.5229 10.9001 10.5456 10.8713 10.5691 10.8428C10.5798 10.8296 10.5912 10.8165 10.6025 10.8032C10.6364 10.764 10.6716 10.7256 10.708 10.6882C11.0882 10.2987 11.5698 10.0567 12.0903 9.98845C12.0904 9.98862 12.0908 9.98845 12.0909 9.98845C12.1107 9.98583 12.1304 9.98339 12.1504 9.98129H12.1514C12.1715 9.97885 12.1918 9.9771 12.212 9.97571C12.2306 9.97431 12.2489 9.97274 12.2674 9.97204C12.3102 9.9696 12.3531 9.96838 12.3966 9.96838H12.3968C12.4085 9.96838 12.4204 9.96838 12.4322 9.96855C12.4359 9.96855 12.4394 9.96855 12.4433 9.96873C12.4555 9.9689 12.4674 9.96925 12.4797 9.96977C12.4874 9.96995 12.4951 9.9703 12.5027 9.97082C12.5169 9.97134 12.531 9.97222 12.5451 9.97326C12.5508 9.97344 12.5562 9.97379 12.5616 9.97449C12.5755 9.97518 12.5893 9.97623 12.6032 9.97763C12.6101 9.97815 12.6168 9.97885 12.6237 9.97955C12.6373 9.98077 12.6509 9.98216 12.6643 9.98391C12.6697 9.98443 12.6751 9.98496 12.6803 9.98565C12.6981 9.98792 12.716 9.99037 12.7336 9.99298C12.7534 9.9956 12.7731 9.99892 12.7929 10.0026C12.8322 10.0092 12.8709 10.0171 12.9094 10.0258C12.9129 10.0265 12.9166 10.0275 12.9201 10.0284C12.9552 10.0363 12.9896 10.045 13.024 10.0551C13.0388 10.0593 13.0536 10.0637 13.0682 10.068C13.0829 10.0724 13.0975 10.0771 13.1121 10.082C13.1143 10.0825 13.1167 10.0832 13.1187 10.0843C13.1271 10.0867 13.1358 10.0897 13.1444 10.0926C13.2024 10.1123 13.2595 10.1343 13.3154 10.1586C13.3283 10.1642 13.3412 10.1698 13.3542 10.1757C13.3676 10.1818 13.3807 10.1877 13.3936 10.194C13.4054 10.1996 13.4171 10.2052 13.4287 10.2111C13.4656 10.2293 13.502 10.2485 13.538 10.2685C13.5487 10.2746 13.5593 10.2808 13.5699 10.287C13.5829 10.2945 13.5959 10.3024 13.6088 10.3102C13.6177 10.3157 13.6266 10.3212 13.6356 10.3268C13.6526 10.3373 13.6692 10.3481 13.6857 10.3591C13.6984 10.3675 13.7108 10.3757 13.7233 10.3846C13.751 10.4036 13.7783 10.4231 13.805 10.4434C13.824 10.4579 13.8428 10.4722 13.8614 10.4874C13.9359 10.5467 14.0069 10.6107 14.0739 10.6786C14.084 10.6886 14.0939 10.6989 14.1034 10.7092C14.1152 10.7214 14.1264 10.7336 14.1377 10.7458C14.1471 10.7558 14.1563 10.7661 14.1652 10.7764C14.1748 10.7868 14.1842 10.7976 14.1934 10.8086C14.1946 10.81 14.1958 10.8116 14.1969 10.8128C14.2063 10.8238 14.2156 10.8348 14.2246 10.846C14.2345 10.8577 14.2441 10.8697 14.2535 10.8816C14.2631 10.8936 14.2723 10.9055 14.2815 10.9177C14.3003 10.942 14.3185 10.9667 14.3361 10.9917C14.3448 11.0041 14.3537 11.0168 14.3621 11.0296C14.3797 11.055 14.3963 11.0809 14.4126 11.1067C14.4208 11.12 14.4291 11.1329 14.4368 11.146C14.4866 11.2289 14.532 11.3145 14.5721 11.4035C14.5769 11.414 14.5816 11.4245 14.5862 11.4351C14.592 11.448 14.5974 11.4608 14.6028 11.4737C14.6135 11.4993 14.6239 11.525 14.6338 11.5512C14.6369 11.5597 14.6402 11.5681 14.6432 11.5766C14.6473 11.5875 14.6513 11.5981 14.655 11.6091C14.6604 11.6239 14.6656 11.6391 14.6704 11.6545C14.675 11.6677 14.6793 11.6812 14.6834 11.6946C14.6845 11.6981 14.6857 11.7014 14.6867 11.7049C14.6902 11.7159 14.6936 11.7271 14.6966 11.7381C14.7035 11.7606 14.7097 11.7831 14.7156 11.8059C14.7196 11.8206 14.7233 11.8353 14.7268 11.8499C14.7305 11.8646 14.734 11.8794 14.7374 11.8944C14.7438 11.9218 14.7493 11.9496 14.7549 11.9775C14.7562 11.9853 14.7579 11.9932 14.7594 12.0012C14.7607 12.0091 14.7622 12.0169 14.7636 12.025C14.7653 12.0349 14.7671 12.045 14.7685 12.055C14.7691 12.0597 14.7701 12.0642 14.7706 12.0689C14.7735 12.0862 14.776 12.1037 14.7784 12.1209C14.7829 12.1529 14.7866 12.1855 14.7896 12.218C14.7978 12.3009 14.8019 12.3846 14.8019 12.4696C14.8032 12.5094 14.8024 12.5494 14.8003 12.5893L14.8004 12.5893Z" fill="#087EEA"/>
<path d="M13.5727 12.4691C13.5727 13.1427 13.0454 13.6907 12.3976 13.6907C11.7497 13.6907 11.2227 13.1427 11.2227 12.4691C11.2227 11.7953 11.7497 11.2474 12.3976 11.2474C13.0455 11.2474 13.5727 11.7953 13.5727 12.4691Z" fill="black"/>
</svg>
