<svg width="20" height="18" viewBox="0 0 20 18" fill="none" xmlns="http://www.w3.org/2000/svg">
<path d="M13.749 10.2255C12.7545 11.2019 11.4087 11.7369 10.0153 11.7094H8.86136C8.73246 11.701 8.60691 11.7526 8.5214 11.8495C7.65552 12.7614 6.78154 13.6673 5.92152 14.5753V14.5751C5.75887 14.767 5.52101 14.8787 5.26949 14.8812C5.05955 14.8808 4.85852 14.7956 4.71221 14.645C4.56573 14.4945 4.48622 14.2913 4.49166 14.0812V11.8153C4.49166 11.6713 4.45162 11.6152 4.3057 11.5873C2.17387 11.0394 0.873849 9.64939 0.242031 7.58759V7.58773C0.140895 7.19811 0.0601212 6.8036 0 6.40573V5.3098C0.0385012 4.96091 0.105461 4.61578 0.200045 4.2778C0.721905 2.38199 1.84587 1.00804 3.71782 0.294119C4.25586 0.0946348 4.82586 -0.00496968 5.39965 0.000190712H9.9215C12.0253 -0.0098533 13.5991 0.926061 14.6791 2.67999C15.3893 3.86084 15.6836 5.24554 15.5149 6.61295C15.3464 7.98062 14.7248 9.25229 13.7492 10.2256L13.749 10.2255Z" fill="white"/>
<path d="M18.5063 7.28179C17.9508 6.78211 17.2651 6.44995 16.5285 6.32385C16.5285 6.37784 16.5146 6.40978 16.5105 6.43978V6.43992C16.4438 7.40511 16.1711 8.3448 15.7106 9.19574C14.4747 11.4356 12.6009 12.6595 10.0031 12.6915H9.18119C8.95715 12.6915 8.85727 12.8635 8.97124 13.0494C9.60317 14.0813 10.4872 14.7873 11.6971 14.9973H11.6969C12.2203 15.0614 12.7476 15.0875 13.2748 15.0753C13.3977 15.0677 13.5173 15.1172 13.5989 15.2093C13.9508 15.5853 14.3109 15.9533 14.6668 16.3252C14.9407 16.6111 15.2128 16.9031 15.4947 17.185V17.1852C15.614 17.322 15.7826 17.406 15.9637 17.4187C16.1448 17.4314 16.3235 17.372 16.4607 17.2531C16.6284 17.1007 16.7163 16.8793 16.6987 16.6533V15.2294C16.6987 15.0593 16.7448 14.9994 16.9127 14.9355V14.9353C17.3273 14.8031 17.7247 14.6217 18.0965 14.3953C20.4524 12.7755 20.6584 9.19351 18.5065 7.28184L18.5063 7.28179Z" fill="white"/>
</svg>
