<svg width="89" height="65" viewBox="0 0 89 65" fill="none" xmlns="http://www.w3.org/2000/svg">
<path d="M39.0218 10.8668C39.3444 15.965 30.9109 20.6558 20.186 21.3451C9.46184 22.0336 0.506515 18.459 0.184695 13.3608C-0.137126 8.26255 8.29555 3.57101 19.0205 2.8825C29.7446 2.19318 38.6999 5.76861 39.0218 10.8668Z" fill="#CE7602"/>
<path d="M0.433214 14.3278L0.00976562 10.5631L38.8057 7.41611L39.0235 10.8667L17.0017 20.1451L0.433214 14.3278Z" fill="#CE7602"/>
<path d="M38.846 8.06922C39.1686 13.1674 30.7351 17.859 20.011 18.5475C9.28607 19.236 0.330734 15.6614 0.0089133 10.5632C-0.312907 5.46494 8.11976 0.773401 18.8447 0.0848885C29.5688 -0.603626 38.5242 2.971 38.846 8.06922Z" fill="#FFC536"/>
<path d="M36.985 8.00164C37.2415 12.0699 29.6766 15.8668 20.089 16.4828C10.5005 17.0989 2.51949 14.2997 2.26219 10.2315C2.00571 6.16238 9.5697 2.36549 19.1582 1.74945C28.7467 1.13421 36.7277 3.93257 36.985 8.00164Z" fill="#F29603"/>
<path d="M37.2545 9.34153C37.511 13.4098 29.947 17.2075 20.3585 17.8227C10.77 18.4388 2.78902 15.6396 2.53172 11.5713C2.27524 7.50307 9.84004 3.7062 19.4277 3.09016C29.0162 2.47412 36.998 5.27326 37.2545 9.34153Z" fill="#F9CF70"/>
<path d="M7.09256 8.73599L7.06836 8.04587L33.1213 8.30597L33.1471 9.03797L7.09256 8.73599ZM14.4033 5.79511C12.3522 6.23319 10.4753 6.97002 10.5027 8.71747C10.5229 10.2419 12.3836 10.9078 14.0863 10.8482C15.9213 10.783 16.948 10.117 17.9433 8.55722C19.3387 6.21064 20.8873 4.54936 24.1644 4.45433C27.7681 4.3279 30.1257 6.11481 30.2007 8.26732C30.2822 9.66689 29.6361 10.9094 29.2369 11.6962C28.4868 11.8242 26.3341 12.1649 24.7346 12.3839L24.4507 11.763C26.9567 11.2074 29.1837 10.1533 29.1175 8.24398C29.0369 6.86454 27.6923 5.91591 25.3662 5.99805C23.499 6.06408 22.0463 6.74534 20.9575 8.45092C19.3702 10.9255 17.8716 12.1584 14.8897 12.2631C12.0078 12.3654 9.53486 11.0697 9.44695 8.53145C9.40097 7.19147 9.76957 6.48684 9.94137 5.74921C11.1488 5.58413 12.4562 5.43677 14.1541 5.21451L14.4033 5.79511Z" fill="#CE7602"/>
<path d="M89.0005 38.9283C89.0005 53.3275 77.9522 65 64.322 65C50.6918 65 39.6426 53.3275 39.6426 38.9283C39.6426 24.5283 50.6918 12.8558 64.322 12.8558C77.9522 12.8558 89.0005 24.5283 89.0005 38.9283Z" fill="#E8740C"/>
<path d="M86.2388 38.2035C86.2388 52.6027 75.1896 64.276 61.5594 64.276C47.93 64.276 36.8809 52.6027 36.8809 38.2035C36.8809 23.8051 47.93 12.1318 61.5594 12.1318C75.1896 12.1318 86.2388 23.8051 86.2388 38.2035Z" fill="#FFC536"/>
<path d="M83.4783 38.5659C83.4783 50.9648 73.897 61.0171 62.0776 61.0171C50.2589 61.0171 40.6777 50.9648 40.6777 38.5659C40.6777 26.167 50.2589 16.1147 62.0776 16.1147C73.897 16.1147 83.4783 26.167 83.4783 38.5659Z" fill="#F9CF70"/>
<path d="M61.6879 55.5098L59.5376 55.4896L61.5952 18.024L63.8729 18.0458L61.6879 55.5098ZM52.8794 44.7569C54.1457 47.7437 56.3508 50.5025 61.7936 50.6008C66.5402 50.6926 68.7043 48.069 68.5986 45.6137C68.4849 42.9683 66.4588 41.4391 61.6492 39.8825C54.4086 37.6897 49.3119 35.3295 49.1724 30.6065C48.949 25.4117 54.6272 22.1608 61.333 22.2236C65.6958 22.2171 69.5342 23.2447 71.9644 23.8816C72.3274 24.9704 73.284 28.0957 73.8897 30.4149L71.9451 30.774C70.3335 27.1237 67.1564 23.8365 61.2104 23.7802C56.9106 23.7874 53.8916 25.6468 54.036 29C54.1513 31.692 56.2041 33.8365 61.4629 35.538C69.0938 38.0175 72.8589 40.2715 73.0436 44.5692C73.2219 48.7253 69.0704 52.1799 61.1628 52.1059C56.9872 52.0664 54.8119 51.4793 52.5229 51.1741C52.068 49.4235 51.6703 47.5311 51.059 45.0709L52.8794 44.7569Z" fill="#CE7602"/>
<path d="M65.3138 64.9799C65.0508 64.6812 64.7839 64.3848 64.5137 64.0909C71.9236 63.1576 78.3261 58.7543 82.2243 52.4643C82.8962 53.0836 83.568 53.7053 84.2383 54.3261C83.2059 55.8151 82.0275 57.1833 80.7249 58.4081C76.5945 62.2919 71.2211 64.7335 65.3138 64.9799Z" fill="#F29B21"/>
<path d="M64.5131 64.0908C63.5355 63.027 62.5152 61.9979 61.4562 61.0074C61.6627 61.0139 61.87 61.0171 62.0772 61.0171C69.6856 61.0171 76.3664 56.8522 80.1613 50.5766C80.8509 51.2032 81.5373 51.8321 82.2237 52.4642C78.3256 58.7542 71.923 63.1575 64.5131 64.0908ZM43.577 49.8575C42.0235 49.289 40.4443 48.8018 38.8408 48.404C37.5785 45.2707 36.8809 41.8241 36.8809 38.2035C36.8809 34.3253 37.6826 30.6452 39.1199 27.3371C40.433 27.6302 41.7364 27.9564 43.0326 28.3171C41.5267 31.3901 40.6774 34.8737 40.6774 38.5659C40.6774 42.6833 41.7332 46.5406 43.577 49.8575Z" fill="#FFD863"/>
<path d="M62.0776 61.0171C61.8703 61.0171 61.663 61.0138 61.4565 61.0074C56.2776 56.1677 50.1743 52.2741 43.5773 49.8575C41.7335 46.5406 40.6777 42.6833 40.6777 38.5659C40.6777 34.8737 41.527 31.39 43.0329 28.3171C45.1034 28.8945 47.1513 29.5572 49.1669 30.3037C49.1669 30.4036 49.1693 30.5043 49.1733 30.6065C49.3048 35.0565 53.8369 37.4095 60.4169 39.5008L59.816 50.4309C55.7896 49.7754 53.9805 47.3523 52.8803 44.7569L51.0599 45.0709C51.6713 47.5311 52.0689 49.4235 52.5238 51.1741C54.5346 51.4423 56.4574 51.9279 59.7265 52.068L59.5385 55.4896L61.6888 55.5098L61.8881 52.1026C69.3238 51.9649 73.2171 48.5964 73.0445 44.5692C73.0421 44.5032 73.0381 44.438 73.0332 44.3728C75.4634 46.3682 77.8267 48.4547 80.1617 50.5766C76.3668 56.8522 69.686 61.0171 62.0776 61.0171ZM62.0356 50.6032C62.0155 50.6032 61.9953 50.6032 61.9752 50.6032L62.5817 40.1966C66.7234 41.6493 68.493 43.1463 68.5995 45.6137C68.7028 48.0279 66.6145 50.6032 62.0356 50.6032Z" fill="#FBDF98"/>
<path d="M61.688 55.5098L59.5377 55.4896L59.7256 52.068C56.4566 51.9279 54.5337 51.4423 52.5229 51.1741C52.068 49.4235 51.6704 47.5311 51.059 45.0709L52.8795 44.7569C53.9796 47.3523 55.7888 49.7754 59.8151 50.4309L60.416 39.5008C53.836 37.4095 49.3039 35.0565 49.1725 30.6065C49.1684 30.5043 49.166 30.4036 49.166 30.3037C54.1909 32.1647 59.0215 34.5475 63.5431 37.4208C66.8637 39.5306 70.0005 41.882 73.0324 44.3728C73.0372 44.438 73.0412 44.5032 73.0437 44.5692C73.2163 48.5964 69.323 51.9649 61.8872 52.1026L61.688 55.5098ZM61.9743 50.6032C61.9945 50.6032 62.0146 50.6032 62.0348 50.6032C66.6137 50.6032 68.7019 48.0279 68.5987 45.6137C68.4922 43.1463 66.7226 41.6493 62.5808 40.1966L61.9743 50.6032Z" fill="#E49D06"/>
</svg>
