<svg width="26" height="23" viewBox="0 0 26 23" fill="none" xmlns="http://www.w3.org/2000/svg">
<path d="M17.8737 13.2932C16.5808 14.5625 14.8314 15.2579 13.0199 15.2222H11.5198C11.3522 15.2113 11.189 15.2784 11.0778 15.4043C9.95218 16.5898 8.816 17.7675 7.69798 18.9479V18.9477C7.48653 19.197 7.17732 19.3423 6.85034 19.3456C6.57741 19.345 6.31608 19.2342 6.12587 19.0385C5.93545 18.8429 5.83208 18.5786 5.83915 18.3055V15.3599C5.83915 15.1727 5.78711 15.0998 5.59742 15.0635C2.82604 14.3512 1.136 12.5442 0.31464 9.86387V9.86405C0.183163 9.35755 0.0781576 8.84468 0 8.32745V6.90274C0.0500515 6.44919 0.1371 6.00051 0.260058 5.56114C0.938476 3.09658 2.39963 1.31045 4.83317 0.382354C5.53262 0.123025 6.27362 -0.00646058 7.01954 0.000247925H12.898C15.6329 -0.0128093 17.6789 1.20388 19.0828 3.48398C20.006 5.01909 20.3887 6.8192 20.1694 8.59684C19.9503 10.3748 19.1423 12.028 17.8739 13.2933L17.8737 13.2932Z" fill="#CA3101"/>
<path d="M24.0588 9.46627C23.3367 8.81668 22.4452 8.38488 21.4876 8.22095C21.4876 8.29113 21.4695 8.33266 21.4643 8.37165V8.37183C21.3776 9.62658 21.023 10.8482 20.4244 11.9544C18.8177 14.8662 16.3818 16.4573 13.0047 16.4989H11.9361C11.6449 16.4989 11.515 16.7225 11.6632 16.9642C12.4847 18.3057 13.6339 19.2235 15.2068 19.4964H15.2066C15.887 19.5798 16.5725 19.6137 17.2579 19.5978C17.4176 19.588 17.5731 19.6524 17.6791 19.772C18.1367 20.2608 18.6048 20.7392 19.0674 21.2227C19.4235 21.5944 19.7772 21.974 20.1437 22.3405V22.3407C20.2987 22.5186 20.518 22.6278 20.7534 22.6443C20.9888 22.6608 21.2211 22.5835 21.3996 22.429C21.6175 22.2308 21.7318 21.943 21.7089 21.6492V19.7981C21.7089 19.5771 21.7688 19.4991 21.9871 19.416V19.4159C22.5261 19.2439 23.0428 19.0082 23.526 18.7139C26.5887 16.608 26.8565 11.9515 24.059 9.46633L24.0588 9.46627Z" fill="#CA3101"/>
</svg>
