<svg width="24" height="30" viewBox="0 0 24 30" fill="none" xmlns="http://www.w3.org/2000/svg">
<path d="M23.0719 25.6598V7.04607C23.0786 6.99247 23.0786 6.93825 23.0719 6.88465C23.0569 6.81003 23.032 6.73815 22.9976 6.67054L22.9714 6.62241V6.62272C22.9327 6.55449 22.8858 6.49145 22.8316 6.4348L16.6272 0.238936C16.5718 0.186855 16.5102 0.14117 16.4438 0.103706L16.3957 0.0775122C16.3281 0.0430956 16.2562 0.0181213 16.1819 0.00319795C16.128 -0.00106598 16.0741 -0.00106598 16.0202 0.00319795H4.57581C4.09367 0.00319795 3.70262 0.394262 3.70262 0.87638V3.45242L0.873183 3.45272C0.391049 3.45272 0 3.84349 0 4.32591V29.1265C0 29.3583 0.0919811 29.5803 0.255834 29.7442C0.419695 29.9077 0.641722 30 0.873198 30H18.4959C18.7274 30 18.9494 29.9077 19.1133 29.7442C19.2771 29.5803 19.3691 29.3583 19.3691 29.1265V26.5505H22.1985C22.4331 26.5505 22.6578 26.456 22.822 26.2885C22.9865 26.121 23.0763 25.8944 23.0717 25.6599L23.0719 25.6598ZM1.74716 28.2358V5.18174H11.4357V10.4955C11.4357 10.727 11.5277 10.949 11.6915 11.1129C11.8554 11.2767 12.0774 11.3687 12.3089 11.3687H17.6227V28.2359L1.74716 28.2358ZM13.1822 6.4043L16.3871 9.60924L13.1822 9.60894V6.4043ZM20.0898 6.15973H16.8849V2.96781L20.0898 6.15973ZM15.1381 1.73223V5.90204L12.9245 3.68841C12.8691 3.63602 12.8076 3.59064 12.7412 3.55287L12.693 3.52668C12.6263 3.49044 12.5542 3.46546 12.4792 3.45267C12.4268 3.4481 12.3741 3.4481 12.3218 3.45267H5.44944V1.74981L15.1381 1.73223ZM19.3515 10.3338C19.3369 10.2595 19.3119 10.1876 19.2775 10.12L19.2513 10.0719C19.2127 10.0037 19.1658 9.94064 19.1115 9.8843L17.1553 7.92804H21.3251V24.7859H19.3692V10.4948C19.3701 10.4403 19.364 10.3861 19.3515 10.3331L19.3515 10.3338Z" fill="#087EEA"/>
</svg>
