<svg width="30" height="30" viewBox="0 0 30 30" fill="none" xmlns="http://www.w3.org/2000/svg">
<path d="M15 30C23.2843 30 30 23.2843 30 15C30 6.71573 23.2843 0 15 0C6.71573 0 0 6.71573 0 15C0 23.2843 6.71573 30 15 30Z" fill="#5865F2"/>
<path d="M20.1982 10.2245C19.2256 9.77818 18.1993 9.4599 17.1448 9.27767C17.1352 9.27584 17.1253 9.2771 17.1165 9.28126C17.1076 9.28541 17.1003 9.29226 17.0956 9.30082C16.9556 9.5546 16.8285 9.81528 16.7148 10.0819C15.5782 9.90927 14.4221 9.90927 13.2856 10.0819C13.1713 9.81462 13.0424 9.55387 12.8994 9.30082C12.8945 9.29244 12.8872 9.28574 12.8784 9.28161C12.8696 9.27748 12.8598 9.27611 12.8502 9.27767C11.7961 9.45961 10.7701 9.7779 9.79805 10.2245C9.78968 10.2281 9.78261 10.2341 9.77784 10.2418C7.8334 13.1472 7.30079 15.9811 7.56212 18.7792C7.56286 18.7861 7.56498 18.7928 7.56836 18.7988C7.57173 18.8048 7.57628 18.8102 7.58174 18.8144C8.71402 19.6531 9.98058 20.2934 11.3274 20.7079C11.3369 20.7107 11.347 20.7106 11.3564 20.7075C11.3658 20.7044 11.3741 20.6985 11.3801 20.6906C11.6693 20.2969 11.9255 19.88 12.1462 19.4443C12.1492 19.4383 12.1509 19.4317 12.1512 19.4251C12.1515 19.4184 12.1504 19.4117 12.1479 19.4055C12.1455 19.3992 12.1417 19.3936 12.1369 19.3889C12.1321 19.3843 12.1264 19.3807 12.1201 19.3784C11.716 19.224 11.3247 19.0379 10.95 18.8217C10.9432 18.8177 10.9375 18.8121 10.9334 18.8054C10.9293 18.7986 10.9269 18.791 10.9264 18.7831C10.9259 18.7752 10.9274 18.7674 10.9307 18.7602C10.934 18.753 10.939 18.7468 10.9453 18.742C11.0238 18.6834 11.1026 18.6219 11.1776 18.5598C11.1843 18.5543 11.1924 18.5508 11.2009 18.5497C11.2094 18.5486 11.2181 18.5498 11.226 18.5534C13.6808 19.6743 16.3386 19.6743 18.7644 18.5534C18.7723 18.5496 18.7811 18.5481 18.7898 18.5491C18.7985 18.5502 18.8068 18.5537 18.8136 18.5592C18.8886 18.621 18.9674 18.6831 19.048 18.742C19.0543 18.7468 19.0593 18.753 19.0627 18.7601C19.066 18.7672 19.0676 18.7751 19.0672 18.783C19.0667 18.7908 19.0644 18.7985 19.0603 18.8053C19.0563 18.812 19.0506 18.8177 19.0439 18.8217C18.6696 19.04 18.2776 19.2262 17.872 19.3784C17.8657 19.3807 17.8599 19.3844 17.8551 19.3892C17.8503 19.394 17.8466 19.3997 17.8442 19.406C17.8418 19.4123 17.8407 19.4191 17.8411 19.4258C17.8415 19.4326 17.8434 19.4392 17.8465 19.4452C18.0709 19.8785 18.3267 20.2949 18.612 20.6909C18.6178 20.699 18.626 20.7051 18.6355 20.7083C18.645 20.7115 18.6552 20.7117 18.6648 20.7087C20.0134 20.2955 21.2816 19.6552 22.4148 18.8153C22.4203 18.8112 22.4249 18.8061 22.4283 18.8001C22.4317 18.7941 22.4338 18.7875 22.4344 18.7807C22.7473 15.5452 21.9106 12.7344 20.2166 10.243C20.2128 10.2349 20.2063 10.2283 20.1982 10.2245ZM12.5124 17.0756C11.7732 17.0756 11.1648 16.3971 11.1648 15.5639C11.1648 14.7307 11.7618 14.0522 12.5124 14.0522C13.2691 14.0522 13.8724 14.7366 13.8601 15.5639C13.8607 16.3971 13.2633 17.0756 12.5124 17.0756ZM17.4967 17.0756C16.7575 17.0756 16.149 16.3971 16.149 15.5639C16.149 14.7307 16.7461 14.0522 17.4967 14.0522C18.2534 14.0522 18.8566 14.7366 18.8443 15.5639C18.8446 16.3971 18.2534 17.0756 17.4967 17.0756Z" fill="white"/>
</svg>
