<svg width="28" height="28" viewBox="0 0 28 28" fill="none" xmlns="http://www.w3.org/2000/svg">
<path d="M7.05758 15.4276H8.09341L11.5696 21.1545L11.8224 26.8006C11.8435 27.2571 12.2297 27.6081 12.6862 27.5871C18.989 27.3061 17.5072 21.2247 16.5277 16.8494L25.7693 16.4982C27.6584 16.5332 29.3262 12.7375 26.4576 11.4419C26.7841 11.1259 27.086 10.7326 27.3003 10.2481C27.8727 8.96642 26.8369 8.24654 25.7132 7.85002C26.1029 7.46034 26.4331 6.95113 26.5734 6.30161C26.8683 4.91114 25.5095 4.24399 24.2033 3.92804C24.6106 3.52415 24.9863 3.0326 25.204 2.45675C26.1906 -0.169628 22.367 0.00230026 22.3565 0.00230026C18.2096 0.188448 14.0561 0.33246 9.90587 0.497297C9.57571 0.511257 9.30188 0.71504 9.18261 0.999397L8.67708 2.1089L7.1039 2.05281C6.65103 2.03885 6.26821 2.39694 6.25423 2.84981C6.12442 6.68413 6.2437 10.7471 6.2366 14.6057C6.2366 15.0623 6.60521 15.4274 7.0583 15.4274L7.05758 15.4276Z" fill="#CA3101"/>
<path d="M0.825152 15.3009H4.6068C5.06335 15.3009 5.43196 14.9286 5.43196 14.4758V3.03589C5.43196 2.57935 5.06334 2.21074 4.6068 2.21074H0.825152C0.368609 2.21074 0 2.57936 0 3.03589V14.4758C0 14.9287 0.368616 15.3009 0.825152 15.3009Z" fill="#CA3101"/>
</svg>
