<svg width="20" height="16" viewBox="0 0 20 16" fill="none" xmlns="http://www.w3.org/2000/svg">
<g clip-path="url(#clip0_201_5335)">
<path fill-rule="evenodd" clip-rule="evenodd" d="M0 0.5H28.5V1.6543H0V0.5ZM0 2.80859H28.5V3.96289H0V2.80859ZM0 5.11426H28.5V6.27148H0V5.11426ZM0 7.42285H28.5V8.57715H0V7.42285ZM0 9.73145H28.5V10.8857H0V9.73145ZM0 12.0371H28.5V13.1914H0V12.0371ZM0 14.3457H28.5V15.5H0V14.3457Z" fill="#BD3D44"/>
<path fill-rule="evenodd" clip-rule="evenodd" d="M0 1.6543H28.5V2.80859H0V1.6543ZM0 3.96289H28.5V5.11426H0V3.96289ZM0 6.26855H28.5V7.42285H0V6.26855ZM0 8.57715H28.5V9.73145H0V8.57715ZM0 10.8857H28.5V12.04H0V10.8857ZM0 13.1914H28.5V14.3457H0V13.1914Z" fill="white"/>
<path fill-rule="evenodd" clip-rule="evenodd" d="M0 0.5H11.3994V8.57715H0V0.5Z" fill="#192F5D"/>
<path fill-rule="evenodd" clip-rule="evenodd" d="M0.947266 0.845703L1.05273 1.16504H1.38672L1.11719 1.36133L1.21973 1.68359L0.947266 1.48438L0.677734 1.68066L0.780273 1.36133L0.507812 1.16504H0.847656L0.947266 0.845703ZM2.84863 0.845703L2.95117 1.16504H3.28809L3.01562 1.36133L3.11816 1.68359L2.84863 1.48438L2.57617 1.68066L2.67871 1.36133L2.40918 1.16504H2.74316L2.84863 0.845703ZM4.74707 0.845703L4.85254 1.16504H5.18359L4.91406 1.36133L5.0166 1.68359L4.74414 1.48438L4.47461 1.68066L4.57715 1.36133L4.30469 1.16504H4.6416L4.74707 0.845703ZM6.64844 0.845703L6.75098 1.16504H7.08789L6.81543 1.36133L6.9209 1.68359L6.64844 1.48438L6.37598 1.68066L6.48145 1.36133L6.20898 1.16504H6.54297L6.64844 0.845703ZM8.54688 0.845703L8.65234 1.16504H8.98633L8.7168 1.36133L8.81934 1.68359L8.54688 1.48438L8.27734 1.68066L8.37988 1.36133L8.11035 1.16504H8.44434L8.54688 0.845703ZM10.4482 0.845703L10.5508 1.16504H10.8877L10.6152 1.36133L10.7207 1.68359L10.4482 1.48438L10.1758 1.68066L10.2813 1.36133L10.0088 1.16504H10.3457L10.4482 0.845703ZM1.89941 1.6543L2.00195 1.97363H2.33887L2.06641 2.16992L2.16602 2.48926L1.90234 2.29297L1.62988 2.48926L1.72656 2.16992L1.46289 1.97363H1.79688L1.89941 1.6543ZM3.79785 1.6543L3.90332 1.97363H4.2373L3.96484 2.16992L4.07031 2.48926L3.79785 2.29297L3.52539 2.48926L3.63086 2.16992L3.3584 1.97363H3.69531L3.79785 1.6543ZM5.69922 1.6543L5.80176 1.97363H6.13867L5.86621 2.16992L5.96875 2.48926L5.69922 2.29297L5.42676 2.48926L5.5293 2.16992L5.25977 1.97363H5.59375L5.69922 1.6543ZM7.59766 1.6543L7.70313 1.97363H8.03711L7.76465 2.16992L7.87012 2.48926L7.59766 2.29297L7.32813 2.48926L7.43066 2.16992L7.1582 1.97363H7.49805L7.59766 1.6543ZM9.49902 1.6543L9.60156 1.97363H9.93848L9.66602 2.16992L9.76856 2.48926L9.49902 2.29297L9.22656 2.48926L9.3291 2.16992L9.05957 1.97363H9.39356L9.49902 1.6543ZM0.947266 2.45996L1.05273 2.78516H1.38672L1.11719 2.98145L1.21973 3.30078L0.947266 3.10156L0.677734 3.30078L0.780273 2.97852L0.507812 2.78223H0.847656L0.947266 2.45996ZM2.84863 2.45996L2.95117 2.78223H3.28809L3.01562 2.97852L3.11816 3.29785L2.84863 3.09863L2.57617 3.29785L2.67871 2.97559L2.40918 2.7793H2.74316L2.84863 2.45996ZM4.74707 2.45996L4.85254 2.78223H5.18359L4.91406 2.97852L5.0166 3.29785L4.74414 3.09863L4.47461 3.29785L4.57715 2.97559L4.30469 2.7793H4.6416L4.74707 2.45996ZM6.64844 2.45996L6.75098 2.78223H7.08789L6.81543 2.97852L6.9209 3.29785L6.64844 3.09863L6.37598 3.29785L6.48145 2.97559L6.20898 2.7793H6.54297L6.64844 2.45996ZM8.54688 2.45996L8.65234 2.78223H8.98633L8.7168 2.97852L8.81934 3.29785L8.54688 3.09863L8.27734 3.29785L8.37988 2.97559L8.11035 2.7793H8.44434L8.54688 2.45996ZM10.4482 2.45996L10.5508 2.78223H10.8877L10.6152 2.97852L10.7207 3.29785L10.4482 3.09863L10.1758 3.29785L10.2813 2.97559L10.0088 2.7793H10.3457L10.4482 2.45996ZM1.89941 3.26855L2.00195 3.58789H2.33887L2.06641 3.78418L2.16895 4.10645L1.89941 3.90723L1.62695 4.10352L1.72949 3.78418L1.45996 3.58789H1.79395L1.89941 3.26855ZM3.79785 3.26855L3.90332 3.58789H4.2373L3.96484 3.78418L4.07031 4.10645L3.79785 3.90723L3.52539 4.10352L3.63086 3.78418L3.3584 3.58789H3.69531L3.79785 3.26855ZM5.69922 3.26855L5.80176 3.58789H6.13867L5.86621 3.78418L5.96875 4.10645L5.69922 3.90723L5.42676 4.10352L5.5293 3.78418L5.25977 3.58789H5.59375L5.69922 3.26855ZM7.59766 3.26855L7.70313 3.58789H8.03711L7.76758 3.78418L7.87012 4.10645L7.59766 3.90723L7.32813 4.10352L7.43066 3.78418L7.1582 3.58789H7.49805L7.59766 3.26855ZM9.49902 3.26855L9.60156 3.58789H9.93848L9.66602 3.78418L9.76856 4.10645L9.49902 3.90723L9.22656 4.10352L9.3291 3.78418L9.05957 3.58789H9.39356L9.49902 3.26855ZM0.947266 4.07715L1.05273 4.39648H1.38672L1.11719 4.59277L1.21973 4.91504L0.947266 4.71582L0.677734 4.91211L0.780273 4.59277L0.507812 4.39648H0.847656L0.947266 4.07715ZM2.84863 4.07715L2.95117 4.39648H3.28809L3.01562 4.59277L3.11816 4.91211L2.84863 4.71582L2.57617 4.91211L2.67871 4.59277L2.40918 4.39648H2.74316L2.84863 4.07715ZM4.74707 4.07715L4.85254 4.39648H5.18359L4.91406 4.59277L5.0166 4.91504L4.74414 4.71582L4.47461 4.91211L4.57715 4.59277L4.30469 4.39648H4.6416L4.74707 4.07715ZM6.64844 4.07715L6.75098 4.39648H7.08789L6.81543 4.59277L6.9209 4.91504L6.64844 4.71582L6.37598 4.91211L6.48145 4.59277L6.20898 4.39648H6.54297L6.64844 4.07715ZM8.54688 4.07715L8.65234 4.39648H8.98633L8.7168 4.59277L8.81934 4.91504L8.54688 4.71582L8.27734 4.91211L8.37988 4.59277L8.11035 4.39648H8.44434L8.54688 4.07715ZM10.4482 4.07715L10.5508 4.39648H10.8877L10.6152 4.59277L10.7207 4.91504L10.4482 4.71582L10.1758 4.91211L10.2813 4.59277L10.0088 4.39648H10.3457L10.4482 4.07715ZM1.89941 4.88574L2.00195 5.20508H2.33887L2.06641 5.40137L2.16895 5.7207L1.89941 5.52148L1.62695 5.7207L1.72949 5.39844L1.45996 5.20215H1.79395L1.89941 4.88574ZM3.79785 4.88574L3.90332 5.20508H4.2373L3.96484 5.40137L4.07031 5.7207L3.79785 5.52148L3.52539 5.7207L3.63086 5.39844L3.3584 5.20215H3.69531L3.79785 4.88574ZM5.69922 4.88574L5.80176 5.20508H6.13867L5.86621 5.40137L5.96875 5.7207L5.69922 5.52148L5.42676 5.7207L5.5293 5.39844L5.25977 5.20215H5.59375L5.69922 4.88574ZM7.59766 4.88574L7.70313 5.20508H8.03711L7.76758 5.40137L7.87012 5.7207L7.59766 5.52148L7.32813 5.7207L7.43066 5.39844L7.1582 5.20215H7.49805L7.59766 4.88574ZM9.49902 4.88574L9.60156 5.20508H9.93848L9.66602 5.40137L9.76856 5.7207L9.49902 5.52148L9.22656 5.7207L9.3291 5.39844L9.05957 5.20215H9.39356L9.49902 4.88574ZM0.947266 5.69141L1.05273 6.01367H1.38672L1.11719 6.20996L1.21973 6.52637L0.947266 6.33008L0.677734 6.52637L0.780273 6.20703L0.507812 6.01074H0.847656L0.947266 5.69141ZM2.84863 5.69141L2.95117 6.01367H3.28809L3.01562 6.20996L3.12109 6.52637L2.84863 6.33008L2.57617 6.52637L2.68164 6.20703L2.40918 6.01074H2.74316L2.84863 5.69141ZM4.74707 5.69141L4.85254 6.01367H5.18359L4.91406 6.20996L5.0166 6.52637L4.74414 6.33008L4.47461 6.52637L4.57715 6.20703L4.30469 6.01074H4.6416L4.74707 5.69141ZM6.64844 5.69141L6.75098 6.01367H7.08789L6.81543 6.20996L6.9209 6.52637L6.64844 6.33008L6.37598 6.52637L6.48145 6.20703L6.20898 6.01074H6.54297L6.64844 5.69141ZM8.54688 5.69141L8.65234 6.01367H8.98633L8.7168 6.20996L8.81934 6.52637L8.54688 6.33008L8.27734 6.52637L8.37988 6.20703L8.11035 6.01074H8.44434L8.54688 5.69141ZM10.4482 5.69141L10.5508 6.01367H10.8877L10.6152 6.20996L10.7207 6.52637L10.4482 6.33008L10.1758 6.52637L10.2813 6.20703L10.0088 6.01074H10.3457L10.4482 5.69141ZM1.89941 6.5L2.00195 6.81934H2.33887L2.06641 7.01562L2.16895 7.33789L1.89941 7.13867L1.62695 7.33496L1.72949 7.01562L1.45996 6.81934H1.79395L1.89941 6.5ZM3.79785 6.5L3.90332 6.81934H4.2373L3.96484 7.01562L4.07031 7.33789L3.79785 7.13867L3.52539 7.33496L3.63086 7.01562L3.3584 6.81934H3.69531L3.79785 6.5ZM5.69922 6.5L5.80176 6.81934H6.13867L5.86621 7.01562L5.96875 7.33789L5.69922 7.13867L5.42676 7.33496L5.5293 7.01562L5.25977 6.81934H5.59375L5.69922 6.5ZM7.59766 6.5L7.70313 6.81934H8.03711L7.76758 7.01562L7.87012 7.33789L7.59766 7.13867L7.32813 7.33496L7.43066 7.01562L7.1582 6.81934H7.49805L7.59766 6.5ZM9.49902 6.5L9.60156 6.81934H9.93848L9.66602 7.01562L9.76856 7.33789L9.49902 7.13867L9.22656 7.33496L9.3291 7.01562L9.05957 6.81934H9.39356L9.49902 6.5ZM0.947266 7.30859L1.05273 7.62793H1.38672L1.11719 7.82422L1.21973 8.14355L0.947266 7.94727L0.677734 8.14355L0.780273 7.82129L0.507812 7.625H0.847656L0.947266 7.30859ZM2.84863 7.30859L2.95117 7.62793H3.28809L3.01562 7.82422L3.12109 8.14355L2.84863 7.94727L2.57617 8.14355L2.68164 7.82129L2.40918 7.625H2.74316L2.84863 7.30859ZM4.74707 7.30859L4.85254 7.62793H5.18359L4.91992 7.82422L5.02246 8.14355L4.75 7.94727L4.48047 8.14355L4.58301 7.82129L4.31055 7.625H4.64746L4.74707 7.30859ZM6.64844 7.30859L6.75098 7.62793H7.08789L6.81543 7.82422L6.9209 8.14355L6.64844 7.94727L6.37598 8.14355L6.48145 7.82129L6.20898 7.625H6.54297L6.64844 7.30859ZM8.54688 7.30859L8.65234 7.62793H8.98633L8.7168 7.82422L8.81934 8.14355L8.54688 7.94727L8.27734 8.14355L8.37988 7.82129L8.11035 7.625H8.44434L8.54688 7.30859ZM10.4482 7.30859L10.5508 7.62793H10.8877L10.6152 7.82422L10.7207 8.14355L10.4482 7.94727L10.1758 8.14355L10.2813 7.82129L10.0088 7.625H10.3457L10.4482 7.30859Z" fill="white"/>
</g>
<defs>
<clipPath id="clip0_201_5335">
<rect width="20" height="15" fill="white" transform="translate(0 0.5)"/>
</clipPath>
</defs>
</svg>
