<svg width="20" height="16" viewBox="0 0 20 16" fill="none" xmlns="http://www.w3.org/2000/svg">
<g clip-path="url(#clip0_201_7059)">
<path fill-rule="evenodd" clip-rule="evenodd" d="M-5.19531 0.602814H25.2959V15.2316H-5.19531V0.602814Z" fill="#FFC621"/>
<path fill-rule="evenodd" clip-rule="evenodd" d="M-5.25391 10.5609H25.2755V15.54H-5.25391V10.5609Z" fill="#EF2118"/>
<path fill-rule="evenodd" clip-rule="evenodd" d="M-5.19531 0.5H25.2959V5.7875H-5.19531V0.5Z" fill="#298C08"/>
<path d="M9.51149 11.441C11.261 11.441 12.6792 10.0227 12.6792 8.27321C12.6792 6.52371 11.261 5.10547 9.51149 5.10547C7.762 5.10547 6.34375 6.52371 6.34375 8.27321C6.34375 10.0227 7.762 11.441 9.51149 11.441Z" fill="#006BC6"/>
<path fill-rule="evenodd" clip-rule="evenodd" d="M8.08997 6.02837L7.89903 6.16056L8.58934 7.12993L8.77441 7.01243L8.08703 6.02837H8.08997ZM8.95359 8.31962L8.66866 8.11987L8.78616 7.74681L7.37322 7.76737L6.96197 7.45306L8.89191 7.4325L9.25028 6.34856L9.44416 6.78918L8.95359 8.31668V8.31962ZM11.2008 6.24281L11.0157 6.10181L10.3019 7.05356L10.4664 7.19162L11.2008 6.24281ZM9.27966 7.75562L9.38247 7.42662H9.77316L9.32666 6.08125L9.50291 5.59656L10.1051 7.42956L11.2448 7.44424L10.8865 7.75856L9.27966 7.75268V7.75562ZM11.941 9.25962L12.0203 9.04224L10.8953 8.65156L10.813 8.85718L11.941 9.25962ZM9.91122 7.89662L10.2549 7.89368L10.3753 8.26381L11.5151 7.42662L12.0321 7.44424L10.4723 8.58106L10.8101 9.67381L10.3988 9.42706L9.91122 7.89662ZM9.32959 10.8929L9.56166 10.8987L9.57047 9.70906L9.35309 9.69437L9.32959 10.8958V10.8929ZM9.97584 8.53406L10.0875 8.86012L9.77316 9.09512L10.9305 9.90881L11.0774 10.4023L9.50291 9.28606L8.57759 9.95287L8.68041 9.48287L9.97291 8.53406H9.97584ZM6.94141 8.91593L7.00897 9.13625L8.14578 8.77787L8.08703 8.56637L6.94141 8.91593ZM9.38541 8.79843L9.10928 9.007L8.79203 8.78081L8.37491 10.1321L7.95191 10.4258L8.52472 8.584L7.60234 7.90837L8.08116 7.86137L9.38541 8.79843Z" fill="#FFC621"/>
</g>
<defs>
<clipPath id="clip0_201_7059">
<rect width="20" height="15" fill="white" transform="translate(0 0.5)"/>
</clipPath>
</defs>
</svg>
