<svg width="20" height="12" viewBox="0 0 20 12" fill="none" xmlns="http://www.w3.org/2000/svg">
<path d="M11.5211 5.59887C11.5205 6.00217 11.3598 6.38879 11.0742 6.67371C10.7887 6.95861 10.4016 7.11831 9.99834 7.11801C9.59504 7.11758 9.20827 6.957 8.92335 6.67168C8.63831 6.38621 8.47831 5.9993 8.47846 5.59599C8.47874 5.19269 8.63904 4.80592 8.92434 4.52074C9.20953 4.23556 9.59643 4.07541 9.99974 4.07541C10.4036 4.07541 10.7908 4.23599 11.0762 4.52174C11.3616 4.8075 11.5217 5.19497 11.5211 5.59887H11.5211ZM19.785 6.20694C18.2669 8.2487 16.148 9.76439 13.7253 10.5417C11.3026 11.319 8.69733 11.319 6.27469 10.5417C3.85194 9.76428 1.73294 8.24855 0.214965 6.20694C0.0753939 6.02103 0 5.79483 0 5.56232C0 5.32982 0.0753975 5.10362 0.214965 4.91771C1.73312 2.87595 3.85198 1.36026 6.27469 0.582969C8.69744 -0.194323 11.3027 -0.194323 13.7253 0.582969C16.1481 1.36037 18.2671 2.8761 19.785 4.91771C19.9246 5.10361 20 5.32982 20 5.56232C20 5.79483 19.9246 6.02103 19.785 6.20694ZM13.7968 5.59887C13.7973 4.5918 13.3978 3.62576 12.686 2.91323C11.9743 2.20084 11.0085 1.80026 10.0015 1.79996C8.9944 1.79953 8.02837 2.19925 7.31613 2.9112C6.60374 3.62315 6.20345 4.58892 6.20331 5.59599C6.20302 6.60306 6.60304 7.56895 7.31513 8.28119C8.02708 8.99328 8.993 9.39342 10.0001 9.39342C11.0063 9.39227 11.971 8.99225 12.6828 8.2809C13.3945 7.56954 13.7951 6.60505 13.7968 5.59887H13.7968Z" fill="white"/>
</svg>
