<svg width="30" height="30" viewBox="0 0 30 30" fill="none" xmlns="http://www.w3.org/2000/svg">
<path d="M26.2502 4H3.74995C2.75576 4.00075 1.80227 4.39627 1.09942 5.09942C0.396261 5.80233 0.000771436 6.75583 0 7.74995V18.2498C0.000753371 19.2443 0.396268 20.1975 1.09942 20.9006C1.80233 21.6035 2.75583 21.999 3.74995 22H10.5V25.75C10.5003 26.034 10.6605 26.2934 10.9144 26.4207C11.1685 26.5478 11.4723 26.5207 11.6996 26.3507L17.5007 22.0001H26.25C27.2442 21.9991 28.1977 21.6035 28.9006 20.9006C29.6037 20.1975 29.9992 19.2442 30 18.2498V7.74996C29.9992 6.75577 29.6037 5.80228 28.9006 5.09944C28.1977 4.39627 27.2442 4.00078 26.25 4.00001L26.2502 4ZM10.2731 12.9577L9.4308 13.7793L9.62994 14.9395V14.9397C9.66686 15.1574 9.60583 15.3804 9.4632 15.5492C9.32081 15.7179 9.11112 15.8156 8.89014 15.8156C8.7686 15.8161 8.64882 15.7865 8.54134 15.7292L7.49996 15.1813L6.45859 15.7292C6.20596 15.8621 5.9001 15.8402 5.66909 15.6725C5.43806 15.505 5.3223 15.221 5.37001 14.9397L5.56915 13.7796L4.72687 12.9579V12.9577C4.52246 12.7585 4.44863 12.4605 4.53652 12.189C4.62442 11.9173 4.85896 11.7189 5.14147 11.6775L6.30615 11.509L6.82772 10.4528C6.96885 10.216 7.22424 10.0706 7.49996 10.0706C7.77594 10.0706 8.03133 10.216 8.17246 10.4528L8.69404 11.509L9.85871 11.6775H9.85846C10.141 11.7189 10.3755 11.9173 10.4634 12.189C10.5516 12.4605 10.4777 12.7585 10.2731 12.9577L10.2731 12.9577ZM17.7734 12.9577L16.9311 13.7793L17.1302 14.9395V14.9397C17.1669 15.1574 17.1059 15.3804 16.9635 15.5492C16.8208 15.7179 16.6112 15.8156 16.3904 15.8156C16.2689 15.8161 16.1488 15.7865 16.0416 15.7292L15.0002 15.1813L13.9589 15.7292C13.7062 15.8621 13.4001 15.8402 13.1694 15.6725C12.9383 15.505 12.8223 15.221 12.8703 14.9397L13.0694 13.7796L12.2272 12.9579V12.9577C12.0225 12.7585 11.9487 12.4605 12.0368 12.189C12.1247 11.9173 12.3592 11.7189 12.6418 11.6775L13.8064 11.509L14.3278 10.4528C14.4689 10.216 14.7245 10.0706 15.0003 10.0706C15.276 10.0706 15.5316 10.216 15.6728 10.4528L16.1943 11.509L17.359 11.6775H17.3588C17.6413 11.7189 17.8758 11.9173 17.9637 12.189C18.0516 12.4605 17.9778 12.7585 17.7731 12.9577L17.7734 12.9577ZM25.2736 12.9577L24.4314 13.7793L24.6305 14.9395L24.6303 14.9397C24.6672 15.1574 24.6062 15.3804 24.4635 15.5492C24.3211 15.7179 24.1114 15.8156 23.8905 15.8156C23.7689 15.8161 23.6491 15.7865 23.5419 15.7292L22.5005 15.1813L21.4592 15.7292H21.4589C21.2065 15.8621 20.9004 15.8402 20.6694 15.6725C20.4386 15.505 20.3226 15.221 20.3706 14.9397L20.5697 13.7796L19.7274 12.9579V12.9577C19.5228 12.7585 19.4489 12.4605 19.5368 12.189C19.625 11.9173 19.8593 11.7189 20.1418 11.6775L21.3065 11.509L21.828 10.4528C21.9692 10.216 22.2246 10.0706 22.5005 10.0706C22.7763 10.0706 23.0317 10.216 23.1728 10.4528L23.6944 11.509L24.859 11.6775H24.8588C25.1413 11.7189 25.3758 11.9173 25.464 12.189C25.5519 12.4605 25.478 12.7585 25.2734 12.9577L25.2736 12.9577Z" fill="#FF9100"/>
</svg>
