<svg width="26" height="25" viewBox="0 0 26 25" fill="none" xmlns="http://www.w3.org/2000/svg">
<path d="M13.1965 4.39945C13.1965 4.66296 13.0647 4.87353 12.8277 5.0053C12.6959 5.05803 12.5642 5.08431 12.4326 5.08431H11.379C11.1945 5.08431 11.0365 5.0053 10.9049 4.89982C10.6414 4.66277 10.2991 4.50475 9.93025 4.50475C9.13991 4.50475 8.50781 5.13703 8.50781 5.92719C8.50781 6.71753 9.1401 7.34963 9.93025 7.34963C10.299 7.34963 10.6416 7.21787 10.9049 6.98083C11.0367 6.84908 11.1947 6.79634 11.379 6.79634H12.4591C12.5644 6.79634 12.6962 6.82262 12.8016 6.87535C13.0124 6.98065 13.1704 7.21787 13.1704 7.4812V11.8805H16.8849V11.696C16.5161 11.2219 16.3053 10.6424 16.3053 10.0101C16.3053 8.48215 17.5434 7.24398 19.0714 7.24398C20.5993 7.24398 21.8375 8.48211 21.8375 10.0101C21.8375 10.6159 21.6267 11.2219 21.2579 11.696V11.8805H24.9724L24.972 2.05497C24.972 0.922305 24.0499 0.000198364 22.9172 0.000198364H13.1966L13.1965 4.39945Z" fill="white"/>
<path d="M0 11.8282H4.39932C4.63636 11.8282 4.82085 11.9335 4.95262 12.118C5.03163 12.2233 5.05791 12.3551 5.05791 12.4868V13.5932C5.05791 13.7777 4.9789 13.9357 4.87342 14.0673C4.63637 14.3308 4.47835 14.6732 4.47835 15.042C4.47835 15.8323 5.11063 16.4644 5.90079 16.4644C6.69113 16.4644 7.32323 15.8321 7.32323 15.042C7.32323 14.6732 7.19147 14.3307 6.95443 14.0673C6.82268 13.9356 6.76994 13.7775 6.76994 13.5932L6.77031 12.5131C6.77031 12.3023 6.8756 12.0916 7.03381 11.9863C7.13911 11.9073 7.29732 11.8545 7.45535 11.8545H11.8547L11.8545 8.1138H11.6437C11.1696 8.4826 10.5901 8.69336 9.95775 8.69336C8.42984 8.69336 7.19166 7.45522 7.19166 5.92727C7.19166 4.39932 8.42979 3.16119 9.95775 3.16119C10.5636 3.16119 11.1696 3.37195 11.6437 3.74074H11.8545V0H2.0548C0.92214 0 3.33775e-05 0.922107 3.33775e-05 2.05477L0 11.8282Z" fill="white"/>
<path d="M11.8545 20.6796C11.8545 20.5743 11.8545 20.4951 11.8808 20.3898C11.9861 20.1263 12.2233 19.942 12.5131 19.942H13.6195C13.804 19.942 13.962 20.021 14.0936 20.1264C14.3571 20.3635 14.6994 20.5215 15.0683 20.5215C15.8586 20.5215 16.4907 19.8892 16.4907 19.0991C16.4907 18.3087 15.8584 17.6766 15.0683 17.6766C14.6995 17.6766 14.3569 17.8084 14.0936 18.0717C13.9618 18.2035 13.8038 18.2562 13.6195 18.2562L12.5131 18.2558C12.2233 18.2558 11.9863 18.0713 11.8808 17.808C11.8545 17.7027 11.8281 17.5973 11.8545 17.492V13.1717H8.1138V13.3824C8.4826 13.8565 8.69335 14.4361 8.69335 15.0684C8.69335 16.5963 7.45522 17.8345 5.92727 17.8345C4.39932 17.8345 3.16119 16.5964 3.16119 15.0684C3.16119 14.4626 3.37196 13.8565 3.74074 13.3824V13.1717H0V22.945C0 24.0777 0.922107 24.9998 2.05477 24.9998H11.8281V20.6795L11.8545 20.6796Z" fill="white"/>
<path d="M25.0274 13.1717H20.7071H20.6281C20.391 13.1717 20.154 13.04 20.0222 12.8029C19.9695 12.6976 19.9432 12.5922 19.9432 12.4604V11.3803C19.9432 11.1958 20.0222 11.0378 20.1277 10.9062C20.3648 10.6427 20.5228 10.3004 20.5228 9.93156C20.5228 9.14122 19.8905 8.50912 19.1004 8.50912C18.31 8.50912 17.6779 9.14141 17.6779 9.93156C17.6779 10.3004 17.8097 10.6429 18.0467 10.9062C18.1785 11.038 18.2312 11.196 18.2312 11.3803V12.4077C18.2575 12.6185 18.1785 12.8555 17.9942 13.0135C17.8624 13.1453 17.6781 13.198 17.4936 13.1716L13.1992 13.1717V16.9125H13.3837C13.8578 16.5437 14.4373 16.3329 15.0697 16.3329C16.5976 16.3329 17.8358 17.5711 17.8358 19.099C17.8358 20.627 16.5976 21.8651 15.0697 21.8651C14.4638 21.8651 13.8578 21.6543 13.3837 21.2856H13.1992V25H22.9726C24.1052 25 25.0273 24.0779 25.0273 22.9452L25.0274 13.1717Z" fill="white"/>
</svg>
