<svg width="60" height="57" viewBox="0 0 60 57" fill="none" xmlns="http://www.w3.org/2000/svg">
<path d="M30 0.0784912C22.0434 0.0784912 14.413 3.03674 8.78694 8.30263C3.16069 13.5681 0 20.7102 0 28.157C0 35.6038 3.16069 42.7457 8.78694 48.0114C14.4128 53.2773 22.0436 56.2355 30 56.2355C37.9564 56.2355 45.587 53.2773 51.2131 48.0114C56.8393 42.7459 60 35.6038 60 28.157C60 20.7102 56.8393 13.5683 51.2131 8.30263C45.5872 3.03674 37.9564 0.0784912 30 0.0784912ZM31.3661 37.6272L23.4577 45.0291C22.3825 46.0335 20.9252 46.5975 19.406 46.5975C17.8872 46.5975 16.4299 46.0335 15.3543 45.0291L11.9601 41.8522H11.9605C10.8873 40.8463 10.2851 39.4831 10.2851 38.0619C10.2851 36.6408 10.8874 35.2776 11.9605 34.2717L19.8815 26.874C20.9123 25.912 22.2959 25.353 23.7507 25.3103C25.2059 25.2676 26.6238 25.7439 27.7174 26.6437L24.9978 29.1852C24.6304 28.9529 24.188 28.8479 23.7469 28.8879C23.3057 28.9274 22.8931 29.11 22.5795 29.4034L14.6712 36.8052C14.3125 37.1405 14.1108 37.5953 14.1108 38.0696C14.1108 38.5444 14.3125 38.9992 14.6712 39.3345L18.0654 42.5113C18.4233 42.8458 18.9088 43.0339 19.4148 43.0339C19.9208 43.0339 20.4058 42.8458 20.7637 42.5113L28.6679 35.0976C29.0282 34.7627 29.23 34.3064 29.2279 33.8308C29.2291 33.4736 29.1136 33.1245 28.8968 32.83L31.6122 30.2924V30.2928C32.5769 31.314 33.0888 32.6411 33.0428 34.0035C32.9972 35.3659 32.3974 36.6605 31.3662 37.623L31.3661 37.6272ZM36.1477 19.8737C36.6294 19.4217 37.3326 19.245 37.9917 19.4099C38.6509 19.5744 39.1657 20.0558 39.3431 20.6724C39.5201 21.289 39.3322 21.9475 38.8501 22.3991L34.3657 26.5885L31.6674 29.1179L31.0141 29.7254L23.8481 36.4403C23.3609 36.8653 22.672 37.022 22.0308 36.8535C21.3897 36.6851 20.8883 36.2158 20.7083 35.6157C20.5283 35.0156 20.6957 34.3708 21.1498 33.9148L25.6213 29.7254L31.6711 24.0632L36.1477 19.8737ZM48.0276 22.034L40.1192 29.4356C39.0888 30.398 37.7057 30.9578 36.2509 31.0012C34.7957 31.0447 33.3773 30.5688 32.2833 29.6698L34.9987 27.1244C35.3658 27.3571 35.8077 27.4629 36.2488 27.4237C36.69 27.3845 37.1031 27.2032 37.4169 26.9102L45.3296 19.5083C45.6861 19.1722 45.8862 18.7174 45.8862 18.2439C45.8862 17.7699 45.6861 17.3151 45.3296 16.9791L41.9353 13.8022C41.5779 13.4665 41.0924 13.2781 40.586 13.2781C40.08 13.2781 39.5945 13.4665 39.237 13.8022L31.3287 21.212C31.0152 21.5065 30.821 21.8936 30.7796 22.3072C30.7377 22.7209 30.8507 23.1353 31.0997 23.4793L28.3843 26.0208C27.423 24.9972 26.914 23.6701 26.9597 22.3081C27.0053 20.9465 27.6025 19.6515 28.6304 18.6867L36.5431 11.2849C37.617 10.2798 39.0735 9.7153 40.5923 9.7153C42.1116 9.7153 43.568 10.2798 44.642 11.2849L48.0362 14.4617C49.1043 15.4688 49.7032 16.8304 49.7015 18.2496C49.6999 19.6684 49.098 21.0293 48.0279 22.034L48.0276 22.034Z" fill="#087EEA"/>
</svg>
