<svg width="19" height="18" viewBox="0 0 19 18" fill="none" xmlns="http://www.w3.org/2000/svg">
<path d="M9.42676 0C7.0399 0 4.75054 0.948256 3.06286 2.6361C1.37501 4.32378 0.426758 6.61295 0.426758 9C0.426758 11.3871 1.37501 13.6762 3.06286 15.3639C4.75054 17.0517 7.0397 18 9.42676 18C11.8138 18 14.103 17.0517 15.7907 15.3639C17.4785 13.6762 18.4268 11.3871 18.4268 9C18.4268 6.61295 17.4785 4.32378 15.7907 2.6361C14.103 0.948256 11.8138 0 9.42676 0ZM13.2353 14.3428L9.42676 12.0995L5.61821 14.3428L6.54944 9.86507L3.26256 7.09555L7.70959 6.57819L9.42676 2.6155L11.408 6.57819L15.5909 7.10215L12.3063 9.86279L13.2353 14.3428Z" fill="#FF9100"/>
</svg>
