<svg width="18" height="18" viewBox="0 0 18 18" fill="none" xmlns="http://www.w3.org/2000/svg">
<path d="M2.63588 2.63588C-0.878628 6.1504 -0.878628 11.8496 2.63588 15.3641C6.1504 18.8786 11.8496 18.8786 15.3641 15.3641C18.8786 11.8496 18.8786 6.1504 15.3641 2.63588C11.8496 -0.878628 6.1504 -0.878628 2.63588 2.63588ZM9.36095 3.77579C10.1208 3.77579 10.7288 4.40271 10.7288 5.16257C10.7288 5.92239 10.1018 6.54934 9.36095 6.54934C8.60112 6.54934 7.97418 5.92243 7.97418 5.1435C7.97418 4.38378 8.60099 3.77583 9.36095 3.77583V3.77579ZM11.3177 13.0655C11.2796 13.1795 11.2037 13.3125 11.1277 13.3884C10.6338 13.9014 10.0258 14.2053 9.30384 14.2053C8.96195 14.2053 8.63886 14.2053 8.29698 14.1483C7.74612 14.0723 7.04312 13.3885 7.13814 12.6665C7.21407 12.1726 7.29013 11.6786 7.36606 11.1847C7.51806 10.3298 7.67005 9.4559 7.82204 8.60105C7.82204 8.54407 7.84098 8.48709 7.84098 8.4301C7.84098 8.06912 7.72702 7.93621 7.36605 7.89818C7.21405 7.87923 7.06206 7.86015 6.91008 7.82225C6.73913 7.76526 6.64412 7.61327 6.66307 7.48036C6.68202 7.32836 6.77704 7.23335 6.96706 7.19545C7.06208 7.17651 7.17604 7.1765 7.29 7.1765H8.56282H9.91171C10.2346 7.1765 10.4247 7.3285 10.4247 7.65144C10.4247 7.9174 10.3866 8.18336 10.3297 8.44933C10.1587 9.43723 9.96867 10.4061 9.79773 11.394C9.74075 11.7169 9.66468 12.0398 9.62678 12.3628C9.60783 12.5148 9.62678 12.6857 9.66481 12.8377C9.7218 13.0467 9.87379 13.1607 10.0828 13.1417C10.2537 13.1228 10.4246 13.0658 10.5957 12.9897C10.7288 12.9327 10.8427 12.8377 10.9756 12.7997C11.2037 12.7236 11.3746 12.8565 11.3177 13.0655L11.3177 13.0655Z" fill="#ACB3B9"/>
</svg>
