<svg width="51" height="36" viewBox="0 0 51 36" fill="none" xmlns="http://www.w3.org/2000/svg">
<g clip-path="url(#clip0_34_1991)">
<path d="M32.4837 0.248535C22.5969 0.248535 14.7323 8.22546 14.7323 18C14.7323 27.8869 22.7093 35.7515 32.4837 35.7515C42.2583 35.7515 50.2352 27.7746 50.2352 18C50.2352 8.22546 42.2583 0.248535 32.4837 0.248535ZM32.4837 24.6287C28.8885 24.6287 25.8551 21.5953 25.8551 18C25.8551 14.4048 28.8885 11.3713 32.4837 11.3713C36.079 11.3713 39.1124 14.4048 39.1124 18C39.0003 21.5953 36.079 24.6287 32.4837 24.6287Z" fill="#8B3FFD"/>
<path d="M14.6191 5.41675V31.2575H8.32745L0.238159 5.41675H14.6191Z" fill="#8B3FFD"/>
</g>
<defs>
<clipPath id="clip0_34_1991">
<rect width="50" height="35.503" fill="white" transform="translate(0.238159 0.248535)"/>
</clipPath>
</defs>
</svg>
