<svg width="35" height="20" viewBox="0 0 35 20" fill="none" xmlns="http://www.w3.org/2000/svg">
<path d="M19.6644 0.00406063C19.0265 -0.0219175 18.2969 0.0682853 17.7211 0.522415C17.2773 0.872394 16.9833 1.3816 16.8223 2.03394H16.2514C15.8569 2.05078 15.5104 2.37382 15.5104 2.72502H7.38501V2.73561C5.3172 2.85443 3.49286 3.90871 2.19851 5.41322C0.823433 7.01182 0 9.13573 0 11.3624C0 13.7321 0.716825 15.8654 2.11334 17.4412C3.50986 19.0169 5.61405 20 8.16194 20C9.58692 20 10.891 19.3938 11.9516 18.6395C12.8482 18.0019 13.5721 17.2545 14.0528 16.5449H20.9275C21.4082 17.2545 22.1321 18.0018 23.0286 18.6395C24.0892 19.3936 25.393 20 26.8183 20C29.3663 20 31.4704 19.0167 32.8669 17.4412C34.2635 15.8654 34.9803 13.7321 34.9803 11.3624C34.9803 9.13573 34.1572 7.01182 32.7818 5.41322C31.4875 3.9084 29.6631 2.85414 27.5953 2.73561V2.72502H19.4449C19.4449 2.35965 19.0665 2.02846 18.6554 2.03394H18.4369C18.5302 1.78764 18.6397 1.63826 18.7406 1.55889C18.9179 1.41914 19.16 1.36863 19.5908 1.38619C20.4527 1.42106 21.7459 1.91657 23.0887 1.67772C23.4894 1.60435 23.7787 1.21324 23.696 0.857265C23.6133 0.501029 23.1736 0.243903 22.7729 0.317506C22.1726 0.424305 20.9393 0.0558039 19.6634 0.0043317L19.6644 0.00406063ZM7.77379 5.78029C10.7388 5.78029 13.1544 8.28764 13.1544 11.3624C13.1544 14.4371 10.7384 16.9444 7.77379 16.9444C4.80884 16.9444 2.39323 14.4371 2.39323 11.3624C2.39323 8.28764 4.80919 5.78029 7.77379 5.78029ZM27.2075 5.78029C30.1724 5.78029 32.588 8.28764 32.588 11.3624C32.588 14.4371 30.1721 16.9444 27.2075 16.9444C24.2425 16.9444 21.8269 14.4371 21.8269 11.3624C21.8269 8.28764 24.2429 5.78029 27.2075 5.78029ZM7.77379 7.27039C5.58695 7.27039 3.82633 9.09436 3.82633 11.3624C3.82633 13.6304 5.58695 15.4546 7.77379 15.4546C9.96064 15.4546 11.7213 13.6306 11.7213 11.3624C11.7213 9.09436 9.96064 7.27039 7.77379 7.27039ZM27.2075 7.27039C25.0206 7.27039 23.26 9.09436 23.26 11.3624C23.26 13.6304 25.0206 15.4546 27.2075 15.4546C29.3943 15.4546 31.1549 13.6306 31.1549 11.3624C31.1549 9.09436 29.3943 7.27039 27.2075 7.27039ZM27.2075 7.90734C27.8514 7.90734 28.3736 8.37134 28.3736 8.9438C28.3736 9.51627 27.8514 9.98027 27.2075 9.98027C26.5636 9.98027 26.0414 9.51627 26.0414 8.9438C26.0414 8.37134 26.5636 7.90734 27.2075 7.90734ZM6.99645 8.59842H8.551V10.6716H10.8832V12.0537H8.551V14.1266H6.99645V12.0537H4.66427V10.6716H6.99645V8.59842ZM16.3246 10.326H18.6568V11.7081H16.3246V10.326ZM24.8754 10.326C25.5193 10.326 26.0415 10.79 26.0415 11.3624C26.0415 11.9349 25.5194 12.3989 24.8754 12.3989C24.2315 12.3989 23.7093 11.9349 23.7093 11.3624C23.7093 10.79 24.2315 10.326 24.8754 10.326ZM29.5395 10.326C30.1834 10.326 30.7055 10.79 30.7055 11.3624C30.7055 11.9349 30.1834 12.3989 29.5395 12.3989C28.8955 12.3989 28.3734 11.9349 28.3734 11.3624C28.3734 10.79 28.8955 10.326 29.5395 10.326ZM27.2073 12.7445C27.8512 12.7445 28.3734 13.2085 28.3734 13.781C28.3734 14.3535 27.8512 14.8174 27.2073 14.8174C26.5634 14.8174 26.0412 14.3535 26.0412 13.781C26.0412 13.2085 26.5634 12.7445 27.2073 12.7445Z" fill="white"/>
</svg>
