<svg width="20" height="16" viewBox="0 0 20 16" fill="none" xmlns="http://www.w3.org/2000/svg">
<path fill-rule="evenodd" clip-rule="evenodd" d="M0 0.5H20V15.5H0V0.5Z" fill="#6FDCFF"/>
<path fill-rule="evenodd" clip-rule="evenodd" d="M1.88359 15.0937C1.98672 15.1937 1.95234 15.3594 2.23672 15.3375C2.66797 15.3375 2.68047 15.075 2.68047 14.8906C2.68047 14.7062 2.03359 14.45 2.00234 14.1781C1.97109 13.9062 2.15234 13.8344 2.30234 13.8344C2.44922 13.8344 2.55234 13.9187 2.55234 13.9937C2.55234 14.0687 2.48359 14.0937 2.37734 14.0937C2.27109 14.0937 2.42422 14.0406 2.33359 14C2.24297 13.9594 2.18359 14.0625 2.18359 14.125C2.18359 14.1937 2.40859 14.2125 2.55859 14.1656C2.58984 14.3125 2.60234 14.3219 2.39297 14.5719C2.54297 14.475 2.55547 14.4531 2.72109 14.5094C2.55547 14.3656 2.68047 14.0781 2.68359 14.0062C2.68672 13.9344 2.65234 13.8469 2.58984 13.8031C2.46797 13.6937 2.20859 13.6875 2.05234 13.7594C1.82422 13.8594 1.81172 14.1594 1.87109 14.2594L2.50234 14.8969C2.54609 14.9719 2.56484 15.1844 2.29609 15.1937C2.01484 15.2156 1.91484 14.8312 1.86484 14.7031C1.79922 14.8437 1.72422 15.2281 1.43984 15.2062C1.17109 15.1969 1.12109 14.9875 1.16484 14.9094L1.81172 14.2531C1.87422 14.1531 1.86172 13.8531 1.63359 13.7531C1.47734 13.6812 1.21797 13.6906 1.09922 13.7969C1.03047 13.8406 0.992969 13.925 0.999219 14C1.00547 14.075 1.12734 14.3594 0.964844 14.5C1.12734 14.4469 1.14297 14.4687 1.29297 14.5625C1.08359 14.3156 1.09922 14.3062 1.12734 14.1562C1.27734 14.2062 1.50234 14.1875 1.50234 14.1219C1.50234 14.0562 1.43984 13.9469 1.34922 13.9906C1.26172 14.0344 1.41172 14.0875 1.30547 14.0875C1.20234 14.0875 1.12734 14.0656 1.12734 13.9937C1.12734 13.9219 1.23047 13.8281 1.38047 13.8281C1.53047 13.8281 1.70859 13.9031 1.67734 14.175C1.64609 14.4469 0.989844 14.7406 0.989844 14.925C0.989844 15.1125 1.03359 15.3344 1.46484 15.3344C1.74609 15.3562 1.78047 15.1906 1.88359 15.0906V15.0937Z" fill="#FFE400"/>
<path fill-rule="evenodd" clip-rule="evenodd" d="M1.84844 11.2281C1.95156 11.1281 2.03594 10.8344 2.31719 10.8531C2.74844 10.8531 2.91094 11.0937 2.91094 11.2781C2.91094 11.4625 2.03594 12.9656 2.00469 13.2375C1.97344 13.5094 2.15469 13.5844 2.30156 13.5844C2.45156 13.5844 2.55469 13.5 2.55469 13.4219C2.55469 13.3437 2.47969 13.3281 2.37656 13.3281C2.27344 13.3281 2.42031 13.3812 2.33281 13.4219C2.24531 13.4625 2.18281 13.3594 2.18281 13.2937C2.18281 13.2281 2.40781 13.2062 2.55781 13.2562C2.58594 13.1094 2.59844 13.1 2.39219 12.85C2.54219 12.9437 2.55469 12.9687 2.72031 12.9125C2.55469 13.0562 2.67656 13.3406 2.68281 13.4125C2.68906 13.4844 2.65156 13.575 2.58594 13.6187C2.46719 13.7281 2.20469 13.7312 2.04844 13.6625C1.82344 13.5594 1.81094 13.2625 1.87031 13.1625L2.72031 11.3312C2.76719 11.2562 2.64844 11.0062 2.37969 10.9969C2.09844 10.975 2.00156 11.2719 1.95156 11.4L2.33594 11.3687C2.33594 11.3687 2.35156 11.4312 2.33594 11.4687C2.20697 11.4782 2.07865 11.4949 1.95156 11.5187L1.93594 11.7125H2.12344L2.11094 11.8C2.11094 11.8 1.95156 11.7875 1.93594 11.8C1.92031 11.8094 1.90469 11.9937 1.90469 11.9937C1.90469 11.9937 1.87344 12.0062 1.84219 12.0062C1.81094 12.0062 1.77969 11.9937 1.77969 11.9937C1.77969 11.9937 1.76719 11.8094 1.75156 11.8C1.73594 11.7875 1.57656 11.8 1.57656 11.8L1.56094 11.7125H1.75156L1.73594 11.5187C1.73594 11.5187 1.54844 11.4812 1.35156 11.4687C1.33906 11.4312 1.35156 11.3719 1.35156 11.3719L1.73594 11.4C1.68594 11.2719 1.58906 10.975 1.30781 10.9937C1.03906 11.0062 0.920312 11.2562 0.964062 11.3312L1.81406 13.1625C1.87344 13.2594 1.86094 13.5594 1.63594 13.6625C1.47969 13.7312 1.21719 13.725 1.09844 13.6187C1.03281 13.575 0.995312 13.4875 1.00156 13.4156C1.00781 13.3437 1.12656 13.0531 0.964062 12.9156C1.12969 12.9687 1.14531 12.9469 1.29219 12.85C1.08594 13.1 1.09844 13.1094 1.12969 13.2562C1.27656 13.2062 1.50156 13.225 1.50156 13.2937C1.50156 13.3562 1.43906 13.4656 1.35156 13.4219C1.26406 13.3781 1.41406 13.3281 1.30781 13.3281C1.20469 13.3281 1.12969 13.3469 1.12969 13.4219C1.12969 13.4969 1.23281 13.5844 1.37969 13.5844C1.52656 13.5844 1.70781 13.5094 1.67969 13.2406C1.64844 12.9687 0.773438 11.4594 0.773438 11.2781C0.773438 11.0906 0.935937 10.8562 1.36719 10.8562C1.64844 10.8344 1.75156 11.1281 1.85156 11.2281H1.84844Z" fill="#FFE400"/>
<path fill-rule="evenodd" clip-rule="evenodd" d="M1.84844 10.4812C1.95156 10.5812 2.03594 10.875 2.31719 10.8562C2.74844 10.8562 2.91094 10.6156 2.91094 10.4312C2.91094 10.2469 2.03594 8.74374 2.00469 8.47187C1.97344 8.19999 2.15469 8.12499 2.30156 8.12499C2.45156 8.12499 2.55469 8.20937 2.55469 8.28749C2.55469 8.36562 2.47969 8.38124 2.37656 8.38124C2.27344 8.38124 2.42031 8.33124 2.33281 8.28749C2.24531 8.24374 2.18281 8.34999 2.18281 8.41562C2.18281 8.48124 2.40781 8.50312 2.55781 8.45312C2.58594 8.59999 2.59844 8.60937 2.39219 8.85937C2.54219 8.76562 2.55469 8.74062 2.72031 8.79687C2.55469 8.65312 2.67656 8.36874 2.68281 8.29687C2.68906 8.22499 2.65156 8.13437 2.58594 8.09062C2.46719 7.98437 2.20469 7.97812 2.04844 8.04687C1.82344 8.14999 1.81094 8.44687 1.87031 8.54687L2.72031 10.375C2.76719 10.45 2.64844 10.7 2.37969 10.7094C2.09844 10.7312 2.00156 10.4344 1.95156 10.3062L2.33594 10.3375C2.33594 10.3375 2.35156 10.275 2.33594 10.2375C2.20697 10.2281 2.07865 10.2114 1.95156 10.1875L1.93594 9.99374H2.12344L2.11094 9.90624C2.11094 9.90624 1.95156 9.91874 1.93594 9.90624C1.92031 9.89687 1.90469 9.71249 1.90469 9.71249C1.90469 9.71249 1.87344 9.69999 1.84219 9.69999C1.81094 9.69999 1.77969 9.71249 1.77969 9.71249C1.77969 9.71249 1.76719 9.89687 1.75156 9.90624C1.73594 9.91874 1.57656 9.90624 1.57656 9.90624L1.56094 9.99374H1.75156L1.73594 10.1875C1.73594 10.1875 1.54844 10.225 1.35156 10.2375C1.33906 10.275 1.35156 10.3344 1.35156 10.3344L1.73594 10.3062C1.68594 10.4344 1.58906 10.7312 1.30781 10.7125C1.03906 10.7 0.920312 10.45 0.964062 10.375L1.81406 8.54687C1.87344 8.44687 1.86094 8.14999 1.63594 8.04687C1.47969 7.97812 1.21719 7.98437 1.09844 8.09062C1.03281 8.13437 0.995312 8.22187 1.00156 8.29374C1.00781 8.36562 1.12656 8.65312 0.964062 8.79374C1.12969 8.74062 1.14531 8.76249 1.29219 8.85937C1.08594 8.60937 1.09844 8.59999 1.12969 8.45312C1.27656 8.50312 1.50156 8.48437 1.50156 8.41562C1.50156 8.35312 1.43906 8.24374 1.35156 8.28749C1.26406 8.33124 1.41406 8.38124 1.30781 8.38124C1.20469 8.38124 1.12969 8.36249 1.12969 8.28749C1.12969 8.21249 1.23281 8.12499 1.37969 8.12499C1.52656 8.12499 1.70781 8.19999 1.67969 8.46874C1.64844 8.74062 0.773438 10.25 0.773438 10.4312C0.773438 10.6187 0.935937 10.8531 1.36719 10.8531C1.64844 10.875 1.75156 10.5812 1.85156 10.4812H1.84844Z" fill="#FFE400"/>
<path fill-rule="evenodd" clip-rule="evenodd" d="M1.84844 5.51874C1.95156 5.41874 2.03594 5.12499 2.31719 5.14374C2.74844 5.14374 2.91094 5.38437 2.91094 5.56874C2.91094 5.75312 2.03594 7.25624 2.00469 7.53124C1.97344 7.79999 2.15469 7.87499 2.30156 7.87499C2.45156 7.87499 2.55469 7.79062 2.55469 7.71562C2.55469 7.64062 2.47969 7.61562 2.37656 7.61562C2.27344 7.61562 2.42031 7.67187 2.33281 7.71562C2.24531 7.75937 2.18281 7.64999 2.18281 7.58437C2.18281 7.52187 2.40781 7.49687 2.55781 7.54687C2.58594 7.39999 2.59844 7.39062 2.39219 7.14062C2.54219 7.23749 2.55469 7.25937 2.72031 7.20312C2.55469 7.34687 2.67656 7.63437 2.68281 7.70312C2.68906 7.77187 2.65156 7.86562 2.58594 7.90937C2.46719 8.01874 2.20469 8.02187 2.04844 7.95312C1.82344 7.84999 1.81094 7.55312 1.87031 7.45312L2.72031 5.62499C2.76719 5.54999 2.64844 5.29999 2.37969 5.29062C2.09844 5.26874 2.00156 5.56562 1.95156 5.69374L2.33594 5.66249C2.33594 5.66249 2.35156 5.72499 2.33594 5.76249C2.13594 5.77499 1.95156 5.81249 1.95156 5.81249L1.93594 6.00624H2.12344L2.11094 6.09374C2.11094 6.09374 1.95156 6.08437 1.93594 6.09374C1.92031 6.10312 1.90469 6.29062 1.90469 6.29062C1.90469 6.29062 1.87344 6.29999 1.84219 6.29999C1.81094 6.29999 1.77969 6.29062 1.77969 6.29062C1.77969 6.29062 1.76719 6.10312 1.75156 6.09374C1.73594 6.08437 1.57656 6.09374 1.57656 6.09374L1.56094 6.00624H1.75156L1.73594 5.81249C1.73594 5.81249 1.54844 5.77499 1.35156 5.76249C1.33906 5.72499 1.35156 5.66562 1.35156 5.66562L1.73594 5.69374C1.68594 5.56562 1.58906 5.26874 1.30781 5.28749C1.03906 5.29999 0.920312 5.54999 0.964062 5.62499L1.81406 7.45312C1.87344 7.55312 1.86094 7.84999 1.63594 7.95312C1.47969 8.02187 1.21719 8.01562 1.09844 7.90937C1.03281 7.86562 0.995312 7.77812 1.00156 7.70624C1.00781 7.63437 1.12656 7.34687 0.964062 7.20624C1.12969 7.25937 1.14531 7.23749 1.29219 7.14062C1.08594 7.39062 1.09844 7.39999 1.12969 7.54687C1.27656 7.49687 1.50156 7.51874 1.50156 7.58437C1.50156 7.64687 1.43906 7.75624 1.35156 7.71249C1.26406 7.67187 1.41406 7.61874 1.30781 7.61874C1.20469 7.61874 1.12969 7.63749 1.12969 7.71249C1.12969 7.78749 1.23281 7.87499 1.37969 7.87499C1.52656 7.87499 1.70781 7.79999 1.67969 7.53124C1.64844 7.25937 0.773438 5.75312 0.773438 5.56874C0.773438 5.38437 0.935937 5.14687 1.36719 5.14687C1.64844 5.12499 1.75156 5.41874 1.85156 5.52187L1.84844 5.51874Z" fill="#FFE400"/>
<path fill-rule="evenodd" clip-rule="evenodd" d="M1.84844 4.77186C1.95156 4.87186 2.03594 5.16874 2.31719 5.14686C2.74844 5.14686 2.91094 4.90624 2.91094 4.72186C2.91094 4.53749 2.03594 3.03436 2.00469 2.76249C1.97344 2.49061 2.15469 2.41561 2.30156 2.41561C2.45156 2.41561 2.55469 2.50311 2.55469 2.57811C2.55469 2.65311 2.47969 2.67499 2.37656 2.67499C2.27344 2.67499 2.42031 2.62186 2.33281 2.57811C2.24531 2.53436 2.18281 2.64061 2.18281 2.70624C2.18281 2.77186 2.40781 2.79374 2.55781 2.74374C2.58594 2.89061 2.59844 2.89999 2.39219 3.14999C2.54219 3.05624 2.55469 3.03124 2.72031 3.08749C2.55469 2.94686 2.67656 2.65936 2.68281 2.58749C2.68906 2.51561 2.65156 2.42499 2.58594 2.38124C2.46719 2.27499 2.20469 2.26874 2.04844 2.34061C1.82344 2.44061 1.81094 2.74061 1.87031 2.83749L2.72031 4.66874C2.76719 4.74374 2.64844 4.99374 2.37969 5.00624C2.09844 5.02499 2.00156 4.73124 1.95156 4.59999L2.33594 4.63124C2.33594 4.63124 2.35156 4.56874 2.33594 4.53124C2.20704 4.52275 2.07872 4.5071 1.95156 4.48436L1.93594 4.28749H2.12344L2.11094 4.19999C2.11094 4.19999 1.95156 4.21249 1.93594 4.19999C1.92031 4.19061 1.90469 4.00624 1.90469 4.00624C1.90469 4.00624 1.87344 3.99374 1.84219 3.99374C1.81094 3.99374 1.77969 4.00624 1.77969 4.00624C1.77969 4.00624 1.76719 4.19061 1.75156 4.19999C1.73594 4.21249 1.57656 4.19999 1.57656 4.19999L1.56094 4.28749H1.75156L1.73594 4.48436C1.73594 4.48436 1.54844 4.51874 1.35156 4.53124C1.33906 4.57186 1.35156 4.63124 1.35156 4.63124L1.73594 4.59999C1.68594 4.73124 1.58906 5.02499 1.30781 5.00624C1.03906 4.99374 0.920312 4.74374 0.964062 4.66874L1.81406 2.83749C1.87344 2.74061 1.86094 2.44061 1.63594 2.33749C1.47969 2.26874 1.21719 2.27499 1.09844 2.38124C1.03281 2.42499 0.995312 2.51249 1.00156 2.58436C1.00781 2.65624 1.12656 2.94686 0.964062 3.08436C1.12969 3.03124 1.14531 3.05311 1.29219 3.14999C1.08594 2.89999 1.09844 2.89061 1.12969 2.74374C1.27969 2.79374 1.50156 2.77499 1.50156 2.70624C1.50156 2.64374 1.43906 2.53436 1.35156 2.57811C1.26406 2.62186 1.41406 2.67499 1.30781 2.67499C1.20469 2.67499 1.12969 2.65311 1.12969 2.57811C1.12969 2.50311 1.23281 2.41561 1.37969 2.41561C1.52656 2.41561 1.71094 2.49061 1.67969 2.75936C1.64844 3.03124 0.773438 4.54061 0.773438 4.72186C0.773438 4.90936 0.935937 5.14686 1.36719 5.14686C1.64844 5.16874 1.75156 4.87186 1.85156 4.77186H1.84844Z" fill="#FFE400"/>
<path fill-rule="evenodd" clip-rule="evenodd" d="M1.88359 0.90624C1.98672 0.80624 1.95234 0.640615 2.23672 0.66249C2.66797 0.66249 2.68047 0.92499 2.68047 1.10936C2.68047 1.29374 2.03359 1.54999 2.00234 1.82186C1.97109 2.09374 2.15234 2.16561 2.30234 2.16561C2.44922 2.16561 2.55234 2.08124 2.55234 2.00624C2.55234 1.93124 2.48359 1.90624 2.37734 1.90624C2.27109 1.90624 2.42422 1.95937 2.33359 1.99999C2.24297 2.04061 2.18359 1.93749 2.18359 1.87499C2.18359 1.80624 2.40859 1.78437 2.55859 1.83437C2.58984 1.68749 2.60234 1.67812 2.39297 1.42812C2.54297 1.52499 2.55547 1.54686 2.72109 1.49062C2.55547 1.63437 2.68047 1.92186 2.68359 1.99374C2.68672 2.06561 2.65234 2.15311 2.58984 2.19686C2.46484 2.31249 2.20547 2.31249 2.04922 2.24374C1.82109 2.14374 1.80859 1.84374 1.86797 1.74374L2.50234 1.10311C2.54609 1.02811 2.56484 0.815615 2.29609 0.80624C2.01484 0.784365 1.91484 1.16874 1.86484 1.29686C1.79922 1.15624 1.72422 0.76874 1.43984 0.790615C1.17109 0.79999 1.12109 1.00936 1.16484 1.08749L1.81172 1.74374C1.87422 1.84374 1.86172 2.14374 1.63359 2.24374C1.47734 2.31561 1.21797 2.30937 1.09922 2.19999C1.03047 2.15624 0.992969 2.07187 0.999219 1.99687C1.00547 1.92186 1.12734 1.63749 0.964844 1.49686C1.12734 1.54999 1.14297 1.52811 1.28984 1.43436C1.08359 1.68124 1.09922 1.69062 1.12734 1.84062C1.27734 1.79062 1.50234 1.80937 1.50234 1.87499C1.50234 1.94061 1.43984 2.04999 1.34922 2.00624C1.26172 1.96249 1.41172 1.90936 1.30547 1.90936C1.20234 1.90936 1.12734 1.93124 1.12734 2.00311C1.12734 2.07499 1.23047 2.16874 1.38047 2.16874C1.53047 2.16874 1.70859 2.09374 1.67734 1.82186C1.64609 1.54999 0.989844 1.25624 0.989844 1.07186C0.989844 0.884365 1.03359 0.66249 1.46484 0.66249C1.74609 0.640615 1.78047 0.80624 1.88359 0.90624Z" fill="#FFE400"/>
<path d="M13.7939 6.93471C13.7939 5.4491 12.5231 4.24478 10.9555 4.24478C9.38796 4.24478 8.11719 5.4491 8.11719 6.93471C8.11719 8.42032 9.38796 9.62464 10.9555 9.62464C12.5231 9.62464 13.7939 8.42032 13.7939 6.93471Z" fill="#FFE400"/>
<path fill-rule="evenodd" clip-rule="evenodd" d="M10.8232 2.64048C10.7965 2.64048 10.6698 3.53434 10.6231 3.73446C10.5764 4.18473 11.2235 4.16805 11.1167 3.71779L10.8232 2.63715V2.64048ZM11.05 11.3056C11.0734 11.3056 11.2668 10.4218 11.3302 10.225C11.4069 9.78138 10.7599 9.75804 10.8299 10.2116L11.05 11.3056ZM6.52734 6.91635C6.52734 6.9397 7.4579 7.12648 7.66468 7.18651C8.13163 7.26322 8.16498 6.65286 7.6847 6.71957L6.52734 6.91969V6.91635ZM15.5894 7.02308C15.5894 6.99973 14.6488 6.84631 14.4387 6.79294C13.9684 6.73624 13.9651 7.34661 14.4387 7.26322L15.5894 7.02308ZM7.48124 4.08134C7.46457 4.09801 8.07826 4.79176 8.20167 4.96186C8.52186 5.29539 8.94544 4.82845 8.52186 4.60164L7.48124 4.08467V4.08134ZM14.5221 9.78472C14.5388 9.76804 13.865 9.12766 13.7249 8.9709C13.3747 8.66406 12.9979 9.16102 13.4381 9.35447L14.5221 9.78806V9.78472ZM8.88541 3.1141C8.8654 3.1241 9.15223 3.98461 9.19893 4.18807C9.35902 4.61165 9.93937 4.33482 9.63919 3.97127L8.88874 3.1141H8.88541ZM12.9912 10.8654C13.0145 10.8554 12.7911 9.97817 12.761 9.77471C12.631 9.34112 12.0339 9.5746 12.3041 9.96149L12.9945 10.862L12.9912 10.8654ZM14.0018 3.71445C13.9818 3.69778 13.2413 4.26811 13.0612 4.38151C12.7043 4.68169 13.188 5.0886 13.4348 4.6917L14.0018 3.71445ZM7.89816 10.175C7.91483 10.1916 8.69863 9.67466 8.88541 9.57126C9.2623 9.29777 8.81203 8.8575 8.5352 9.23773L7.90149 10.175H7.89816ZM6.7308 5.36877C6.72079 5.38878 7.53127 5.85906 7.70804 5.98246C8.12496 6.19926 8.36844 5.63226 7.89149 5.5422L6.7308 5.36877ZM15.1925 8.65071C15.2025 8.6307 14.4254 8.10706 14.2586 7.97365C13.8584 7.72683 13.5749 8.27716 14.0451 8.39723L15.1925 8.65071ZM12.5042 2.88396C12.4809 2.87729 12.0173 3.66442 11.8939 3.83452C11.8941 3.88884 11.9113 3.94173 11.9431 3.98576C11.9749 4.0298 12.0197 4.06277 12.0712 4.08006C12.1227 4.09735 12.1783 4.09808 12.2303 4.08216C12.2822 4.06624 12.3278 4.03446 12.3608 3.99128L12.5042 2.88396ZM9.37236 11.0321C9.39571 11.0421 9.91602 10.285 10.0494 10.1216C10.2929 9.73469 9.70256 9.48788 9.5925 9.93481L9.37236 11.0321ZM6.7875 8.72076C6.7975 8.74077 7.72139 8.52064 7.93818 8.48728C8.39178 8.36054 8.1383 7.80021 7.73806 8.06036L6.7875 8.72076ZM15.1958 5.29539C15.1891 5.27538 14.2519 5.43214 14.0351 5.45215C13.5682 5.54887 13.785 6.12588 14.2019 5.89241L15.1958 5.29539Z" fill="#FFE400"/>
<path fill-rule="evenodd" clip-rule="evenodd" d="M11.743 2.69718C11.7197 2.69385 11.4062 3.54435 11.3128 3.73113C11.176 4.16472 11.8131 4.27145 11.8031 3.81118L11.7464 2.69385L11.743 2.69718ZM10.1254 11.2322C10.1487 11.2389 10.5256 10.4084 10.6324 10.225C10.7991 9.80473 10.1721 9.65798 10.1487 10.1149L10.1221 11.2322H10.1254ZM9.80187 2.78057C9.77852 2.78724 9.86524 3.68777 9.86524 3.89456C9.92861 4.33816 10.5523 4.18473 10.3455 3.77115L9.80187 2.78057ZM12.0699 11.1822C12.0932 11.1789 12.0699 10.275 12.0866 10.0682C12.0565 9.61796 11.4195 9.73136 11.5996 10.1583L12.0665 11.1822H12.0699ZM8.19425 3.52768C8.17424 3.54102 8.61783 4.33816 8.70122 4.52827C8.94136 4.9185 9.45833 4.55162 9.09478 4.24143L8.19425 3.52768ZM13.6908 10.4618C13.7109 10.4484 13.324 9.62129 13.2573 9.42784C13.0471 9.02427 12.5068 9.3578 12.8437 9.688L13.6908 10.4618ZM7.02022 4.64834C7.00688 4.66835 7.72397 5.26204 7.87406 5.41546C8.24428 5.69563 8.58781 5.17532 8.13421 5.01189L7.02022 4.64834ZM14.8315 9.30777C14.8449 9.28776 14.1745 8.64738 14.0344 8.48729C13.6875 8.18377 13.3073 8.68073 13.7475 8.87418L14.8315 9.30777ZM6.50658 6.04584C6.49991 6.06918 7.38377 6.40605 7.57722 6.50277C8.02415 6.65286 8.16757 6.05584 7.68061 6.0425L6.50658 6.04584ZM15.4252 7.97365C15.4352 7.95364 14.578 7.56007 14.3913 7.45C13.9577 7.2699 13.7676 7.85691 14.2512 7.90361L15.4252 7.97365ZM6.47656 7.76352C6.4799 7.78353 7.4338 7.77019 7.65059 7.78687C8.12421 7.76352 8.01081 7.15983 7.5572 7.32326L6.47656 7.76352ZM15.4886 6.26263C15.4886 6.23928 14.5347 6.18925 14.3212 6.15924C13.8443 6.15257 13.9143 6.76293 14.3779 6.62618L15.4886 6.2593V6.26263ZM7.29371 9.54458C7.30706 9.56459 8.1609 9.15768 8.36101 9.08097C8.77459 8.86418 8.39437 8.36721 8.06417 8.70408L7.29371 9.54458ZM14.7081 4.4649C14.6948 4.44489 13.8176 4.79509 13.6075 4.85847C13.1772 5.04858 13.5207 5.56889 13.8743 5.25537L14.7081 4.4649ZM8.6812 10.7253C8.70122 10.7353 9.31158 10.0415 9.465 9.89479C9.75517 9.53791 9.19818 9.22772 9.03475 9.66131L8.6812 10.7253ZM13.3406 3.26085C13.324 3.24751 12.6636 3.8979 12.5001 4.03464C12.1866 4.37151 12.7203 4.71838 12.9137 4.29813L13.3373 3.26085H13.3406Z" fill="#FFE400"/>
<path fill-rule="evenodd" clip-rule="evenodd" d="M6.61737 8.72386C6.66833 8.89587 6.6756 9.85912 7.70194 10.788C8.721 11.71 10.468 11.9164 10.468 11.9164C10.468 11.9164 10.4752 12.0471 10.3515 12.054C10.2277 12.0677 9.63087 11.9508 9.33243 11.8613C9.04127 11.7788 8.77923 11.6274 8.75012 11.6343C8.71372 11.648 8.65549 11.7444 8.56814 11.7306C8.48079 11.7168 8.05861 11.304 7.86936 11.1939C7.49082 10.8847 7.1557 10.5309 6.87214 10.1412C6.66833 9.8316 6.61737 9.62519 6.55186 9.62519C6.48635 9.62519 6.24614 9.77656 6.24614 9.77656C6.24614 9.77656 6.02777 9.46694 5.83852 8.97155C5.64199 8.47616 5.66383 8.18718 5.7075 8.16654C5.75845 8.1459 5.75845 8.5312 5.90403 8.88211C6.04961 9.23989 6.25342 9.34997 6.25342 9.34997C6.25342 9.34997 6.1224 9.1642 6.0205 8.70322C5.91859 8.24223 5.87492 7.795 5.94771 7.65739C6.0205 7.51978 6.08601 7.4785 6.09329 7.48538C6.10784 7.49914 5.96954 7.69867 6.06417 8.22847C6.1588 8.75826 6.41356 9.20549 6.47179 9.18484C6.53003 9.1642 6.4354 9.05412 6.399 8.7445C6.36261 8.43488 6.4354 8.24223 6.51547 8.21471C6.55186 8.18718 6.61009 8.55873 6.61737 8.72386ZM5.90403 9.60455C5.7075 9.43254 5.40178 8.83394 5.33627 8.86146C5.26348 8.89587 5.83124 9.75592 5.8458 9.82472C5.86036 9.90729 5.9841 10.1412 5.88947 10.1068C5.79485 10.0724 5.1179 9.39814 5.19797 9.52887C5.27804 9.65959 5.78757 10.2513 5.75845 10.2857C5.72934 10.3201 5.33627 9.95545 5.32171 10.0036C5.31443 10.0449 5.7075 10.4027 5.70022 10.444C5.69294 10.4852 5.44546 10.2169 5.44546 10.2719C5.44546 10.327 5.70022 10.5953 5.70022 10.6366C5.70022 10.6779 5.48185 10.444 5.55464 10.5678C5.62015 10.7054 5.80941 10.8224 5.80213 10.8637C5.79485 10.9049 5.64199 10.8086 5.64199 10.8293C5.64199 10.8499 5.92587 10.9462 5.99138 11.0219C6.06417 11.0976 6.53003 11.6068 6.87942 11.8613C7.22881 12.1159 8.23331 12.5631 8.3061 12.5631C8.37161 12.5631 8.47351 12.4255 8.45168 12.3705C8.42984 12.3154 7.44718 11.9989 7.17785 11.765C6.90125 11.5311 6.23159 10.9669 6.17335 10.9394C6.1224 10.9049 5.96954 10.9187 5.96954 10.8843C5.96954 10.8499 6.16608 10.9049 6.15152 10.8843C6.14424 10.8637 5.8822 10.7536 5.88947 10.7329C5.90403 10.7123 6.07145 10.7742 6.07145 10.7536C6.07145 10.7329 5.76573 10.5747 5.78029 10.5403C5.78757 10.5059 6.00594 10.6366 6.00594 10.6091C6.00594 10.5953 5.71478 10.4027 5.72206 10.3683C5.72934 10.3339 5.94771 10.5196 5.94043 10.4784C5.93315 10.4371 5.76573 10.2031 5.76573 10.1756C5.76573 10.1412 6.02777 10.4096 6.05689 10.3545C6.07145 10.3064 5.96227 9.85912 5.96954 9.85224C5.97682 9.84536 6.16608 9.94857 6.19519 9.88665C6.23159 9.81784 6.06417 9.7284 5.90403 9.60455ZM9.25964 12.9897C9.12134 13.0104 9.05583 12.9622 9.1359 12.8521C9.24509 12.8521 9.53625 12.7627 9.63815 12.7214C9.74006 12.6801 9.84924 12.6251 9.93659 12.5494C10.0239 12.4599 10.0822 12.5975 10.0312 12.6732C9.99482 12.7214 9.82741 12.8108 9.70366 12.859C9.52169 12.914 9.36155 12.9966 9.25964 12.9897ZM10.1695 12.6388C10.0749 12.5425 10.155 12.4737 10.2933 12.398C10.4971 12.2948 10.4388 12.1503 10.7009 12.0333C10.8173 11.9645 12.4478 11.3453 12.9792 11.015C13.5106 10.6848 15.0028 9.61831 15.4031 8.88211C15.7962 8.15278 15.6069 8.09774 15.6652 8.07022C15.7161 8.03581 15.7743 8.17342 15.7671 8.33855C15.7525 8.4968 15.6215 8.97843 15.6652 9.0266C15.7088 9.07476 16.262 8.64817 16.495 8.13214C16.7279 7.61611 16.9026 7.07944 17.0118 7.07944C17.1282 7.07944 16.8225 7.96013 16.626 8.30415C16.4367 8.64817 16.2111 8.82018 16.262 8.89587C16.3203 8.96467 16.888 8.51744 17.0846 8.18718C17.2738 7.85004 17.4558 7.55419 17.4922 7.61611C17.4343 8.01916 17.2662 8.40096 17.0045 8.72386C16.6988 9.05412 16.3348 9.29493 16.3931 9.34309C16.444 9.39814 16.8589 9.45318 17.2884 9.17796C17.7251 8.89587 17.7688 8.48992 17.8197 8.51056C17.878 8.53121 17.7688 9.08852 17.3539 9.43254C16.939 9.77656 16.3931 9.81096 16.4076 9.88665C16.4367 9.95545 17.5941 9.57015 17.5722 9.65959C17.5504 9.74216 16.0728 10.2926 16.0582 10.3476C16.0582 10.3889 16.313 10.4027 16.7133 10.3132C17.1064 10.2307 17.4849 9.93481 17.5359 10.0036C17.5504 10.0999 17.252 10.3339 16.8007 10.444C16.3421 10.554 16.1164 10.6985 16.1019 10.7329C16.0946 10.7673 16.9171 10.6366 16.9171 10.6779C16.9171 10.7192 15.8398 10.9187 15.8326 10.9738C15.818 11.0219 16.8516 10.7742 16.8371 10.8361C16.808 10.8843 15.4322 11.2696 15.4468 11.2903C15.4541 11.3178 16.5969 11.0563 16.575 11.0976C16.5459 11.1458 14.6534 11.648 14.6388 11.6824C14.6243 11.71 16.313 11.3247 16.2984 11.3591C16.2839 11.3935 15.4249 11.593 15.4249 11.6136C15.4249 11.6343 16.1164 11.5104 16.1019 11.5448C16.0946 11.5723 14.3549 11.9921 14.3185 12.054C14.2821 12.1228 15.2211 11.882 15.2066 12.0058C15.192 12.1297 13.1903 12.7627 13.183 12.6457C13.1685 12.5287 14.3986 12.2329 14.3913 12.1985C14.3768 12.1641 13.6853 12.2673 13.6707 12.2053C13.6634 12.1365 14.1293 11.9989 14.0929 11.9714C14.0565 11.937 13.7071 12.0677 13.7362 11.9921C13.7726 11.9164 14.435 11.6274 14.4204 11.6068C14.4132 11.5861 14.1802 11.6756 14.2021 11.6068C14.2312 11.5311 15.636 11.1458 15.6142 11.0976C15.5924 11.0563 14.9664 11.1939 14.9081 11.2077C14.8863 11.1664 15.7816 10.8499 15.7671 10.7949C15.7379 10.7467 15.2866 10.9806 15.2575 10.9187C15.243 10.8499 16.0509 10.554 16 10.5059C15.949 10.4577 15.5851 10.6297 15.5341 10.5816C15.4832 10.5334 16.2984 10.0036 16.1747 9.98985C16.0509 9.98297 15.8981 10.155 15.8835 10.0449C15.8981 9.90729 16.5168 9.68024 16.3785 9.57015C16.1601 9.50822 15.4249 9.61831 15.1192 9.79032C14.8135 9.96233 13.7945 10.9187 13.547 11.0701C13.2995 11.2146 12.4551 11.5517 12.295 11.6205C12.0475 11.7031 12.0038 11.8269 11.7491 11.9508C11.2905 12.0677 11.2978 12.1985 11.0794 12.2742C10.9993 12.2948 10.1768 12.6663 10.1695 12.6388ZM9.01944 13.1204C8.88114 13.1892 8.7574 13.3544 8.83746 13.4232C8.88114 13.5057 9.01944 13.2374 9.12862 13.2512L9.71094 13.2787C10.0239 13.2993 10.1768 13.2168 10.3515 13.2305C10.5262 13.2443 10.912 13.1411 11.0939 13.1411C11.2759 13.1411 11.3123 13.1617 11.3269 13.086C11.3487 13.0172 10.7591 13.0654 10.4971 13.0585C10.235 13.0448 9.90747 13.1067 9.71094 13.1067C9.52897 13.0998 9.21597 13.0448 9.01944 13.1204Z" fill="#FFE400"/>
<path d="M9.89202 13.0379C9.89202 12.9809 9.83661 12.9347 9.76827 12.9347C9.69993 12.9347 9.64453 12.9809 9.64453 13.0379C9.64453 13.0949 9.69993 13.1411 9.76827 13.1411C9.83661 13.1411 9.89202 13.0949 9.89202 13.0379Z" fill="#FFE400"/>
<path fill-rule="evenodd" clip-rule="evenodd" d="M12.7969 12.8383C12.9206 12.8177 13.2554 12.9278 13.4884 12.9759C13.9106 13.1342 14.6967 13.0585 14.6967 13.1342C14.6967 13.2099 14.6457 13.2993 14.4638 13.3131C14.2818 13.3268 13.8232 13.2443 13.8378 13.2443C13.8523 13.2443 14.2017 13.4025 14.0998 13.4438C13.9979 13.4851 13.6995 13.3544 13.6485 13.3888C13.5976 13.4232 13.9251 13.4851 13.8669 13.5057C13.8232 13.5264 13.5976 13.4782 13.5248 13.4851C13.452 13.4989 13.583 13.5745 13.4957 13.6021C13.4083 13.6365 13.2627 13.5608 13.2045 13.5814C13.139 13.6021 13.3355 13.719 13.2482 13.7328C13.1608 13.7465 12.957 13.6777 12.8405 13.664C12.7241 13.664 12.9497 13.7741 12.8769 13.7878C12.8042 13.7947 12.6003 13.6984 12.5494 13.6984C12.4984 13.6984 12.5494 13.836 12.4766 13.836C12.4038 13.836 12.3165 13.719 12.2728 13.719C12.2291 13.719 12.2728 13.8566 12.2 13.8566C12.1272 13.8566 12.0981 13.7121 12.0399 13.719C11.9671 13.7328 12.0399 13.9048 11.938 13.891C11.8433 13.8842 11.8288 13.7121 11.7487 13.719C11.6759 13.7328 11.7633 13.891 11.6905 13.891C11.6177 13.891 11.6031 13.7328 11.5303 13.719C11.4575 13.7121 11.4867 13.8704 11.443 13.8704C11.3993 13.8704 11.3556 13.719 11.3265 13.719C11.3047 13.719 11.3265 13.8704 11.2392 13.8566C11.1518 13.8429 11.1518 13.6915 11.13 13.6984C11.1009 13.7121 11.1009 13.8222 11.0426 13.8222C10.9844 13.8222 10.9771 13.7121 10.9553 13.7259C10.9262 13.7328 10.8388 13.8704 10.7806 13.8498C10.7151 13.8291 10.7952 13.719 10.766 13.719C10.7369 13.719 10.6641 13.7947 10.6205 13.7878C10.5768 13.7809 10.6205 13.6915 10.6059 13.6915C10.5913 13.6915 10.4822 13.7465 10.4312 13.7465C10.3803 13.7465 10.2419 13.8154 10.2056 13.7534C10.1692 13.6846 10.3002 13.6846 10.3293 13.6227C10.3511 13.5608 10.2565 13.375 10.3584 13.3131C10.453 13.2443 10.766 13.4025 11.2319 13.2924C12.0763 13.0791 12.7314 12.8315 12.7969 12.8383Z" fill="#FFE400"/>
</svg>
