<svg width="20" height="16" viewBox="0 0 20 16" fill="none" xmlns="http://www.w3.org/2000/svg">
<g clip-path="url(#clip0_201_7010)">
<path fill-rule="evenodd" clip-rule="evenodd" d="M20.6934 15.5008H-0.699219V0.500793H20.6934V15.5008Z" fill="white"/>
<path fill-rule="evenodd" clip-rule="evenodd" d="M10.1855 8.01251C10.1855 8.88664 9.8383 9.72496 9.2202 10.3431C8.6021 10.9612 7.76377 11.3084 6.88965 11.3084C6.01552 11.3084 5.1772 10.9612 4.5591 10.3431C3.941 9.72496 3.59375 8.88664 3.59375 8.01251C3.59375 7.13839 3.941 6.30006 4.5591 5.68196C5.1772 5.06386 6.01552 4.71661 6.88965 4.71661C7.76377 4.71661 8.6021 5.06386 9.2202 5.68196C9.8383 6.30006 10.1855 7.13839 10.1855 8.01251Z" fill="white"/>
<path fill-rule="evenodd" clip-rule="evenodd" d="M14.3193 8.20587C14.3193 10.5789 12.415 12.5067 10.0625 12.5067C7.70996 12.5067 5.80859 10.5789 5.80859 8.20587C5.80859 5.83282 7.71289 3.90216 10.0654 3.90216C12.418 3.90216 14.3193 5.83282 14.3193 8.20587Z" fill="#C70000"/>
<path fill-rule="evenodd" clip-rule="evenodd" d="M1.35938 4.21564L3.80859 1.38263L4.3916 1.88361L1.93945 4.71954L1.35938 4.21564ZM2.16211 4.90997L4.61133 2.07697L5.19434 2.57501L2.74219 5.41388L2.16211 4.90997Z" fill="black"/>
<path fill-rule="evenodd" clip-rule="evenodd" d="M1.35938 4.21564L3.80859 1.38263L4.3916 1.88361L1.93945 4.71954L1.35938 4.21564Z" fill="black"/>
<path fill-rule="evenodd" clip-rule="evenodd" d="M1.35938 4.21564L3.80859 1.38263L4.3916 1.88361L1.93945 4.71954L1.35938 4.21564ZM2.98242 5.62189L5.43164 2.78302L6.01465 3.28693L3.5625 6.12286L2.98242 5.62189Z" fill="black"/>
<path fill-rule="evenodd" clip-rule="evenodd" d="M1.35938 4.21564L3.80859 1.38263L4.3916 1.88361L1.93945 4.71954L1.35938 4.21564Z" fill="black"/>
<path fill-rule="evenodd" clip-rule="evenodd" d="M1.35938 4.21564L3.80859 1.38263L4.3916 1.88361L1.93945 4.71954L1.35938 4.21564ZM16.2656 1.3797L18.6973 4.23322L18.1113 4.73126L15.6797 1.87775L16.2656 1.3797ZM14.6338 2.7713L17.0654 5.62482L16.4795 6.12286L14.0479 3.26935L14.6338 2.7713Z" fill="black"/>
<path fill-rule="evenodd" clip-rule="evenodd" d="M15.0371 4.41486L17.334 2.42853L17.7646 2.92657L15.3037 5.13556L15.0312 4.41486H15.0371Z" fill="white"/>
<path fill-rule="evenodd" clip-rule="evenodd" d="M17.8682 11.4109L15.5127 14.2176L14.9355 13.7371L17.291 10.9305L17.8682 11.4109ZM15.4541 2.06818L17.8857 4.92169L17.3027 5.41974L14.874 2.56329L15.4541 2.06818ZM18.668 12.076L16.3096 14.8826L15.7295 14.4022L18.0879 11.5955L18.668 12.076ZM17.0537 10.7342L14.6982 13.5408L14.1211 13.0604L16.4766 10.2537L17.0537 10.7342Z" fill="black"/>
<path fill-rule="evenodd" clip-rule="evenodd" d="M5.86842 7.44708C6.00318 8.53106 6.19947 9.73809 7.86646 9.86114C8.49049 9.89922 9.70631 9.71465 10.1223 8.00957C10.6731 6.37481 12.3196 5.90606 13.4417 6.79083C14.0833 7.20684 14.259 7.86602 14.3001 8.36407C14.2503 9.9461 13.3362 11.3231 12.1672 11.9383C10.8196 12.7381 8.95631 12.7557 7.32447 11.5428C6.58912 10.8543 5.5608 9.57989 5.86842 7.44708Z" fill="#3D5897"/>
<path fill-rule="evenodd" clip-rule="evenodd" d="M15.5791 11.3699L17.8818 13.3504L17.4541 13.8484L14.9023 11.7449L15.5762 11.3699H15.5791Z" fill="white"/>
<path fill-rule="evenodd" clip-rule="evenodd" d="M2.75 10.9774L5.18164 13.8279L4.5957 14.326L2.16406 11.4754L2.75 10.9774Z" fill="black"/>
<path fill-rule="evenodd" clip-rule="evenodd" d="M2.32812 13.324L4.63086 11.3348L5.06152 11.8328L2.60059 14.0447L2.32812 13.3211V13.324Z" fill="white"/>
<path fill-rule="evenodd" clip-rule="evenodd" d="M3.55762 10.2889L5.98926 13.1395L5.40332 13.6375L2.97168 10.7869L3.55762 10.2889ZM1.92578 11.6805L4.35742 14.5311L3.77148 15.0291L1.33984 12.1785L1.92578 11.6805Z" fill="black"/>
</g>
<defs>
<clipPath id="clip0_201_7010">
<rect width="20" height="15" fill="white" transform="translate(0 0.5)"/>
</clipPath>
</defs>
</svg>
