<svg width="20" height="16" viewBox="0 0 20 16" fill="none" xmlns="http://www.w3.org/2000/svg">
<g clip-path="url(#clip0_201_5349)">
<path d="M0 0.5H20V15.5H0V0.5Z" fill="#000066"/>
<path fill-rule="evenodd" clip-rule="evenodd" d="M0 0.5H12.5V6.75H0V0.5Z" fill="#000066"/>
<path d="M0 0.5V1.34375L10.45 8.07188H11.7656V7.22813L1.31562 0.5H0ZM11.7656 0.5V1.34375L1.31562 8.075H0V7.23125L10.45 0.5H11.7656Z" fill="white"/>
<path d="M4.90312 0.5V8.07188H6.8625V0.5H4.90625H4.90312ZM0 3.025V5.54688H11.7656V3.025H0Z" fill="white"/>
<path d="M0 3.53125V5.04375H11.7656V3.52813H0V3.53125ZM5.29375 0.5V8.07188H6.47188V0.5H5.29375ZM0 8.07188L3.92188 5.54688H4.79688L0.88125 8.07188H0ZM0 0.5L3.92188 3.025H3.04688L0 1.0625V0.5ZM6.96875 3.025L10.8844 0.5H11.7625L7.84375 3.025H6.96875ZM11.7656 8.07188L7.84375 5.54688H8.71875L11.7656 7.50625V8.07188Z" fill="#CC0000"/>
<path fill-rule="evenodd" clip-rule="evenodd" d="M14.0102 6.09688C13.979 6.11563 13.9165 6.175 13.854 6.15625C13.7915 6.1375 13.6477 5.8875 13.4915 5.925C13.3352 5.96563 13.2384 6.02188 13.1759 6.02188C13.1134 6.02188 12.9384 6.07813 12.9384 6.23125C12.9384 6.38438 12.954 6.5 12.9852 6.5C13.0165 6.5 13.0634 6.40313 13.0634 6.40313C13.0634 6.40313 13.079 6.59375 13.1884 6.59375C13.2977 6.59375 13.5384 6.6125 13.554 6.67188C13.5696 6.72813 13.4446 6.85938 13.4759 6.975C13.5071 7.09063 13.6477 7.28125 13.6477 7.28125C13.6477 7.28125 13.4446 7.43125 13.4446 7.53125C13.4446 7.63125 13.4759 7.71875 13.4759 7.71875L12.5602 7.75625C12.5602 7.75625 12.4977 10.4656 12.529 10.675L12.6384 11.4C12.6384 11.4 12.4321 11.3313 12.2602 11.5031C12.0852 11.675 11.479 11.9719 11.4634 12.1031C11.4477 12.2375 11.3915 12.3531 11.454 12.4469C11.5165 12.5406 11.7415 12.8031 11.6759 12.7906C11.4634 12.7563 11.3852 12.4531 11.2415 12.3438C11.1009 12.2344 10.8259 12.2563 10.7915 12.3719C10.7602 12.4875 10.7759 12.6781 10.7915 12.7156C10.8071 12.7531 10.9821 13.3625 11.029 13.4969C11.0759 13.6313 11.5727 13.8313 11.7946 13.8094C12.2134 13.8219 12.4009 13.6313 12.4196 13.65C12.4321 13.6688 13.3165 14.5813 15.1321 14.5844C16.5446 14.5844 17.6071 13.6688 17.6071 13.6875C17.6071 13.7063 18.1915 13.8781 18.3977 13.8219C18.6009 13.7625 18.9009 13.6313 18.9634 13.4969C19.0259 13.3625 19.2009 12.6781 19.2165 12.5625C19.2321 12.4469 19.2165 12.3125 19.0759 12.275C18.9352 12.2375 18.8571 12.2469 18.7759 12.2844C18.6946 12.3219 18.6727 12.4281 18.5571 12.6188C18.4915 12.6781 18.3259 12.8281 18.3727 12.7906C18.4196 12.7531 18.5227 12.4688 18.5384 12.3719C18.554 12.2781 18.6009 12.1063 18.4915 12.0094C18.3821 11.9156 18.2102 11.875 18.0196 11.7344C17.8321 11.6094 17.6884 11.4 17.5759 11.4C17.4665 11.4 17.3415 11.3438 17.3571 11.3438C17.3727 11.3438 17.4977 11.0625 17.4665 10.7813C17.4352 10.4938 17.4821 7.75625 17.4665 7.75625C17.4509 7.75625 16.679 7.81563 16.679 7.775C16.679 7.73438 16.7415 7.47188 16.679 7.3C16.6165 7.12813 16.3446 7.0125 16.4259 6.975C16.504 6.9375 16.8509 6.84063 16.8321 6.69063C16.8196 6.53438 16.5977 6.55625 16.504 6.5C16.4102 6.44063 16.1259 6.175 16.0946 6.175C16.0634 6.175 16.9134 5.65938 16.8509 5.65938C16.7884 5.65938 16.4571 5.56563 16.3446 5.62188C16.3446 5.52813 16.804 5.24063 16.7259 5.20313C16.6446 5.1625 16.2821 5.125 16.379 5.10938C16.4727 5.0875 16.504 4.85938 16.4884 4.85938L16.079 4.91563C16.079 4.91563 15.9852 4.78125 15.954 4.78125C15.9227 4.78125 15.779 4.85938 15.779 4.85938L15.6977 4.65L15.5259 4.7625L15.4477 4.66875C15.4477 4.66875 15.304 4.70625 15.304 4.66875C15.3102 4.66875 15.2884 4.575 15.2665 4.575C15.2446 4.575 15.0884 4.69375 15.0821 4.6875C15.0759 4.68125 14.904 4.4375 14.904 4.44375L14.7759 4.90313C14.7696 4.90313 14.6509 4.91563 14.6477 4.92188C14.6415 4.93125 14.0227 4.56563 14.029 4.57188L14.1884 4.92188C14.1884 4.92188 14.0571 4.99688 14.0571 5.00313L14.079 5.15938L13.6665 5.01875C13.6665 5.01875 13.8227 5.33125 13.8102 5.33125L13.5102 5.34688L13.6477 5.60938L13.5977 5.76563C13.5977 5.76563 14.0415 6.07813 14.0102 6.09688ZM16.6446 12.7344C16.6852 12.7906 16.8977 13.0594 16.8665 13.0594C16.8352 13.0594 16.304 13.4125 16.0946 13.4781C15.8076 13.5502 15.5178 13.6107 15.2259 13.6594C15.2665 13.65 15.8509 13.3313 16.0852 13.1781C16.2866 13.0487 16.4749 12.9001 16.6477 12.7344H16.6446ZM13.3477 12.725C13.3165 12.7625 13.1665 13.0594 13.1665 13.0594C13.1665 13.0594 13.6009 13.3625 13.9227 13.4781C14.2477 13.5906 14.7977 13.6313 14.7665 13.6219C14.7352 13.6125 14.0759 13.3156 13.8852 13.1625C13.6977 13.0094 13.354 12.725 13.3477 12.725Z" fill="white"/>
<path fill-rule="evenodd" clip-rule="evenodd" d="M13.6924 5.66437L14.032 5.91253C14.0953 5.96007 14.3006 6.16996 14.316 6.16069C14.3313 6.15141 14.4426 6.04588 14.4426 6.04588C14.4426 6.04588 14.2133 5.82672 14.0704 5.78033C13.9274 5.73395 13.6914 5.68524 13.6914 5.66553L13.6924 5.66437Z" fill="#FEC500" stroke="#6D6666" stroke-width="0.472532"/>
<path fill-rule="evenodd" clip-rule="evenodd" d="M13.6523 5.44519C13.6763 5.44519 14.11 5.7119 14.2443 5.84642C14.3786 5.98094 14.4333 6.1514 14.4496 6.1514C14.4649 6.1514 14.6702 6.11313 14.6626 6.11313C14.6549 6.11313 14.5676 5.76989 14.3709 5.66436C14.1733 5.55999 13.661 5.44519 13.6523 5.44519Z" fill="#FEC500" stroke="#6D6666" stroke-width="0.472532"/>
<path fill-rule="evenodd" clip-rule="evenodd" d="M15.6966 4.755C15.6889 4.755 15.6103 5.04143 15.5863 5.12608C15.5623 5.21306 15.5229 5.3928 15.5229 5.3928C15.5229 5.3928 15.1757 5.43223 15.192 5.38468C15.2073 5.33598 15.7196 4.755 15.6966 4.755Z" fill="#FEC500" stroke="#6D6666" stroke-width="0.472532"/>
<path fill-rule="evenodd" clip-rule="evenodd" d="M13.7305 5.10196C13.7305 5.10196 14.1401 5.43593 14.2821 5.62611C14.4241 5.81745 14.5661 6.15142 14.5738 6.15142C14.5824 6.15142 14.9604 6.05517 14.9604 6.06561C14.9604 6.07604 14.5191 5.53218 14.3061 5.36983C14.0931 5.20749 13.7381 5.12167 13.7305 5.10312V5.10196Z" fill="#FEC500" stroke="#6D6666" stroke-width="0.472532"/>
<path fill-rule="evenodd" clip-rule="evenodd" d="M14.1562 5.01245C14.1562 5.01245 14.3606 5.39397 14.4009 5.52732C14.4512 5.68684 14.5036 5.84534 14.5582 6.00277H14.8815C14.8815 6.00277 14.7242 5.57371 14.5506 5.36498C14.3769 5.15624 14.1639 5.03101 14.1562 5.01245Z" fill="#FEC500" stroke="#6D6666" stroke-width="0.472532"/>
<path fill-rule="evenodd" clip-rule="evenodd" d="M14.2695 4.80255C14.2772 4.83154 14.5689 5.16435 14.6398 5.38352C14.6897 5.54599 14.7319 5.71169 14.7665 5.87984L15.0505 5.79403C15.0505 5.79403 14.7981 5.23161 14.6398 5.07854C14.4825 4.92663 14.2849 4.82111 14.2695 4.80255Z" fill="#FEC500" stroke="#6D6666" stroke-width="0.472532"/>
<path fill-rule="evenodd" clip-rule="evenodd" d="M16.6281 5.70264C16.6281 5.70264 16.0362 5.77917 15.8232 5.84527C15.6102 5.91137 15.4922 6.16069 15.4922 6.16069C15.4922 6.16069 15.7685 6.28477 15.7838 6.26505C15.7992 6.24534 15.9661 6.04589 16.1465 5.96935C16.3288 5.89397 16.6444 5.71191 16.6281 5.70264Z" fill="#FEC500" stroke="#6D6666" stroke-width="0.472532"/>
<path fill-rule="evenodd" clip-rule="evenodd" d="M16.6024 5.23532C16.5871 5.24576 16.1131 5.71193 15.9635 5.865C15.8138 6.01691 15.6718 6.17926 15.6565 6.18969C15.6402 6.19897 15.3485 6.14099 15.3639 6.12243C15.3802 6.10388 15.7985 5.69337 16.0738 5.51247C16.3501 5.33041 16.5794 5.25503 16.6024 5.23532Z" fill="#FEC500" stroke="#6D6666" stroke-width="0.472532"/>
<path fill-rule="evenodd" clip-rule="evenodd" d="M16.4851 4.90134C16.4371 4.96859 15.9728 5.42665 15.8461 5.58899C15.7195 5.75134 15.5151 6.03545 15.5151 6.03545C15.5151 6.03545 15.2705 5.90209 15.2858 5.84411C15.3022 5.78729 15.6331 5.45332 15.8701 5.26314C16.1061 5.0718 16.5091 4.91989 16.4851 4.90018V4.90134Z" fill="#FEC500" stroke="#6D6666" stroke-width="0.472532"/>
<path fill-rule="evenodd" clip-rule="evenodd" d="M16.0119 4.86423C15.8942 5.01147 15.7809 5.16387 15.6723 5.32112C15.6176 5.41621 15.4517 5.83599 15.4517 5.83599C15.4517 5.83599 15.207 5.57856 15.207 5.56928C15.207 5.56 15.514 5.16921 15.6963 5.01614C15.8786 4.86307 16.0196 4.89206 16.0119 4.86423Z" fill="#FEC500" stroke="#6D6666" stroke-width="0.472532"/>
<path fill-rule="evenodd" clip-rule="evenodd" d="M15.3262 5.38351C15.3282 5.40075 15.3271 5.41831 15.323 5.43499C15.3189 5.45167 15.3118 5.4671 15.3024 5.48023C15.2929 5.49336 15.2812 5.50388 15.2681 5.51109C15.255 5.51831 15.2408 5.52204 15.2264 5.52204C15.212 5.52204 15.1978 5.51831 15.1847 5.51109C15.1716 5.50388 15.1599 5.49336 15.1504 5.48023C15.141 5.4671 15.134 5.45167 15.1298 5.43499C15.1257 5.41831 15.1246 5.40075 15.1266 5.38351C15.1291 5.35342 15.1407 5.3255 15.1592 5.30518C15.1777 5.28487 15.2019 5.27362 15.2269 5.27362C15.2519 5.27362 15.276 5.28487 15.2946 5.30518C15.3131 5.3255 15.3247 5.35342 15.3271 5.38351H15.3262ZM15.5276 5.54586C15.5276 5.605 15.4826 5.65371 15.4279 5.65371C15.3732 5.65371 15.3271 5.605 15.3271 5.54586C15.3271 5.48672 15.3722 5.43802 15.4269 5.43802C15.4816 5.43802 15.5276 5.48556 15.5276 5.54586ZM15.0815 5.4241C15.0815 5.4844 15.0269 5.53194 14.9587 5.53194C14.8916 5.53194 14.8359 5.4844 14.8359 5.4241C14.8359 5.3638 14.8916 5.31625 14.9587 5.31625C15.0259 5.31625 15.0815 5.36496 15.0815 5.4241Z" fill="#FEC500" stroke="#6D6666" stroke-width="0.506284"/>
<path fill-rule="evenodd" clip-rule="evenodd" d="M15.4042 5.64791C15.4042 5.76271 15.3419 5.85664 15.2651 5.85664C15.1884 5.85664 15.126 5.76271 15.126 5.64791C15.126 5.53311 15.1884 5.43802 15.2651 5.43802C15.3419 5.43802 15.4042 5.53079 15.4042 5.64675V5.64791ZM15.0253 5.65371C15.0253 5.743 14.9629 5.81606 14.8862 5.81606C14.8094 5.81606 14.7461 5.743 14.7461 5.65371C14.7461 5.56442 14.8085 5.49136 14.8862 5.49136C14.9629 5.49136 15.0253 5.56442 15.0253 5.65371Z" fill="#FEC500" stroke="#6D6666" stroke-width="0.506284"/>
<path fill-rule="evenodd" clip-rule="evenodd" d="M14.837 5.78127C14.837 5.86012 14.7891 5.92274 14.7305 5.92274C14.672 5.92274 14.625 5.86012 14.625 5.78127C14.625 5.70357 14.672 5.63979 14.7305 5.63979C14.7881 5.63979 14.8361 5.70357 14.8361 5.78127H14.837ZM15.617 5.76851C15.617 5.86128 15.545 5.93666 15.4558 5.93666C15.3656 5.93666 15.2937 5.86128 15.2937 5.76851C15.2937 5.67574 15.3656 5.59921 15.4558 5.59921C15.545 5.59921 15.617 5.67458 15.617 5.76851ZM15.2265 5.52499C15.2265 5.58181 15.169 5.62704 15.0989 5.62704C15.0289 5.62704 14.9704 5.58065 14.9704 5.52499C14.9704 5.46933 15.0279 5.4241 15.0989 5.4241C15.1699 5.4241 15.2265 5.47049 15.2265 5.52499Z" fill="#FEC500" stroke="#6D6666" stroke-width="0.506284"/>
<path fill-rule="evenodd" clip-rule="evenodd" d="M15.2491 5.74764C15.2491 5.82882 15.1686 5.89608 15.0707 5.89608C14.9728 5.89608 14.8923 5.82998 14.8923 5.74764C14.8923 5.66647 14.9719 5.59921 15.0707 5.59921C15.1695 5.59921 15.2491 5.66647 15.2491 5.74764ZM15.7058 6.01088C15.7058 6.11177 15.631 6.19294 15.5389 6.19294C15.4468 6.19294 15.371 6.11177 15.371 6.01088C15.371 5.90999 15.4458 5.82882 15.5389 5.82882C15.631 5.82882 15.7058 5.90999 15.7058 6.01088ZM14.7915 5.96449C14.7915 6.03059 14.7493 6.0851 14.6965 6.0851C14.6438 6.0851 14.6016 6.03059 14.6016 5.96333C14.6016 5.89608 14.6438 5.84273 14.6965 5.84273C14.7493 5.84273 14.7915 5.89608 14.7915 5.96333V5.96449Z" fill="#FEC500" stroke="#6D6666" stroke-width="0.506284"/>
<path fill-rule="evenodd" clip-rule="evenodd" d="M15.4599 5.94363C15.4599 6.02944 15.3956 6.09902 15.316 6.09902C15.2354 6.09902 15.1701 6.02944 15.1701 5.94363C15.1701 5.85782 15.2354 5.78708 15.316 5.78708C15.3965 5.78708 15.4608 5.85666 15.4608 5.94247L15.4599 5.94363ZM15.0032 5.93667C15.0032 6.01089 14.9456 6.07119 14.8746 6.07119C14.8037 6.07119 14.7461 6.01089 14.7461 5.93667C14.7461 5.86245 14.8037 5.80215 14.8746 5.80215C14.9456 5.80215 15.0032 5.86245 15.0032 5.93667Z" fill="#FEC500" stroke="#6D6666" stroke-width="0.506284"/>
<path fill-rule="evenodd" clip-rule="evenodd" d="M15.2279 5.97725C15.2279 6.05843 15.1684 6.12568 15.0936 6.12568C15.0207 6.12568 14.9602 6.05843 14.9602 5.97725C14.9602 5.89608 15.0207 5.82882 15.0945 5.82882C15.1684 5.82882 15.2289 5.89492 15.2289 5.97725H15.2279ZM14.6484 5.08666C14.6811 5.08666 14.9161 5.18175 14.9161 5.18175C14.9161 5.18175 14.6254 5.31627 14.6705 5.30235C14.7156 5.28844 14.9938 5.24901 14.9717 5.24901C14.9497 5.24901 14.7261 5.50529 14.7933 5.49253C14.8605 5.47861 14.9938 5.31627 15.0044 5.31627C15.0159 5.31627 15.1502 5.57254 15.1617 5.55979C15.1723 5.54587 15.1617 5.30235 15.1723 5.30235C15.1828 5.30235 15.4505 5.4647 15.4284 5.45078C15.3673 5.39043 15.3114 5.32283 15.2615 5.24901C15.273 5.24901 15.6299 5.28959 15.6069 5.27568L15.3728 5.14116C15.3728 5.14116 15.5291 4.96606 15.4956 4.96606C15.462 4.96606 15.2058 5.14116 15.2279 5.12841C15.25 5.11449 15.5061 4.76313 15.5061 4.76313L15.2509 4.91156C15.2509 4.91156 15.296 4.69587 15.274 4.70978C15.2509 4.7237 15.0725 4.99273 15.0619 4.99273C15.0514 4.99273 15.0063 4.7237 15.0063 4.7237C15.0063 4.7237 15.0168 5.0194 14.9497 5.03332C14.8825 5.04723 14.6494 5.10058 14.6494 5.08782L14.6484 5.08666Z" fill="#FEC500" stroke="#6D6666" stroke-width="0.506284"/>
<path fill-rule="evenodd" clip-rule="evenodd" d="M13.9219 7.26562C13.9281 7.29375 14.1063 7.77812 14.3813 7.76562C14.6563 7.75313 14.7656 7.67188 14.7531 7.66563C14.6635 7.59835 14.5961 7.50586 14.5594 7.4C14.5254 7.31934 14.4993 7.23563 14.4812 7.15L13.9219 7.26562ZM14.8969 7.07812C14.8969 7.07812 15.1 7.55625 15.1875 7.625C15.2781 7.69063 15.4844 7.74375 15.5719 7.7375C15.6625 7.73125 15.7688 7.7375 15.7688 7.7375C15.7688 7.7375 15.6781 7.69062 15.6062 7.42812L15.5125 7.07812H14.8969ZM16.125 7.25313C16.125 7.25313 16.0875 7.60313 16.125 7.69063C16.1656 7.77813 16.3594 7.94063 16.3594 7.94063C16.3594 7.94063 16.5938 7.90938 16.6 7.69063C16.6005 7.54839 16.574 7.40736 16.5219 7.275L16.125 7.25V7.25313Z" fill="#00389B"/>
<path fill-rule="evenodd" clip-rule="evenodd" d="M13.7315 6.6404C13.7315 6.6404 13.742 6.6949 13.7315 6.73549C13.7209 6.77607 13.625 6.88392 13.625 6.97089C13.625 7.05902 13.7363 7.32806 14.0759 7.33501C14.4174 7.34197 14.8463 7.11237 14.8405 7.10541C14.8348 7.09961 14.026 6.44442 14.0155 6.45138C14.004 6.45834 13.7305 6.65431 13.7305 6.6404H13.7315ZM15.9783 7.10541C15.9783 7.10541 16.0513 7.34197 16.0791 7.36864C16.1069 7.39531 16.1175 7.44982 16.1242 7.44982C16.1309 7.44982 16.5923 7.57042 16.5923 7.57042C16.5923 7.57042 16.6365 7.41619 16.5703 7.29443C16.5031 7.17267 16.2518 6.85609 16.2518 6.85609L15.9783 7.10541ZM16.2969 6.8155C16.3074 6.8155 16.4197 6.93146 16.5079 6.87C16.5981 6.8097 16.743 6.64736 16.743 6.64736C16.743 6.64736 16.6202 6.69374 16.5309 6.68794C16.4417 6.68099 16.3026 6.82246 16.2969 6.8155Z" fill="#005120" stroke="black" stroke-width="0.506284"/>
<path fill-rule="evenodd" clip-rule="evenodd" d="M13.7149 6.66708C13.7149 6.66708 13.6813 6.55344 13.5921 6.54648C13.5029 6.53952 13.3407 6.55924 13.2851 6.50589C13.2295 6.45139 13.2141 6.32383 13.1853 6.33079C13.1565 6.33659 13.0846 6.33079 13.0798 6.33079C13.075 6.33079 13.0453 6.22295 13.1239 6.16844C13.2026 6.11394 13.2678 6.16148 13.3129 6.12206C13.358 6.08263 13.4252 6.05364 13.5144 6.04668C13.6036 6.04088 13.7485 6.18236 13.8156 6.21599C13.8828 6.24962 14.0267 6.2902 14.0833 6.25657C14.1389 6.22179 14.4507 6.07451 14.563 6.06756C14.6743 6.0606 14.9084 6.05364 14.9976 6.0606C15.0868 6.06756 15.4389 6.12206 15.5444 6.18236C15.65 6.24266 16.2141 6.47806 16.2918 6.53256C16.3695 6.58707 16.5431 6.66708 16.5431 6.66708C16.5431 6.66708 16.2361 7.0312 16.0846 7.09266C15.7859 7.18745 15.478 7.23271 15.1693 7.22718C14.8853 7.20747 14.6618 7.17268 14.445 7.03816C14.2272 6.90364 13.9931 6.77493 13.9816 6.70767C13.9701 6.64041 13.9758 6.55344 13.9758 6.55344L13.7139 6.66708H13.7149Z" fill="#005120" stroke="black" stroke-width="0.506284"/>
<path fill-rule="evenodd" clip-rule="evenodd" d="M13.3704 6.2299C13.3589 6.2357 13.3033 6.26353 13.3138 6.27628C13.3253 6.2902 13.3474 6.33079 13.4146 6.32267C13.4817 6.31687 13.5537 6.26933 13.5537 6.26933C13.5537 6.26933 13.4702 6.22294 13.3704 6.2299Z" fill="#005120" stroke="black" stroke-width="0.506284"/>
<path fill-rule="evenodd" clip-rule="evenodd" d="M13.3642 6.24265V6.31686C13.3642 6.31686 13.442 6.34353 13.442 6.32382C13.442 6.30411 13.4477 6.25656 13.4304 6.25656C13.4132 6.25656 13.369 6.2496 13.3633 6.24265H13.3642Z" fill="black" stroke="black" stroke-width="0.506284"/>
<path fill-rule="evenodd" clip-rule="evenodd" d="M14.1442 6.29947C14.1634 6.25656 14.1442 6.19858 14.2584 6.13248C14.3726 6.06522 14.5721 6.08378 14.5721 6.08378C14.5721 6.08378 14.5146 6.13712 14.5126 6.19162C14.5107 6.24612 14.5165 6.27048 14.5165 6.27048C14.5165 6.27048 14.4081 6.22757 14.3246 6.25308C14.2411 6.27859 14.1462 6.30642 14.1433 6.29947H14.1442ZM14.6565 6.06522C14.645 6.07218 14.5577 6.1893 14.5673 6.22525C14.5769 6.26004 14.694 6.34701 14.7314 6.33889C14.7698 6.33194 14.9405 6.23221 14.9501 6.18234C14.9597 6.13248 14.9683 6.06522 14.954 6.05131C14.9405 6.03623 14.6585 6.06986 14.6565 6.06522ZM15.0336 6.04667C15.0115 6.07218 15.0192 6.19858 15.0269 6.21249C15.0355 6.22757 15.1708 6.39224 15.2005 6.40151C15.2303 6.41079 15.4499 6.38412 15.4672 6.35513C15.4845 6.32614 15.5382 6.20554 15.5219 6.17771C15.5066 6.14872 15.4595 6.11045 15.3128 6.07334C15.166 6.03623 15.0806 6.03855 15.0336 6.04667ZM15.591 6.20554C15.6265 6.22757 15.8337 6.34933 15.9555 6.44674C16.0783 6.54415 16.1282 6.65547 16.1628 6.66591C16.1983 6.67519 16.3422 6.57082 16.3479 6.54183C16.3546 6.51284 16.1724 6.36093 16.0505 6.29135C15.9287 6.22177 15.591 6.21365 15.591 6.20554ZM15.5478 6.30874C15.5296 6.3273 15.7685 6.83057 15.8136 6.84681C15.8596 6.8642 16.1311 6.7494 16.1273 6.71113C16.1234 6.67287 16.0524 6.59633 15.8845 6.48501C15.7176 6.37252 15.5814 6.29947 15.5478 6.30874ZM15.2523 6.49196C15.2139 6.51864 15.1554 6.96857 15.1928 6.9906C15.2303 7.01148 15.6917 6.93494 15.7099 6.88624C15.7272 6.83405 15.52 6.4363 15.4586 6.4363C15.3972 6.4363 15.2859 6.45486 15.2514 6.4908L15.2523 6.49196ZM14.7745 6.39688C14.7256 6.45138 14.7362 6.87116 14.7573 6.89667C14.7784 6.92334 15.0528 7.00916 15.0825 6.97785C15.1113 6.9477 15.1516 6.47573 15.1238 6.43978C15.0959 6.40383 15.0192 6.31802 14.9607 6.31106C14.9012 6.30411 14.8024 6.38064 14.7745 6.39688ZM14.1558 6.38992C14.1107 6.43282 14.1078 6.54415 14.1577 6.56386C14.2066 6.58242 14.3294 6.64735 14.4436 6.70649C14.5587 6.76564 14.623 6.83753 14.6565 6.83521C14.6901 6.83289 14.7218 6.41311 14.6853 6.38992C14.6094 6.35751 14.5287 6.3441 14.4484 6.35049C14.3503 6.35167 14.2527 6.36449 14.1567 6.38876L14.1558 6.38992Z" fill="#001707" stroke="#000007" stroke-width="0.506284"/>
<path fill-rule="evenodd" clip-rule="evenodd" d="M12.1263 11.725C12.2076 11.6469 12.3326 11.4531 12.5013 11.4438C12.6732 11.4375 12.8545 11.5938 12.8545 11.5938C12.8545 11.5938 13.0326 12.3281 13.0232 12.3281C13.017 12.3281 12.7263 12.5375 12.7201 12.5375C12.7107 12.5375 12.5951 12.25 12.4857 12.2781C12.3763 12.3031 12.3857 12.6969 12.367 12.6719C12.3513 12.6438 11.892 12.1031 11.9107 12.0844C11.9263 12.0656 12.1357 11.75 12.1263 11.725ZM16.8732 11.6313C16.9263 11.6188 17.1701 11.4375 17.342 11.4438C17.5107 11.4531 17.6107 11.5313 17.6982 11.6125C17.792 11.6906 17.8982 11.8938 17.8982 11.8938C17.8982 11.8938 17.6795 12.4875 17.6638 12.4875C17.6482 12.4875 17.5545 12.5375 17.5388 12.4938C17.5232 12.45 17.467 12.3125 17.3576 12.2938C17.2513 12.275 17.2232 12.4875 17.2232 12.4875L16.8732 11.625V11.6313Z" fill="#D40F0F"/>
<path fill-rule="evenodd" clip-rule="evenodd" d="M16.9856 11.8125C16.9856 11.8656 17.32 12.6875 17.8575 12.8438C18.3981 13.0031 18.5669 12.6969 18.6294 12.5938C18.6919 12.4875 18.9169 12.4969 18.9169 12.4969C18.9169 12.4969 18.8637 13.2656 18.7731 13.3625C18.6856 13.4563 18.6137 13.6688 18.1106 13.675C17.6075 13.6844 17.1481 13.2063 16.995 13.0656C16.8203 12.8619 16.6751 12.6347 16.5637 12.3906C16.4825 12.225 16.995 11.8281 16.9856 11.8125ZM11.1231 13.45C11.1325 13.45 11.3669 13.7031 11.7106 13.6781C12.0512 13.65 12.6356 13.45 12.9044 13.1C13.073 12.8774 13.2097 12.6323 13.3106 12.3719C13.3106 12.3719 12.9137 11.6719 12.9044 11.6719C12.895 11.6719 12.8606 11.9 12.7887 12.0469C12.7169 12.1969 12.5169 12.6187 12.1856 12.75C11.8544 12.8813 11.8544 12.9344 11.7169 12.9156C11.5447 12.8605 11.3815 12.7805 11.2325 12.6781L11.0606 13.0938C11.0606 13.0938 11.0262 13.3656 11.1231 13.4531V13.45Z" fill="#FDDC59"/>
<path fill-rule="evenodd" clip-rule="evenodd" d="M12.1187 11.7C12.0937 11.7 11.4562 12.0469 11.4812 12.1969C11.5093 12.3438 12.5749 14.4469 14.8624 14.475C17.1531 14.5 18.5499 12.5688 18.4499 12.2469C18.3468 11.925 17.6374 11.5531 17.6374 11.5531C17.6374 11.5531 17.8124 11.7 17.7874 11.8969C17.7624 12.0969 16.9749 13.8031 14.9906 13.7563C13.0093 13.7063 12.0687 12.1938 12.0687 12.0219C12.0687 11.85 12.1687 11.75 12.1187 11.7Z" fill="#FDDC59"/>
<path fill-rule="evenodd" clip-rule="evenodd" d="M18.3202 13.2312C18.3733 13.1875 18.7045 12.2781 18.8952 12.3031C19.0827 12.3281 19.0202 12.6 19.0014 12.6719C18.9858 12.7406 18.7952 13.3719 18.7952 13.3719C18.7952 13.3719 18.8045 13.2219 18.6795 13.1844C18.5545 13.1469 18.3452 13.2469 18.3202 13.2312ZM11.1264 13.4594C11.1264 13.4094 10.9764 13.2344 11.1545 13.1875C11.3327 13.1375 11.5608 13.2344 11.5608 13.2344C11.5608 13.2344 11.4358 12.8656 11.2795 12.5656C11.1264 12.2687 11.0764 12.3187 10.9483 12.3687C10.8233 12.4187 10.8233 12.55 10.9014 12.7469C10.9795 12.9469 11.1264 13.5094 11.1264 13.4594Z" fill="#D40F0F"/>
<path fill-rule="evenodd" clip-rule="evenodd" d="M13.2258 11.7625L13.4445 11.0125L12.832 10.5438L13.6008 10.525L13.8508 9.78751L14.1039 10.525L14.8727 10.5375L14.2602 11.0125L14.4852 11.7594L13.8539 11.3125L13.2258 11.7625Z" fill="#FDC400"/>
<path fill-rule="evenodd" clip-rule="evenodd" d="M17.3609 7.86874V10.7437C17.3672 12.15 15.9328 13.3812 14.9828 13.6219C14.0297 13.3844 12.5984 12.1531 12.6016 10.7469V7.87187H17.3609V7.86874Z" fill="white"/>
<path fill-rule="evenodd" clip-rule="evenodd" d="M12.6055 7.86884L12.6093 9.66812C12.6093 9.66812 12.6323 9.63117 12.9451 9.65357C13.2578 9.67596 13.2847 10.051 13.6253 10.051C13.9649 10.051 13.9649 9.65357 14.3045 9.65357C14.6441 9.65357 14.6451 10.051 14.9847 10.051C15.3243 10.051 15.3243 9.65357 15.6649 9.65357C16.0055 9.65357 16.0045 10.051 16.3633 10.0734C16.6847 10.051 16.6847 9.65357 17.0253 9.63117L17.364 9.65357V7.86884H12.6055Z" fill="#D40F0F" stroke="black" stroke-width="0.497482"/>
<path fill-rule="evenodd" clip-rule="evenodd" d="M12.6016 10.25V10.8438H12.9453C13.2578 10.8687 13.2828 11.2437 13.6234 11.2437C13.9641 11.2437 13.9609 10.8438 14.3016 10.8438C14.6422 10.8438 14.6453 11.2437 14.9828 11.2437C15.3203 11.2437 15.3234 10.8438 15.6609 10.8438C15.9984 10.8438 15.9828 11.2187 16.3422 11.2437C16.6641 11.2187 16.6797 10.8687 17.0234 10.8438H17.3609V10.25H17.0234C16.6797 10.25 16.6797 10.6469 16.3422 10.6469C16.0047 10.6469 16.0016 10.25 15.6609 10.25C15.3203 10.25 15.3234 10.6469 14.9828 10.6469C14.6422 10.6469 14.6422 10.25 14.3016 10.25C13.9609 10.25 13.9641 10.6469 13.6234 10.6469C13.2828 10.6469 13.2797 10.25 12.9422 10.25H12.6016ZM12.7047 11.4375L12.9422 12.0344C13.2547 12.0594 13.2828 12.4312 13.6234 12.4312C13.9609 12.4312 13.9609 12.0344 14.3016 12.0344C14.6422 12.0344 14.6453 12.4312 14.9828 12.4312C15.3203 12.4312 15.3234 12.0344 15.6609 12.0344C15.9984 12.0344 15.9828 12.4094 16.3422 12.4312C16.6641 12.4094 16.6734 12.0563 17.0141 12.0344L17.2578 11.4312L17.0234 11.4406C16.6797 11.4406 16.6797 11.8375 16.3422 11.8375C16.0047 11.8375 16.0016 11.4375 15.6609 11.4375C15.3203 11.4375 15.3234 11.8344 14.9828 11.8344C14.6422 11.8344 14.6422 11.4375 14.3016 11.4375C13.9609 11.4375 13.9641 11.8344 13.6234 11.8344C13.2828 11.8344 13.2797 11.4375 12.9422 11.4375H12.7047ZM14.9828 13.625C15.3234 13.625 16.1016 13.0281 16.0922 13.0281C16.1016 13.0281 16.0016 12.6313 15.6609 12.6313C15.3203 12.6313 15.3234 13.0281 14.9828 13.0281C14.6422 13.0281 14.6422 12.6313 14.3016 12.6313C13.9609 12.6313 13.8766 13.0281 13.8734 13.0281C13.8578 13.0281 14.6422 13.6219 14.9828 13.6219V13.625Z" fill="#0062BB"/>
<path fill-rule="evenodd" clip-rule="evenodd" d="M13.228 9.24421C13.2702 9.24421 13.6172 9.29316 13.8657 9.27684C14.1189 9.26053 14.2127 9.17486 14.2127 9.15854V9.10959H14.5409C14.5409 9.10959 14.5972 9.34211 14.5597 9.35843C14.5222 9.37475 14.4237 9.4441 14.4049 9.4441C14.3862 9.4441 14.4049 9.3258 14.3674 9.36251C14.3299 9.39922 14.3112 9.4441 14.3112 9.4441C14.3112 9.4441 14.2689 9.39514 14.2502 9.39514C14.2314 9.39514 14.1939 9.4441 14.1939 9.4441C14.1939 9.4441 14.1939 9.39514 14.1752 9.39514C14.1564 9.39514 14.0579 9.47673 14.0579 9.47673L13.9642 9.41146C13.9642 9.41146 13.9032 9.49305 13.8844 9.49305C13.8657 9.49305 13.7485 9.42778 13.7485 9.42778L13.5609 9.52976C13.5609 9.52976 13.5609 9.37883 13.5187 9.39514C13.4812 9.41146 13.2702 9.41146 13.2702 9.41146C13.2702 9.41146 13.2092 9.50529 13.1905 9.50529C13.1717 9.50529 13.0967 9.4237 13.1154 9.4237C13.1342 9.4237 13.1717 9.37475 13.153 9.35435C13.1342 9.33803 13.0357 9.35435 13.0357 9.33803C13.0357 9.32172 12.9982 9.22381 13.017 9.22381L13.1108 9.24013V9.13814H13.2092L13.228 9.24013V9.24421Z" fill="#FDC400" stroke="black" stroke-width="0.979688"/>
<path fill-rule="evenodd" clip-rule="evenodd" d="M13.5764 8.28558C13.553 8.28558 13.4217 8.4202 13.4358 8.57113C13.4592 8.72207 13.7874 8.93828 13.7874 8.93828C13.7874 8.93828 13.9609 8.87301 14.0172 8.93828C14.0735 9.00355 14.0735 9.20752 14.0547 9.20752C14.036 9.20752 13.8062 9.26055 13.8062 9.22791C13.8062 9.1912 13.8062 9.15856 13.7874 9.15856L13.553 9.17488L13.5718 9.10961L13.3842 9.07698L13.4592 9.00763C13.4592 9.00763 13.1497 8.88933 13.1685 8.88933C13.1872 8.88933 13.3045 8.82406 13.3045 8.82406L13.07 8.68944H13.2107C13.2107 8.68944 13.0138 8.55482 13.0325 8.55482L13.1497 8.57113L13.0935 8.43652H13.1497L13.0935 8.33861L13.1872 8.3019L13.2482 8.38756L13.2248 8.18359L13.3654 8.20399V8.36717C13.3654 8.36717 13.4217 8.26926 13.4217 8.25294C13.4217 8.23663 13.5952 8.32229 13.5718 8.28558H13.5764Z" fill="#FDC400" stroke="black" stroke-width="0.979688"/>
<path fill-rule="evenodd" clip-rule="evenodd" d="M16.5625 9.32501C16.5375 9.34688 16.4657 9.39376 16.4657 9.39376L16.6219 9.38126C16.5976 9.36672 16.5764 9.34762 16.5594 9.32501H16.5625ZM16.7 9.40626C16.6907 9.41876 16.6625 9.55001 16.6813 9.54063C16.7163 9.50784 16.7487 9.47231 16.7782 9.43438L16.7 9.40626ZM16.9219 9.42188C16.9469 9.44376 17.0563 9.54063 17.0438 9.51876C17.0282 9.49688 17.0125 9.40938 17.0032 9.40626C16.9938 9.40313 16.9313 9.43126 16.9219 9.42188ZM14.9813 9.28438C14.9657 9.28751 14.8469 9.36876 14.8469 9.36876L15.0375 9.33751C15.0282 9.33751 14.975 9.29688 14.9813 9.28438ZM15.1063 9.38438C15.0875 9.40313 15.025 9.51876 15.0469 9.51563C15.0931 9.49262 15.137 9.46542 15.1782 9.43438L15.1063 9.38438ZM15.0282 9.22188L14.9188 9.17501L15.0532 9.14376L15.0282 9.22188ZM13.1219 9.16876L12.975 9.06563L13.1594 9.11563L13.1219 9.16876ZM12.9969 9.23438C12.975 9.23438 12.7938 9.33438 12.7969 9.33438C12.8 9.33438 13.0532 9.34063 13.0469 9.33438C13.0438 9.33126 13.0063 9.24063 12.9938 9.23438H12.9969ZM13.1125 9.38126C13.0579 9.41268 13.0056 9.4482 12.9563 9.48751H13.175L13.1125 9.38126ZM13.0907 8.33751C13.0907 8.33751 13.0375 8.21876 13.0438 8.21876L13.1782 8.31251L13.0907 8.33751ZM13.2375 8.19063L13.25 8.11563C13.25 8.11563 13.3813 8.20313 13.375 8.20313C13.3719 8.20313 13.2469 8.20313 13.2375 8.19063ZM13.4375 8.24376L13.4532 8.13438C13.4532 8.13438 13.575 8.27813 13.5625 8.28126C13.5532 8.28751 13.4469 8.26251 13.4375 8.24376Z" fill="black"/>
<path fill-rule="evenodd" clip-rule="evenodd" d="M15.3759 8.98027C15.3759 8.98842 15.5776 9.1312 15.5822 9.16384C15.5822 9.19647 15.2165 9.20463 15.2165 9.20463C15.2165 9.20463 15.1086 9.13528 15.0758 9.13936C15.043 9.13936 15.0289 9.21279 15.0289 9.21279L15.1133 9.25358L14.9492 9.26174L14.9961 9.34333L15.1227 9.33517L15.0946 9.4086C15.0946 9.4086 15.1696 9.46163 15.1884 9.44939C15.2024 9.44531 15.2493 9.36781 15.2868 9.35557C15.3243 9.34333 15.4087 9.34333 15.4087 9.34333C15.4087 9.34333 15.3431 9.43716 15.3759 9.43716C15.4041 9.43716 15.5354 9.33925 15.5354 9.33925L15.5682 9.429L15.662 9.32701C15.662 9.32701 15.662 9.4086 15.676 9.4086C15.6901 9.4086 15.8261 9.30662 15.8261 9.30662C15.8261 9.30662 15.9339 9.42084 15.948 9.41268C15.9621 9.40452 15.9761 9.2903 15.9949 9.2903C16.0136 9.2903 16.098 9.27806 16.098 9.2699C16.098 9.26174 16.0371 9.22911 16.0277 9.16792C16.0183 9.10673 16.0371 8.97211 16.0324 8.97211C16.0277 8.97211 15.3853 8.9925 15.3759 8.98027Z" fill="#FDC400" stroke="black" stroke-width="0.979688"/>
<path fill-rule="evenodd" clip-rule="evenodd" d="M14.348 8.72329H16.2376C16.4252 8.72329 16.6034 8.65802 16.6034 8.55603C16.6034 8.45405 16.2939 8.43773 16.1814 8.47445C16.0641 8.50708 15.5624 8.70697 15.3514 8.69065C15.1404 8.67433 14.9435 8.55603 14.9247 8.43773C14.9059 8.31943 15.0185 8.22152 15.2342 8.22152C15.4499 8.22152 15.7172 8.28679 15.7734 8.27048C15.8297 8.25416 15.9657 8.11954 16.0219 8.10322C16.0829 8.0869 16.2564 8.07059 16.2564 8.07059L16.1767 8.11954L16.4299 8.07059C16.4299 8.07059 16.2376 8.25416 16.0407 8.30311C15.8531 8.35614 15.4452 8.33575 15.2905 8.33575C15.1357 8.33575 15.056 8.31943 15.0794 8.42141C15.0982 8.5234 15.2154 8.58867 15.3139 8.57235C15.4077 8.55603 15.6937 8.47037 15.6937 8.47037L15.6187 8.42141L15.9657 8.4051C15.9657 8.4051 15.9469 8.35614 15.9657 8.35614L16.1579 8.37246C16.1579 8.37246 16.0407 8.31943 16.0641 8.31943C16.0876 8.31943 16.1579 8.31943 16.3127 8.33575C16.4674 8.35206 16.7956 8.4051 16.7769 8.53972C16.7534 8.67433 16.6362 8.78856 16.5049 8.78856C16.3736 8.78856 16.2564 8.75592 16.2564 8.80895C16.2564 8.85791 16.4111 8.89054 16.5049 8.89054C16.5987 8.89054 16.7159 8.82527 16.7394 8.82527C16.7628 8.82527 16.7956 8.92318 16.8144 8.92318C16.8332 8.92318 16.9504 8.89054 16.9504 8.89054L16.8707 9.07411L17.0066 9.10675C17.0066 9.10675 16.9316 9.1761 16.9504 9.1761C16.9691 9.1761 17.0817 9.1761 17.0817 9.19242C17.0817 9.20873 16.9316 9.31072 16.9316 9.32703C16.9316 9.34335 17.0442 9.3923 17.0442 9.3923C17.0442 9.3923 16.9691 9.49429 16.9504 9.47797L16.8566 9.37599C16.8566 9.37599 16.8332 9.44534 16.7956 9.44534C16.7581 9.44534 16.6784 9.42902 16.6784 9.42902C16.6784 9.42902 16.7347 9.32703 16.7159 9.32703C16.6972 9.32703 16.6034 9.3923 16.6034 9.37599L16.5424 9.32703C16.5424 9.32703 16.6972 9.274 16.6972 9.19242C16.6972 9.11083 16.6362 9.03332 16.3549 9.02108C16.0735 9.00884 16.0735 9.07819 15.8625 9.07003C15.6562 9.06188 15.6562 8.98845 15.5015 8.98845C15.3467 8.98845 14.8731 9.15978 14.6481 9.15162C14.4277 9.15162 14.151 9.13938 14.1604 9.13122C14.1698 9.12307 14.3433 8.73553 14.348 8.72329Z" fill="#FDC400" stroke="black" stroke-width="0.979688"/>
<path fill-rule="evenodd" clip-rule="evenodd" d="M13.9803 8.62824C13.9616 8.6364 13.7928 8.6568 13.7834 8.81181C13.774 8.96683 13.7975 8.96683 13.8162 8.95867C13.835 8.95051 13.8725 8.81589 13.8725 8.81589C13.8725 8.81589 13.8162 8.99946 13.8772 9.04026C13.9166 9.06705 13.961 9.08775 14.0085 9.10145L14.0319 8.95459C14.0319 8.95459 13.985 9.09737 14.1022 9.14632C14.2148 9.19527 14.2617 9.15856 14.2476 9.12184C14.2348 9.07668 14.2207 9.03179 14.2054 8.98722L14.2992 9.08513C14.3086 9.09329 14.3461 9.15856 14.468 9.12592C14.5805 9.10145 14.5008 9.0321 14.5008 9.0321L14.3601 8.93419C14.3601 8.93419 14.5008 9.06065 14.5665 9.01578C14.6321 8.97091 14.5196 8.86892 14.5196 8.873C14.5196 8.87708 14.6133 9.01578 14.6509 8.93011C14.6884 8.84445 14.5946 8.81589 14.5665 8.73022C14.5383 8.64864 14.5149 8.64048 14.543 8.58745C14.5711 8.53849 14.5758 8.44059 14.5758 8.44059C14.5758 8.44059 14.6978 8.46914 14.6884 8.3794C14.679 8.28965 14.5571 8.26925 14.5336 8.26518C14.5102 8.26518 14.5149 8.17543 14.5055 8.17951C14.4961 8.17951 14.4164 8.23254 14.4164 8.23254C14.4164 8.23254 14.3508 8.09384 14.3367 8.102C14.3226 8.11016 14.2429 8.18359 14.1866 8.18359C14.1304 8.19175 14.0929 8.26518 14.0929 8.26518C14.0929 8.26518 13.8912 8.17951 13.8959 8.31821C13.9006 8.45691 14.0178 8.42019 14.0178 8.42427C14.0178 8.42835 13.9991 8.62008 13.9803 8.62824Z" fill="#FDC400" stroke="black" stroke-width="0.979688"/>
<path fill-rule="evenodd" clip-rule="evenodd" d="M14.0898 8.41561C14.1117 8.40624 14.1461 8.37811 14.1836 8.38123C14.2211 8.38436 14.2898 8.41249 14.2586 8.43124C14.2273 8.44686 14.2023 8.45624 14.1648 8.44686C14.1336 8.43749 14.1023 8.42186 14.0898 8.41561ZM14.4836 8.40936C14.4586 8.40311 14.4242 8.37499 14.3836 8.37811C14.343 8.38124 14.2836 8.40936 14.3148 8.42811C14.3411 8.44386 14.3722 8.44942 14.4023 8.44373C14.4398 8.43436 14.4648 8.41561 14.4836 8.41248V8.40936Z" fill="black"/>
<path fill-rule="evenodd" clip-rule="evenodd" d="M14.1758 8.65991C14.1758 8.68031 14.1945 8.85572 14.2039 8.84348L14.2836 8.66399L14.1758 8.65991Z" fill="#000039" stroke="black" stroke-width="0.559822"/>
<path d="M14.1292 8.66618C14.1292 8.61315 14.1667 8.61723 14.2418 8.62539C14.3215 8.63355 14.359 8.66618 14.3543 8.67842C14.3496 8.68658 14.284 8.70697 14.2324 8.70289C14.1714 8.68658 14.1245 8.70289 14.1292 8.6621V8.66618Z" stroke="black" stroke-width="1.11964"/>
<path d="M14.241 8.53562L14.2316 8.61721M14.5646 8.3235C14.5646 8.3235 14.6302 8.35205 14.6208 8.37653C14.6114 8.40101 14.5646 8.41324 14.5646 8.41324M14.0394 8.3031C14.0253 8.30718 14.0066 8.31534 13.9925 8.35205C13.9878 8.38469 14.0394 8.40508 14.0394 8.40508" stroke="black" stroke-width="2.09933"/>
<path d="M14.1967 8.47702C14.1967 8.47702 14.1264 8.53821 14.2436 8.53821C14.3608 8.53821 14.2764 8.48518 14.2764 8.48518" stroke="black" stroke-width="2.09933"/>
<path fill-rule="evenodd" clip-rule="evenodd" d="M14.4492 13.1188L14.6492 12.4594L14.0898 12.0469L14.7898 12.0313L15.0148 11.3813L15.2461 12.0281L15.943 12.0406L15.3898 12.4563L15.5898 13.1125L15.018 12.725L14.4492 13.1188Z" fill="#FDC400"/>
<path fill-rule="evenodd" clip-rule="evenodd" d="M14.543 12.9406L14.7086 12.4187L14.2461 12.0906L14.8273 12.0781L15.0148 11.5625L15.2086 12.075L15.7867 12.0875L15.3273 12.4156L15.4961 12.9375L15.018 12.6281L14.543 12.9406Z" fill="#003017"/>
<path fill-rule="evenodd" clip-rule="evenodd" d="M13.3023 11.7844L13.4992 11.1625L12.9492 10.7719L13.6367 10.7563L13.8617 10.1406L14.0898 10.7563L14.7773 10.7656L14.2305 11.1594L14.4336 11.7844L13.8648 11.4125L13.3023 11.7844Z" fill="#FDC400"/>
<path fill-rule="evenodd" clip-rule="evenodd" d="M13.3953 11.6187L13.5609 11.1219L13.1016 10.8125L13.6766 10.8L13.8641 10.3125L14.0516 10.8L14.6266 10.8094L14.1703 11.1219L14.3391 11.6156L13.8641 11.3219L13.3953 11.6187Z" fill="#003017"/>
<path fill-rule="evenodd" clip-rule="evenodd" d="M15.6141 11.7844L15.8141 11.1594L15.2578 10.7719L15.9547 10.7563L16.1828 10.1406L16.4141 10.7563L17.1109 10.7656L16.5547 11.1594L16.7578 11.7844L16.1859 11.4094L15.6141 11.7844Z" fill="#FDC400"/>
<path fill-rule="evenodd" clip-rule="evenodd" d="M15.7063 11.6187L15.875 11.1219L15.4062 10.8125L15.9875 10.8L16.175 10.3125L16.3719 10.8L16.9531 10.8094L16.4906 11.1219L16.6594 11.6156L16.1812 11.3219L15.7063 11.6187Z" fill="#003017"/>
<path d="M11.6602 12.3094L12.0039 12.1156L12.0352 12.1844L11.9008 12.2625L11.9477 12.3594L12.082 12.2844L12.1133 12.3531L11.7695 12.5469L11.7383 12.4781L11.8945 12.3906L11.8477 12.2906L11.6914 12.3813L11.6602 12.3094ZM11.8039 12.6094L12.1258 12.375L12.2352 12.5594L12.182 12.5969L12.1133 12.4813L12.0383 12.5375L12.1008 12.6438L12.0539 12.6813L11.9883 12.575L11.8977 12.6375L11.9695 12.7594L11.9164 12.8L11.8039 12.6125M12.0289 12.9563L12.3102 12.6688L12.3602 12.725L12.2508 12.8406L12.3164 12.9188L12.4258 12.8063L12.4758 12.8656L12.1945 13.1563L12.1445 13.0969L12.2695 12.9656L12.207 12.8844L12.0789 13.0156L12.0289 12.9594M12.3977 13.1313L12.4445 13.175L12.5289 13.0188L12.3977 13.1313ZM12.2195 13.1844L12.5383 12.925L12.6102 12.9969L12.4227 13.3844L12.3633 13.325L12.4133 13.2313L12.3508 13.1688L12.2727 13.2375L12.2195 13.1844ZM12.5008 13.4438L12.6883 13.1563L12.6227 13.1L12.6602 13.0438L12.8508 13.2L12.8133 13.2563L12.7477 13.2031L12.557 13.4906L12.4977 13.4438M12.6539 13.5688L12.857 13.2031L12.9164 13.2438L12.8383 13.3875L12.9227 13.4438L13.0008 13.3L13.0633 13.3438L12.8602 13.7094L12.7977 13.6688L12.8914 13.5L12.807 13.4438L12.7133 13.6094L12.6539 13.5688ZM13.032 13.8094L13.1945 13.4188L13.3789 13.5125L13.3508 13.575L13.232 13.5156L13.1945 13.6094L13.307 13.6656L13.2789 13.7281L13.1695 13.6688L13.0977 13.8406L13.0352 13.8094M13.3914 13.7469C13.3747 13.7889 13.3642 13.8331 13.3602 13.8781C13.3602 13.8969 13.3695 13.9094 13.3883 13.9188C13.407 13.9281 13.4195 13.925 13.4352 13.9094C13.4477 13.8969 13.4664 13.8563 13.4883 13.7906C13.5102 13.725 13.5195 13.6813 13.5195 13.6594C13.5193 13.6502 13.5161 13.6413 13.5105 13.634C13.5049 13.6267 13.4971 13.6214 13.4883 13.6188C13.4727 13.6094 13.457 13.6125 13.4445 13.6281C13.432 13.6406 13.4133 13.6813 13.3914 13.75M13.3227 13.7188C13.339 13.6649 13.3644 13.6142 13.3977 13.5688C13.4126 13.5561 13.4312 13.5484 13.4508 13.5469C13.4664 13.5469 13.4883 13.5469 13.5133 13.5594C13.5383 13.5719 13.5508 13.5813 13.5633 13.5938C13.5758 13.6094 13.5852 13.625 13.5883 13.65C13.5914 13.6656 13.5883 13.6875 13.5852 13.7125C13.5772 13.7486 13.5668 13.7841 13.5539 13.8188L13.5164 13.9188C13.5039 13.9406 13.4914 13.9594 13.4789 13.9688C13.4633 13.9813 13.4477 13.9906 13.4289 13.9906C13.4102 13.9938 13.3914 13.9906 13.3664 13.9781C13.3414 13.9656 13.3258 13.9563 13.3133 13.9438C13.3 13.9276 13.2914 13.9082 13.2883 13.8875L13.2914 13.825L13.3227 13.7188ZM13.6539 13.6281L13.7227 13.6531L13.6477 13.9281C13.6401 13.9502 13.638 13.9738 13.6414 13.9969C13.6445 14.0094 13.657 14.0188 13.6727 14.0281C13.6914 14.0313 13.7039 14.0281 13.7164 14.0219C13.7258 14.0125 13.7352 13.9906 13.7445 13.9594L13.8164 13.6844L13.8852 13.7063L13.8102 13.9875C13.8051 14.0091 13.7978 14.03 13.7883 14.05C13.7829 14.0607 13.7755 14.0703 13.7664 14.0781C13.752 14.0893 13.7346 14.0958 13.7164 14.0969C13.6951 14.0982 13.6738 14.095 13.6539 14.0875C13.6133 14.075 13.5883 14.0563 13.5758 14.0281C13.5633 14.0031 13.5633 13.9656 13.5758 13.9125L13.6539 13.6313M13.8383 14.1344L13.9227 13.7156L13.9945 13.7344L14.0352 14.05L14.0914 13.7594L14.1539 13.775L14.0727 14.1938L14.0008 14.175L13.9602 13.8563L13.9039 14.15L13.8383 14.1344ZM14.2133 14.1563L14.2445 14.1625H14.282C14.2881 14.161 14.2935 14.1577 14.2977 14.1531C14.307 14.1438 14.3133 14.1281 14.3195 14.1094C14.3352 14.0502 14.3436 13.9893 14.3445 13.9281C14.344 13.9127 14.3397 13.8977 14.332 13.8844C14.3297 13.8779 14.3253 13.8725 14.3195 13.8688L14.2883 13.8625L14.257 13.8563L14.2164 14.1563M14.1383 14.2063L14.1977 13.7813L14.3102 13.8031C14.3352 13.8063 14.3508 13.8125 14.3664 13.8188C14.3789 13.825 14.3883 13.8344 14.3977 13.8469C14.407 13.8625 14.4133 13.8844 14.4164 13.9063C14.4164 13.9281 14.4164 13.9625 14.4102 14.0094C14.4056 14.0515 14.3983 14.0932 14.3883 14.1344C14.3816 14.1569 14.371 14.178 14.357 14.1969C14.3477 14.2125 14.3352 14.2219 14.3164 14.2281C14.3008 14.2313 14.2727 14.2281 14.2352 14.2219L14.1383 14.2063ZM14.4352 14.2563L14.4727 13.8281L14.6695 13.85L14.6633 13.9219L14.5383 13.9063L14.5289 14.0063L14.6477 14.0188L14.6414 14.0844L14.5227 14.0719L14.5133 14.1906L14.6414 14.2031L14.6352 14.275L14.4352 14.2563ZM14.7602 14.2219H14.8289C14.8358 14.2187 14.8414 14.2132 14.8445 14.2063C14.8508 14.1969 14.857 14.1813 14.8602 14.1625C14.8643 14.1314 14.8664 14.1001 14.8664 14.0688V13.975C14.8635 13.9601 14.8571 13.9462 14.8477 13.9344C14.8435 13.9298 14.8381 13.9265 14.832 13.925L14.8008 13.9188H14.7695L14.7602 14.2219ZM14.6883 14.2813L14.7039 13.8531L14.8195 13.8563C14.8376 13.8568 14.8555 13.86 14.8727 13.8656C14.8883 13.8719 14.8977 13.8781 14.907 13.8906C14.921 13.9067 14.9307 13.926 14.9352 13.9469L14.9414 14.05C14.94 14.0929 14.9359 14.1357 14.9289 14.1781C14.9274 14.2006 14.9198 14.2221 14.907 14.2406C14.8977 14.2594 14.8852 14.2719 14.8695 14.2781C14.8539 14.2844 14.8258 14.2875 14.7883 14.2844L14.6883 14.2813ZM15.1195 14.2875L15.1039 13.8594L15.1758 13.8563L15.1914 14.2844H15.1195M15.3102 14.275L15.2852 13.9188L15.2008 13.925L15.1977 13.8563L15.432 13.8344L15.4383 13.9031L15.357 13.9125L15.382 14.2688L15.3102 14.275ZM15.5633 13.8125L15.6352 13.8L15.6789 14.0813C15.6852 14.1156 15.6914 14.1375 15.7008 14.1469C15.7102 14.1594 15.7227 14.1625 15.7414 14.1563C15.7602 14.1563 15.7727 14.1469 15.7758 14.1313C15.782 14.1188 15.782 14.0969 15.7758 14.0625L15.732 13.7813L15.8008 13.7656L15.8477 14.0594L15.8539 14.1219L15.8445 14.1594C15.836 14.1761 15.823 14.1901 15.807 14.2C15.7899 14.2109 15.7708 14.2183 15.7508 14.2219C15.707 14.2313 15.6758 14.225 15.6539 14.2094C15.632 14.1906 15.6164 14.1563 15.6102 14.1031L15.5633 13.8125ZM15.9477 13.9219L15.9789 13.9125C15.9977 13.9063 16.0102 13.9 16.0195 13.8875C16.0258 13.875 16.0258 13.8563 16.0195 13.8344C16.0195 13.8125 16.0102 13.7969 15.9977 13.7906C15.9883 13.7844 15.9727 13.7813 15.9508 13.7906L15.9195 13.7969L15.9477 13.9219ZM15.932 14.1719L15.8383 13.7563L15.9633 13.725C15.9977 13.7156 16.0258 13.7156 16.0477 13.7313C16.0664 13.7438 16.082 13.7719 16.0914 13.8125C16.1008 13.8563 16.0977 13.8875 16.0852 13.9125C16.0727 13.9375 16.0477 13.9563 16.0133 13.9656L15.9602 13.9781L16.0008 14.1563L15.932 14.175M16.207 13.8719C16.2166 13.9156 16.2324 13.9577 16.2539 13.9969C16.2664 14.0094 16.282 14.0125 16.3008 14.0063C16.3195 14 16.332 13.9875 16.332 13.9688C16.332 13.95 16.3258 13.9063 16.3039 13.8375C16.282 13.7688 16.2727 13.7281 16.257 13.7125C16.2477 13.6969 16.232 13.6938 16.2133 13.7C16.1945 13.7063 16.182 13.7219 16.182 13.7406C16.1789 13.7594 16.1883 13.8031 16.207 13.8719ZM16.1352 13.8969C16.1227 13.8531 16.1164 13.8188 16.1133 13.7906C16.1095 13.77 16.1095 13.7488 16.1133 13.7281C16.1195 13.7031 16.1258 13.6875 16.1383 13.6719C16.1547 13.6577 16.1738 13.647 16.1945 13.6406C16.2143 13.6323 16.2357 13.6291 16.257 13.6313C16.2727 13.6344 16.2883 13.6438 16.307 13.6594C16.3195 13.6688 16.3289 13.6875 16.3383 13.7094C16.3676 13.775 16.3876 13.8445 16.3977 13.9156C16.4015 13.9373 16.4015 13.9596 16.3977 13.9813C16.394 14.0008 16.3854 14.0191 16.3727 14.0344C16.3573 14.0507 16.3379 14.0625 16.3164 14.0688C16.2914 14.0781 16.2727 14.0813 16.2539 14.0781C16.2358 14.0736 16.2195 14.0638 16.207 14.05C16.1924 14.0357 16.1807 14.0188 16.1727 14C16.1602 13.975 16.1477 13.9375 16.1352 13.8969ZM16.4883 13.9938L16.3445 13.5969L16.4133 13.5656L16.607 13.8031L16.507 13.525L16.5695 13.4969L16.7133 13.8938L16.6445 13.925L16.4508 13.6875L16.5508 13.9688L16.4883 13.9938ZM16.9352 13.775L16.7852 13.4594L16.7133 13.5L16.682 13.4375L16.8914 13.3156L16.9227 13.3781L16.8508 13.4219L17.0008 13.7375L16.9383 13.775M17.107 13.675L16.9008 13.3125L16.9633 13.2688L17.0414 13.4125L17.1258 13.35L17.0445 13.2094L17.107 13.1688L17.3102 13.5313L17.2477 13.5719L17.1539 13.4094L17.0727 13.4656L17.1664 13.6313L17.1039 13.675M17.3633 13.4875L17.132 13.1438L17.2883 13.0125L17.3289 13.0719L17.2258 13.1563L17.2789 13.2344L17.3727 13.1563L17.4102 13.2094L17.3164 13.2875L17.3789 13.3813L17.4852 13.2969L17.5227 13.3531L17.3664 13.4875M17.5633 13.125L17.6133 13.0688L17.632 13.0875C17.6477 13.1063 17.6633 13.1188 17.6695 13.1188C17.682 13.1188 17.6914 13.1188 17.7008 13.1063C17.7133 13.0938 17.7195 13.0813 17.7195 13.0688C17.7186 13.0549 17.7131 13.0417 17.7039 13.0313C17.6961 13.0237 17.6864 13.0183 17.6758 13.0156C17.6603 13.0128 17.6444 13.0128 17.6289 13.0156L17.5852 13.025C17.5588 13.0326 17.5311 13.0348 17.5039 13.0313C17.4857 13.0254 17.4695 13.0146 17.457 13C17.446 12.9889 17.4373 12.9757 17.4314 12.9612C17.4255 12.9468 17.4225 12.9313 17.4227 12.9156C17.4242 12.8838 17.4376 12.8537 17.4602 12.8313C17.4852 12.8 17.5133 12.7906 17.5383 12.7906C17.5633 12.7906 17.5914 12.8063 17.6195 12.8344C17.6229 12.8383 17.6261 12.8425 17.6289 12.8469L17.5789 12.9L17.5727 12.8906C17.5619 12.8778 17.5478 12.8681 17.532 12.8625C17.5227 12.8625 17.5102 12.8656 17.5008 12.8781C17.4914 12.8875 17.4883 12.8969 17.4883 12.9094C17.4883 12.9188 17.4914 12.9281 17.5008 12.9406C17.5102 12.95 17.532 12.9531 17.5695 12.9469L17.6164 12.9375C17.6418 12.9302 17.6686 12.9292 17.6945 12.9344C17.7133 12.9375 17.732 12.9531 17.7508 12.9719C17.7732 12.9955 17.7855 13.0269 17.7852 13.0594C17.7831 13.0935 17.7686 13.1257 17.7445 13.15C17.7164 13.1813 17.6883 13.1938 17.6633 13.1938C17.632 13.1938 17.607 13.175 17.5789 13.1438L17.5633 13.125ZM17.8602 13.0031L17.5633 12.7281L17.6914 12.5594L17.7414 12.6063L17.6602 12.7125L17.7289 12.775L17.8039 12.675L17.8508 12.7188L17.7758 12.8188L17.857 12.8969L17.9383 12.7844L17.9883 12.8313L17.8633 13.0031M17.9352 12.6188L17.9695 12.5625L17.8195 12.4906L17.9352 12.6188ZM18.007 12.8094L17.7352 12.4906L17.7883 12.4031L18.157 12.5594L18.1133 12.6313L18.0227 12.5906L17.9758 12.6656L18.0477 12.7438L18.007 12.8094ZM18.0508 12.4625L18.0852 12.3906L18.107 12.4031C18.1289 12.4156 18.1445 12.4219 18.1539 12.4188C18.1633 12.4188 18.1727 12.4094 18.1789 12.3969C18.1852 12.3813 18.1883 12.3656 18.1852 12.3563C18.1852 12.3438 18.1727 12.3344 18.1602 12.325C18.1508 12.3193 18.1397 12.3171 18.1289 12.3188C18.1195 12.3188 18.1039 12.3281 18.0852 12.3375L18.0445 12.3625C18.0219 12.3778 17.9964 12.3884 17.9695 12.3938C17.9507 12.394 17.9321 12.3886 17.9164 12.3781C17.9031 12.3716 17.8912 12.3624 17.8815 12.3511C17.8719 12.3398 17.8646 12.3267 17.8602 12.3125C17.8528 12.2808 17.8573 12.2475 17.8727 12.2188C17.8883 12.1844 17.9102 12.1625 17.9352 12.1563C17.9633 12.1438 17.9914 12.15 18.0227 12.1688C18.027 12.1706 18.0311 12.1727 18.0352 12.175L18.0039 12.2438L17.9945 12.2375C17.9758 12.2281 17.9633 12.2219 17.9508 12.225C17.9414 12.225 17.932 12.2344 17.9227 12.25C17.9195 12.2625 17.9164 12.2719 17.9227 12.2813C17.9227 12.2938 17.9289 12.3 17.9414 12.3063C17.9539 12.3156 17.9789 12.3094 18.0102 12.2906L18.0508 12.2656C18.082 12.2469 18.107 12.2344 18.1258 12.2344C18.1445 12.2344 18.1664 12.2406 18.1883 12.2531C18.2195 12.2688 18.2383 12.2938 18.2477 12.3219C18.2539 12.3531 18.2477 12.3844 18.232 12.4219C18.2164 12.4625 18.1945 12.4844 18.1695 12.4938C18.1383 12.5031 18.107 12.4938 18.0727 12.475C18.0663 12.471 18.06 12.4669 18.0539 12.4625" fill="black"/>
</g>
<defs>
<clipPath id="clip0_201_5349">
<rect width="20" height="15" fill="white" transform="translate(0 0.5)"/>
</clipPath>
</defs>
</svg>
