<svg width="28" height="28" viewBox="0 0 28 28" fill="none" xmlns="http://www.w3.org/2000/svg">
<path d="M7.05758 12.1604H8.09341L11.5696 6.43345L11.8224 0.787366C11.8435 0.330824 12.2297 -0.0201668 12.6862 0.000900857C18.989 0.281835 17.5072 6.36322 16.5277 10.7385L25.7693 11.0898C27.6584 11.0547 29.3262 14.8504 26.4576 16.1461C26.7841 16.462 27.086 16.8554 27.3003 17.3399C27.8727 18.6215 26.8369 19.3414 25.7132 19.7379C26.1029 20.1276 26.4331 20.6368 26.5734 21.2863C26.8683 22.6768 25.5095 23.344 24.2033 23.6599C24.6106 24.0638 24.9863 24.5554 25.204 25.1312C26.1906 27.7576 22.367 27.5857 22.3565 27.5857C18.2096 27.3995 14.0561 27.2555 9.90587 27.0907C9.57571 27.0767 9.30188 26.8729 9.18261 26.5886L8.67708 25.4791L7.1039 25.5351C6.65103 25.5491 6.26821 25.191 6.25423 24.7381C6.12442 20.9038 6.2437 16.8409 6.2366 12.9822C6.2366 12.5257 6.60521 12.1605 7.0583 12.1605L7.05758 12.1604Z" fill="#97CA01"/>
<path d="M0.825152 12.287H4.6068C5.06335 12.287 5.43196 12.6593 5.43196 13.1122V24.5521C5.43196 25.0086 5.06334 25.3772 4.6068 25.3772H0.825152C0.368609 25.3772 0 25.0086 0 24.5521V13.1122C0 12.6593 0.368616 12.287 0.825152 12.287Z" fill="#97CA01"/>
</svg>
