<svg width="30" height="30" viewBox="0 0 30 30" fill="none" xmlns="http://www.w3.org/2000/svg">
<path d="M15 30C23.2843 30 30 23.2843 30 15C30 6.71573 23.2843 0 15 0C6.71573 0 0 6.71573 0 15C0 23.2843 6.71573 30 15 30Z" fill="#FF9100"/>
<path d="M23.2423 7H6.75797C6.48738 7 6.23406 7.06652 6.00488 7.17617L14.9611 16.1324L16.9685 14.2032C16.9685 14.2032 16.9686 14.203 16.9687 14.2029C16.9687 14.2029 16.9689 14.2028 16.9689 14.2028L23.9957 7.17633C23.7665 7.0666 23.513 7 23.2423 7Z" fill="white"/>
<path d="M24.8245 8.005L18.2119 14.6173L24.8243 21.2297C24.9339 21.0005 25.0005 20.7472 25.0005 20.4766V8.75782C25.0005 8.48739 24.9341 8.23411 24.8245 8.005Z" fill="white"/>
<path d="M5.17617 8.0047C5.06652 8.23388 5 8.4872 5 8.75779V20.4765C5 20.747 5.06645 21.0003 5.17602 21.2294L11.7886 14.6172L5.17617 8.0047Z" fill="white"/>
<path d="M17.3833 15.4458L15.3757 17.3752C15.2612 17.4897 15.1113 17.5469 14.9614 17.5469C14.8115 17.5469 14.6616 17.4897 14.5472 17.3752L12.6176 15.4457L6.00488 22.058C6.2341 22.1678 6.48758 22.2344 6.75824 22.2344H23.2426C23.5132 22.2344 23.7665 22.1678 23.9957 22.0582L17.3833 15.4458Z" fill="white"/>
</svg>
