<svg width="71" height="50" viewBox="0 0 71 50" fill="none" xmlns="http://www.w3.org/2000/svg">
<path d="M42.7897 11.8965H28.2064V38.1031H42.7897V11.8965Z" fill="#FF5F00"/>
<path d="M29.1325 24.9999C29.1301 22.476 29.7021 19.9847 30.8049 17.7145C31.9078 15.4443 33.5127 13.4548 35.4981 11.8966C33.0395 9.96401 30.0867 8.76218 26.9772 8.42844C23.8678 8.0947 20.7272 8.64252 17.9144 10.0093C15.1016 11.3761 12.7301 13.5067 11.071 16.1576C9.41183 18.8084 8.53198 21.8726 8.53198 24.9999C8.53198 28.1272 9.41183 31.1914 11.071 33.8422C12.7301 36.4931 15.1016 38.6237 17.9144 39.9905C20.7272 41.3573 23.8678 41.9051 26.9772 41.5713C30.0867 41.2376 33.0395 40.0358 35.4981 38.1032C33.5127 36.545 31.9078 34.5554 30.805 32.2853C29.7021 30.0151 29.1302 27.5238 29.1325 24.9999Z" fill="#EB001B"/>
<path d="M62.4635 24.9999C62.4636 28.1271 61.5839 31.1913 59.9248 33.8422C58.2657 36.493 55.8943 38.6236 53.0816 39.9904C50.2688 41.3572 47.1283 41.9051 44.0189 41.5713C40.9095 41.2376 37.9568 40.0358 35.4982 38.1032C37.4818 36.5434 39.0855 34.5536 40.1882 32.2837C41.2909 30.0139 41.8638 27.5234 41.8638 24.9999C41.8638 22.4764 41.2909 19.9858 40.1882 17.716C39.0855 15.4462 37.4818 13.4564 35.4982 11.8966C37.9568 9.96401 40.9095 8.76217 44.0189 8.42844C47.1283 8.0947 50.2688 8.64254 53.0816 10.0093C55.8943 11.3761 58.2657 13.5067 59.9248 16.1576C61.5839 18.8085 62.4636 21.8727 62.4635 24.9999Z" fill="#F79E1B"/>
<path d="M60.8733 35.3276V34.791H61.0897V34.6817H60.5387V34.791H60.7551V35.3276H60.8733ZM61.943 35.3276V34.6807H61.7741L61.5799 35.1256L61.3856 34.6807H61.2166V35.3276H61.3358V34.8396L61.518 35.2603H61.6417L61.8238 34.8385V35.3276H61.943Z" fill="#F79E1B"/>
</svg>
