<svg width="60" height="57" viewBox="0 0 60 57" fill="none" xmlns="http://www.w3.org/2000/svg">
<path d="M52.9598 0.8078C50.2421 0.8078 47.9348 8.38827 47.0695 18.9655C51.1058 20.3141 54.0012 23.9154 54.0012 28.1563C54.0012 32.3972 51.1047 35.9978 47.0684 37.3478C47.9342 47.9228 50.2416 55.5055 52.9598 55.5055C56.4178 55.5055 59.2209 43.2611 59.2209 28.1563C59.2209 13.0529 56.4173 0.8078 52.9598 0.8078Z" fill="#FF9100"/>
<path fill-rule="evenodd" clip-rule="evenodd" d="M50.3624 1.75836C51.0104 0.830911 51.8675 0.0784912 52.9598 0.0784912C53.6559 0.0784912 54.2606 0.389965 54.7597 0.836059C55.2553 1.27916 55.6959 1.89613 56.0918 2.62753C56.8847 4.09258 57.5763 6.16502 58.1488 8.66549C59.2964 13.6784 60 20.5691 60 28.1563C60 35.7441 59.2965 42.6351 58.149 47.648C57.5765 50.1484 56.885 52.2208 56.092 53.6859C55.6961 54.4172 55.2555 55.0342 54.7598 55.4773C54.2607 55.9234 53.6559 56.2348 52.9598 56.2348C51.8674 56.2348 51.0101 55.4822 50.3621 54.5546C49.6905 53.5933 49.0943 52.2384 48.5726 50.6006C47.526 47.3145 46.7265 42.7186 46.2914 37.4035C46.2645 37.0757 46.4753 36.7716 46.8061 36.661C50.5441 35.4109 53.222 32.0775 53.222 28.1563C53.222 24.2348 50.545 20.9011 46.8074 19.6523C46.4765 19.5418 46.2656 19.2377 46.2924 18.9098C46.7274 13.5936 47.5266 8.99769 48.5732 5.71184C49.0948 4.07415 49.6909 2.71945 50.3624 1.75836ZM52.9598 1.53712C52.6931 1.53712 52.2427 1.73225 51.6667 2.55668C51.1142 3.34746 50.5698 4.54896 50.0667 6.12854C49.0982 9.16911 48.3311 13.4538 47.8919 18.482C51.9325 20.0662 54.7804 23.7951 54.7804 28.1563C54.7804 32.5177 51.9312 36.2459 47.8909 37.8311C48.3302 42.8583 49.0976 47.1431 50.0661 50.1839C50.5693 51.7636 51.1138 52.9653 51.6664 53.7563C52.2425 54.5809 52.693 54.7762 52.9598 54.7762C53.1281 54.7762 53.3674 54.7049 53.6835 54.4224C54.0029 54.1369 54.3486 53.6792 54.7018 53.0267C55.407 51.7239 56.0645 49.7911 56.6251 47.3424C57.7435 42.4569 58.4416 35.6732 58.4416 28.1563C58.4416 20.6401 57.7434 13.8566 56.6249 8.9711C56.0643 6.52237 55.4067 4.58956 54.7015 3.28667C54.3484 2.63409 54.0027 2.17641 53.6833 1.89086C53.3672 1.6083 53.128 1.53712 52.9598 1.53712Z" fill="#FF9100"/>
<path d="M40.4376 28.157C40.4376 20.0026 41.0703 11.008 43.264 4.43689L0.779297 20.3425V35.9709L43.2632 51.875C41.0689 45.3038 40.4379 36.3115 40.4379 28.1563L40.4376 28.157Z" fill="#FF9100"/>
<path fill-rule="evenodd" clip-rule="evenodd" d="M43.7931 3.90151C44.0138 4.09268 44.0974 4.38568 44.0077 4.65436C41.853 11.1084 41.2178 19.9998 41.2167 28.1355C41.2169 28.1424 41.217 28.1493 41.217 28.1563C41.217 36.2987 41.8498 45.1976 44.0069 51.6574C44.0966 51.9261 44.0131 52.2191 43.7923 52.4103C43.5716 52.6014 43.253 52.6567 42.9737 52.5521L0.489841 36.648C0.193995 36.5372 0 36.2691 0 35.9708V20.3424C0 20.0442 0.193987 19.776 0.489823 19.6653L42.9745 3.7597C43.2537 3.65516 43.5723 3.71035 43.7931 3.90151ZM39.6586 28.1779C39.6584 28.1709 39.6583 28.164 39.6583 28.157C39.6583 20.566 40.2033 12.1798 42.0714 5.66879L1.55844 20.8362V35.4771L42.0706 50.643C40.204 44.1383 39.6596 35.7637 39.6586 28.1779Z" fill="#FF9100"/>
<path d="M9.28613 39.1536L15.8363 55.5062H20.3097L16.6816 41.9228L9.28613 39.1536Z" fill="#FF9100"/>
<path fill-rule="evenodd" clip-rule="evenodd" d="M8.74213 38.6323C8.96274 38.4303 9.28995 38.3692 9.5765 38.4765L16.9719 41.2457C17.2042 41.3326 17.3778 41.5187 17.4384 41.7459L21.0666 55.3293C21.1248 55.5472 21.0725 55.778 20.9248 55.955C20.7771 56.1321 20.5506 56.2355 20.3106 56.2355H15.8373C15.5124 56.2355 15.2217 56.0469 15.1076 55.7622L8.55743 39.4096C8.44908 39.1391 8.52152 38.8343 8.74213 38.6323ZM10.6362 40.4443L16.3773 54.7769H19.3126L16.0232 42.4614L10.6362 40.4443Z" fill="#FF9100"/>
</svg>
