<svg width="36" height="35" viewBox="0 0 36 35" fill="none" xmlns="http://www.w3.org/2000/svg">
<path d="M19.9498 0.0649414V18.1169C19.9498 18.961 19.3005 19.5454 18.5213 19.5454H16.3784C16.2485 19.5454 16.1836 19.6753 16.1836 19.7402V34.8701C16.7031 34.8701 17.2226 34.9999 17.807 34.9999C27.4823 34.9999 35.3394 27.1428 35.3394 17.4675C35.3394 8.57142 28.6511 1.1039 19.9498 0.0649414ZM19.5602 27.0779C18.3264 27.0779 17.4174 26.0389 17.4174 24.935C17.4174 23.7013 18.4563 22.7922 19.5602 22.7922C20.794 22.7922 21.7031 23.8311 21.7031 24.935C21.8329 26.1039 20.794 27.0779 19.5602 27.0779ZM24.6901 27.0779C23.4563 27.0779 22.5472 26.0389 22.5472 24.935C22.5472 23.7013 23.5862 22.7922 24.6901 22.7922C25.9238 22.7922 26.8329 23.8311 26.8329 24.935C26.8329 26.0389 25.9888 27.0779 24.6901 27.0779ZM29.8849 27.0779C28.6511 27.0779 27.742 26.0389 27.742 24.935C27.742 23.7013 28.781 22.7922 29.8849 22.7922C31.1186 22.7922 32.0277 23.8311 32.0277 24.935C32.0277 26.0389 31.1186 27.0779 29.8849 27.0779Z" fill="#00B956"/>
<path d="M17.807 0C8.13167 0 0.274536 7.85713 0.274536 17.5324C0.274536 26.0389 6.18362 32.987 14.1057 34.6103V18.8311C14.1057 18.1168 14.755 17.5324 15.4044 17.4026H17.5472C17.6771 17.4026 17.742 17.2727 17.742 17.2078L17.807 0ZM14.4304 14.4156C13.1966 14.4156 12.2875 13.3766 12.2875 12.2727C12.2875 11.0389 13.3265 10.1299 14.4304 10.1299C15.6641 10.1299 16.5732 11.1688 16.5732 12.2727C16.5732 13.3766 15.5992 14.4156 14.4304 14.4156Z" fill="#00B956"/>
</svg>
