<svg width="28" height="30" viewBox="0 0 28 30" fill="none" xmlns="http://www.w3.org/2000/svg">
<path d="M19.6199 8.07446H8.07931C8.07931 8.07446 0 14.9976 0 23.0769C0 27.6913 3.47436 30 5.77029 30H21.9284C24.2339 30 27.6987 27.6911 27.6987 23.0769C27.6987 14.9976 19.6193 8.07446 19.6193 8.07446H19.6199ZM15.0024 24.113V25.9607H12.6968L12.6966 24.1192C10.9973 23.8032 9.92986 22.7548 9.85412 21.2324H11.8534C11.9513 22.0315 12.7567 22.5463 13.9222 22.5463C14.996 22.5463 15.7572 22.0253 15.7572 21.2831C15.7572 20.6515 15.2646 20.2912 14.0518 20.0198L12.7662 19.7451C10.9658 19.3692 10.0815 18.4312 10.0815 16.9246C10.0815 15.4181 11.0859 14.3315 12.684 13.9746V12.1141H14.9896V13.9775C16.5499 14.325 17.5891 15.3893 17.6395 16.82L15.7098 16.8202C15.612 16.0401 14.8854 15.519 13.8874 15.519C12.8894 15.519 12.1692 15.9991 12.1692 16.7508C12.1692 17.3604 12.6398 17.6984 13.7989 17.9573L14.9896 18.21C16.9762 18.6268 17.8321 19.4732 17.8321 21.0179C17.8323 22.6695 16.7711 23.7751 15.0024 24.113L15.0024 24.113Z" fill="white"/>
<rect x="8.32227" y="10.4291" width="11.2236" height="17.202" fill="white"/>
<path d="M19.6201 1.14802H16.4302C15.7712 0.417248 14.8336 0 13.8497 0C12.8658 0 11.9281 0.417271 11.2691 1.14802H8.0792C7.69762 1.14957 7.3416 1.33947 7.12745 1.65518C6.9133 1.9709 6.8688 2.37209 7.00848 2.72724L8.07918 5.76247H19.6198L20.6905 2.72724C20.8301 2.37209 20.7856 1.97091 20.5715 1.65518C20.3574 1.33946 20.0013 1.14957 19.6197 1.14802H19.6201Z" fill="white"/>
</svg>
