<svg width="20" height="16" viewBox="0 0 20 16" fill="none" xmlns="http://www.w3.org/2000/svg">
<g clip-path="url(#clip0_201_5604)">
<path d="M0 0.5H20V15.5H0V0.5Z" fill="#012169"/>
<path d="M12.0289 3.96875H18.4508L18.4414 8.54062C18.4945 10.375 17.3508 11.5156 15.2445 12.0312C13.7477 11.6562 12.0258 10.8906 12.0195 8.59375L12.0289 3.96875Z" fill="white"/>
<path d="M12.1703 4.10626H18.3078L18.3016 8.48751C18.3516 10.2469 17.2578 11.3375 15.2453 11.8313C13.8141 11.475 12.1672 10.7375 12.1641 8.53751L12.1703 4.10626Z" fill="#00A2BD" stroke="black" stroke-width="1.8"/>
<path d="M18.2578 9.00626C18.0328 10.6844 16.7391 11.4188 15.2422 11.8094C13.9141 11.4531 12.4859 10.8844 12.2109 9.01251L18.2578 9.00626Z" fill="#A53D08"/>
<path d="M15.0016 4.92189L14.9922 4.37189L15.4297 4.37501L15.4328 4.92189H16.6266L16.6297 5.35001L15.4328 5.35626L15.4234 10.4L14.9984 10.4031L14.9922 5.35001L13.8047 5.35626V4.91876L15.0016 4.92189Z" fill="black"/>
<path fill-rule="evenodd" clip-rule="evenodd" d="M14.0303 9.21251L15.124 10.3469C15.5021 9.93126 15.2396 8.37814 14.7428 8.09376C14.6834 8.27814 14.5834 8.50001 14.474 8.56876C14.2396 8.73126 13.6584 8.91876 13.8521 9.03751C13.8959 8.97814 14.0115 8.92189 14.0678 9.05626C14.1303 9.27189 13.824 9.28439 13.824 9.28439C13.824 9.28439 13.6303 9.25939 13.5959 9.06564C13.5646 8.86564 13.8865 8.68439 13.9146 8.67189C13.9396 8.66251 14.3615 8.54689 14.4334 8.17501C14.524 7.80626 14.6146 7.86251 14.6303 7.85626C15.1834 7.90939 15.5428 8.89689 15.5646 9.59064C15.5834 10.2844 15.2834 10.7469 15.2271 10.7781C15.174 10.8063 13.9146 9.28126 13.9146 9.28126L14.0334 9.21251H14.0303Z" fill="#FF9A08" stroke="black" stroke-width="0.8"/>
<path d="M14.832 8.15625L14.8383 10.2031L14.832 8.15625Z" fill="#FF9A08"/>
<path d="M14.832 8.15625L14.8383 10.2031" stroke="black" stroke-width="0.8"/>
<path d="M14.707 8.19687L14.7164 10.0531L14.707 8.19687Z" fill="#FF9A08"/>
<path d="M14.707 8.19687L14.7164 10.0531" stroke="black" stroke-width="0.8"/>
<path d="M14.5742 8.46564L14.5805 9.94064L14.5742 8.46564Z" fill="#FF9A08"/>
<path d="M14.5742 8.46564L14.5805 9.94064" stroke="black" stroke-width="0.8"/>
<path d="M14.4648 8.56876L14.4711 9.79063L14.4648 8.56876Z" fill="#FF9A08"/>
<path d="M14.4648 8.56876L14.4711 9.79063" stroke="black" stroke-width="0.8"/>
<path d="M14.3516 8.625V9.65625V8.625Z" fill="#FF9A08"/>
<path d="M14.3516 8.625V9.65625" stroke="black" stroke-width="0.8"/>
<path d="M14.2266 8.70624V9.52186V8.70624Z" fill="#FF9A08"/>
<path d="M14.2266 8.70624V9.52186" stroke="black" stroke-width="0.8"/>
<path d="M14.1172 8.77188V9.39688V8.77188Z" fill="#FF9A08"/>
<path d="M14.1172 8.77188V9.39688" stroke="black" stroke-width="0.8"/>
<path d="M14.0156 9.34125L15.1431 10.6312" stroke="#FFDF00" stroke-width="0.8" stroke-linecap="round"/>
<path d="M15.1953 8.52875C15.1953 8.52875 15.7053 9.64625 15.2328 10.5637" stroke="#FFDF00" stroke-width="1.44" stroke-linecap="round"/>
<path d="M13.8828 9.10626C13.8828 9.10626 13.9203 9.00876 13.9678 9.04876" stroke="#FFDF00" stroke-width="1.44" stroke-linecap="round"/>
<path d="M13.7942 8.82126C13.7942 8.82126 13.5892 9.00126 13.7017 9.11876" stroke="#FFDF00" stroke-width="1.44" stroke-linecap="round"/>
<path d="M15.4386 5.98125C15.5105 5.91875 15.5511 5.87813 15.598 5.8875C15.6449 5.89375 15.7074 5.8875 15.7542 5.875C15.8772 5.84644 16.0046 5.84219 16.1292 5.8625C16.1605 5.86875 16.2074 5.88438 16.273 5.94063C16.3386 5.99688 16.4355 6.09688 16.4043 6.36563C16.373 6.63438 16.3824 6.75 16.3667 6.90313C16.3417 7.16875 16.2824 7.3875 16.1792 7.37188C16.3199 7.62188 16.3355 7.84063 16.4292 8.0125C16.523 8.18438 16.5793 8.5375 16.5449 8.91875C16.5074 9.30313 16.4074 10.1594 16.7105 10.7375C16.6605 10.7719 16.5386 10.7375 16.4292 10.6219C16.3199 10.5063 16.273 10.5094 16.1855 10.5781C15.9105 10.7875 15.6542 11.0406 15.2761 10.7875C15.1886 10.7313 15.1636 10.6625 15.2261 10.4844C15.3824 10.0469 15.4605 9.44063 15.4355 9.15938V5.98125H15.4386Z" fill="#008021" stroke="black" stroke-width="0.3"/>
<path d="M15.6927 5.71126C15.7178 5.78003 15.7169 5.85561 15.6902 5.92376C15.6577 5.99876 15.6502 6.08376 15.7052 6.18876C15.7902 6.06376 15.9127 6.08876 15.9852 6.01876C16.0577 5.94626 16.0727 5.87876 16.1252 5.86376C16.0727 5.81626 15.9902 5.76376 16.0077 5.62876C16.0252 5.49126 16.2152 5.37876 16.0427 5.17126C16.0169 5.13852 15.9834 5.11273 15.9452 5.09622C15.907 5.07972 15.8652 5.07302 15.8237 5.07675C15.7823 5.08047 15.7424 5.0945 15.7077 5.11755C15.673 5.14061 15.6446 5.17196 15.6252 5.20876C15.6152 5.23376 15.6302 5.28376 15.6027 5.31626C15.5852 5.34126 15.5627 5.36126 15.5377 5.37876C15.5227 5.39126 15.5127 5.40626 15.5302 5.42876C15.5377 5.43626 15.5502 5.43626 15.5627 5.44126L15.5377 5.48626C15.5277 5.49626 15.5327 5.50626 15.5427 5.51626C15.5277 5.55876 15.5552 5.56626 15.5377 5.59626C15.5202 5.62376 15.5002 5.65876 15.5577 5.69126C15.5752 5.69876 15.6527 5.71626 15.6927 5.71126Z" fill="#FFE1CF" stroke="black" stroke-width="0.32"/>
<path d="M14.9915 6.43126C14.8915 6.45626 14.729 6.41126 14.6065 6.42626C14.5515 6.43126 14.509 6.40376 14.5165 6.35126C14.524 6.29626 14.5315 6.21376 14.519 6.13626C14.5209 5.97544 14.5621 5.81753 14.639 5.67626C14.7015 5.5632 14.7422 5.43938 14.759 5.31126C14.759 5.25376 14.764 5.19126 14.814 5.15876C14.8515 5.13376 14.859 5.11126 14.8715 5.09126C14.9015 5.04626 14.9315 5.03626 14.934 5.06376C14.9365 5.07876 14.9315 5.09376 14.9165 5.11376C14.949 5.08876 15.004 5.05626 15.0165 5.04876C15.029 5.03876 15.0915 4.99376 15.0965 5.03626C15.1215 5.02376 15.139 5.02376 15.1465 5.03626C15.1515 5.05376 15.1465 5.05876 15.1365 5.06876C15.154 5.06626 15.174 5.09626 15.1365 5.12626C15.1565 5.11876 15.1765 5.15126 15.1415 5.17876C15.109 5.20876 15.0665 5.22876 15.0565 5.25376C15.044 5.27876 14.9565 5.34376 14.924 5.35626C14.889 5.37126 14.8865 5.39126 14.8865 5.44126C14.8865 5.99626 14.8215 5.95126 14.8215 6.08626C14.8215 6.12126 14.814 6.15376 14.849 6.14376C14.8865 6.13126 14.939 6.11626 14.9915 6.11626V6.42876V6.43126Z" fill="#FFE1CF" stroke="black" stroke-width="0.32"/>
<path d="M15.0127 7.62627C15.1752 7.54377 15.3627 7.51377 15.4602 7.48877C15.5725 7.45205 15.6813 7.40519 15.7852 7.34877C15.8627 7.30877 15.9252 7.25377 15.9677 7.24127C15.9933 7.23337 16.0171 7.22047 16.0377 7.2033C16.0583 7.18614 16.0753 7.16505 16.0877 7.14127C16.2107 6.93328 16.2843 6.69975 16.3027 6.45877C16.3027 6.33377 16.2702 6.19127 16.1477 6.29127C16.0202 6.40118 15.9251 6.54381 15.8727 6.70377C15.8227 6.90377 15.7802 6.94877 15.7702 6.98877C15.7577 7.02877 15.7177 7.02877 15.6702 7.03877C15.5123 7.06339 15.3648 7.13281 15.2452 7.23877C15.1029 7.34376 14.9543 7.43978 14.8002 7.52627C14.6852 7.59127 14.6627 7.59627 14.6377 7.65127C14.6127 7.70127 14.5877 7.74127 14.5677 7.76377C14.5452 7.78877 14.5402 7.81377 14.5427 7.84377C14.5477 7.86877 14.5377 7.97627 14.5352 8.01127C14.5352 8.04877 14.5427 8.05627 14.5577 8.05877C14.5702 8.05877 14.5902 8.05377 14.5977 8.00877C14.5902 8.05377 14.6502 8.03877 14.6527 8.00627C14.6527 8.05377 14.7152 8.02627 14.7177 7.98127C14.7177 8.01377 14.7677 7.99127 14.7702 7.97877C14.7827 7.94127 14.7902 7.90377 14.8052 7.87377C14.8252 7.83127 14.8477 7.77627 14.8902 7.74877C14.9377 7.71377 14.9152 7.67377 15.0127 7.62377V7.62627Z" fill="#FFE1CF" stroke="black" stroke-width="0.32"/>
<path d="M16.1802 10.5787C16.1902 10.6187 16.2102 10.6637 16.2177 10.6912C16.2252 10.7162 16.2127 10.7262 16.2052 10.7412C16.1641 10.8285 16.1355 10.921 16.1202 11.0162C16.1177 11.0537 16.0902 11.0912 16.0777 11.1162C16.0627 11.1412 16.0702 11.1612 16.1027 11.1862C16.1152 11.1962 16.1652 11.1812 16.1702 11.1562C16.1902 11.1737 16.2202 11.1687 16.2352 11.1412C16.2527 11.1562 16.2802 11.1462 16.2977 11.1187C16.3127 11.1287 16.3377 11.1087 16.3477 11.0937C16.3727 11.1062 16.3977 11.0912 16.3977 11.0437C16.3977 11.0312 16.4052 11.0137 16.4127 11.0037C16.4202 10.9912 16.4227 10.9687 16.4227 10.9487C16.4227 10.9287 16.4327 10.8887 16.4502 10.8612C16.4677 10.8337 16.4977 10.7837 16.4852 10.7362C16.4727 10.6937 16.4552 10.6962 16.4377 10.6362C16.3977 10.5937 16.3452 10.5362 16.2877 10.5312C16.2327 10.5287 16.2002 10.5662 16.1802 10.5787Z" fill="#FFE1CF" stroke="black" stroke-width="0.32"/>
<path d="M15.1548 10.8888C15.2048 10.9388 15.3173 10.9388 15.3973 10.8563C15.3698 10.8438 15.3048 10.8138 15.2773 10.7913C15.2373 10.8313 15.1923 10.8763 15.1523 10.8888H15.1548Z" fill="#FFE1CF" stroke="black" stroke-width="0.32"/>
<path d="M15.668 5.15625C15.6867 5.03125 15.7773 5.03125 15.8336 5.04688C15.8586 5.05 15.9148 5.05625 15.9711 5.04063C16.0773 5.0125 16.1586 5.05 16.1461 5.15313C16.1773 5.175 16.2086 5.225 16.1992 5.26875C16.1961 5.3125 16.2055 5.33125 16.243 5.33438C16.2836 5.34063 16.368 5.39063 16.3117 5.45938C16.3648 5.49063 16.4055 5.575 16.3773 5.62813C16.3492 5.68438 16.2648 5.69375 16.2273 5.64375C16.1867 5.6625 16.1242 5.66563 16.0836 5.625C16.0555 5.65625 15.9898 5.65313 15.9742 5.625C15.9617 5.59375 15.943 5.58125 15.9148 5.57188C15.8867 5.5625 15.8836 5.48438 15.9273 5.475C15.9242 5.45 15.9273 5.425 15.9367 5.4125C15.9461 5.4 15.9367 5.375 15.9117 5.35625C15.8867 5.33438 15.8648 5.2625 15.8898 5.21875C15.8461 5.23438 15.7523 5.19063 15.7336 5.1625C15.7117 5.13125 15.6836 5.13125 15.668 5.15625Z" fill="#870F00" stroke="black" stroke-width="0.3"/>
<path d="M15.6953 5.71125C15.7653 5.70375 15.7878 5.66125 15.8403 5.66125" stroke="black" stroke-width="0.32"/>
<path d="M15.543 5.51627L15.5605 5.52627C15.573 5.53377 15.5905 5.53627 15.603 5.53877" stroke="black" stroke-width="0.32"/>
<path d="M15.5625 5.44125L15.5925 5.45875" stroke="black" stroke-width="0.32"/>
<path d="M15.7271 5.15626C15.6871 5.11626 15.7971 5.03626 15.9146 5.15126C15.9396 5.17376 15.9921 5.17376 16.0096 5.16876" stroke="black" stroke-width="0.32"/>
<path d="M15.8906 5.21875C15.9456 5.20625 16.0256 5.20625 16.0506 5.26875C16.0756 5.32875 16.1206 5.28875 16.1581 5.36125C16.1956 5.43375 16.2556 5.51375 16.3131 5.45875" stroke="black" stroke-width="0.32"/>
<path d="M16.0795 5.62376C16.0706 5.60888 16.0649 5.5923 16.0628 5.57508C16.0606 5.55786 16.0621 5.54039 16.067 5.52376C16.047 5.49876 16.0545 5.44626 16.067 5.42126" stroke="black" stroke-width="0.32"/>
<path d="M15.9258 5.47375C15.9283 5.49625 15.9583 5.53625 16.0008 5.54375" stroke="black" stroke-width="0.32"/>
<path d="M16.2272 5.64376C16.2022 5.61126 16.2047 5.58126 16.2122 5.54376" stroke="black" stroke-width="0.32"/>
<path d="M15.9648 5.28375C15.9648 5.31625 15.9823 5.35875 16.0148 5.37375C16.0248 5.39375 16.0598 5.44375 16.1323 5.43625" stroke="black" stroke-width="0.32"/>
<path d="M16.1455 5.15376C16.0985 5.11339 16.0415 5.0866 15.9805 5.07626" stroke="black" stroke-width="0.32"/>
<path d="M15.7048 6.18875C15.6423 6.27125 15.6048 6.38625 15.6298 6.54875C15.6598 6.71125 15.7073 6.94875 15.5898 7.05625" stroke="black" stroke-width="0.32"/>
<path d="M16.1727 7.37126C16.0902 7.35126 15.9727 7.35126 15.9052 7.39876C15.8427 7.44626 15.7327 7.44876 15.6602 7.41376" stroke="black" stroke-width="0.32"/>
<path d="M15.9989 7.36377C15.9264 7.37627 15.8939 7.42877 15.8939 7.56127C15.8939 7.69377 15.8639 7.88877 15.8889 8.08127" stroke="black" stroke-width="0.32"/>
<path d="M15.8701 7.42126C15.8201 7.43376 15.7726 7.43376 15.7826 7.56126" stroke="black" stroke-width="0.32"/>
<path d="M15.625 7.56375C15.6275 7.48875 15.655 7.41375 15.705 7.42875" stroke="black" stroke-width="0.32"/>
<path d="M16.1436 7.58127C16.1461 7.40627 16.1086 7.35877 16.0586 7.36127C16.1261 7.36127 16.1736 7.37127 16.2036 7.65127C16.2236 7.86127 16.2686 7.93377 16.3186 8.09877C16.4486 8.52377 16.3836 9.17877 16.4486 9.41127" stroke="black" stroke-width="0.32"/>
<path d="M16.0438 7.63126C16.1813 8.02626 16.2537 8.46626 16.0312 9.17126C16.1813 9.59126 16.3313 9.89376 16.3613 10.0663" stroke="black" stroke-width="0.32"/>
<path d="M15.6146 8.56626C15.6396 8.47626 15.5471 8.46626 15.6271 8.14876C15.6621 8.01126 15.6671 7.92876 15.6446 7.88626" stroke="black" stroke-width="0.32"/>
<path d="M15.6457 8.07376C15.6132 8.21376 15.7507 8.47626 15.6832 8.66876" stroke="black" stroke-width="0.32"/>
<path d="M15.5117 8.70377C15.5117 8.82877 15.5392 8.98627 15.5342 9.10877C15.5267 9.23127 15.5767 9.28627 15.6342 9.40377C15.8442 9.82127 15.9842 10.1188 15.9667 10.5138C15.9617 10.5863 15.9867 10.7388 15.9117 10.7813" stroke="black" stroke-width="0.32"/>
<path d="M15.5156 10.8862C15.5381 10.8862 15.5606 10.8762 15.5881 10.8112C15.6562 10.5777 15.6816 10.3338 15.6631 10.0912" stroke="black" stroke-width="0.32"/>
<path d="M15.7105 10.3938C15.7205 10.4763 15.7205 10.6463 15.668 10.7813" stroke="black" stroke-width="0.32"/>
<path d="M15.8477 10.1462C15.8802 10.3212 15.8752 10.4812 15.8502 10.5937" stroke="black" stroke-width="0.32"/>
<path d="M15.7753 10.5938C15.7803 10.6637 15.8128 10.8438 15.7578 10.8588" stroke="black" stroke-width="0.32"/>
<path d="M16.043 9.75626C16.178 9.96626 16.2805 10.4813 16.393 10.5888" stroke="black" stroke-width="0.32"/>
<path d="M16.1586 10.5063C16.1561 10.4488 16.1536 10.3688 16.1211 10.3313" stroke="black" stroke-width="0.32"/>
<path d="M14.7188 7.98125C14.7212 7.94375 14.7137 7.90625 14.7587 7.84375" stroke="black" stroke-width="0.32"/>
<path d="M14.6523 8.00625C14.6598 7.86875 14.6573 7.85625 14.6973 7.81625" stroke="black" stroke-width="0.32"/>
<path d="M14.5988 8.00875C14.5988 7.90875 14.5888 7.87625 14.6288 7.81375" stroke="black" stroke-width="0.32"/>
<path d="M15.0956 5.03625L14.9531 5.14375" stroke="black" stroke-width="0.32"/>
<path d="M15.1355 5.06876C15.118 5.07126 15.068 5.11376 14.9805 5.18126" stroke="black" stroke-width="0.32"/>
<path d="M15.1378 5.12625C15.1078 5.13875 15.0553 5.18875 15.0078 5.22375" stroke="black" stroke-width="0.32"/>
<path d="M14.9172 5.11624L14.8672 5.16624" stroke="black" stroke-width="0.32"/>
<path d="M16.1729 11.1563C16.1654 11.1488 16.1654 11.1163 16.1804 11.0813" stroke="black" stroke-width="0.32"/>
<path d="M16.2397 11.1412C16.2272 11.1312 16.2397 11.0862 16.2472 11.0587" stroke="black" stroke-width="0.32"/>
<path d="M16.2994 11.1187C16.2869 11.1137 16.2844 11.0887 16.2994 11.0537" stroke="black" stroke-width="0.32"/>
<path d="M16.3461 11.0938C16.3386 11.0913 16.3361 11.0763 16.3486 11.0388" stroke="black" stroke-width="0.32"/>
<path d="M15.6395 5.27126C15.6645 5.30376 15.692 5.30126 15.697 5.32126C15.702 5.34626 15.7045 5.34626 15.7095 5.35376C15.7145 5.35876 15.697 5.35876 15.6895 5.35376H15.647C15.6345 5.35376 15.6195 5.33626 15.627 5.33626C15.637 5.33376 15.637 5.33126 15.6345 5.32376C15.6345 5.31626 15.6395 5.30626 15.6445 5.30376L15.642 5.29376C15.637 5.28376 15.632 5.26376 15.6395 5.26876V5.27126Z" fill="black"/>
<path d="M15.6542 5.23876C15.6943 5.24418 15.7318 5.26161 15.7617 5.28876C15.7817 5.31376 15.7642 5.30626 15.7542 5.30626C15.7442 5.30626 15.7217 5.30126 15.7117 5.28626C15.6949 5.26991 15.6743 5.2579 15.6517 5.25126C15.6417 5.24876 15.6317 5.23626 15.6542 5.23876Z" fill="black"/>
<path d="M0 0.5H10V8H0V0.5Z" fill="#012169"/>
<path d="M1.17188 0.5L4.98438 3.32812L8.78125 0.5H10V1.46875L6.25 4.26562L10 7.04688V8H8.75L5 5.20312L1.26562 8H0V7.0625L3.73438 4.28125L0 1.5V0.5H1.17188Z" fill="white"/>
<path d="M6.625 4.89062L10 7.375V8L5.76562 4.89062H6.625ZM3.75 5.20312L3.84375 5.75L0.84375 8H0L3.75 5.20312ZM10 0.5V0.546875L6.10938 3.48438L6.14062 2.79688L9.21875 0.5H10ZM0 0.5L3.73438 3.25H2.79688L0 1.15625V0.5Z" fill="#C8102E"/>
<path d="M3.76562 0.5V8H6.26562V0.5H3.76562ZM0 3V5.5H10V3H0Z" fill="white"/>
<path d="M0 3.51562V5.01562H10V3.51562H0ZM4.26562 0.5V8H5.76562V0.5H4.26562Z" fill="#C8102E"/>
</g>
<defs>
<clipPath id="clip0_201_5604">
<rect width="20" height="15" fill="white" transform="translate(0 0.5)"/>
</clipPath>
</defs>
</svg>
