<svg width="27" height="30" viewBox="0 0 27 30" fill="none" xmlns="http://www.w3.org/2000/svg">
<path d="M14.3683 17.2736H2.33656C2.27333 17.2736 2.21033 17.2104 2.21033 17.1474V5.02092H20.9685V16.7684C21.3791 16.8947 21.7579 17.1158 22.0739 17.4C22.2318 17.3685 22.358 17.3685 22.5159 17.3685C22.7371 17.3685 22.958 17.4 23.1792 17.4317L23.179 1.70517C23.179 0.757735 22.421 0 21.4738 0H1.70517C0.757735 0 0 0.75796 0 1.70517V17.7791C0 18.7265 0.75796 19.4842 1.70517 19.4842H14.3685L14.3683 17.2736ZM7.32609 1.76815C7.73669 1.76815 8.05236 2.08403 8.05236 2.49442C8.05236 2.90502 7.73648 3.22069 7.32609 3.22069C6.91549 3.22069 6.59982 2.9048 6.59982 2.49442C6.59982 2.08404 6.91549 1.76815 7.32609 1.76815ZM5.08385 1.76815C5.49444 1.76815 5.81011 2.08403 5.81011 2.49442C5.81011 2.90502 5.49423 3.22069 5.08385 3.22069C4.67325 3.22069 4.35758 2.9048 4.35758 2.49442C4.35758 2.08404 4.67346 1.76815 5.08385 1.76815ZM2.84183 1.76815C3.25242 1.76815 3.56809 2.08403 3.56809 2.49442C3.56809 2.90502 3.25221 3.22069 2.84183 3.22069C2.43123 3.22069 2.11556 2.9048 2.11556 2.49442C2.11556 2.08404 2.43122 1.76815 2.84183 1.76815Z" fill="white"/>
<path d="M26.3999 21.2526C26.3999 20.4946 25.7999 19.8948 25.0421 19.8948C24.5685 19.8948 24.1265 20.1475 23.8738 20.5263V20.4948C23.8738 19.7369 23.2737 19.137 22.516 19.137C22.0424 19.137 21.6003 19.3897 21.3791 19.7686V19.7371C21.3791 18.9791 20.779 18.3793 20.0213 18.3793C19.5477 18.3793 19.1056 18.6319 18.8529 19.0108L18.8525 14.4631C18.8525 14.0842 18.6946 13.7683 18.4419 13.4842C18.1892 13.2315 17.8418 13.0736 17.4945 13.0736C16.7365 13.0736 16.1367 13.6736 16.1367 14.4314V23.3368C16.1367 23.4 16.1052 23.4947 16.0104 23.5262C15.9472 23.5577 15.8525 23.5262 15.7893 23.4947L14.3997 22.1369C13.9261 21.6633 13.1997 21.6001 12.6628 21.979C12.3469 22.2001 12.126 22.5473 12.0627 22.9264C11.9995 23.3053 12.126 23.7159 12.3786 24L15.8207 28.1369C16.7996 29.3052 18.2207 30 19.7681 30H21.9154C23.1155 30 24.2523 29.5264 25.0733 28.6737C25.926 27.821 26.3997 26.6841 26.3997 25.5157L26.3999 21.2526Z" fill="white"/>
<path d="M14.0209 12.6946L14.9366 8.96834C14.9681 8.84212 14.9366 8.68418 14.8419 8.55775C14.7474 8.4313 14.621 8.36808 14.463 8.36808H8.17874L7.95758 7.4524C7.89436 7.23123 7.70492 7.10501 7.51548 7.10501H6.22067C5.96801 7.10501 5.74707 7.32617 5.74707 7.57861C5.74707 7.83127 5.96823 8.05221 6.22067 8.05221H7.16811L7.38927 8.93643V8.96793L8.33671 12.6942C8.39993 12.9153 8.58937 13.0416 8.77881 13.0416H13.5789C13.7681 13.042 13.9578 12.9156 14.0208 12.6946L14.0209 12.6946Z" fill="white"/>
<path d="M10.2313 14.3999C10.2313 14.8535 9.86365 15.2211 9.41029 15.2211C8.95673 15.2211 8.58911 14.8534 8.58911 14.3999C8.58911 13.9466 8.95676 13.5789 9.41029 13.5789C9.86362 13.5789 10.2313 13.9465 10.2313 14.3999Z" fill="white"/>
<path d="M13.4841 14.3999C13.4841 14.8535 13.1164 15.2211 12.663 15.2211C12.2095 15.2211 11.842 14.8534 11.842 14.3999C11.842 13.9466 12.2095 13.5789 12.663 13.5789C13.1164 13.5789 13.4841 13.9465 13.4841 14.3999Z" fill="white"/>
<path d="M6.59965 9.28402C6.59965 9.03136 6.41021 8.84192 6.15755 8.84192H4.48385C4.23118 8.84192 4.04175 9.03136 4.04175 9.28402C4.04175 9.53668 4.23119 9.72612 4.48385 9.72612H6.15755C6.41021 9.72612 6.59965 9.53668 6.59965 9.28402Z" fill="white"/>
<path d="M4.89449 11.242H6.5682C6.82086 11.242 7.0103 11.0525 7.0103 10.7999C7.0103 10.5472 6.82085 10.3578 6.5682 10.3578H4.89449C4.64183 10.3578 4.45239 10.5472 4.45239 10.7999C4.45239 11.021 4.64183 11.242 4.89449 11.242Z" fill="white"/>
<path d="M5.2734 12.7262H6.9471C7.19977 12.7262 7.3892 12.5367 7.3892 12.2841C7.3892 12.0314 7.19976 11.842 6.9471 11.842H5.2734C5.02074 11.842 4.8313 12.0314 4.8313 12.2841C4.8313 12.5367 5.05224 12.7262 5.2734 12.7262Z" fill="white"/>
</svg>
