<svg width="16" height="23" viewBox="0 0 16 23" fill="none" xmlns="http://www.w3.org/2000/svg">
<path d="M7.6427 1.01894C7.76079 0.953286 7.93541 1.00207 7.97599 1.13839C8.01976 1.25101 7.94407 1.35405 7.88207 1.44113C7.443 2.06348 7.15167 2.78658 7.01397 3.53476C6.93054 3.57032 6.90637 3.65786 6.93236 3.74039C6.9734 3.75543 7.01489 3.76865 7.05683 3.78142C7.90897 3.70665 8.77341 3.72215 9.61232 3.90133C11.1388 4.20863 12.5654 4.98097 13.6619 6.08523C14.7552 7.1781 15.5225 8.59422 15.833 10.1093C16.1773 11.7497 15.9849 13.4959 15.2964 15.0237C13.8365 18.1437 11.3754 20.7826 8.36398 22.4554C8.26687 22.5005 8.1269 22.5024 8.06033 22.4057C7.98191 22.3045 8.01429 22.1604 8.09179 22.0683C8.49803 21.5016 8.78162 20.8501 8.93572 20.1707C8.96535 20.0299 9.00593 19.8871 8.99362 19.7422C8.94393 19.6774 8.86186 19.697 8.7921 19.6993C7.33039 19.8457 5.82628 19.5844 4.50545 18.9388C3.0907 18.2572 1.89023 17.1429 1.09646 15.7883C0.361043 14.5423 -0.0255853 13.0911 0.00131461 11.6435C0.00632984 10.3149 0.368794 8.99726 1.0071 7.83418C2.49297 4.98143 4.82597 2.57412 7.6427 1.01894ZM7.56063 8.64255C6.69118 8.75926 5.88919 9.26991 5.40226 9.99757C5.07262 10.4973 4.87293 11.0909 4.87703 11.6918C4.85241 12.497 5.17339 13.3035 5.72962 13.8835C6.21564 14.4069 6.89087 14.7479 7.59893 14.8391C8.31976 14.9344 9.0725 14.7657 9.68299 14.3695C10.3035 13.9756 10.7763 13.3537 10.9879 12.6493C11.385 11.4265 10.909 9.99392 9.87311 9.23845C9.2225 8.74331 8.36945 8.52355 7.56063 8.64255Z" fill="#F15A23"/>
</svg>
