<svg width="107" height="30" viewBox="0 0 107 30" fill="none" xmlns="http://www.w3.org/2000/svg">
<path fill-rule="evenodd" clip-rule="evenodd" d="M77.1428 13.5532V29.9999H86.2799V20.2537H96.6352C100.994 20.2214 104.696 17.4373 106.092 13.5532H77.1428Z" fill="#37A72E"/>
<path fill-rule="evenodd" clip-rule="evenodd" d="M75.9246 0C76.4568 6.7225 82.8166 12.0305 90.5839 12.0305C90.6093 12.0305 106.471 12.0305 106.471 12.0305C106.589 11.4139 106.65 10.7776 106.65 10.1269C106.65 4.55815 102.157 0.0411966 96.5992 0.000280193L75.9246 0Z" fill="url(#paint0_linear_215_577)"/>
<path fill-rule="evenodd" clip-rule="evenodd" d="M62.4017 11.8705L62.4089 11.8551L62.4098 11.8554C62.5035 11.6873 62.683 11.5736 62.8891 11.5736C63.1867 11.5736 63.429 11.8108 63.4371 12.1065L63.4373 12.1066V29.8477H72.5743V0H63.4373C62.2786 0.0385662 60.9695 0.88882 60.4828 1.93253L53.2115 17.526C53.1935 17.5897 53.1654 17.6492 53.1291 17.7026L53.1267 17.7078L53.1257 17.7075C53.0157 17.8659 52.8325 17.9695 52.6251 17.9695C52.2887 17.9695 52.016 17.6968 52.016 17.3604V0H42.8789V29.8477H52.016V29.8443C53.162 29.7845 54.4403 28.9438 54.9199 27.9152L62.383 11.9107C62.3887 11.897 62.3949 11.8836 62.4017 11.8705Z" fill="#37A72E"/>
<path fill-rule="evenodd" clip-rule="evenodd" d="M28.283 12.3807L22.9428 29.8477H16.3698L11.0263 12.3701C10.9748 12.0902 10.7295 11.8782 10.4347 11.8782C10.1025 11.8782 9.83322 12.1475 9.83322 12.4797C9.83322 12.4822 9.83324 12.4848 9.83327 12.4873L9.83322 29.8477H0.696167V0H8.53881H10.8745C12.5558 0 14.3176 1.30474 14.8089 2.91172L19.2556 17.4564C19.4769 18.1801 19.8358 18.1793 20.0569 17.4564L24.5036 2.91172C24.9953 1.30362 26.7565 0 28.438 0L30.773 0H38.6149V29.8477H29.4779V12.4873C29.4779 12.4848 29.4779 12.4822 29.4779 12.4797C29.4779 12.1475 29.2086 11.8782 28.8764 11.8782C28.5779 11.8782 28.3302 12.0956 28.283 12.3807Z" fill="#37A72E"/>
<defs>
<linearGradient id="paint0_linear_215_577" x1="75.9246" y1="6.01523" x2="106.65" y2="6.01523" gradientUnits="userSpaceOnUse">
<stop stop-color="#00A0E5"/>
<stop offset="1" stop-color="#0077C3"/>
</linearGradient>
</defs>
</svg>
