<svg width="16" height="18" viewBox="0 0 16 18" fill="none" xmlns="http://www.w3.org/2000/svg">
<path d="M8 0.990021C3.58174 0.990021 0 4.57176 0 8.99002C0 12.3792 2.10866 15.2765 5.0846 16.4422C5.01469 15.8092 4.95147 14.8358 5.11233 14.1448C5.25772 13.5204 6.05043 10.1683 6.05043 10.1683C6.05043 10.1683 5.81114 9.68902 5.81114 8.98051C5.81114 7.86811 6.4559 7.03763 7.25871 7.03763C7.94124 7.03763 8.2709 7.55006 8.2709 8.16452C8.2709 8.85093 7.83389 9.87716 7.60837 10.8282C7.4199 11.6244 8.00767 12.2738 8.79304 12.2738C10.2149 12.2738 11.3079 10.7745 11.3079 8.61039C11.3079 6.69492 9.93154 5.35568 7.96623 5.35568C5.68995 5.35568 4.35386 7.06301 4.35386 8.82745C4.35386 9.51504 4.61873 10.2523 4.94924 10.6531C5.01462 10.7324 5.0242 10.8017 5.00472 10.8826C4.944 11.1353 4.80904 11.6787 4.78254 11.7899C4.74766 11.9363 4.6666 11.9674 4.51498 11.8968C3.51584 11.4318 2.89114 9.97094 2.89114 8.79762C2.89114 6.27404 4.7247 3.95644 8.17706 3.95644C10.9523 3.95644 13.1089 5.93402 13.1089 8.57688C13.1089 11.334 11.3705 13.5529 8.95764 13.5529C8.14696 13.5529 7.38488 13.1317 7.12401 12.6343C7.12401 12.6343 6.72287 14.1617 6.62561 14.536C6.44501 15.2309 5.95744 16.1019 5.63132 16.6333C6.37983 16.865 7.17529 16.99 8 16.99C12.4183 16.99 16.0001 13.4083 16.0001 8.99002C16.0001 4.57176 12.4183 0.990021 8 0.990021Z" fill="#E60023"/>
</svg>
