<svg width="18" height="18" viewBox="0 0 18 18" fill="none" xmlns="http://www.w3.org/2000/svg">
<path fill-rule="evenodd" clip-rule="evenodd" d="M5.06648 11.3998H0.45C0.201496 11.3999 0.000154785 11.6013 0 11.8498V15.2558C0 15.9837 0.289166 16.6816 0.803724 17.1963C1.31842 17.7108 2.01631 18 2.74415 18H14.3832C15.3423 18 16.2623 17.6189 16.9405 16.9407C17.6188 16.2624 17.9999 15.3425 17.9999 14.3834V0.449996C17.9999 0.330583 17.9525 0.216154 17.868 0.131808C17.7837 0.0473102 17.6693 0 17.5499 0H5.51644C5.39703 0 5.2826 0.0473141 5.19825 0.131808C5.11376 0.216154 5.06645 0.330579 5.06645 0.449996L5.06648 11.3998ZM10.7514 12.2998H0.900039V15.2558C0.899888 15.745 1.09412 16.214 1.43997 16.56C1.78597 16.9059 2.25499 17.1001 2.74415 17.1H11.9957C11.2136 16.4139 10.7657 15.4236 10.7668 14.3834C10.7668 13.7174 10.7554 13.0284 10.7513 12.2998H10.7514ZM15.0165 8.23319H8.05035C7.8017 8.23319 7.60035 8.43468 7.60035 8.68319C7.60035 8.9317 7.8017 9.13319 8.05035 9.13319H15.0165C15.2651 9.13319 15.4665 8.9317 15.4665 8.68319C15.4665 8.43468 15.2651 8.23319 15.0165 8.23319ZM15.0165 5.69978H8.05035C7.8023 5.70053 7.60171 5.90173 7.60171 6.14978C7.60171 6.39768 7.8023 6.599 8.05035 6.59978H15.0165C15.2645 6.59902 15.4651 6.39768 15.4651 6.14978C15.4651 5.90173 15.2645 5.70055 15.0165 5.69978ZM15.0165 3.16667H11.8499C11.6014 3.16667 11.3999 3.36817 11.3999 3.61667C11.3999 3.86518 11.6014 4.06668 11.8499 4.06668H15.0165C15.2651 4.06668 15.4665 3.86518 15.4665 3.61667C15.4665 3.36817 15.2651 3.16667 15.0165 3.16667Z" fill="#FF9100"/>
</svg>
