<svg width="18" height="18" viewBox="0 0 18 18" fill="none" xmlns="http://www.w3.org/2000/svg">
<path d="M17.9997 4.49995C17.9992 4.40744 17.981 4.31568 17.9457 4.22995C17.947 4.20901 17.947 4.18791 17.9457 4.16697L16.1457 0.567028C16.0785 0.398128 15.9617 0.253486 15.8106 0.152386C15.6596 0.0511366 15.4816 -0.00204943 15.2997 6.04275e-05H2.69998C2.53379 0.000512445 2.37092 0.0470711 2.2296 0.134458C2.08813 0.221846 1.97377 0.346601 1.89889 0.495012L0.0988391 4.09495H0.0989897C0.0977844 4.11605 0.0977844 4.13699 0.0989897 4.15793C0.0378194 4.26189 0.00376456 4.37957 0 4.49995V17.1001C0 17.3387 0.0947698 17.5677 0.263519 17.7365C0.432269 17.9052 0.661267 18 0.899947 18H17.0999C17.3386 18 17.5676 17.9052 17.7363 17.7365C17.9051 17.5677 17.9999 17.3387 17.9999 17.1001L17.9997 4.49995ZM11.6998 9.00007H6.29984C5.97832 9.00007 5.6812 8.82846 5.52043 8.55002C5.35967 8.27158 5.35967 7.92852 5.52043 7.65007C5.6812 7.37162 5.97831 7.20002 6.29984 7.20002H11.6998C12.0214 7.20002 12.3185 7.37163 12.4792 7.65007C12.64 7.92851 12.64 8.27157 12.4792 8.55002C12.3185 8.82846 12.0214 9.00007 11.6998 9.00007ZM2.35785 3.60008L3.2578 1.80003H14.7416L15.6416 3.60008H2.35785Z" fill="#97CA01"/>
</svg>
