<svg width="61" height="57" viewBox="0 0 61 57" fill="none" xmlns="http://www.w3.org/2000/svg">
<path d="M15.5314 32.0065V31.26C16.3963 31.1526 17.143 30.6393 17.5111 29.899C17.8797 29.1588 17.8183 28.2935 17.3493 27.6051C16.8799 26.9164 16.068 26.4995 15.1952 26.4998H14.4556C13.8332 26.488 13.3352 26.0125 13.3352 25.4299C13.3352 24.8474 13.8332 24.3719 14.4556 24.3601H15.565C15.9915 24.3605 16.3374 24.6846 16.3382 25.0838C16.3382 25.4488 16.6542 25.7446 17.0442 25.7446C17.4342 25.7446 17.7503 25.4488 17.7503 25.0838C17.7494 24.5363 17.5145 24.0116 17.0976 23.6273C16.6803 23.243 16.1163 23.031 15.5313 23.0385V22.3147C15.5313 21.9497 15.2153 21.6539 14.8253 21.6539C14.4353 21.6539 14.1193 21.9497 14.1193 22.3147V23.0636C13.259 23.1757 12.5185 23.6894 12.1537 24.4273C11.7889 25.1648 11.8499 26.0254 12.3151 26.7119C12.7807 27.3982 13.5867 27.8164 14.4555 27.8215H15.1955H15.1951C15.8175 27.8333 16.3155 28.3088 16.3155 28.8914C16.3155 29.4739 15.8175 29.9494 15.1951 29.9612H14.0857C13.6591 29.9608 13.3133 29.6367 13.3124 29.2375C13.3124 28.8725 12.9964 28.5767 12.6064 28.5767C12.2164 28.5767 11.9004 28.8725 11.9004 29.2375C11.9012 29.785 12.1366 30.3097 12.5535 30.694C12.9703 31.0784 13.5343 31.2903 14.1193 31.2828V32.0066C14.1193 32.3716 14.4354 32.6674 14.8254 32.6674C15.2154 32.6674 15.5314 32.3716 15.5314 32.0066L15.5314 32.0065Z" fill="#97CA01"/>
<path d="M1.41118 56.2353H28.2405C29.0192 56.233 29.65 55.6426 29.6525 54.9137V50.9489H31.0646C31.8433 50.9466 32.4741 50.3562 32.4766 49.6273V45.6625C32.4741 44.9337 31.8433 44.3433 31.0646 44.341H29.6525V40.3762C29.65 39.6473 29.0192 39.0569 28.2405 39.0546H20.9777C24.8428 37.3038 27.6466 34.0018 28.5964 30.0826C29.5465 26.163 28.5396 22.0523 25.8601 18.9117C23.1805 15.7711 19.1201 13.9423 14.8263 13.9423C10.5324 13.9423 6.47171 15.7713 3.79244 18.9117C1.11317 22.0521 0.10597 26.1628 1.05615 30.0826C2.00591 34.0018 4.80986 37.3038 8.67482 39.0546H1.41204C0.633315 39.0569 0.00247443 39.6473 0 40.3762V44.341C0.00252155 45.0698 0.633315 45.6602 1.41204 45.6625H2.82408V49.6273H1.41204C0.633315 49.6297 0.00247443 50.2201 0 50.9489V54.9137C0.00252155 55.6426 0.633315 56.233 1.41204 56.2353H1.41118ZM12.7075 54.9137H11.2955V50.9489H12.7075V54.9137ZM12.7075 44.341H11.2955V40.3762H12.7075V44.341ZM15.5316 49.6273H14.1195V45.6625H15.5316V49.6273ZM18.3557 54.9137H16.9436V50.9489H18.3557V54.9137ZM18.3557 44.341H16.9436V40.3762H18.3557V44.341ZM25.4159 45.6625H26.8279V49.6273H25.4159V45.6625ZM22.5918 40.3762H24.0038V44.341H22.5918V40.3762ZM22.5918 50.9489H24.0038V54.9137H22.5918V50.9489ZM21.1797 45.6625V49.6273H19.7677V45.6625H21.1797ZM5.88237 27.1602C5.88237 24.9402 6.82457 22.8114 8.50182 21.2417C10.1791 19.672 12.4534 18.79 14.8253 18.79C17.1972 18.79 19.4716 19.6719 21.1488 21.2417C22.8259 22.8115 23.7682 24.9402 23.7682 27.1602C23.7682 29.3801 22.826 31.5089 21.1488 33.0786C19.4715 34.6483 17.1972 35.5303 14.8253 35.5303C12.4542 35.5283 10.1807 34.6457 8.50387 33.0767C6.82749 31.5073 5.88441 29.3793 5.88237 27.1602ZM8.47105 45.6625H9.88309V49.6273H8.47105V45.6625ZM5.64698 40.3762H7.05901V44.341H5.64698V40.3762ZM5.64698 50.9489H7.05901V54.9137H5.64698V50.9489Z" fill="#97CA01"/>
<path d="M44.589 43.0899V37.9447C44.5894 37.5946 44.2986 37.3047 43.925 37.2839C43.071 37.2221 42.2747 36.8571 41.6993 36.2631C41.124 35.6688 40.8138 34.8912 40.8319 34.09C40.8504 33.2884 41.1958 32.5237 41.7976 31.9534L48.599 25.5833V25.5829C49.276 24.9414 50.2006 24.5807 51.1642 24.5831C51.358 24.5921 51.5475 24.5268 51.6887 24.4021C51.8303 24.277 51.911 24.104 51.9127 23.9223V17.909H55.8148C56.6405 17.9086 57.4327 17.6006 58.0165 17.0535C58.5998 16.5063 58.9276 15.7645 58.9267 14.9916C58.9263 14.2183 58.5972 13.4772 58.0127 12.9309L45.3468 1.08935C44.6534 0.441923 43.7137 0.0784912 42.7346 0.0784912C41.755 0.0784912 40.8157 0.441934 40.1223 1.08935L27.4565 12.9309C26.8715 13.4776 26.5424 14.2195 26.542 14.9931C26.542 15.7668 26.8702 16.5086 27.4548 17.0557C28.0393 17.6024 28.8324 17.9096 29.659 17.9088H33.5564V31.9616C33.5741 35.4862 32.8462 38.979 31.4148 42.2393C31.34 42.4128 31.3459 42.6079 31.4321 42.777C31.5178 42.9462 31.6754 43.0736 31.8666 43.1291C32.4495 43.2927 32.9605 43.627 33.3249 44.0833C33.6893 44.5392 33.8876 45.0925 33.8906 45.6622V49.6269C33.8885 50.2358 33.6632 50.8254 33.2518 51.297C32.8404 51.7687 32.2684 52.0936 31.6314 52.2174C31.3027 52.28 31.0665 52.551 31.0665 52.8649V54.9134C31.0665 55.0908 31.0476 55.2682 31.0102 55.442C30.9695 55.6363 31.0233 55.8373 31.1569 55.9907C31.2905 56.1441 31.4906 56.2334 31.702 56.235H33.1329C38.1646 56.235 44.5896 48.8647 44.5896 43.0895L44.589 43.0899Z" fill="#97CA01"/>
<path d="M59.9838 34.8562C60.1325 34.5266 60.172 34.1628 60.0972 33.8115C60.0228 33.4607 59.8371 33.1385 59.5648 32.8872L52.7588 26.5171C52.339 26.125 51.7704 25.9047 51.1774 25.9047C50.5844 25.9047 50.0154 26.125 49.5956 26.5171L42.7943 32.8872C42.4324 33.2259 42.229 33.6853 42.2286 34.1648C42.2286 34.6439 42.432 35.1033 42.7943 35.4424C43.1565 35.7811 43.6474 35.9714 44.1593 35.971H45.9995L45.9999 43.0943C46.0327 47.5523 43.9617 51.2484 39.2927 55.0768C39.0759 55.2597 39.0006 55.5472 39.1023 55.8029C39.204 56.0585 39.4625 56.23 39.7537 56.2355H45.7646C48.5723 56.2332 51.2644 55.1881 53.25 53.3296C55.2353 51.4715 56.3519 48.9518 56.3548 46.3236V35.9713H58.1996C58.5821 35.9748 58.9569 35.8706 59.2755 35.6716C59.5936 35.4729 59.8403 35.189 59.9836 34.8566L59.9838 34.8562Z" fill="#97CA01"/>
</svg>
