<svg width="20" height="16" viewBox="0 0 20 16" fill="none" xmlns="http://www.w3.org/2000/svg">
<g clip-path="url(#clip0_201_5810)">
<path d="M8 0.5H20V15.5H8V0.5Z" fill="#FF0000"/>
<path d="M0 0.5H8V15.5H0V0.5Z" fill="#006600"/>
<path fill-rule="evenodd" clip-rule="evenodd" d="M10.6094 10.0687C9.6 10.0375 4.98438 7.15624 4.95312 6.69374L5.20625 6.27187C5.66563 6.93749 10.3844 9.74062 10.85 9.64062L10.6094 10.0687Z" fill="#FFFF00" stroke="black" stroke-width="0.6" stroke-linecap="round" stroke-linejoin="round"/>
<path fill-rule="evenodd" clip-rule="evenodd" d="M5.15151 6.21249C5.06088 6.45624 6.35776 7.25624 7.91401 8.20624C9.47338 9.15312 10.8171 9.73749 10.914 9.65624L10.9609 9.56874C10.9421 9.59999 10.8984 9.60937 10.8265 9.58749C10.4046 9.46562 9.30776 8.96249 7.94838 8.13749C6.58588 7.31249 5.40463 6.55312 5.22026 6.23124C5.20589 6.20107 5.19943 6.16773 5.20151 6.13437H5.19526L5.15776 6.20312L5.15151 6.21249ZM10.6296 10.0812C10.614 10.1125 10.5796 10.1125 10.5203 10.1062C10.1453 10.0656 9.00151 9.50937 7.64838 8.69999C6.07338 7.75624 4.77338 6.89999 4.91713 6.67499L4.95463 6.60624L4.96088 6.60937C4.83588 6.99062 7.52651 8.52812 7.68588 8.62812C9.24213 9.59062 10.5546 10.1562 10.6703 10.0094L10.6296 10.0812Z" fill="#FFFF00" stroke="black" stroke-width="0.6" stroke-linecap="round" stroke-linejoin="round"/>
<path fill-rule="evenodd" clip-rule="evenodd" d="M8.00469 6.975C9.01094 6.96562 10.2547 6.8375 10.9734 6.55L10.8172 6.3C10.3953 6.53438 9.14531 6.69063 7.99531 6.7125C6.63906 6.7 5.67969 6.57188 5.19844 6.25L5.05469 6.51875C5.93594 6.89375 6.84219 6.97187 8.00469 6.975Z" fill="#FFFF00"/>
<path d="M8.00469 6.975C9.01094 6.96562 10.2547 6.8375 10.9734 6.55L10.8172 6.3C10.3953 6.53438 9.14531 6.69063 7.99531 6.7125C6.63906 6.7 5.67969 6.57188 5.19844 6.25L5.05469 6.51875C5.93594 6.89375 6.84219 6.97187 8.00469 6.975" stroke="black" stroke-width="0.6" stroke-linecap="round" stroke-linejoin="round"/>
<path fill-rule="evenodd" clip-rule="evenodd" d="M11.0172 6.55624C10.9922 6.59686 10.5234 6.75624 9.83594 6.87499C9.22989 6.96683 8.61765 7.01175 8.00469 7.00936C7.4174 7.01157 6.83064 6.97398 6.24844 6.89686C5.52656 6.78436 5.15469 6.62811 5.01406 6.57186L5.04844 6.50311C5.44531 6.65936 5.82031 6.75311 6.25781 6.82186C6.83577 6.8999 7.41836 6.93853 8.00156 6.93749C8.61135 6.93813 9.22034 6.89321 9.82344 6.80311C10.5266 6.68749 10.9109 6.54061 10.9672 6.47499L11.0172 6.55936V6.55624ZM10.8797 6.30311C10.8047 6.36561 10.4234 6.49999 9.75469 6.60624C9.1772 6.68979 8.59444 6.73156 8.01094 6.73124C7.32344 6.73124 6.75781 6.68124 6.32969 6.61874C5.64844 6.53124 5.28594 6.36874 5.15469 6.32499L5.19531 6.25624C5.29844 6.30936 5.64531 6.44999 6.33594 6.54686C6.89112 6.62123 7.45081 6.65673 8.01094 6.65311C8.59028 6.65329 9.16888 6.61152 9.74219 6.52811C10.4141 6.43436 10.7766 6.26561 10.8328 6.22186L10.8797 6.30311ZM4.69844 8.18749C5.31719 8.52186 6.69531 8.68749 7.99844 8.69999C9.18594 8.70311 10.7297 8.51874 11.3078 8.21249L11.2922 7.87811C11.1109 8.15936 9.45469 8.43124 7.98594 8.42186C6.51719 8.40936 5.15156 8.18436 4.69531 7.89061V8.18749" fill="#FFFF00"/>
<path d="M4.69844 8.18749C5.31719 8.52186 6.69531 8.68749 7.99844 8.69999C9.18594 8.70311 10.7297 8.51874 11.3078 8.21249L11.2922 7.87811C11.1109 8.15936 9.45469 8.43124 7.98594 8.42186C6.51719 8.40936 5.15156 8.18436 4.69531 7.89061V8.18749M11.0172 6.55624C10.9922 6.59686 10.5234 6.75624 9.83594 6.87499C9.22989 6.96683 8.61765 7.01175 8.00469 7.00936C7.4174 7.01157 6.83064 6.97398 6.24844 6.89686C5.52656 6.78436 5.15469 6.62811 5.01406 6.57186L5.04844 6.50311C5.44531 6.65936 5.82031 6.75311 6.25781 6.82186C6.83577 6.8999 7.41836 6.93853 8.00156 6.93749C8.61135 6.93813 9.22034 6.89321 9.82344 6.80311C10.5266 6.68749 10.9109 6.54061 10.9672 6.47499L11.0172 6.55936V6.55624ZM10.8797 6.30311C10.8047 6.36561 10.4234 6.49999 9.75469 6.60624C9.1772 6.68979 8.59444 6.73156 8.01094 6.73124C7.32344 6.73124 6.75781 6.68124 6.32969 6.61874C5.64844 6.53124 5.28594 6.36874 5.15469 6.32499L5.19531 6.25624C5.29844 6.30936 5.64531 6.44999 6.33594 6.54686C6.89112 6.62123 7.45081 6.65673 8.01094 6.65311C8.59028 6.65329 9.16888 6.61152 9.74219 6.52811C10.4141 6.43436 10.7766 6.26561 10.8328 6.22186L10.8797 6.30311V6.30311Z" stroke="black" stroke-width="0.6" stroke-linecap="round" stroke-linejoin="round"/>
<path fill-rule="evenodd" clip-rule="evenodd" d="M11.3375 8.14061V8.21874C11.25 8.32499 10.7062 8.48124 10.025 8.59374C9.34819 8.69102 8.66499 8.73699 7.98125 8.73124C7.33291 8.73676 6.68512 8.69183 6.04375 8.59686C5.56517 8.54156 5.09753 8.41517 4.65625 8.22186V8.13124C4.95937 8.33124 5.77812 8.48124 6.05312 8.52499C6.54687 8.59999 7.18125 8.65624 7.98125 8.65624C8.82187 8.65624 9.49375 8.59686 10.0125 8.51874C10.5031 8.44686 11.2 8.26249 11.3375 8.14061ZM11.3375 7.85936V7.93749C11.25 8.04061 10.7062 8.19686 10.025 8.30936C9.34827 8.40769 8.66507 8.4547 7.98125 8.44999C7.33296 8.4538 6.6853 8.40889 6.04375 8.31561C5.56517 8.26031 5.09753 8.13392 4.65625 7.94061V7.84686C4.95937 8.04999 5.78125 8.19686 6.05312 8.24061C6.69151 8.33412 7.33607 8.37905 7.98125 8.37499C8.82187 8.37499 9.49687 8.31249 10.0125 8.23436C10.5031 8.16561 11.2 7.98124 11.3375 7.85936ZM7.99375 10.0094C6.56875 10.0031 5.34688 9.62186 5.0875 9.55936L5.275 9.85311C6.15153 10.1636 7.07648 10.3149 8.00625 10.3C9.09063 10.2687 10.0375 10.1844 10.7031 9.85936L10.8969 9.55311C10.4438 9.76874 8.89687 10.0094 7.99062 10.0094" fill="#FFFF00"/>
<path d="M7.99375 10.0094C6.56875 10.0031 5.34688 9.62186 5.0875 9.55936L5.275 9.85311C6.15153 10.1636 7.07648 10.3149 8.00625 10.3C9.09063 10.2687 10.0375 10.1844 10.7031 9.85936L10.8969 9.55311C10.4438 9.76874 8.89687 10.0094 7.99062 10.0094M11.3375 8.14061V8.21874C11.25 8.32499 10.7062 8.48124 10.025 8.59374C9.34819 8.69102 8.66499 8.73699 7.98125 8.73124C7.33291 8.73676 6.68512 8.69183 6.04375 8.59686C5.56517 8.54156 5.09753 8.41517 4.65625 8.22186V8.13124C4.95937 8.33124 5.77812 8.48124 6.05312 8.52499C6.54687 8.59999 7.18125 8.65624 7.98125 8.65624C8.82187 8.65624 9.49375 8.59686 10.0125 8.51874C10.5031 8.44686 11.2 8.26249 11.3375 8.14061V8.14061ZM11.3375 7.85936V7.93749C11.25 8.04061 10.7062 8.19686 10.025 8.30936C9.34827 8.40769 8.66507 8.4547 7.98125 8.44999C7.33296 8.4538 6.6853 8.40889 6.04375 8.31561C5.56517 8.26031 5.09753 8.13392 4.65625 7.94061V7.84686C4.95937 8.04999 5.78125 8.19686 6.05312 8.24061C6.69151 8.33412 7.33607 8.37905 7.98125 8.37499C8.82187 8.37499 9.49687 8.31249 10.0125 8.23436C10.5031 8.16561 11.2 7.98124 11.3375 7.85936V7.85936Z" stroke="black" stroke-width="0.6" stroke-linecap="round" stroke-linejoin="round"/>
<path fill-rule="evenodd" clip-rule="evenodd" d="M10.7781 9.79062C10.7497 9.83278 10.7205 9.87446 10.6906 9.91562C10.3781 10.0281 9.87813 10.1469 9.67188 10.1781C9.11843 10.2812 8.55672 10.3336 7.99375 10.3344C6.73125 10.3156 5.69688 10.0687 5.2125 9.85625L5.17188 9.79062L5.17812 9.77812L5.24375 9.80625C6.13314 10.1006 7.0632 10.2535 8 10.2594C8.5875 10.2594 9.17188 10.1937 9.64375 10.1094C10.3688 9.9625 10.6625 9.85312 10.7531 9.80312L10.775 9.79062H10.7781ZM10.9438 9.51562C10.9232 9.55223 10.9023 9.58869 10.8813 9.625C10.7125 9.6875 10.2562 9.81875 9.59062 9.9125C9.15312 9.97187 8.88125 10.0312 8.00937 10.0469C7.01269 10.0369 6.02214 9.88965 5.06563 9.60937L5.03125 9.53125C6.00308 9.79984 7.00448 9.94679 8.0125 9.96875C8.80937 9.95312 9.15 9.89375 9.58438 9.83437C10.3594 9.71562 10.75 9.58437 10.8656 9.55C10.8657 9.54791 10.8657 9.54583 10.8656 9.54375L10.9469 9.5125L10.9438 9.51562Z" fill="#FFFF00" stroke="black" stroke-width="0.6" stroke-linecap="round" stroke-linejoin="round"/>
<path fill-rule="evenodd" clip-rule="evenodd" d="M10.9641 7.925C10.9672 8.8625 10.4859 9.70625 10.1016 10.075C9.53386 10.6287 8.77573 10.944 7.98282 10.9563C7.03594 10.9719 6.14532 10.3563 5.90469 10.0844C5.36639 9.51352 5.06001 8.76262 5.04532 7.97813C5.10157 6.95312 5.50469 6.24063 6.08594 5.75C6.65058 5.28518 7.36087 5.03403 8.09219 5.04063C8.5191 5.06132 8.93699 5.17097 9.31906 5.36255C9.70114 5.55412 10.039 5.8234 10.3109 6.15312C10.7016 6.62812 10.8734 7.14375 10.9641 7.925ZM7.98907 4.71875C8.86328 4.71873 9.70206 5.06429 10.3226 5.6801C10.9431 6.29592 11.295 7.13206 11.3016 8.00625C11.3016 8.44002 11.2161 8.86955 11.0501 9.2703C10.8841 9.67105 10.6408 10.0352 10.3341 10.3419C10.0274 10.6486 9.66325 10.8919 9.26249 11.0579C8.86174 11.2239 8.43221 11.3094 7.99844 11.3094C7.56467 11.3094 7.13514 11.2239 6.73439 11.0579C6.33364 10.8919 5.9695 10.6486 5.66278 10.3419C5.35606 10.0352 5.11275 9.67105 4.94675 9.2703C4.78076 8.86955 4.69532 8.44002 4.69532 8.00625C4.69219 6.19375 6.17344 4.71875 7.98907 4.71875Z" fill="#FFFF00"/>
<path d="M7.98907 4.71875C8.86328 4.71873 9.70206 5.06429 10.3226 5.6801C10.9431 6.29592 11.295 7.13206 11.3016 8.00625C11.3016 8.44002 11.2161 8.86955 11.0501 9.2703C10.8841 9.67105 10.6408 10.0352 10.3341 10.3419C10.0274 10.6486 9.66325 10.8919 9.26249 11.0579C8.86174 11.2239 8.43221 11.3094 7.99844 11.3094C7.56467 11.3094 7.13515 11.2239 6.73439 11.0579C6.33364 10.8919 5.9695 10.6486 5.66278 10.3419C5.35606 10.0352 5.11275 9.67105 4.94675 9.2703C4.78076 8.86955 4.69532 8.44002 4.69532 8.00625C4.69219 6.19375 6.17344 4.71875 7.98907 4.71875M10.9641 7.925C10.9672 8.8625 10.4859 9.70625 10.1016 10.075C9.53386 10.6287 8.77573 10.944 7.98282 10.9563C7.03594 10.9719 6.14532 10.3563 5.90469 10.0844C5.36639 9.51352 5.06001 8.76262 5.04532 7.97813C5.10157 6.95313 5.50469 6.24062 6.08594 5.75C6.65058 5.28518 7.36087 5.03403 8.09219 5.04063C8.5191 5.06132 8.93699 5.17097 9.31906 5.36255C9.70114 5.55412 10.039 5.8234 10.3109 6.15312C10.7016 6.62812 10.8734 7.14375 10.9641 7.925V7.925Z" stroke="black" stroke-width="0.6" stroke-linecap="round" stroke-linejoin="round"/>
<path fill-rule="evenodd" clip-rule="evenodd" d="M7.99609 4.70312C9.81484 4.70312 11.2961 6.18438 11.2961 8.00313C11.2961 9.82188 9.81484 11.3031 7.99922 11.3031C6.18359 11.3031 4.69922 9.82188 4.69922 8.00313C4.69922 6.18438 6.18047 4.70312 7.99922 4.70312H7.99609ZM4.76797 8C4.76797 9.775 6.22734 11.2281 7.99609 11.2281C9.76484 11.2281 11.2242 9.775 11.2242 8C11.2242 6.225 9.76484 4.77187 7.99609 4.77187C6.22734 4.77187 4.76797 6.225 4.76797 8Z" fill="#FFFF00" stroke="black" stroke-width="0.6" stroke-linecap="round" stroke-linejoin="round"/>
<path fill-rule="evenodd" clip-rule="evenodd" d="M7.99844 4.97812C8.79913 4.98059 9.56632 5.29976 10.1325 5.86594C10.6987 6.43211 11.0178 7.1993 11.0203 7.99999C11.0178 8.80097 10.6988 9.56849 10.1327 10.1352C9.5666 10.7018 8.79941 11.0217 7.99844 11.025C6.34219 11.025 4.97656 9.66249 4.97656 7.99999C4.97985 7.19956 5.29928 6.43284 5.86528 5.86684C6.43128 5.30084 7.198 4.98141 7.99844 4.97812ZM5.04844 7.99999C5.04844 9.62499 6.37969 10.95 7.99844 10.95C9.61719 10.95 10.9484 9.62187 10.9484 7.99999C10.9484 6.37499 9.61719 5.04999 7.99844 5.04999C7.21706 5.05328 6.46863 5.36514 5.91611 5.91766C5.36359 6.47018 5.05173 7.21862 5.04844 7.99999Z" fill="#FFFF00" stroke="black" stroke-width="0.6" stroke-linecap="round" stroke-linejoin="round"/>
<path fill-rule="evenodd" clip-rule="evenodd" d="M8.13594 4.6875H7.85156V11.3219H8.13281L8.13594 4.6875Z" fill="#FFFF00" stroke="black" stroke-width="0.6" stroke-linecap="round" stroke-linejoin="round"/>
<path fill-rule="evenodd" clip-rule="evenodd" d="M8.10156 4.64999H8.17344V11.3594H8.10469V4.64999H8.10156ZM7.82031 4.64999H7.89531V11.3594H7.82344V4.64999H7.82031Z" fill="#FFFF00" stroke="black" stroke-width="0.6" stroke-linecap="round" stroke-linejoin="round"/>
<path fill-rule="evenodd" clip-rule="evenodd" d="M11.2992 8.13125V7.8875L11.0992 7.7L9.96484 7.4L8.33359 7.23438L6.36484 7.33437L4.96484 7.66563L4.68359 7.875V8.12187L5.39922 7.8L7.09922 7.53438H8.73359L9.93359 7.66563L10.7648 7.86562L11.2992 8.13125Z" fill="#FFFF00" stroke="black" stroke-width="0.6" stroke-linecap="round" stroke-linejoin="round"/>
<path fill-rule="evenodd" clip-rule="evenodd" d="M8 7.49374C8.77812 7.49374 9.53125 7.56562 10.1344 7.68124C10.7531 7.80624 11.1875 7.96249 11.3375 8.13437V8.22187C11.1562 8.00312 10.5719 7.84687 10.1187 7.75312C9.525 7.64062 8.775 7.56562 7.99687 7.56562C7.18125 7.56562 6.41875 7.64687 5.83125 7.75937C5.3625 7.85312 4.73438 8.04062 4.65625 8.22187V8.13124C4.69687 8.00624 5.16563 7.81874 5.82188 7.68437C6.4125 7.56874 7.175 7.49374 7.99687 7.49374H8ZM8 7.20937C8.71563 7.20793 9.42995 7.27068 10.1344 7.39687C10.7531 7.52187 11.1875 7.67812 11.3375 7.85312V7.93749C11.1562 7.72187 10.5719 7.56249 10.1187 7.47187C9.525 7.35624 8.775 7.28437 7.99687 7.28437C7.27161 7.28207 6.54768 7.34693 5.83437 7.47812C5.38125 7.56249 4.72812 7.75624 4.65625 7.93749V7.84999C4.7 7.72499 5.175 7.52812 5.82188 7.40312C6.41563 7.28749 7.175 7.20937 8 7.20937ZM7.98125 5.76562C9.20937 5.75937 10.2813 5.93749 10.7719 6.18749L10.95 6.49999C10.525 6.26874 9.36875 6.03124 7.98438 6.06249C6.85625 6.07187 5.65 6.18749 5.04688 6.51249L5.25938 6.15624C5.75625 5.89687 6.925 5.76562 7.98125 5.76562Z" fill="#FFFF00"/>
<path d="M7.98125 5.76562C9.20937 5.75937 10.2813 5.93749 10.7719 6.18749L10.95 6.49999C10.525 6.26874 9.36875 6.03124 7.98438 6.06249C6.85625 6.07187 5.65 6.18749 5.04688 6.51249L5.25938 6.15624C5.75625 5.89687 6.925 5.76562 7.98125 5.76562M8 7.49374C8.77812 7.49374 9.53125 7.56562 10.1344 7.68124C10.7531 7.80624 11.1875 7.96249 11.3375 8.13437V8.22187C11.1562 8.00312 10.5719 7.84687 10.1187 7.75312C9.525 7.64062 8.775 7.56562 7.99687 7.56562C7.18125 7.56562 6.41875 7.64687 5.83125 7.75937C5.3625 7.85312 4.73438 8.04062 4.65625 8.22187V8.13124C4.69687 8.00624 5.16563 7.81874 5.82188 7.68437C6.4125 7.56874 7.175 7.49374 7.99687 7.49374H8ZM8 7.20937C8.71563 7.20793 9.42995 7.27068 10.1344 7.39687C10.7531 7.52187 11.1875 7.67812 11.3375 7.85312V7.93749C11.1562 7.72187 10.5719 7.56249 10.1187 7.47187C9.525 7.35624 8.775 7.28437 7.99687 7.28437C7.27161 7.28207 6.54768 7.34693 5.83437 7.47812C5.38125 7.56249 4.72812 7.75624 4.65625 7.93749V7.84999C4.7 7.72499 5.175 7.52812 5.82188 7.40312C6.41563 7.28749 7.175 7.20937 8 7.20937V7.20937Z" stroke="black" stroke-width="0.6" stroke-linecap="round" stroke-linejoin="round"/>
<path fill-rule="evenodd" clip-rule="evenodd" d="M7.99844 6.02187C8.63967 6.01105 9.28062 6.05601 9.91406 6.15624C10.4141 6.24999 10.8922 6.38749 10.9609 6.46249L11.0141 6.55624C10.8484 6.44999 10.4328 6.32812 9.90156 6.22812C9.37031 6.12812 8.69219 6.09374 7.99531 6.09687C7.20469 6.09374 6.58906 6.13437 6.06406 6.22812C5.70216 6.27884 5.35078 6.38752 5.02344 6.54999L5.07656 6.45312C5.26406 6.35937 5.55469 6.24374 6.04844 6.15312C6.59531 6.05312 7.21719 6.02499 7.99844 6.02187ZM7.99844 5.74062C8.66719 5.73437 9.32969 5.77187 9.84531 5.86562C10.1794 5.91522 10.5027 6.02087 10.8016 6.17812L10.8797 6.30312C10.7484 6.15624 10.2547 6.01562 9.81406 5.94062C9.30156 5.84999 8.66719 5.81562 7.99844 5.80937C7.37591 5.80382 6.754 5.84981 6.13906 5.94687C5.81753 5.99167 5.50524 6.08768 5.21406 6.23124L5.28281 6.12812C5.46406 6.03437 5.75781 5.94687 6.12656 5.87499C6.74555 5.77666 7.37172 5.73067 7.99844 5.73749V5.74062ZM9.63594 9.37499C9.09429 9.28122 8.54492 9.23936 7.99531 9.24999C5.94844 9.27499 5.28906 9.67187 5.20781 9.79062L5.05156 9.54062C5.57656 9.16562 6.68906 8.95312 8.00781 8.97187C8.69219 8.98437 9.28281 9.03124 9.77656 9.12812L9.63594 9.37812" fill="#FFFF00"/>
<path d="M9.63594 9.37499C9.09429 9.28122 8.54492 9.23936 7.99531 9.24999C5.94844 9.27499 5.28906 9.67187 5.20781 9.79062L5.05156 9.54062C5.57656 9.16562 6.68906 8.95312 8.00781 8.97187C8.69219 8.98437 9.28281 9.03124 9.77656 9.12812L9.63594 9.37812M7.99844 6.02187C8.63967 6.01105 9.28062 6.05601 9.91406 6.15624C10.4141 6.24999 10.8922 6.38749 10.9609 6.46249L11.0141 6.55624C10.8484 6.44999 10.4328 6.32812 9.90156 6.22812C9.37031 6.12812 8.69219 6.09374 7.99531 6.09687C7.20469 6.09374 6.58906 6.13437 6.06406 6.22812C5.70216 6.27884 5.35078 6.38752 5.02344 6.54999L5.07656 6.45312C5.26406 6.35937 5.55469 6.24374 6.04844 6.15312C6.59531 6.05312 7.21719 6.02499 7.99844 6.02187V6.02187ZM7.99844 5.74062C8.66719 5.73437 9.32969 5.77187 9.84531 5.86562C10.1794 5.91522 10.5027 6.02087 10.8016 6.17812L10.8797 6.30312C10.7484 6.15624 10.2547 6.01562 9.81406 5.94062C9.30156 5.84999 8.66719 5.81562 7.99844 5.80937C7.37591 5.80382 6.754 5.84981 6.13906 5.94687C5.81752 5.99167 5.50524 6.08768 5.21406 6.23124L5.28281 6.12812C5.46406 6.03437 5.75781 5.94687 6.12656 5.87499C6.74555 5.77666 7.37172 5.73067 7.99844 5.73749V5.74062Z" stroke="black" stroke-width="0.6" stroke-linecap="round" stroke-linejoin="round"/>
<path fill-rule="evenodd" clip-rule="evenodd" d="M7.98672 9.21562C8.55547 9.225 9.11172 9.24687 9.65234 9.34687L9.61484 9.41562C9.11484 9.32187 8.57734 9.29062 7.98984 9.29062C7.23047 9.28437 6.46797 9.35625 5.80234 9.54687C5.59297 9.60625 5.24609 9.74062 5.20859 9.85312L5.17109 9.79062C5.18359 9.72187 5.38984 9.58437 5.78359 9.47812C6.54609 9.25937 7.25859 9.21875 7.98672 9.21562ZM8.01172 8.92812C8.61202 8.92751 9.21122 8.97979 9.80234 9.08437L9.76172 9.15625C9.18449 9.05036 8.59857 8.99909 8.01172 9.00312C7.25547 9.00312 6.45234 9.05937 5.72109 9.27187C5.48672 9.34062 5.07734 9.49062 5.06484 9.60625L5.02734 9.5375C5.03359 9.43125 5.38672 9.29062 5.70547 9.2C6.43984 8.98437 7.24609 8.93125 8.01172 8.92812Z" fill="#FFFF00" stroke="black" stroke-width="0.6" stroke-linecap="round" stroke-linejoin="round"/>
<path fill-rule="evenodd" clip-rule="evenodd" d="M10.9172 9.57812L10.6734 9.96249L9.96406 9.33437L8.13281 8.09999L6.06406 6.96562L4.99219 6.59999L5.22031 6.17499L5.29844 6.13437L5.96406 6.29999L8.16406 7.43437L9.43281 8.23437L10.4984 8.99999L10.9328 9.49999L10.9172 9.57812Z" fill="#FFFF00" stroke="black" stroke-width="0.6" stroke-linecap="round" stroke-linejoin="round"/>
<path fill-rule="evenodd" clip-rule="evenodd" d="M4.95469 6.60936C5.14219 6.48436 6.52344 7.09686 7.97344 7.97186C9.41406 8.84686 10.7953 9.83436 10.6703 10.0187L10.6297 10.0844L10.6109 10.1C10.6141 10.0969 10.6359 10.0687 10.6109 10.0031C10.5484 9.79999 9.56719 9.01874 7.94531 8.03749C6.36094 7.09686 5.04219 6.52811 4.91406 6.69061L4.95469 6.60936ZM10.9672 9.57499C11.0859 9.33749 9.80469 8.37186 8.21406 7.43124C6.58906 6.50936 5.41406 5.96561 5.19844 6.12811L5.15469 6.21874C5.15469 6.22186 5.15469 6.21249 5.16719 6.20311C5.20469 6.17186 5.27031 6.17186 5.29844 6.17186C5.66719 6.17811 6.72031 6.66249 8.19844 7.50936C8.84844 7.88436 10.9359 9.22811 10.9266 9.60311C10.9266 9.63436 10.9297 9.64061 10.9172 9.65936L10.9703 9.57811L10.9672 9.57499Z" fill="#FFFF00" stroke="black" stroke-width="0.6" stroke-linecap="round" stroke-linejoin="round"/>
<path d="M6.01953 8.36774C6.02003 8.62649 6.07184 8.88258 6.17197 9.12117C6.2721 9.35977 6.41856 9.57613 6.60287 9.75774C6.78493 9.94261 7.00178 10.0896 7.24091 10.1903C7.48004 10.291 7.73674 10.3434 7.9962 10.3444C8.52132 10.3444 9.02491 10.1357 9.39621 9.76441C9.57987 9.58179 9.72565 9.3647 9.82518 9.12559C9.92472 8.88648 9.97604 8.63007 9.97621 8.37107V5.73106L6.01953 5.7244V8.36774Z" fill="white" stroke="black" stroke-width="0.746669"/>
<path d="M6.09375 8.37107C6.09445 8.61928 6.1443 8.8649 6.24042 9.09374C6.33653 9.32259 6.47701 9.53014 6.65375 9.70441C7.00864 10.0612 7.49055 10.2626 7.99376 10.2644C8.49607 10.2647 8.97799 10.0657 9.33376 9.71108C9.5099 9.53653 9.64976 9.32886 9.7453 9.10002C9.84084 8.87119 9.89016 8.62572 9.89043 8.37774V5.81107H6.10042V8.37107M9.13376 6.58107V8.21107L9.13043 8.38107C9.13155 8.52999 9.10261 8.6776 9.04533 8.81506C8.98805 8.95253 8.90362 9.07702 8.79709 9.18108C8.58512 9.39379 8.29739 9.51367 7.99709 9.51441C7.68375 9.51441 7.40709 9.38108 7.20042 9.17441C6.98771 8.96243 6.86782 8.6747 6.86709 8.37441V6.5744L9.13376 6.58107Z" fill="#FF0000"/>
<path d="M6.09375 8.37107C6.09445 8.61928 6.1443 8.8649 6.24042 9.09374C6.33653 9.32259 6.47701 9.53014 6.65375 9.70441C7.00864 10.0612 7.49055 10.2626 7.99376 10.2644C8.49607 10.2647 8.97799 10.0657 9.33376 9.71108C9.5099 9.53653 9.64976 9.32886 9.7453 9.10002C9.84084 8.87119 9.89016 8.62572 9.89043 8.37774V5.81107H6.10042V8.37107M9.13376 6.58107V8.21107L9.13043 8.38107C9.13155 8.52999 9.10261 8.6776 9.04533 8.81506C8.98805 8.95253 8.90362 9.07702 8.79709 9.18108C8.58512 9.39379 8.29739 9.51367 7.99709 9.51441C7.68375 9.51441 7.40709 9.38108 7.20042 9.17441C6.98771 8.96243 6.86782 8.6747 6.86709 8.37441V6.5744L9.13376 6.58107Z" stroke="black" stroke-width="0.533335"/>
<path d="M6.33984 6.48106C6.34318 6.29773 6.47318 6.25439 6.47318 6.25439C6.47651 6.25439 6.61651 6.30106 6.61651 6.4844H6.33984" fill="#FFFF00"/>
<path d="M6.22521 6.25773L6.20188 6.46773H6.34188C6.34188 6.29439 6.47521 6.26773 6.47521 6.26773C6.47854 6.26773 6.60854 6.30439 6.61188 6.46773H6.75188L6.72521 6.25439H6.22521V6.25773ZM6.19188 6.47106H6.75854C6.76854 6.47106 6.77854 6.48106 6.77854 6.4944C6.77854 6.51106 6.76854 6.52106 6.75854 6.52106H6.19188C6.18188 6.52106 6.17188 6.51106 6.17188 6.4944C6.17188 6.48106 6.18187 6.47106 6.19521 6.47106H6.19188Z" fill="#FFFF00" stroke="black" stroke-width="0.533335"/>
<path d="M6.39693 6.46772C6.39693 6.35772 6.47359 6.32772 6.47359 6.32772C6.47359 6.32772 6.55026 6.36106 6.55026 6.46772H6.39693ZM6.20359 6.16772H6.74693C6.75693 6.16772 6.76693 6.18106 6.76693 6.19439C6.76693 6.20439 6.75693 6.21439 6.74693 6.21439H6.20359C6.19359 6.21439 6.18359 6.20439 6.18359 6.19106C6.18359 6.18106 6.19359 6.17106 6.20359 6.17106V6.16772ZM6.41026 6.51772H6.73026C6.74026 6.51772 6.75026 6.52772 6.75026 6.54106C6.75026 6.55439 6.74026 6.56439 6.73026 6.56439H6.21359C6.20026 6.56439 6.19359 6.55439 6.19359 6.54106C6.19359 6.52772 6.20026 6.51772 6.21359 6.51772H6.41026ZM6.57693 6.16439H6.61693V6.19106H6.64693V6.16439H6.69026V6.19439H6.72026V6.16106H6.76026V6.22772C6.76026 6.24106 6.7536 6.24772 6.7436 6.24772H6.59693C6.58693 6.24772 6.57693 6.24106 6.57693 6.23106V6.16439ZM6.73026 6.25439L6.74026 6.46772H6.59693L6.60693 6.25106H6.73026" fill="#FFFF00"/>
<path d="M6.73026 6.25439L6.74026 6.46772H6.59693L6.60693 6.25106H6.73026M6.39693 6.46772C6.39693 6.35772 6.47359 6.32772 6.47359 6.32772C6.47359 6.32772 6.55026 6.36106 6.55026 6.46772H6.39693ZM6.20359 6.16772H6.74693C6.75693 6.16772 6.76693 6.18106 6.76693 6.19439C6.76693 6.20439 6.75693 6.21439 6.74693 6.21439H6.20359C6.19359 6.21439 6.18359 6.20439 6.18359 6.19106C6.18359 6.18106 6.19359 6.17106 6.20359 6.17106V6.16772ZM6.41026 6.51772H6.73026C6.74026 6.51772 6.75026 6.52772 6.75026 6.54106C6.75026 6.55439 6.74026 6.56439 6.73026 6.56439H6.21359C6.20026 6.56439 6.19359 6.55439 6.19359 6.54106C6.19359 6.52772 6.20026 6.51772 6.21359 6.51772H6.41026ZM6.57693 6.16439H6.61693V6.19106H6.64693V6.16439H6.69026V6.19439H6.72026V6.16106H6.76026V6.22772C6.76026 6.24106 6.7536 6.24772 6.7436 6.24772H6.59693C6.58693 6.24772 6.57693 6.24106 6.57693 6.23106V6.16439Z" stroke="black" stroke-width="0.533335"/>
<path d="M6.3638 6.0544V6.16773H6.23047V6.0544H6.3638Z" fill="#FFFF00" stroke="black" stroke-width="0.533335"/>
<path d="M6.20703 5.96773H6.24703V6.00106H6.27703V5.96773H6.31703V6.00106H6.34703V5.96773H6.38703V6.03439C6.38703 6.04773 6.38036 6.05439 6.37036 6.05439H6.22703C6.22173 6.05439 6.21664 6.05229 6.21289 6.04854C6.20914 6.04479 6.20703 6.0397 6.20703 6.03439V5.96773Z" fill="#FFFF00" stroke="black" stroke-width="0.533335"/>
<path d="M6.46094 6.02106C6.46094 6.00106 6.49094 6.00106 6.49094 6.02106V6.07439H6.46094V6.02106Z" fill="black"/>
<path d="M6.28516 6.09439C6.28516 6.07439 6.31182 6.07439 6.31182 6.09439V6.13439H6.28516V6.09439Z" fill="black"/>
<path d="M7.75392 8.08107C7.75331 8.15142 7.77954 8.21937 7.82725 8.27107C7.84951 8.29596 7.87672 8.31593 7.90714 8.32971C7.93756 8.34349 7.97052 8.35076 8.00392 8.35107C8.07392 8.35107 8.13725 8.31774 8.18058 8.27107C8.2283 8.21937 8.25452 8.15142 8.25392 8.08107V7.72107H7.75392V8.08107Z" fill="#003399"/>
<path d="M7.87031 7.90774C7.89793 7.90774 7.92031 7.88535 7.92031 7.85774C7.92031 7.83013 7.89793 7.80774 7.87031 7.80774C7.8427 7.80774 7.82031 7.83013 7.82031 7.85774C7.82031 7.88535 7.8427 7.90774 7.87031 7.90774Z" fill="white"/>
<path d="M8.14766 7.90774C8.17527 7.90774 8.19766 7.88535 8.19766 7.85774C8.19766 7.83013 8.17527 7.80774 8.14766 7.80774C8.12004 7.80774 8.09766 7.83013 8.09766 7.85774C8.09766 7.88535 8.12004 7.90774 8.14766 7.90774Z" fill="white"/>
<path d="M8.00703 8.04107C8.03465 8.04107 8.05703 8.01869 8.05703 7.99107C8.05703 7.96346 8.03465 7.94107 8.00703 7.94107C7.97942 7.94107 7.95703 7.96346 7.95703 7.99107C7.95703 8.01869 7.97942 8.04107 8.00703 8.04107Z" fill="white"/>
<path d="M7.87031 8.18107C7.89793 8.18107 7.92031 8.15868 7.92031 8.13107C7.92031 8.10346 7.89793 8.08107 7.87031 8.08107C7.8427 8.08107 7.82031 8.10346 7.82031 8.13107C7.82031 8.15868 7.8427 8.18107 7.87031 8.18107Z" fill="white"/>
<path d="M8.14766 8.18107C8.17527 8.18107 8.19766 8.15868 8.19766 8.13107C8.19766 8.10346 8.17527 8.08107 8.14766 8.08107C8.12004 8.08107 8.09766 8.10346 8.09766 8.13107C8.09766 8.15868 8.12004 8.18107 8.14766 8.18107Z" fill="white"/>
</g>
<defs>
<clipPath id="clip0_201_5810">
<rect width="20" height="15" fill="white" transform="translate(0 0.5)"/>
</clipPath>
</defs>
</svg>
