<svg width="40" height="40" viewBox="0 0 40 40" fill="none" xmlns="http://www.w3.org/2000/svg">
<path d="M31.3111 25.184C31.9836 25.4425 32.2424 26.4506 32.2937 26.8901C32.3976 27.692 32.1652 28.0021 31.9064 28.0021C31.6476 28.0021 31.2853 27.6923 30.898 27.0717C30.5095 26.4503 30.3543 25.7529 30.5618 25.3905C30.6906 25.1573 30.9749 25.0546 31.3117 25.184H31.3111ZM27.381 28.106C27.795 28.106 28.2603 28.2867 28.674 28.6485C29.4753 29.3209 29.7086 30.0967 29.2946 30.6653C29.0616 30.9499 28.674 31.1309 28.2345 31.1309C27.795 31.1309 27.3294 30.9757 27.0196 30.6911C26.2954 30.0709 26.0889 29.0357 26.5533 28.4677C26.735 28.2345 27.0196 28.106 27.381 28.106ZM18.332 35.578C8.50569 35.5783 0.542236 27.6142 0.542236 17.7891C0.542236 7.96346 8.5063 0 18.3311 0C28.1562 0 36.1205 7.96406 36.1205 17.7888C36.1205 21.1239 35.1899 24.2533 33.6132 26.9162C33.5609 26.9937 33.4315 26.9679 33.4057 26.8643C32.7852 22.495 30.1223 20.0897 26.2435 19.3662C25.907 19.3139 25.8553 19.1074 26.2951 19.056C27.4846 18.9525 29.1649 18.978 30.0442 19.1332C30.0964 18.6783 30.1224 18.2209 30.122 17.763C30.122 11.2727 24.8469 5.99765 18.3566 5.99765C11.8672 5.99765 6.59213 11.2727 6.59213 17.763C6.59213 24.2533 11.8672 29.5284 18.3575 29.5284H18.9C18.7156 28.4787 18.6375 27.413 18.6667 26.3476C18.6934 25.6235 18.8483 25.5196 19.1588 26.0888C20.7877 28.9072 23.115 31.441 27.6653 32.4498C31.3886 33.2775 35.1118 34.2336 39.1193 39.3273C39.4814 39.7669 38.9389 40.2322 38.5249 39.8704C34.4399 36.2499 30.7167 35.0607 27.3291 35.0607C23.5281 35.0871 20.9426 35.5783 18.3311 35.5783L18.332 35.578Z" fill="#FF8C00"/>
</svg>
