<svg width="21" height="20" viewBox="0 0 21 20" fill="none" xmlns="http://www.w3.org/2000/svg">
<path d="M10.5 16.9681C9.20894 16.9675 7.94722 16.5522 6.87686 15.7753C5.80654 14.9984 4.9763 13.8952 4.49261 12.6074H2.81055C3.15833 13.0061 3.35071 13.5333 3.34804 14.0802V15.5632C3.34804 16.1297 3.55722 16.6731 3.92957 17.0736C4.30193 17.4744 4.80708 17.6994 5.33355 17.6994H6.7058C7.23343 17.699 7.73956 17.9242 8.11278 18.3252L9.08655 19.3729C9.45905 19.7745 9.96464 20 10.492 20C11.0193 20 11.5249 19.7745 11.8974 19.3729L12.8744 18.3217L12.8743 18.3219C13.25 17.9158 13.7614 17.6891 14.2939 17.6926H15.6756C16.2022 17.6926 16.7073 17.4675 17.0796 17.0669C17.452 16.6663 17.6611 16.1229 17.6611 15.5565V14.0802C17.6614 13.5446 17.8487 13.0286 18.1859 12.6345H16.5071C16.0194 13.9173 15.1875 15.0147 14.1176 15.7865C13.0476 16.5584 11.7881 16.9698 10.4999 16.9681L10.5 16.9681Z" fill="#FF9100"/>
<path d="M10.4997 3.02855C11.7908 3.02915 13.0525 3.44446 14.1229 4.22137C15.1932 4.99823 16.0234 6.10145 16.5071 7.38932H18.1892C17.8439 6.99284 17.6517 6.47002 17.6517 5.92667V4.44019C17.6517 3.87379 17.4425 3.33029 17.0701 2.92973C16.6978 2.52913 16.1926 2.30408 15.6662 2.30408H14.2939C13.7663 2.30454 13.2602 2.07934 12.8869 1.67828L11.9037 0.62716C11.5312 0.225666 11.0255 0 10.4983 0C9.97094 0 9.46536 0.225654 9.09285 0.62716L8.11908 1.67828C7.74448 2.08129 7.23565 2.30665 6.70578 2.30408H5.33353C4.80706 2.30408 4.30187 2.52913 3.92955 2.92973C3.55719 3.33033 3.34801 3.87379 3.34801 4.44019V5.91652C3.34773 6.45209 3.16043 6.96811 2.82324 7.36218H4.49259C4.98025 6.07933 5.81219 4.98202 6.88208 4.21017C7.95211 3.43832 9.21159 3.02691 10.4998 3.02858L10.4997 3.02855Z" fill="#FF9100"/>
<path d="M19.7827 10.2398C19.7046 10.1081 19.7046 9.93955 19.7827 9.80791L20.4403 8.68541H20.4404C20.5147 8.5615 20.5199 8.40357 20.454 8.27436C20.3879 8.14513 20.2613 8.06525 20.1243 8.06632H15.5873C15.113 6.63131 14.1339 5.454 12.8605 4.78843C11.5872 4.12286 10.1218 4.02218 8.78024 4.50811C7.43848 4.99388 6.32809 6.02755 5.68798 7.38602C5.58381 7.60621 5.49292 7.83338 5.41613 8.06632H0.882064C0.744022 8.06435 0.616141 8.14468 0.549944 8.27512C0.483606 8.40556 0.489814 8.5647 0.565894 8.68878L1.21406 9.77726C1.29226 9.90892 1.29226 10.0775 1.21406 10.2093L0.55957 11.3113C0.485326 11.4352 0.480105 11.5931 0.54602 11.7223C0.612076 11.8516 0.738686 11.9314 0.875741 11.9304H5.4127C5.88695 13.3654 6.86611 14.5427 8.13953 15.2083C9.41282 15.8738 10.8782 15.9745 12.2198 15.4886C13.5615 15.0028 14.6719 13.9691 15.312 12.6107C15.4162 12.3905 15.5071 12.1633 15.5839 11.9304H20.1179C20.256 11.9324 20.3839 11.852 20.4501 11.7216C20.5164 11.5911 20.5102 11.432 20.4341 11.3079L19.7827 10.2398ZM13.864 7.84168L10.1837 12.8044C10.0639 12.9634 9.88395 13.0557 9.6937 13.0562C9.50076 13.0516 9.32037 12.9527 9.20366 12.7874L7.14855 10.1139C7.00288 9.91419 7.00288 9.63327 7.14855 9.43357C7.29322 9.23267 7.54786 9.16631 7.76199 9.27367L9.65901 10.8757L13.1369 7.07972C13.3406 6.89582 13.6409 6.90873 13.8302 7.10978C14.0195 7.31084 14.0355 7.63369 13.8672 7.85524L13.864 7.84168Z" fill="#FF9100"/>
</svg>
