<svg width="18" height="18" viewBox="0 0 18 18" fill="none" xmlns="http://www.w3.org/2000/svg">
<path d="M7.07129 0H10.9292V6.42857H7.07129V0Z" fill="#FF9100"/>
<path d="M16.0714 0H12.2143V6.42857C12.2143 6.76951 12.0788 7.09655 11.8378 7.33775C11.5965 7.57883 11.2695 7.71429 10.9286 7.71429H7.07143C6.73049 7.71429 6.40344 7.57883 6.16224 7.33775C5.92117 7.09654 5.78571 6.76951 5.78571 6.42857V0H1.92857C1.417 0 0.926559 0.203187 0.564796 0.564796C0.203187 0.926548 0 1.417 0 1.92857V16.0714C0 16.583 0.203187 17.0734 0.564796 17.4352C0.926548 17.7968 1.417 18 1.92857 18H16.0714C16.583 18 17.0734 17.7968 17.4352 17.4352C17.7968 17.0735 18 16.583 18 16.0714V1.92857C18 1.417 17.7968 0.926559 17.4352 0.564796C17.0735 0.203187 16.583 0 16.0714 0Z" fill="#FF9100"/>
</svg>
