<svg width="31" height="30" viewBox="0 0 31 30" fill="none" xmlns="http://www.w3.org/2000/svg">
<path d="M15.677 30C23.9613 30 30.677 23.2843 30.677 15C30.677 6.71573 23.9613 0 15.677 0C7.39273 0 0.677002 6.71573 0.677002 15C0.677002 23.2843 7.39273 30 15.677 30Z" fill="#FF4500"/>
<path d="M25.6829 14.9999C25.6829 13.7828 24.6986 12.8162 23.4991 12.8162C22.9086 12.8162 22.3714 13.0487 21.9777 13.4248C20.4742 12.3507 18.4156 11.6528 16.1244 11.5633L17.1267 6.87352L20.3845 7.57152C20.4205 8.39497 21.1005 9.05727 21.942 9.05727C22.8011 9.05727 23.4991 8.35927 23.4991 7.49978C23.4991 6.64063 22.8011 5.94263 21.942 5.94263C21.3334 5.94263 20.7962 6.30064 20.5456 6.8198L16.9122 6.05006C16.8047 6.03205 16.6973 6.05006 16.6256 6.10378C16.5361 6.1575 16.4824 6.24692 16.4647 6.35435L15.3547 11.581C13.0278 11.6527 10.9334 12.3507 9.41199 13.4428C9.00224 13.0514 8.45717 12.8334 7.89054 12.8342C6.67338 12.8342 5.70679 13.8185 5.70679 15.018C5.70679 15.9128 6.24363 16.6645 6.99569 17.0049C6.95965 17.2194 6.94197 17.4343 6.94197 17.6672C6.94197 21.032 10.862 23.771 15.695 23.771C20.528 23.771 24.448 21.0501 24.448 17.6672C24.448 17.4523 24.43 17.2194 24.3943 17.0049C25.146 16.6645 25.6829 15.8948 25.6829 14.9999ZM10.6829 16.5571C10.6829 15.6979 11.3809 14.9999 12.2404 14.9999C13.0995 14.9999 13.7975 15.6979 13.7975 16.5571C13.7975 17.4163 13.0995 18.1146 12.2404 18.1146C11.3809 18.1323 10.6829 17.4163 10.6829 16.5571ZM19.4002 20.6921C18.3262 21.7661 16.2856 21.8378 15.695 21.8378C15.0864 21.8378 13.0458 21.7481 11.9895 20.6921C11.8286 20.5309 11.8286 20.2803 11.9895 20.1192C12.1506 19.9584 12.4012 19.9584 12.5623 20.1192C13.2427 20.7995 14.6747 21.032 15.695 21.032C16.7153 21.032 18.165 20.7995 18.8273 20.1192C18.9885 19.9584 19.2391 19.9584 19.4002 20.1192C19.5433 20.2803 19.5433 20.5309 19.4002 20.6921ZM19.1136 18.1323C18.2544 18.1323 17.5564 17.4343 17.5564 16.5751C17.5564 15.716 18.2544 15.018 19.1136 15.018C19.9731 15.018 20.6711 15.716 20.6711 16.5751C20.6711 17.4163 19.9731 18.1323 19.1136 18.1323Z" fill="white"/>
</svg>
