<svg width="18" height="16" viewBox="0 0 18 16" fill="none" xmlns="http://www.w3.org/2000/svg">
<path d="M12.0771 7.48146V5.26425H17.6956V2.52425H12.0771V0.307037L6.99805 3.89529L12.0771 7.48146Z" fill="#FF9100"/>
<path d="M12.3818 7.48147V5.53884V5.26626L12.0767 5.57139H13.9766H17.0034H17.695C17.8598 5.57139 18.0002 5.43103 18.0002 5.26626V2.87003V2.52626C18.0002 2.36149 17.8598 2.22113 17.695 2.22113H15.7951H12.7683H12.0767C12.1784 2.32284 12.2801 2.42455 12.3818 2.52626V0.583625V0.311049C12.3818 0.0954284 12.1174 -0.0896622 11.9221 0.0466088C11.3505 0.449366 10.7789 0.854169 10.2073 1.25693C9.29602 1.89971 8.38268 2.54454 7.47138 3.18732C7.26186 3.33581 7.05233 3.48431 6.84079 3.63282C6.64552 3.77114 6.64552 4.02133 6.84079 4.15966C7.41238 4.56242 7.98397 4.96722 8.5556 5.36998C9.4669 6.01276 10.3802 6.65759 11.2915 7.30037C11.5011 7.44886 11.7106 7.59736 11.9221 7.74587C12.0564 7.84147 12.2618 7.77028 12.3391 7.63602C12.4286 7.48346 12.3656 7.31463 12.2293 7.21902C11.6577 6.81626 11.0861 6.41146 10.5145 6.0087C9.60318 5.36592 8.68984 4.72109 7.77854 4.07831C7.56902 3.92981 7.35949 3.78132 7.14796 3.63281V4.15966C7.71954 3.7569 8.29114 3.35209 8.86276 2.94934C9.77406 2.30655 10.6874 1.66173 11.5987 1.01894C11.8082 0.87045 12.0178 0.721957 12.2293 0.573448C12.0767 0.485978 11.9242 0.398512 11.7696 0.309007V2.25164V2.52421C11.7696 2.68898 11.9099 2.82934 12.0747 2.82934H13.9746H17.0014H17.693C17.5913 2.72763 17.4896 2.62592 17.3879 2.52421V4.92045V5.26422C17.4896 5.16251 17.5913 5.0608 17.693 4.9591H15.7931H12.7663H12.0747C11.9099 4.9591 11.7696 5.09945 11.7696 5.26422V7.20685V7.47943C11.7696 7.63809 11.9099 7.79269 12.0747 7.78455C12.2435 7.77845 12.3819 7.65233 12.3819 7.48146L12.3818 7.48147Z" fill="#FF9100"/>
<path d="M5.92508 14.7983V12.5811H0.306641V9.84105H5.92508V7.62384L11.0042 11.21L5.92508 14.7983Z" fill="#FF9100"/>
<path d="M6.23058 14.7983V12.8556V12.5831C6.23058 12.4183 6.09022 12.2779 5.92546 12.2779H4.02557H0.998748H0.307127C0.408835 12.3797 0.510544 12.4814 0.612248 12.5831V10.1868V9.84306L0.307127 10.1482H2.20702H5.23384H5.92546C6.09022 10.1482 6.23058 10.0078 6.23058 9.84306V7.90043V7.62785C6.07802 7.71532 5.92546 7.80279 5.77088 7.89229C6.34246 8.29505 6.91405 8.69985 7.48568 9.10261C8.39698 9.74539 9.31033 10.3902 10.2216 11.033C10.4311 11.1815 10.6407 11.33 10.8522 11.4785V10.9517C10.2806 11.3544 9.70903 11.7592 9.1374 12.162C8.2261 12.8048 7.31276 13.4496 6.40146 14.0924C6.19194 14.2409 5.98241 14.3894 5.77088 14.5379C5.63662 14.6335 5.57356 14.8043 5.66103 14.9549C5.73833 15.0871 5.94378 15.1603 6.07804 15.0647C6.64963 14.662 7.22121 14.2572 7.79284 13.8544C8.70414 13.2116 9.61749 12.5668 10.5288 11.924C10.7383 11.7755 10.9478 11.627 11.1594 11.4785C11.3546 11.3402 11.3546 11.09 11.1594 10.9517C10.5878 10.5489 10.0162 10.1441 9.44456 9.74134C8.53326 9.09856 7.61992 8.45373 6.70862 7.81095C6.4991 7.66245 6.28957 7.51396 6.07804 7.36545C5.88479 7.22916 5.61833 7.41224 5.61833 7.62989V9.57253V9.8451L5.92345 9.53998H4.02356H0.996742H0.305122C0.140355 9.53998 0 9.68033 0 9.8451V12.2413V12.5851C0 12.7499 0.140355 12.8902 0.305122 12.8902H2.20501H5.23183H5.92345C5.82174 12.7885 5.72004 12.6868 5.61833 12.5851V14.5277V14.8003C5.61833 14.959 5.75869 15.1136 5.92345 15.1054C6.09025 15.0953 6.23061 14.9691 6.23061 14.7983L6.23058 14.7983Z" fill="#FF9100"/>
</svg>
