<svg width="36" height="36" viewBox="0 0 36 36" fill="none" xmlns="http://www.w3.org/2000/svg">
<path d="M16.4993 32.2082C17.0886 33.0183 18.2669 33.0182 18.856 32.2082C20.2186 30.4037 20.8814 28.268 20.8812 26.1322H14.4738C14.4739 28.2681 15.1367 30.4038 16.4994 32.2084L16.4993 32.2082Z" fill="black"/>
<path d="M18.7455 1.60706C18.1932 0.980959 17.162 0.981084 16.6098 1.60706C12.6694 5.91558 10.6072 11.2185 10.5338 16.5948C7.99288 18.031 5.15731 21.161 6.85128 25.0644C8.02974 24.4016 9.61311 23.7755 11.4544 23.4073C11.4912 23.5178 11.5282 23.6283 11.5649 23.7387C11.749 24.3647 12.3382 24.733 12.9273 24.733L22.428 24.733C23.0909 24.733 23.6432 24.3278 23.7904 23.7387C23.8272 23.6283 23.8642 23.5178 23.9009 23.4073C25.7421 23.7756 27.3256 24.4016 28.5041 25.0644C30.1243 21.0138 27.3625 18.031 24.8216 16.5948C24.748 11.2185 22.686 5.91552 18.7455 1.60706ZM14.6582 10.0398C14.6582 8.346 15.9839 7.02032 17.6779 7.02019C19.3717 7.02019 20.6974 8.34587 20.6975 10.0398C20.6975 11.7337 19.3718 13.0594 17.6779 13.0595C15.9838 13.0595 14.6581 11.6601 14.6582 10.0398Z" fill="black"/>
</svg>
