<svg width="19" height="18" viewBox="0 0 19 18" fill="none" xmlns="http://www.w3.org/2000/svg">
<path d="M18.1568 4.16576V4.69995L0 4.69982V4.16576C0.000776269 3.57232 0.236756 3.00331 0.656441 2.58375C1.07601 2.16405 1.64488 1.92807 2.23832 1.92731H2.95739V0.659932C2.95442 0.485922 3.02144 0.318132 3.14331 0.194064C3.26531 0.0699928 3.43194 0 3.60596 0C3.77984 0 3.94647 0.0699928 4.06849 0.194064C4.19036 0.318135 4.25737 0.485935 4.2544 0.659932V1.92744L6.6058 1.92731V0.659935C6.60282 0.485925 6.66971 0.318135 6.79171 0.194067C6.91358 0.0699958 7.08034 3.09541e-06 7.25423 3.09541e-06C7.42824 3.09541e-06 7.59487 0.0699958 7.71689 0.194067C7.83876 0.318138 7.90577 0.485938 7.90267 0.659935V1.92744L10.2542 1.92731V0.659938C10.2511 0.485928 10.3181 0.318138 10.44 0.19407C10.562 0.069999 10.7286 6.2224e-06 10.9026 6.2224e-06C11.0765 6.2224e-06 11.2433 0.069999 11.3652 0.19407C11.4872 0.318142 11.554 0.485941 11.5511 0.659938V1.92745L13.9025 1.92732V0.659941C13.8995 0.485931 13.9665 0.318141 14.0884 0.194073C14.2104 0.0700021 14.377 9.31781e-06 14.5509 9.31781e-06C14.7249 9.31781e-06 14.8915 0.0700021 15.0136 0.194073C15.1354 0.318145 15.2024 0.485944 15.1995 0.659941V1.92745H15.9185V1.92732C16.512 1.92809 17.0809 2.16407 17.5004 2.58376C17.9201 3.00333 18.1561 3.57233 18.1569 4.16578L18.1568 4.16576ZM0 15.7608C0.000517502 16.3544 0.236368 16.9235 0.656076 17.3433C1.07578 17.7631 1.64478 17.9992 2.23832 18H15.9186C16.5122 17.9992 17.0812 17.7631 17.5008 17.3433C17.9205 16.9235 18.1564 16.3544 18.1569 15.7608V5.99697H0.000132408L0 15.7608Z" fill="#FF9100"/>
</svg>
