<svg width="41" height="40" viewBox="0 0 41 40" fill="none" xmlns="http://www.w3.org/2000/svg">
<path d="M25.1338 23.2522C25.1338 22.255 25.7321 21.3833 26.4347 21.3833C27.137 21.3833 27.7356 22.2504 27.7356 23.2522C27.7356 24.2539 27.1373 25.121 26.4347 25.121C25.7321 25.121 25.1338 24.2494 25.1338 23.2522ZM14.437 18.617C15.1179 18.617 15.7379 17.7499 15.7379 16.7481C15.7379 15.7464 15.1397 14.8793 14.437 14.8793C13.7347 14.8793 13.1362 15.7464 13.1362 16.7481C13.1362 17.7499 13.7562 18.617 14.437 18.617ZM0.913344 17.9535L1.69824 17.2642C2.11835 16.8955 2.41204 16.404 2.53726 15.8592C2.66277 15.3145 2.61317 14.7441 2.39631 14.229L1.99314 13.262C1.69885 12.5585 1.72003 11.7628 2.05182 11.0765C2.38361 10.3899 2.99366 9.8784 3.72745 9.67182L4.73766 9.38993C5.26817 9.23931 5.7385 8.92747 6.08422 8.49795C6.42994 8.06843 6.63349 7.54217 6.66736 6.99204L6.72361 5.94707C6.76021 5.26745 7.05571 4.62776 7.549 4.15924C8.04261 3.69073 8.6968 3.42911 9.37732 3.4279C9.53581 3.42851 9.69399 3.44272 9.84976 3.47115L10.8817 3.65746V3.65776C11.4304 3.75546 11.9954 3.67863 12.4981 3.43849C13.0004 3.19803 13.4148 2.80605 13.6831 2.31786L14.1815 1.38113C14.5493 0.709676 15.1887 0.229378 15.9364 0.0632935C16.6838 -0.102752 17.4665 0.0614788 18.0841 0.513951L18.9512 1.12521C19.4037 1.45005 19.9466 1.62456 20.5034 1.62456C21.0603 1.62456 21.6032 1.45005 22.0557 1.12521L22.9228 0.518187H22.9231C23.5449 0.0696427 24.3301 -0.089148 25.0775 0.0826507C25.8248 0.254449 26.4621 0.740492 26.8253 1.41589L27.3241 2.33505C27.5521 2.75728 27.8903 3.10996 28.3025 3.35556C28.7145 3.60146 29.1854 3.73121 29.6654 3.73121C29.8109 3.73031 29.9558 3.7173 30.0992 3.6922L31.0921 3.52312C31.2436 3.49711 31.3976 3.48411 31.5515 3.48411C32.2348 3.48562 32.8914 3.74966 33.3857 4.22209C33.8796 4.69423 34.173 5.33815 34.2053 6.02076L34.2531 7.06574C34.2797 7.62195 34.4803 8.15578 34.8263 8.59224C35.1726 9.02869 35.6469 9.34536 36.1825 9.49808L37.1885 9.7842C37.9246 9.99048 38.5365 10.5034 38.8683 11.1922C39.2004 11.8809 39.22 12.679 38.9227 13.3832L38.515 14.3459H38.5153C38.2966 14.8598 38.2452 15.4293 38.3683 15.974C38.4911 16.5187 38.7824 17.0109 39.2004 17.381L39.9807 18.0749C40.5523 18.5803 40.8796 19.3064 40.8796 20.0693C40.8796 20.8324 40.5523 21.5585 39.9807 22.064L39.1958 22.7533H39.1961C38.7757 23.122 38.482 23.6134 38.3568 24.1582C38.2316 24.703 38.2809 25.2734 38.4977 25.7888L38.9009 26.7557L38.9012 26.7554C39.1955 27.4589 39.174 28.2547 38.8422 28.9412C38.5107 29.6278 37.9007 30.139 37.1666 30.3459L36.1564 30.6278C35.6207 30.7696 35.1425 31.0754 34.789 31.5022C34.4354 31.9289 34.2237 32.4552 34.1835 33.0081L34.1272 34.053C34.0906 34.7327 33.7951 35.3724 33.3018 35.8409C32.8082 36.3094 32.154 36.571 31.4735 36.5722C31.315 36.5716 31.1568 36.5574 31.0011 36.529L29.9645 36.3641C29.4162 36.2658 28.8506 36.342 28.3482 36.5825C27.8455 36.8229 27.4311 37.2152 27.1635 37.704L26.6693 38.6189C26.3015 39.2903 25.6621 39.7706 24.9144 39.9367C24.167 40.1028 23.3843 39.9385 22.7667 39.486L21.8996 38.8748C21.4471 38.5499 20.9042 38.3754 20.3474 38.3754C19.7905 38.3754 19.2476 38.5499 18.7951 38.8748L17.928 39.4818H17.9277C17.3065 39.9319 16.5207 40.0916 15.7727 39.9195C15.0247 39.7477 14.3878 39.2607 14.0255 38.5841L13.5267 37.665C13.2618 37.175 12.8498 36.7806 12.349 36.5371C11.8481 36.2937 11.2834 36.2135 10.7344 36.3079L9.75866 36.477C9.60713 36.503 9.45318 36.516 9.29922 36.516C8.61598 36.5145 7.95932 36.2504 7.46509 35.778C6.97119 35.3059 6.6778 34.6619 6.64543 33.9793L6.59341 32.9343C6.5668 32.3781 6.36627 31.8443 6.01996 31.4078C5.67395 30.9714 5.19968 30.6547 4.66403 30.502L3.65808 30.2159C2.9219 30.0096 2.31004 29.4966 1.97795 28.8079C1.64615 28.1192 1.62619 27.3211 1.92351 26.6169L2.33122 25.6542C2.54959 25.1403 2.60101 24.5708 2.47821 24.0261C2.35511 23.4814 2.06414 22.9892 1.64616 22.619L0.865835 21.9252H0.865532C0.305987 21.4135 -0.00886891 20.687 0.00019024 19.9287C0.0092641 19.1702 0.341356 18.4518 0.913306 17.9534L0.913344 17.9535ZM22.3719 23.2522C22.3719 25.8061 24.1842 27.8873 26.413 27.8873C28.6418 27.8873 30.4541 25.8104 30.4541 23.2522C30.4541 20.694 28.6632 18.6171 26.413 18.6171C24.1628 18.6171 22.3719 20.6983 22.3719 23.2522ZM15.2219 26.4739C14.9899 26.7945 14.9061 27.1992 14.9923 27.5854C15.0782 27.9717 15.3256 28.3028 15.6719 28.4946C16.0179 28.6864 16.4299 28.7208 16.8031 28.589C17.1763 28.4571 17.4751 28.1716 17.624 27.805L25.6285 13.5264C25.8605 13.2058 25.9443 12.8011 25.8581 12.4149C25.7722 12.0287 25.5248 11.6975 25.1785 11.5057C24.8325 11.314 24.4205 11.2795 24.0473 11.4114C23.6741 11.5432 23.3753 11.8287 23.2264 12.1953L15.2219 26.4739ZM10.3913 16.7481C10.3913 19.302 12.2036 21.3832 14.4324 21.3832C16.6612 21.3832 18.4735 19.3063 18.4735 16.7481C18.4735 14.19 16.6612 12.113 14.4324 12.113C12.2039 12.113 10.3913 14.1942 10.3913 16.7481Z" fill="#FF9100"/>
</svg>
