<svg width="38" height="50" viewBox="0 0 38 50" fill="none" xmlns="http://www.w3.org/2000/svg">
<path d="M18.8428 0C8.44457 0 0 8.44482 0 18.8428C0 29.2407 8.44483 37.6855 18.8428 37.6855C29.2407 37.6855 37.6855 29.2407 37.6855 18.8428C37.6855 8.44482 29.2407 0 18.8428 0ZM18.8428 1.44983C28.4574 1.44983 36.2361 9.2283 36.2361 18.8432C36.2361 28.458 28.4576 36.2365 18.8428 36.2365C9.22791 36.2365 1.44944 28.458 1.44944 18.8432C1.44944 9.2283 9.22791 1.44983 18.8428 1.44983ZM18.8428 17.3937C18.042 17.3937 17.3935 18.0423 17.3935 18.843C17.3935 19.6438 18.042 20.2924 18.8428 20.2924C19.6435 20.2924 20.2921 19.6438 20.2921 18.843C20.2921 18.0423 19.6435 17.3937 18.8428 17.3937ZM11.5051 41.2863C11.223 41.3135 10.9829 41.5031 10.8904 41.7711C10.7974 42.039 10.8696 42.3362 11.0749 42.5319L18.3221 49.7791C18.4586 49.9201 18.6467 50 18.8428 50C19.0389 50 19.227 49.9201 19.3635 49.7791L26.6107 42.5319C26.8892 42.2437 26.8832 41.7847 26.5966 41.5041C26.3099 41.2241 25.8509 41.2276 25.5693 41.5127L18.8427 48.2388L12.1162 41.5127C11.9599 41.3444 11.7331 41.2605 11.5051 41.2863Z" fill="white"/>
</svg>
