<svg width="15" height="14" viewBox="0 0 15 14" fill="none" xmlns="http://www.w3.org/2000/svg">
<path d="M14.207 6.05235C14.5282 5.73121 14.5443 5.20127 14.2231 4.88014C14.1106 4.76768 13.9661 4.68748 13.8056 4.65534L9.95167 4.07725L8.32975 0.528441C8.15311 0.0948472 7.65532 -0.11382 7.22173 0.0628173C7.01294 0.14313 6.85242 0.319771 6.7561 0.528441L4.98967 4.07725L1.08759 4.65534C0.637963 4.75167 0.348862 5.18525 0.445325 5.63487C0.477472 5.7955 0.557785 5.94 0.67013 6.05235L3.46424 8.95884V9.02303L2.82198 12.9251C2.72565 13.4229 3.04679 13.8886 3.52856 13.985C3.72122 14.0171 3.93001 14.001 4.10665 13.9047L7.36642 12.0419H7.4306L10.6904 13.8565C11.14 14.0813 11.6859 13.8886 11.8947 13.439C11.975 13.2624 12.0072 13.0536 11.975 12.8609L11.3328 8.95883V8.89464L14.207 6.05235Z" fill="#FF9100"/>
</svg>
