<svg width="36" height="36" viewBox="0 0 36 36" fill="none" xmlns="http://www.w3.org/2000/svg">
<path d="M18.0785 0.5C8.96853 0.5 1.50561 7.58859 0.796875 16.5963L10.0915 20.4743C10.8789 19.9303 11.8309 19.6134 12.8541 19.6134C12.9464 19.6134 13.0375 19.6159 13.1274 19.6209L17.2612 13.5742V13.4893C17.2612 9.8508 20.1947 6.88984 23.8008 6.88984C27.4069 6.88984 30.3404 9.8508 30.3404 13.4893C30.3404 17.1278 27.4069 20.09 23.8008 20.09C23.7509 20.09 23.7022 20.0888 23.6523 20.0875L17.7566 24.3312C17.7603 24.4098 17.7628 24.4884 17.7628 24.5658C17.7628 27.2984 15.5605 29.5207 12.8541 29.5207C10.4783 29.5207 8.49064 27.8087 8.04144 25.5428L1.39331 22.769C3.45213 30.1146 10.1402 35.5 18.0785 35.5C27.6564 35.5 35.42 27.664 35.42 18C35.42 8.33476 27.6564 0.5 18.0785 0.5ZM11.6642 27.0533L9.53427 26.1649C9.9111 26.9585 10.5649 27.6223 11.4321 27.9867C13.3063 28.7753 15.4674 27.8781 16.2485 25.9852C16.6266 25.0694 16.6291 24.0587 16.2548 23.1403C15.8804 22.222 15.173 21.5057 14.2658 21.1239C13.3637 20.7458 12.3979 20.7596 11.5494 21.0827L13.7505 22.0011C15.133 22.5826 15.7869 24.1847 15.2104 25.5797C14.6352 26.9747 13.0468 27.6348 11.6642 27.0533ZM28.1585 13.4894C28.1585 11.065 26.2033 9.09103 23.8013 9.09103C21.3981 9.09103 19.4428 11.065 19.4428 13.4894C19.4428 15.9139 21.3981 17.8866 23.8013 17.8866C26.2033 17.8866 28.1585 15.9139 28.1585 13.4894ZM20.5346 13.4819C20.5346 11.6577 22.0008 10.1791 23.8075 10.1791C25.6156 10.1791 27.0817 11.6577 27.0817 13.4819C27.0817 15.3062 25.6156 16.7848 23.8075 16.7848C22.0008 16.7848 20.5346 15.3062 20.5346 13.4819Z" fill="#4778C4"/>
</svg>
