<svg width="30" height="30" viewBox="0 0 30 30" fill="none" xmlns="http://www.w3.org/2000/svg">
<path d="M14.8128 0C7.00428 0 0.607487 6.07594 0 13.7968L7.96684 17.1209C8.64171 16.6545 9.45775 16.3829 10.3348 16.3829C10.4139 16.3829 10.492 16.385 10.569 16.3893L14.1123 11.2064V11.1337C14.1123 8.01497 16.6267 5.47701 19.7176 5.47701C22.8086 5.47701 25.323 8.01497 25.323 11.1337C25.323 14.2524 22.8086 16.7914 19.7176 16.7914C19.6749 16.7914 19.6332 16.7904 19.5904 16.7893L14.5369 20.4267C14.5401 20.4941 14.5422 20.5615 14.5422 20.6278C14.5422 22.9701 12.6545 24.8749 10.3348 24.8749C8.2984 24.8749 6.59465 23.4075 6.20963 21.4652L0.51123 19.0877C2.27594 25.384 8.00856 30 14.8128 30C23.0225 30 29.677 23.2834 29.677 15C29.677 6.71551 23.0225 0 14.8128 0ZM9.31487 22.76L7.4892 21.9985C7.81219 22.6787 8.37262 23.2477 9.11594 23.56C10.7224 24.2359 12.5748 23.467 13.2443 21.8445C13.5683 21.0595 13.5705 20.1932 13.2496 19.406C12.9288 18.6188 12.3224 18.0049 11.5448 17.6776C10.7716 17.3536 9.94374 17.3653 9.21647 17.6424L11.1031 18.4295C12.2881 18.9279 12.8486 20.3012 12.3544 21.4969C11.8614 22.6926 10.4999 23.2584 9.31487 22.76ZM23.4528 11.1338C23.4528 9.05572 21.7769 7.36374 19.7181 7.36374C17.6582 7.36374 15.9822 9.05572 15.9822 11.1338C15.9822 13.2119 17.6582 14.9028 19.7181 14.9028C21.7769 14.9028 23.4528 13.2119 23.4528 11.1338ZM16.9181 11.1274C16.9181 9.56374 18.1748 8.29636 19.7234 8.29636C21.2732 8.29636 22.5298 9.56374 22.5298 11.1274C22.5298 12.691 21.2732 13.9584 19.7234 13.9584C18.1748 13.9584 16.9181 12.691 16.9181 11.1274Z" fill="#673AB7"/>
</svg>
