<svg width="14" height="14" viewBox="0 0 14 14" fill="none" xmlns="http://www.w3.org/2000/svg">
<g clip-path="url(#clip0_13_229)">
<path d="M4.53906 9.05089H11.9493C12.1328 9.05089 12.2938 8.92955 12.3435 8.75331L13.9842 3.01102C14.0194 2.88722 13.9953 2.75424 13.9177 2.65138C13.8399 2.54884 13.719 2.48828 13.59 2.48828H3.59218L3.29898 1.16895C3.25732 0.981064 3.0907 0.847656 2.89844 0.847656H0.410156C0.183502 0.847656 0 1.03116 0 1.25781C0 1.48457 0.183502 1.66797 0.410156 1.66797H2.56924L4.0504 8.33301C3.61461 8.52249 3.30859 8.95625 3.30859 9.46104C3.30859 10.1395 3.8606 10.6915 4.53906 10.6915H11.9493C12.1761 10.6915 12.3595 10.5081 12.3595 10.2814C12.3595 10.0547 12.1761 9.8712 11.9493 9.8712H4.53906C4.31316 9.8712 4.12891 9.68738 4.12891 9.46104C4.12891 9.23471 4.31316 9.05089 4.53906 9.05089Z" fill="#ACB3B9"/>
<path d="M4.12891 11.922C4.12891 12.6006 4.68091 13.1525 5.35948 13.1525C6.03795 13.1525 6.58995 12.6006 6.58995 11.922C6.58995 11.2435 6.03795 10.6915 5.35948 10.6915C4.68091 10.6915 4.12891 11.2435 4.12891 11.922Z" fill="#ACB3B9"/>
<path d="M9.89856 11.922C9.89856 12.6006 10.4506 13.1525 11.129 13.1525C11.8076 13.1525 12.3595 12.6006 12.3595 11.922C12.3595 11.2435 11.8076 10.6915 11.129 10.6915C10.4506 10.6915 9.89856 11.2435 9.89856 11.922Z" fill="#ACB3B9"/>
</g>
<defs>
<clipPath id="clip0_13_229">
<rect width="14" height="14" fill="white"/>
</clipPath>
</defs>
</svg>
