<svg width="81" height="30" viewBox="0 0 81 30" fill="none" xmlns="http://www.w3.org/2000/svg">
<path d="M0.686035 10.5645V14.8955L12.3696 13.6103V8.92263L0.686035 10.5645ZM4.41447 15.1589V30H8.69196V14.7218L4.41447 15.1589ZM13.9476 8.70094V30H18.4548V8.06723L13.9476 8.70094ZM19.2945 7.94911V12.8488L25.803 12.1327V7.03465L19.2945 7.94911ZM19.2945 16.4955V21.4845L23.5669 21.2515V16.1278L19.2945 16.4955ZM19.2945 25.0805V30H25.803V24.8842L19.2945 25.0805ZM42.6348 4.66153V30H48.5435V3.83104L42.6348 4.66153ZM49.6469 3.67578V9.50421L58.2577 8.55745V2.46534L49.6469 3.67578ZM49.6469 13.8876V19.824L55.2907 19.5158V13.4043L49.6469 13.8876ZM49.6469 24.163V30H58.2577V23.9031L49.6469 24.163ZM27.5252 6.7922V30H32.6594V6.07036L27.5252 6.7922ZM33.6177 24.6484V29.9998H41.0704V24.4235L33.6177 24.6484ZM77.5626 2.17882C75.6952 0.414495 72.9571 -0.309184 69.9623 0.121056V6.5855C71.175 6.51813 72.1578 6.96821 72.5956 7.87437C73.287 9.30304 72.5737 11.4466 70.891 13.4327C68.2939 16.4974 61.3877 22.7704 61.3877 22.7704L71.3019 22.4444C77.3596 16.5262 79.535 12.9339 79.9254 8.45041C80.1305 6.07843 79.2695 3.79297 77.5626 2.17882ZM80.2746 30V23.2359L60.1657 23.8417M60.1657 23.8415L60.1678 29.9998H80.2746M68.8063 0.266161C62.9645 1.51028 60.0958 5.80806 60.4269 12.8209L66.6555 12.2681C66.3718 8.30622 67.5836 7.36639 68.8093 6.84964L68.8063 0.266161Z" fill="white"/>
</svg>
