<svg width="30" height="30" viewBox="0 0 30 30" fill="none" xmlns="http://www.w3.org/2000/svg">
<path fill-rule="evenodd" clip-rule="evenodd" d="M16.4062 1.875H20.1562C20.1778 1.875 20.1994 1.87641 20.22 1.87922C20.4469 1.89797 20.6297 2.07938 20.6466 2.31C20.8969 4.91344 23.3053 8.08266 25.8286 8.40469C26.0677 8.42906 26.25 8.63063 26.25 8.8711C26.25 9.7486 26.25 11.7291 26.2481 12.6445C26.2481 12.772 26.1956 12.8944 26.1033 12.982C26.0109 13.0702 25.8867 13.1166 25.7592 13.1109C23.8805 13.0013 22.1208 12.27 20.625 11.1333V19.2188C20.625 23.617 17.0545 27.1875 12.6562 27.1875C8.25797 27.1875 4.6875 23.617 4.6875 19.2188C4.6875 14.8205 8.25797 11.25 12.6562 11.25C12.915 11.25 13.125 11.46 13.125 11.7188C13.125 12.6033 13.125 14.5481 13.125 15.4688C13.1245 15.7275 12.915 15.937 12.6562 15.937C12.6562 15.9375 12.6562 15.9375 12.6562 15.9375C10.8455 15.9375 9.375 17.408 9.375 19.2188C9.375 21.0295 10.8455 22.5 12.6562 22.5C14.467 22.5 15.9375 21.0295 15.9375 19.2188C15.9375 19.2188 15.9375 5.11359 15.9375 2.34375C15.9375 2.085 16.1475 1.875 16.4062 1.875Z" fill="#AAE1F9"/>
<path fill-rule="evenodd" clip-rule="evenodd" d="M17.3438 2.8125H21.0938C21.1153 2.8125 21.1369 2.81391 21.1575 2.81672C21.3844 2.83547 21.5672 3.01688 21.5841 3.2475C21.8344 5.85094 24.2428 9.02016 26.7661 9.34219C27.0052 9.36656 27.1875 9.56813 27.1875 9.8086C27.1875 10.6861 27.1875 12.6666 27.1856 13.582C27.1856 13.7095 27.1331 13.8319 27.0408 13.9195C26.9484 14.0077 26.8242 14.0541 26.6967 14.0484C24.818 13.9388 23.0583 13.2075 21.5625 12.0708V20.1562C21.5625 24.5545 17.992 28.125 13.5938 28.125C9.19547 28.125 5.625 24.5545 5.625 20.1562C5.625 15.758 9.19547 12.1875 13.5938 12.1875C13.8525 12.1875 14.0625 12.3975 14.0625 12.6562C14.0625 13.5408 14.0625 15.4856 14.0625 16.4062C14.062 16.665 13.8525 16.8745 13.5938 16.8745C13.5938 16.875 13.5938 16.875 13.5938 16.875C11.783 16.875 10.3125 18.3455 10.3125 20.1562C10.3125 21.967 11.783 23.4375 13.5938 23.4375C15.4045 23.4375 16.875 21.967 16.875 20.1562C16.875 20.1562 16.875 6.05109 16.875 3.28125C16.875 3.0225 17.085 2.8125 17.3438 2.8125Z" fill="#DD636E"/>
<path fill-rule="evenodd" clip-rule="evenodd" d="M20.7197 2.8125C21.03 4.41094 22.0716 6.13547 23.4019 7.24594C24.2077 8.19984 25.2066 8.94656 26.25 9.23719C26.25 10.2155 26.2495 11.8406 26.2481 12.6445C26.2481 12.772 26.1956 12.8944 26.1033 12.982C26.0109 13.0702 25.8867 13.1166 25.7592 13.1109C23.8805 13.0013 22.1208 12.27 20.625 11.1333V19.2188C20.625 23.617 17.0545 27.1875 12.6562 27.1875C10.6955 27.1875 8.89922 26.4778 7.51078 25.3017C6.33469 23.9133 5.625 22.117 5.625 20.1562C5.625 15.9155 8.94469 12.4444 13.125 12.2011V15.4688C13.1245 15.7275 12.915 15.937 12.6562 15.937C12.6562 15.9375 12.6562 15.9375 12.6562 15.9375C10.8455 15.9375 9.375 17.408 9.375 19.2188C9.375 20.3639 9.96281 21.3727 10.853 21.9595C11.4398 22.8497 12.4486 23.4375 13.5938 23.4375C15.4045 23.4375 16.875 21.967 16.875 20.1562C16.875 20.1562 16.875 6.05109 16.875 3.28125C16.875 3.0225 17.085 2.8125 17.3438 2.8125H20.7197Z" fill="#F9F6F9"/>
</svg>
