<svg width="28" height="28" viewBox="0 0 28 28" fill="none" xmlns="http://www.w3.org/2000/svg">
<path d="M23.8996 4.10036C22.6143 2.81507 21.117 1.80547 19.4499 1.10051C17.7231 0.370308 15.8897 0 14 0C12.1103 0 10.2769 0.37029 8.55009 1.10051C6.88297 1.80547 5.38566 2.81507 4.10036 4.10036C2.81507 5.38566 1.80547 6.88297 1.10051 8.55009C0.370308 10.2769 0 12.1103 0 14C0 15.8897 0.370289 17.7231 1.10051 19.4499C1.80547 21.117 2.81507 22.6143 4.10036 23.8996C5.38566 25.1849 6.88297 26.1945 8.55009 26.8995C10.2767 27.6297 12.1103 28 14 28C15.8897 28 17.7231 27.6297 19.4499 26.8995C21.117 26.1945 22.6143 25.1849 23.8996 23.8996C25.1849 22.6143 26.1945 21.117 26.8995 19.4499C27.6297 17.7233 28 15.8897 28 14C28 12.1103 27.6297 10.2769 26.8995 8.55009C26.1945 6.88322 25.1849 5.38591 23.8996 4.10036ZM19.7333 14.5776L11.6404 19.4391C11.5323 19.504 11.413 19.5365 11.2934 19.5365C11.1798 19.5365 11.066 19.5072 10.9616 19.448C10.7475 19.3269 10.6197 19.1078 10.6197 18.8619V9.1385C10.6197 8.8926 10.7475 8.67341 10.9616 8.55239C11.1755 8.43112 11.4296 8.43449 11.6404 8.56105L19.7339 13.4227C19.9387 13.5454 20.0607 13.7613 20.0607 14.0002C20.0604 14.2391 19.9387 14.4549 19.7337 14.5779L19.7333 14.5776Z" fill="white"/>
</svg>
