<svg width="93" height="30" viewBox="0 0 93 30" fill="none" xmlns="http://www.w3.org/2000/svg">
<g clip-path="url(#clip0_34_1993)">
<path d="M40.1682 29.5674H32.6592L37.3559 0.526611H44.8645L40.1682 29.5674Z" fill="#00579F"/>
<path d="M67.3892 1.23638C65.9081 0.648783 63.5589 0 60.6542 0C53.2388 0 48.0169 3.95429 47.9849 9.60772C47.9233 13.7788 51.7236 16.0955 54.5659 17.4863C57.471 18.9075 58.4586 19.8351 58.4586 21.1018C58.429 23.0474 56.1111 23.9442 53.9491 23.9442C50.9512 23.9442 49.3448 23.4818 46.9037 22.3994L45.9149 21.9354L44.8641 28.4544C46.6253 29.2568 49.87 29.9688 53.2388 30C61.1178 30 66.2473 26.1069 66.308 20.0823C66.338 16.7764 64.3313 14.2432 60.005 12.1733C57.3786 10.8445 55.7702 9.94854 55.7702 8.58897C55.801 7.353 57.1306 6.08705 60.0953 6.08705C62.5365 6.02505 64.3301 6.61183 65.6888 7.19902L66.368 7.50739L67.3892 1.23638Z" fill="#00579F"/>
<path d="M77.3693 19.2793C77.9877 17.6109 80.3672 11.1539 80.3672 11.1539C80.336 11.2159 80.9844 9.45475 81.3552 8.37359L81.88 10.8759C81.88 10.8759 83.302 17.8273 83.6107 19.2793C82.4372 19.2793 78.8525 19.2793 77.3693 19.2793ZM86.6383 0.526611H80.83C79.0389 0.526611 77.6781 1.05139 76.9053 2.93614L65.7516 29.567H73.6306C73.6306 29.567 74.9277 25.9827 75.2066 25.2107C76.0709 25.2107 83.7356 25.2107 84.8475 25.2107C85.0631 26.2303 85.7435 29.567 85.7435 29.567H92.6962L86.6383 0.526611Z" fill="#00579F"/>
<path d="M26.3874 0.526611L19.0336 20.3297L18.23 16.3134C16.8704 11.6791 12.6065 6.64405 7.84827 4.14049L14.5841 29.5366H22.5247L34.3276 0.526611H26.3874Z" fill="#00579F"/>
<path d="M12.2049 0.526611H0.123597L0 1.11339C9.42417 3.52333 15.6656 9.33239 18.23 16.3146L15.6036 2.96776C15.1712 1.11298 13.8425 0.587794 12.2049 0.526611Z" fill="#FAA61A"/>
</g>
<defs>
<clipPath id="clip0_34_1993">
<rect width="92.6961" height="30" fill="white"/>
</clipPath>
</defs>
</svg>
