<svg width="21" height="12" viewBox="0 0 21 12" fill="none" xmlns="http://www.w3.org/2000/svg">
<path fill-rule="evenodd" clip-rule="evenodd" d="M10.4334 11.579H11.6108C11.6108 11.579 11.9664 11.5399 12.1479 11.3442C12.3151 11.1645 12.3097 10.8271 12.3097 10.8271C12.3097 10.8271 12.2867 9.24733 13.0199 9.0147C13.7426 8.78555 14.6708 10.5415 15.6545 11.2167C16.3984 11.7276 16.9636 11.6156 16.9636 11.6156L19.5939 11.579C19.5939 11.579 20.9699 11.4942 20.3175 10.4123C20.264 10.3238 19.9375 9.61205 18.3618 8.14943C16.7125 6.61863 16.9334 6.86623 18.9201 4.21827C20.13 2.60565 20.6137 1.62112 20.4627 1.19945C20.3186 0.797831 19.4287 0.903985 19.4287 0.903985L16.4671 0.922435C16.4671 0.922435 16.2476 0.892487 16.0847 0.989816C15.9256 1.08527 15.8232 1.30774 15.8232 1.30774C15.8232 1.30774 15.3545 2.55565 14.7293 3.61692C13.4106 5.8563 12.8833 5.97449 12.6677 5.83544C12.1664 5.51137 12.2915 4.53353 12.2915 3.83885C12.2915 1.66872 12.6207 0.763873 11.6506 0.52964C11.3287 0.45183 11.0918 0.400491 10.2685 0.392202C9.21174 0.381239 8.31732 0.395411 7.81089 0.643548C7.47398 0.808527 7.21407 1.17619 7.37237 1.19731C7.5681 1.22351 8.01143 1.31683 8.24646 1.6369C8.54995 2.04975 8.53925 2.97705 8.53925 2.97705C8.53925 2.97705 8.71359 5.53169 8.13202 5.84908C7.73281 6.06674 7.18519 5.62233 6.00948 3.59071C5.40706 2.55003 4.95223 1.39972 4.95223 1.39972C4.95223 1.39972 4.86453 1.18474 4.7081 1.06977C4.51826 0.930456 4.25301 0.88607 4.25301 0.88607L1.43873 0.904519C1.43873 0.904519 1.01626 0.916285 0.861174 1.09998C0.723201 1.26336 0.85021 1.60134 0.85021 1.60134C0.85021 1.60134 3.0535 6.75606 5.54824 9.35375C7.83575 11.7354 10.4334 11.579 10.4334 11.579Z" fill="white"/>
</svg>
