<svg width="42" height="40" viewBox="0 0 42 40" fill="none" xmlns="http://www.w3.org/2000/svg">
<path d="M21.1366 0C24.3055 0 27.3205 0.72601 30.0259 2.02471C30.4503 2.21614 30.8773 2.44524 31.3002 2.67455L29.4451 4.3178L26.6641 1.45222L21.872 5.65458L19.05 2.63588L10.2381 10.4685L15.8798 16.6198L13.6773 18.5296L19.2434 24.6809L17.0408 26.59L25.0027 35.3394L29.7151 31.0601L33.8137 35.6461C33.0014 36.2575 32.1125 36.87 31.1475 37.404C28.2097 39.0466 24.8081 40 21.1757 40C10.0054 40 0.924444 31.0234 0.924444 19.9828C0.884997 9.01686 9.96752 0 21.1366 0ZM17.4258 18.7593L22.257 14.48L26.5865 19.2556L21.7543 23.5346L17.4258 18.7593ZM20.8665 27.0121L25.6583 22.6949L30.0259 27.4701L25.1946 31.7497L20.8665 27.0121ZM13.9882 10.6218L18.8179 6.34251L23.1465 11.1181L18.3151 15.3973L13.9882 10.6218ZM22.8368 8.32873L26.4314 5.11959L29.6786 8.6729L26.084 11.9199L22.8368 8.32873ZM29.2531 23.0381L32.8465 19.8287L36.0935 23.4191L32.4988 26.6304L29.2531 23.0381ZM32.4218 30.2597L36.0166 27.0498L39.261 30.6029L35.6677 33.8495L32.4218 30.2597ZM33.8907 13.754L36.2865 11.6142L38.4501 13.9839L36.0546 16.1229L33.8907 13.754ZM30.7988 6.68587L33.1948 4.50861L35.36 6.91518L32.9622 9.05474L30.7988 6.68587ZM36.9435 20.8227L39.3394 18.6832L41.5422 21.052L39.1083 23.191L36.9435 20.8227ZM26.161 15.5119L29.7558 12.3026L33.0014 15.8551L29.4082 19.065L26.161 15.5119Z" fill="#036CB5"/>
</svg>
