<svg width="16" height="18" viewBox="0 0 16 18" fill="none" xmlns="http://www.w3.org/2000/svg">
<path d="M8 7.41396C10.414 9.24937 14.5037 13.7581 13.2668 15.0349C11.8504 16.2718 10.015 17.01 8 17.01C5.98504 17.01 4.12968 16.2718 2.73317 15.0349C1.47631 13.7581 5.58603 9.24937 7.98005 7.43391C7.98005 7.41396 8 7.41396 8 7.41396ZM12.1696 2.16708C10.9526 1.42892 9.61596 0.990021 8 0.990021C6.38404 0.990021 5.04738 1.42892 3.83042 2.16708C3.81047 2.16708 3.81047 2.18703 3.81047 2.20698C3.81047 2.22693 3.83042 2.22693 3.85037 2.22693C5.40648 1.88778 7.7606 3.22443 7.98005 3.36409H8.01995C8.2394 3.22443 10.5935 1.88778 12.1496 2.22693C12.1696 2.22693 12.1895 2.22693 12.1895 2.20698C12.1895 2.18703 12.1895 2.16708 12.1696 2.16708ZM2.39401 3.28428C2.37406 3.28428 2.37407 3.30424 2.35412 3.30424C0.897756 4.76059 0 6.77556 0 8.99002C0 10.8055 0.618454 12.5012 1.63591 13.8379C1.63591 13.8579 1.65586 13.8579 1.67581 13.8579C1.69576 13.8579 1.69576 13.8379 1.67581 13.818C1.05736 11.9227 4.18953 7.35411 5.80549 5.4389L5.82544 5.41895C5.82544 5.399 5.82544 5.399 5.80549 5.399C3.35162 2.96508 2.53367 3.22443 2.39401 3.28428ZM10.1945 5.37905L10.1746 5.399C10.1746 5.399 10.1746 5.41895 10.1945 5.41895C11.8105 7.33416 14.9227 11.9027 14.3242 13.798V13.8379C14.3441 13.8379 14.3641 13.8379 14.3641 13.818C15.3815 12.4813 16 10.7855 16 8.97007C16 6.75561 15.1022 4.74064 13.6259 3.28428C13.606 3.26433 13.606 3.26433 13.586 3.26433C13.4663 3.22443 12.6484 2.96508 10.1945 5.37905Z" fill="#7EB901"/>
</svg>
