<svg width="30" height="30" viewBox="0 0 30 30" fill="none" xmlns="http://www.w3.org/2000/svg">
<g clip-path="url(#clip0_34_1880)">
<path d="M15 30.0001C23.2843 30.0001 30.0001 23.2843 30.0001 15C30.0001 6.71574 23.2843 0 15 0C6.71574 0 0 6.71574 0 15C0 23.2843 6.71574 30.0001 15 30.0001Z" fill="#FF0127"/>
<path d="M25.6061 4.39185C31.464 10.2502 31.4645 19.7481 25.6061 25.6065C19.7482 31.4643 10.2499 31.4646 4.39151 25.6065L25.6061 4.39185Z" fill="#FF0127"/>
<path d="M29.6985 18.0043L22.2745 10.5806L13.5187 11.5775L8.22241 19.7769L18.1189 29.6732C23.9375 28.4423 28.5119 23.8397 29.6985 18.0043Z" fill="#FF0127"/>
<path d="M22.8496 12.1055C22.8496 10.8481 21.8309 9.82886 20.5741 9.82886H9.8984C8.64188 9.82886 7.62338 10.8483 7.62338 12.1055V18.2105C7.62338 19.4679 8.64207 20.4871 9.8984 20.4871H20.5739C21.831 20.4871 22.8494 19.4677 22.8494 18.2105V12.1055H22.8496ZM13.7134 17.7334V11.9994L18.0618 14.8666L13.7134 17.7334Z" fill="white"/>
</g>
<defs>
<clipPath id="clip0_34_1880">
<rect width="30" height="30" fill="white"/>
</clipPath>
</defs>
</svg>
