<svg width="20" height="16" viewBox="0 0 20 16" fill="none" xmlns="http://www.w3.org/2000/svg">
<g clip-path="url(#clip0_201_7039)">
<path fill-rule="evenodd" clip-rule="evenodd" d="M-2.5 0.5H20V15.5H-2.5V0.5Z" fill="#198A00"/>
<path fill-rule="evenodd" clip-rule="evenodd" d="M17.3594 5.89062H19.999V15.5H17.3594V5.89062Z" fill="#EF7D00"/>
<path fill-rule="evenodd" clip-rule="evenodd" d="M14.7227 5.88477H17.3594V15.4941H14.7227V5.88477Z" fill="black"/>
<path fill-rule="evenodd" clip-rule="evenodd" d="M12.0303 5.89062H14.7227V15.5H12.0273L12.0303 5.89062Z" fill="#DE2010"/>
<path fill-rule="evenodd" clip-rule="evenodd" d="M18.2274 2.42188C18.2274 2.42188 19.2235 1.99707 19.3173 1.90918C19.3612 1.96191 18.9188 2.49512 18.0604 2.69141C18.8397 2.50977 19.5048 1.92969 19.6425 1.94727C19.6805 1.95605 19.6718 2.5127 17.8846 2.99609C19.121 2.67383 19.8387 2.07617 19.83 2.14063C19.8387 2.15527 19.7069 2.60938 18.6259 2.96387C18.9276 2.89355 19.7479 2.39551 19.7391 2.49219C19.7655 2.53027 18.9481 3.58203 17.4657 3.23926C18.6493 3.54688 19.4139 2.80566 19.5223 2.82031C19.5458 2.82324 19.3055 3.46484 17.8173 3.50586C18.5292 3.43262 18.3241 3.50293 18.3241 3.50293C18.3241 3.50293 17.9052 3.83105 17.3954 3.6084C17.7938 3.7168 17.8378 3.72266 17.8466 3.75488C17.8202 3.80176 17.495 3.86621 17.1757 3.69629C17.4305 3.80176 17.6591 3.81934 17.662 3.85742C17.6591 3.86914 17.4979 3.96289 17.3514 3.89551C17.2079 3.83105 15.8778 3.01367 15.8778 3.01367L18.1454 2.38965L18.2274 2.41895V2.42188ZM15.5614 4.63672C15.3622 4.63672 15.3563 4.8125 15.3563 4.8125C15.3563 4.8125 15.3417 4.82715 15.3505 4.91211L15.4003 4.83594C15.4237 4.83887 15.5145 4.86523 15.6581 4.75391C15.5262 4.8916 15.6053 4.94141 15.6053 4.94141C15.6053 4.94141 15.5761 5.0498 15.6757 5.07031C15.6464 5.02637 15.6639 4.98828 15.6639 4.98828C15.6639 4.98828 15.8046 4.97363 15.7958 4.80371C15.7987 4.95898 15.8837 4.99707 15.8837 4.99707C15.8837 4.99707 15.8837 5.08203 15.9745 5.09082C15.9276 5.04688 15.9364 4.97949 15.9364 4.97949C15.9364 4.97949 16.0536 4.8916 15.9569 4.74512C16.0155 4.70996 16.0653 4.61328 16.0653 4.61328C16.0653 4.61328 15.9833 4.57812 15.9452 4.54883C15.9276 4.51074 15.9452 4.2998 15.9452 4.2998L15.8925 4.02734L15.7518 4.45215C15.7577 4.39355 15.7606 4.63672 15.5614 4.63672Z" fill="#EF7D00" stroke="black" stroke-width="0.9375" stroke-linejoin="round"/>
<path fill-rule="evenodd" clip-rule="evenodd" d="M16.5488 4.02441C16.5547 4.02734 16.6982 4.18848 16.8389 4.17969C16.8916 4.13574 16.7305 4.04199 16.7305 4.01855C16.7891 4.07129 17.0264 4.27637 17.1816 4.20313C17.2402 4.11523 17.0703 4.12988 16.8828 3.89258C17.0146 3.98047 17.3428 4.1709 17.498 4.09766C17.5596 4.02734 17.1553 3.80762 17.0176 3.6377L16.666 3.45898L16.1914 3.84863L16.5518 4.02441H16.5488Z" fill="#EF7D00" stroke="black" stroke-width="0.9375" stroke-linejoin="round"/>
<path fill-rule="evenodd" clip-rule="evenodd" d="M16.0117 2.69141C16.0117 2.69141 16.1729 2.59766 16.8203 2.64454C16.8906 2.65332 17.2598 2.51856 17.3799 2.47754C17.5674 2.44239 18.1709 2.31348 18.3291 2.19043C18.4463 2.17579 18.2998 2.39844 18.1533 2.45411C18.001 2.52149 17.4473 2.71485 17.248 2.68848C17.4854 2.69141 17.3535 2.88477 16.9609 2.79395C17.1484 2.89942 17.0781 2.917 17.0781 2.917C17.0781 2.917 16.7471 2.93457 16.6592 2.8584C16.8818 2.94336 16.7881 2.97559 16.7881 2.97559C16.7881 2.97559 16.5625 2.9961 16.457 2.94629C16.6182 2.9961 16.5361 3.02539 16.5361 3.02539C16.5361 3.02539 16.4043 3.04883 16.2959 3.00782C16.1846 2.96973 16.0205 2.69434 16.0117 2.69434V2.69141Z" fill="#EF7D00" stroke="black" stroke-width="0.9375" stroke-linecap="round" stroke-linejoin="round"/>
<path fill-rule="evenodd" clip-rule="evenodd" d="M16.2671 4.11523L16.2905 4.54297L16.2671 4.57812C16.2583 4.58984 15.9653 4.53125 16.0034 4.75391C16.0034 4.84766 16.0034 4.87109 16.0679 4.9209C16.0532 4.8623 16.0561 4.81836 16.0561 4.81836C16.0561 4.81836 16.1411 4.86816 16.2202 4.73047C16.1645 4.86523 16.2026 4.91504 16.2173 4.91797C16.229 4.94141 16.1938 5.0498 16.3052 5.04687C16.2612 5.00586 16.2817 4.94727 16.2817 4.94727C16.2817 4.94727 16.3989 4.92969 16.3579 4.72168C16.3989 4.68066 16.4165 4.72168 16.4165 4.72168C16.4165 4.72168 16.4282 4.84473 16.5308 4.81836C16.5747 4.84473 16.522 4.91211 16.522 4.91211C16.522 4.91211 16.5952 4.91211 16.6186 4.85352C16.6392 4.78906 16.6655 4.67773 16.5454 4.63086C16.5308 4.58691 16.5923 4.58398 16.5923 4.58398C16.5923 4.58398 16.6685 4.61035 16.6919 4.64844C16.7153 4.68652 16.7065 4.54883 16.6099 4.53125C16.4927 4.53125 16.4868 4.50488 16.4868 4.50195L16.4575 4.10059L16.2671 4.11523Z" fill="#EF7D00" stroke="black" stroke-width="0.9375" stroke-linejoin="round"/>
<path fill-rule="evenodd" clip-rule="evenodd" d="M16.6761 4.47852C16.6761 4.45802 16.4769 4.18848 16.5296 4.15626C16.5794 4.16505 16.6614 4.28809 16.7317 4.24708C16.7112 4.2002 16.6497 4.22657 16.5823 4.10352C16.512 3.9629 16.5032 3.75489 16.2601 3.5293C16.4183 3.76954 16.7698 3.91016 16.7874 3.83985C16.805 3.76954 16.4739 3.50587 16.4915 3.44141C16.556 3.57032 16.8841 3.86329 17.1243 3.83985C17.1419 3.78126 16.928 3.66993 16.8724 3.56446C16.7171 3.45899 16.304 3.1045 16.2981 3.02247C16.2255 2.8989 16.1264 2.79287 16.0081 2.71192C15.9972 2.69695 15.9893 2.68005 15.9847 2.66212C15.8909 2.44239 16.014 2.36915 16.0872 2.36036C16.1458 2.35157 16.1634 2.36036 16.2044 2.33985L16.055 2.28126C16.1224 2.33106 16.2894 2.28712 16.2542 2.42774C16.3274 2.39844 16.4856 2.21094 16.0755 2.16993C15.9407 2.01759 15.3929 1.92969 15.2552 2.59766C15.2669 2.60645 15.2728 2.61524 15.3079 2.63868C15.1321 2.55665 14.6663 2.49219 14.4993 2.4629C14.0423 2.33399 13.5706 2.01759 13.5267 2.05567C13.4681 2.08497 13.8021 2.39552 13.7845 2.40137C13.5239 2.253 13.2549 2.11996 12.9788 2.00294C12.803 1.93848 12.6302 1.78614 12.6126 1.81544C12.5481 1.94727 12.8909 2.28126 12.9554 2.31934C13.0198 2.35743 13.5208 2.5918 13.512 2.59473C12.7562 2.25196 12.6331 2.18751 12.5921 2.14942C12.5247 2.13477 12.3636 1.91505 12.3196 1.92969C12.2933 1.95313 12.3431 2.29884 12.7034 2.45704C12.762 2.49805 13.4769 2.75294 13.471 2.77344C13.471 2.7793 12.6507 2.43653 12.6214 2.42188C12.4632 2.36329 12.2698 2.14649 12.2347 2.16993C12.1995 2.19337 12.3226 2.42774 12.4808 2.50098C12.5657 2.53614 12.8851 2.69434 13.1722 2.79395C13.1897 2.80274 12.6536 2.5918 12.3958 2.48634C12.2786 2.42188 12.2259 2.33985 12.2083 2.35743C12.179 2.37501 12.2493 2.72071 13.0784 2.91407C13.0989 2.92579 13.3714 2.85255 13.3567 2.86134C13.2046 2.89958 13.0499 2.927 12.8938 2.94337C12.8851 2.9668 12.9466 3.08985 13.3743 3.06641C13.4271 3.06348 13.7259 2.95801 13.6995 2.97852C13.5572 3.03283 13.4125 3.08073 13.2659 3.12208C13.2396 3.12208 13.1019 3.13966 13.096 3.15137C13.0901 3.17481 13.1985 3.2627 13.4271 3.27442C13.6321 3.28614 14.0188 3.15137 14.013 3.16016C14.0013 3.16895 13.638 3.29493 13.6292 3.30079C13.6146 3.30958 13.4827 3.31544 13.4769 3.32716C13.4651 3.35352 13.6702 3.54395 14.2708 3.33887C14.2122 3.42091 13.9192 3.47657 13.9192 3.49122C13.9192 3.50294 13.9837 3.56446 14.0862 3.5879C14.136 3.59962 14.2063 3.59669 14.2708 3.5879C14.388 3.56446 14.5052 3.52051 14.6604 3.37696C14.678 3.42091 14.2767 3.62598 14.2942 3.64356C14.3821 3.72559 14.6722 3.63477 14.6897 3.62305C14.7103 3.61426 15.2464 3.30958 15.2464 3.27149C15.2552 3.31837 14.5521 3.70216 14.5608 3.7168C14.6048 3.78712 14.845 3.71387 14.8538 3.70509L15.1702 3.53516C15.179 3.53223 14.8245 3.74024 14.8538 3.7754C14.8392 3.91309 15.4104 3.68165 15.4544 3.65235C15.4749 3.6377 15.179 3.78126 15.179 3.84864C15.2757 4.00977 15.5804 3.95997 15.6272 3.92481C15.6507 3.90723 15.5979 4.042 15.6155 4.03028C15.6516 3.99341 15.6812 3.95084 15.7034 3.9043C15.6976 3.95118 15.6624 4.02149 15.6448 4.10352C15.6243 4.18262 15.6185 4.27637 15.5921 4.37305C15.5862 4.41407 15.7796 4.28809 15.7503 3.98634C15.7679 4.14454 15.6917 4.43751 15.7122 4.45509C15.7503 4.48438 15.8646 4.3086 15.8763 4.18848C15.9085 4.24708 15.9788 4.37305 16.0403 4.40235C16.0345 4.31153 16.0403 4.31446 16.011 4.22657C16.0286 4.10645 16.0315 3.94239 16.0345 3.75489C16.1985 4.06837 16.2659 4.20313 16.219 4.44337C16.2688 4.46387 16.345 4.27344 16.3392 4.17969C16.3575 4.25825 16.3997 4.32919 16.4601 4.38271C16.5204 4.43624 16.5959 4.46971 16.6761 4.47852Z" fill="#EF7D00" stroke="black" stroke-width="1.03125" stroke-linecap="round" stroke-linejoin="round"/>
<path fill-rule="evenodd" clip-rule="evenodd" d="M13.9473 2.4834C13.9473 2.4834 13.833 2.56836 13.6953 2.5625C13.7305 2.70313 14.0176 2.59473 14.0176 2.59473C14.0176 2.59473 13.8799 2.75 13.7803 2.77344C13.8389 2.82324 14.0908 2.80566 14.1318 2.78223C14.1729 2.75586 14.249 2.65918 14.249 2.65918C14.249 2.65918 13.9912 2.95801 13.9561 2.95508C13.9473 2.99023 14.2227 2.97852 14.2783 2.92578C14.3369 2.87305 14.4834 2.79688 14.4834 2.79688C14.4834 2.79688 14.1025 3.06055 14.0879 3.06055C14.2285 3.0957 14.5127 3.01367 14.6943 2.90234C14.4248 3.08105 14.4014 3.11328 14.2637 3.1748C14.3867 3.20117 14.4482 3.2832 14.8584 3.10449C15.0928 2.99316 15.2275 2.78809 15.2275 2.78809C15.0487 2.99912 14.8346 3.17754 14.5947 3.31543C14.5801 3.34473 14.8701 3.46777 15.2363 3.08398" fill="#EF7D00"/>
<path d="M13.9473 2.4834C13.9473 2.4834 13.833 2.56836 13.6953 2.5625C13.7305 2.70313 14.0176 2.59473 14.0176 2.59473C14.0176 2.59473 13.8799 2.75 13.7803 2.77344C13.8389 2.82324 14.0908 2.80566 14.1318 2.78223C14.1729 2.75586 14.249 2.65918 14.249 2.65918C14.249 2.65918 13.9912 2.95801 13.9561 2.95508C13.9473 2.99023 14.2227 2.97852 14.2783 2.92578C14.3369 2.87305 14.4834 2.79688 14.4834 2.79688C14.4834 2.79688 14.1025 3.06055 14.0879 3.06055C14.2285 3.0957 14.5127 3.01367 14.6943 2.90234C14.4248 3.08105 14.4014 3.11328 14.2637 3.1748C14.3867 3.20117 14.4482 3.2832 14.8584 3.10449C15.0928 2.99316 15.2275 2.78809 15.2275 2.78809C15.0487 2.99912 14.8346 3.17754 14.5947 3.31543C14.5801 3.34473 14.8701 3.46777 15.2363 3.08398" stroke="black" stroke-width="1.03125" stroke-linecap="round" stroke-linejoin="round"/>
<path fill-rule="evenodd" clip-rule="evenodd" d="M15.9375 3.3125C15.9375 3.3125 15.9639 3.42969 16.0635 3.51758C16.1631 3.60547 16.1689 3.69336 16.1689 3.69336M15.8906 2.55078C15.8906 2.55078 15.9229 2.65918 16.0254 2.72656C16.1309 2.79102 16.2891 3.00195 16.2979 3.04004C16.3096 3.08398 16.3711 3.40918 16.3652 3.44434M15.2578 2.71191C15.2637 2.75586 15.1113 2.95508 15.3223 3.19238C15.1289 3.42676 15.1289 3.45605 15.1289 3.45605C15.1289 3.45605 15.2373 3.51465 15.4277 3.35059C15.7441 3.7373 15.6387 3.91309 15.6387 3.91309" fill="#EF7D00"/>
<path d="M15.9375 3.3125C15.9375 3.3125 15.9639 3.42969 16.0635 3.51758C16.1631 3.60547 16.1689 3.69336 16.1689 3.69336M15.8906 2.55078C15.8906 2.55078 15.9229 2.65918 16.0254 2.72656C16.1309 2.79102 16.2891 3.00195 16.2979 3.04004C16.3096 3.08398 16.3711 3.40918 16.3652 3.44434M15.2578 2.71191C15.2637 2.75586 15.1113 2.95508 15.3223 3.19238C15.1289 3.42676 15.1289 3.45605 15.1289 3.45605C15.1289 3.45605 15.2373 3.51465 15.4277 3.35059C15.7441 3.7373 15.6387 3.91309 15.6387 3.91309" stroke="black" stroke-width="1.03125" stroke-linecap="round"/>
<path fill-rule="evenodd" clip-rule="evenodd" d="M15.6136 3.64062C15.6136 3.64062 15.5843 3.59961 15.637 3.44434C15.6839 3.50293 15.7366 3.51172 15.7571 3.53223C15.7806 3.55859 16.0208 3.59082 16.0325 3.75195" fill="#EF7D00"/>
<path d="M15.6136 3.64062C15.6136 3.64062 15.5843 3.59961 15.637 3.44434C15.6839 3.50293 15.7366 3.51172 15.7571 3.53223C15.7806 3.55859 16.0208 3.59082 16.0325 3.75195" stroke="black" stroke-width="1.03125" stroke-linecap="round" stroke-linejoin="round"/>
<path fill-rule="evenodd" clip-rule="evenodd" d="M15.8926 2.18457C15.8926 2.17286 15.8428 2.06739 15.6641 2.19629C15.7607 2.20215 15.8545 2.25782 15.8926 2.18457Z" fill="#EF7D00" stroke="black" stroke-width="1.03125"/>
<path fill-rule="evenodd" clip-rule="evenodd" d="M17.5986 2.65332C17.6074 2.65918 18.1318 2.77051 18.3076 2.71484C18.085 3.01367 17.6367 2.81152 17.6367 2.81152C17.8565 2.87598 17.8652 2.87012 17.9356 2.93457C17.959 2.99316 17.5313 2.96387 17.3936 2.88477C17.7832 3.00781 17.792 3.00195 17.8037 3.0459C17.8213 3.11328 17.165 3.02832 17.1094 2.94336C17.2852 3.07813 17.3789 3.10449 17.4756 3.16602C17.3584 3.21875 17.1387 3.27148 16.7373 2.9873C17.2647 3.46777 17.7422 3.43848 17.8184 3.52344C17.6338 3.7959 16.919 3.3623 16.5908 3.14258C16.2627 2.92285 17.3086 3.67285 17.4053 3.66113C17.3584 3.73438 17.0127 3.66992 16.9893 3.63184" fill="#EF7D00"/>
<path d="M17.5986 2.65332C17.6074 2.65918 18.1318 2.77051 18.3076 2.71484C18.085 3.01367 17.6367 2.81152 17.6367 2.81152C17.8565 2.87598 17.8652 2.87012 17.9356 2.93457C17.959 2.99316 17.5313 2.96387 17.3936 2.88477C17.7832 3.00781 17.792 3.00195 17.8037 3.0459C17.8213 3.11328 17.165 3.02832 17.1094 2.94336C17.2852 3.07813 17.3789 3.10449 17.4756 3.16602C17.3584 3.21875 17.1387 3.27148 16.7373 2.9873C17.2647 3.46777 17.7422 3.43848 17.8184 3.52344C17.6338 3.7959 16.919 3.3623 16.5908 3.14258C16.2627 2.92285 17.3086 3.67285 17.4053 3.66113C17.3584 3.73438 17.0127 3.66992 16.9893 3.63184" stroke="black" stroke-width="1.03125" stroke-linejoin="round"/>
<path fill-rule="evenodd" clip-rule="evenodd" d="M17.7344 3.15723C17.6758 3.16602 17.4912 3.16602 17.4648 3.16016L17.7344 3.15723Z" fill="#EF7D00"/>
<path d="M17.7344 3.15723C17.6758 3.16602 17.4912 3.16602 17.4648 3.16016" stroke="black" stroke-width="1.03125" stroke-linecap="round"/>
<path fill-rule="evenodd" clip-rule="evenodd" d="M13.7891 2.4043C13.7891 2.4043 14.1875 2.61523 14.3574 2.60059C14.325 2.62795 14.287 2.64794 14.2461 2.65918C14.2871 2.67676 14.4043 2.73828 14.5801 2.7002L14.4834 2.78809C14.4834 2.78809 14.6357 2.84668 14.8057 2.75879C14.7765 2.79353 14.7492 2.82971 14.7236 2.86719L14.8438 2.87598" fill="#EF7D00"/>
<path d="M13.7891 2.4043C13.7891 2.4043 14.1875 2.61523 14.3574 2.60059C14.325 2.62795 14.287 2.64794 14.2461 2.65918C14.2871 2.67676 14.4043 2.73828 14.5801 2.7002L14.4834 2.78809C14.4834 2.78809 14.6357 2.84668 14.8057 2.75879C14.7765 2.79353 14.7492 2.82971 14.7236 2.86719L14.8438 2.87598" stroke="black" stroke-width="1.03125" stroke-linecap="round" stroke-linejoin="round"/>
</g>
<defs>
<clipPath id="clip0_201_7039">
<rect width="20" height="15" fill="white" transform="translate(0 0.5)"/>
</clipPath>
</defs>
</svg>
